G04 #@! TF.GenerationSoftware,KiCad,Pcbnew,(5.1.7)-1*
G04 #@! TF.CreationDate,2020-11-21T17:16:51+01:00*
G04 #@! TF.ProjectId,nixie_clock,6e697869-655f-4636-9c6f-636b2e6b6963,100A*
G04 #@! TF.SameCoordinates,Original*
G04 #@! TF.FileFunction,Copper,L2,Bot*
G04 #@! TF.FilePolarity,Positive*
%FSLAX46Y46*%
G04 Gerber Fmt 4.6, Leading zero omitted, Abs format (unit mm)*
G04 Created by KiCad (PCBNEW (5.1.7)-1) date 2020-11-21 17:16:51*
%MOMM*%
%LPD*%
G01*
G04 APERTURE LIST*
G04 #@! TA.AperFunction,SMDPad,CuDef*
%ADD10R,1.803400X3.606800*%
G04 #@! TD*
G04 #@! TA.AperFunction,SMDPad,CuDef*
%ADD11R,3.500000X3.300000*%
G04 #@! TD*
G04 #@! TA.AperFunction,SMDPad,CuDef*
%ADD12C,10.000000*%
G04 #@! TD*
G04 #@! TA.AperFunction,ComponentPad*
%ADD13C,2.000000*%
G04 #@! TD*
G04 #@! TA.AperFunction,ComponentPad*
%ADD14R,2.000000X2.000000*%
G04 #@! TD*
G04 #@! TA.AperFunction,SMDPad,CuDef*
%ADD15R,2.500000X2.300000*%
G04 #@! TD*
G04 #@! TA.AperFunction,ComponentPad*
%ADD16O,1.700000X2.000000*%
G04 #@! TD*
G04 #@! TA.AperFunction,SMDPad,CuDef*
%ADD17R,0.600000X0.700000*%
G04 #@! TD*
G04 #@! TA.AperFunction,SMDPad,CuDef*
%ADD18R,0.450000X1.500000*%
G04 #@! TD*
G04 #@! TA.AperFunction,SMDPad,CuDef*
%ADD19R,0.600000X0.450000*%
G04 #@! TD*
G04 #@! TA.AperFunction,SMDPad,CuDef*
%ADD20R,0.800000X0.750000*%
G04 #@! TD*
G04 #@! TA.AperFunction,ComponentPad*
%ADD21C,3.000000*%
G04 #@! TD*
G04 #@! TA.AperFunction,SMDPad,CuDef*
%ADD22R,2.000000X1.500000*%
G04 #@! TD*
G04 #@! TA.AperFunction,SMDPad,CuDef*
%ADD23R,2.000000X3.800000*%
G04 #@! TD*
G04 #@! TA.AperFunction,ComponentPad*
%ADD24O,1.700000X1.700000*%
G04 #@! TD*
G04 #@! TA.AperFunction,ComponentPad*
%ADD25R,1.700000X1.700000*%
G04 #@! TD*
G04 #@! TA.AperFunction,SMDPad,CuDef*
%ADD26C,0.100000*%
G04 #@! TD*
G04 #@! TA.AperFunction,SMDPad,CuDef*
%ADD27C,0.787400*%
G04 #@! TD*
G04 #@! TA.AperFunction,SMDPad,CuDef*
%ADD28R,0.700000X0.600000*%
G04 #@! TD*
G04 #@! TA.AperFunction,ComponentPad*
%ADD29C,1.600000*%
G04 #@! TD*
G04 #@! TA.AperFunction,ComponentPad*
%ADD30R,1.600000X1.600000*%
G04 #@! TD*
G04 #@! TA.AperFunction,SMDPad,CuDef*
%ADD31R,1.500000X0.450000*%
G04 #@! TD*
G04 #@! TA.AperFunction,SMDPad,CuDef*
%ADD32R,1.550000X0.600000*%
G04 #@! TD*
G04 #@! TA.AperFunction,SMDPad,CuDef*
%ADD33R,0.900000X0.500000*%
G04 #@! TD*
G04 #@! TA.AperFunction,SMDPad,CuDef*
%ADD34R,0.500000X0.900000*%
G04 #@! TD*
G04 #@! TA.AperFunction,SMDPad,CuDef*
%ADD35R,0.700000X1.300000*%
G04 #@! TD*
G04 #@! TA.AperFunction,SMDPad,CuDef*
%ADD36R,0.900000X0.800000*%
G04 #@! TD*
G04 #@! TA.AperFunction,SMDPad,CuDef*
%ADD37R,0.800000X0.900000*%
G04 #@! TD*
G04 #@! TA.AperFunction,SMDPad,CuDef*
%ADD38C,1.000000*%
G04 #@! TD*
G04 #@! TA.AperFunction,SMDPad,CuDef*
%ADD39R,0.750000X0.800000*%
G04 #@! TD*
G04 #@! TA.AperFunction,SMDPad,CuDef*
%ADD40R,1.800000X1.000000*%
G04 #@! TD*
G04 #@! TA.AperFunction,SMDPad,CuDef*
%ADD41R,0.840000X0.940000*%
G04 #@! TD*
G04 #@! TA.AperFunction,SMDPad,CuDef*
%ADD42R,0.890000X0.420000*%
G04 #@! TD*
G04 #@! TA.AperFunction,SMDPad,CuDef*
%ADD43R,1.500000X1.600000*%
G04 #@! TD*
G04 #@! TA.AperFunction,SMDPad,CuDef*
%ADD44R,1.200000X1.200000*%
G04 #@! TD*
G04 #@! TA.AperFunction,SMDPad,CuDef*
%ADD45R,0.450000X0.600000*%
G04 #@! TD*
G04 #@! TA.AperFunction,SMDPad,CuDef*
%ADD46R,2.300000X2.500000*%
G04 #@! TD*
G04 #@! TA.AperFunction,SMDPad,CuDef*
%ADD47R,2.500000X1.950000*%
G04 #@! TD*
G04 #@! TA.AperFunction,SMDPad,CuDef*
%ADD48R,1.250000X1.000000*%
G04 #@! TD*
G04 #@! TA.AperFunction,SMDPad,CuDef*
%ADD49R,1.000000X2.500000*%
G04 #@! TD*
G04 #@! TA.AperFunction,SMDPad,CuDef*
%ADD50R,0.800000X1.600000*%
G04 #@! TD*
G04 #@! TA.AperFunction,SMDPad,CuDef*
%ADD51R,1.600000X1.000000*%
G04 #@! TD*
G04 #@! TA.AperFunction,ViaPad*
%ADD52C,0.800000*%
G04 #@! TD*
G04 #@! TA.AperFunction,Conductor*
%ADD53C,0.300000*%
G04 #@! TD*
G04 #@! TA.AperFunction,Conductor*
%ADD54C,0.150000*%
G04 #@! TD*
G04 #@! TA.AperFunction,Conductor*
%ADD55C,0.200000*%
G04 #@! TD*
G04 #@! TA.AperFunction,Conductor*
%ADD56C,0.500000*%
G04 #@! TD*
G04 #@! TA.AperFunction,Conductor*
%ADD57C,1.060000*%
G04 #@! TD*
G04 #@! TA.AperFunction,Conductor*
%ADD58C,0.700000*%
G04 #@! TD*
G04 #@! TA.AperFunction,Conductor*
%ADD59C,0.254000*%
G04 #@! TD*
G04 #@! TA.AperFunction,Conductor*
%ADD60C,0.100000*%
G04 #@! TD*
G04 APERTURE END LIST*
D10*
X192354200Y-88200000D03*
X201345800Y-88200000D03*
D11*
X181700000Y-34400000D03*
X197500000Y-34400000D03*
D12*
X189600000Y-34400000D03*
D13*
X85700000Y-82420000D03*
D14*
X85700000Y-87420000D03*
D15*
X236950000Y-70900000D03*
X241250000Y-70900000D03*
G04 #@! TA.AperFunction,ComponentPad*
G36*
G01*
X236750000Y-76050000D02*
X236750000Y-74550000D01*
G75*
G02*
X237000000Y-74300000I250000J0D01*
G01*
X238200000Y-74300000D01*
G75*
G02*
X238450000Y-74550000I0J-250000D01*
G01*
X238450000Y-76050000D01*
G75*
G02*
X238200000Y-76300000I-250000J0D01*
G01*
X237000000Y-76300000D01*
G75*
G02*
X236750000Y-76050000I0J250000D01*
G01*
G37*
G04 #@! TD.AperFunction*
D16*
X240100000Y-75300000D03*
D17*
X241600000Y-45800000D03*
X240200000Y-45800000D03*
X79000000Y-78900000D03*
X80400000Y-78900000D03*
D18*
X116075000Y-37850000D03*
X115425000Y-37850000D03*
X114775000Y-37850000D03*
X114125000Y-37850000D03*
X113475000Y-37850000D03*
X112825000Y-37850000D03*
X112175000Y-37850000D03*
X111525000Y-37850000D03*
X111525000Y-43750000D03*
X112175000Y-43750000D03*
X112825000Y-43750000D03*
X113475000Y-43750000D03*
X114125000Y-43750000D03*
X114775000Y-43750000D03*
X115425000Y-43750000D03*
X116075000Y-43750000D03*
D19*
X92950000Y-74300000D03*
X95050000Y-74300000D03*
D20*
X93250000Y-72500000D03*
X94750000Y-72500000D03*
D18*
X108775000Y-37850000D03*
X108125000Y-37850000D03*
X107475000Y-37850000D03*
X106825000Y-37850000D03*
X106175000Y-37850000D03*
X105525000Y-37850000D03*
X104875000Y-37850000D03*
X104225000Y-37850000D03*
X104225000Y-43750000D03*
X104875000Y-43750000D03*
X105525000Y-43750000D03*
X106175000Y-43750000D03*
X106825000Y-43750000D03*
X107475000Y-43750000D03*
X108125000Y-43750000D03*
X108775000Y-43750000D03*
D21*
X116990000Y-68990000D03*
X120990000Y-67990000D03*
X122740000Y-59990000D03*
X122740000Y-55490000D03*
X120990000Y-51990000D03*
X116990000Y-50990000D03*
X112990000Y-51990000D03*
X111240000Y-55490000D03*
X111240000Y-59990000D03*
X111240000Y-64490000D03*
X112990000Y-67990000D03*
X122740000Y-64490000D03*
D22*
X241850000Y-34300000D03*
X241850000Y-38900000D03*
X241850000Y-36600000D03*
D23*
X235550000Y-36600000D03*
D24*
X220580000Y-38910000D03*
X220580000Y-41450000D03*
X223120000Y-38910000D03*
X223120000Y-41450000D03*
X225660000Y-38910000D03*
X225660000Y-41450000D03*
X228200000Y-38910000D03*
X228200000Y-41450000D03*
X230740000Y-38910000D03*
D25*
X230740000Y-41450000D03*
G04 #@! TA.AperFunction,SMDPad,CuDef*
D26*
G36*
X143212652Y-31817678D02*
G01*
X142682322Y-31287348D01*
X143248008Y-30721662D01*
X143778338Y-31251992D01*
X143212652Y-31817678D01*
G37*
G04 #@! TD.AperFunction*
G04 #@! TA.AperFunction,SMDPad,CuDef*
G36*
X142151992Y-32878338D02*
G01*
X141621662Y-32348008D01*
X142187348Y-31782322D01*
X142717678Y-32312652D01*
X142151992Y-32878338D01*
G37*
G04 #@! TD.AperFunction*
D21*
X92990000Y-68990000D03*
X96990000Y-67990000D03*
X98740000Y-59990000D03*
X98740000Y-55490000D03*
X96990000Y-51990000D03*
X92990000Y-50990000D03*
X88990000Y-51990000D03*
X87240000Y-55490000D03*
X87240000Y-59990000D03*
X87240000Y-64490000D03*
X88990000Y-67990000D03*
X98740000Y-64490000D03*
D27*
X123630000Y-35165000D03*
X123630000Y-36435000D03*
X124900000Y-35165000D03*
X124900000Y-36435000D03*
X126170000Y-35165000D03*
X126170000Y-36435000D03*
D24*
X91280000Y-38900000D03*
X91280000Y-41440000D03*
X93820000Y-38900000D03*
X93820000Y-41440000D03*
X96360000Y-38900000D03*
X96360000Y-41440000D03*
X98900000Y-38900000D03*
X98900000Y-41440000D03*
X101440000Y-38900000D03*
D25*
X101440000Y-41440000D03*
D28*
X175280000Y-28840000D03*
X175280000Y-30240000D03*
D29*
X171660000Y-88980000D03*
D30*
X171660000Y-85480000D03*
D29*
X205050000Y-89950000D03*
D30*
X205050000Y-87450000D03*
D31*
X223450000Y-31075000D03*
X223450000Y-31725000D03*
X223450000Y-32375000D03*
X223450000Y-33025000D03*
X223450000Y-33675000D03*
X223450000Y-34325000D03*
X223450000Y-34975000D03*
X223450000Y-35625000D03*
X229350000Y-35625000D03*
X229350000Y-34975000D03*
X229350000Y-34325000D03*
X229350000Y-33675000D03*
X229350000Y-33025000D03*
X229350000Y-32375000D03*
X229350000Y-31725000D03*
X229350000Y-31075000D03*
D18*
X211475000Y-35550000D03*
X210825000Y-35550000D03*
X210175000Y-35550000D03*
X209525000Y-35550000D03*
X208875000Y-35550000D03*
X208225000Y-35550000D03*
X207575000Y-35550000D03*
X206925000Y-35550000D03*
X206925000Y-41450000D03*
X207575000Y-41450000D03*
X208225000Y-41450000D03*
X208875000Y-41450000D03*
X209525000Y-41450000D03*
X210175000Y-41450000D03*
X210825000Y-41450000D03*
X211475000Y-41450000D03*
X170175000Y-36800000D03*
X169525000Y-36800000D03*
X168875000Y-36800000D03*
X168225000Y-36800000D03*
X167575000Y-36800000D03*
X166925000Y-36800000D03*
X166275000Y-36800000D03*
X165625000Y-36800000D03*
X165625000Y-42700000D03*
X166275000Y-42700000D03*
X166925000Y-42700000D03*
X167575000Y-42700000D03*
X168225000Y-42700000D03*
X168875000Y-42700000D03*
X169525000Y-42700000D03*
X170175000Y-42700000D03*
X157775000Y-36800000D03*
X157125000Y-36800000D03*
X156475000Y-36800000D03*
X155825000Y-36800000D03*
X155175000Y-36800000D03*
X154525000Y-36800000D03*
X153875000Y-36800000D03*
X153225000Y-36800000D03*
X153225000Y-42700000D03*
X153875000Y-42700000D03*
X154525000Y-42700000D03*
X155175000Y-42700000D03*
X155825000Y-42700000D03*
X156475000Y-42700000D03*
X157125000Y-42700000D03*
X157775000Y-42700000D03*
D32*
X147660000Y-87385000D03*
X147660000Y-86115000D03*
X147660000Y-84845000D03*
X147660000Y-83575000D03*
X142260000Y-83575000D03*
X142260000Y-84845000D03*
X142260000Y-86115000D03*
X142260000Y-87385000D03*
D33*
X240900000Y-60750000D03*
X240900000Y-59250000D03*
G04 #@! TA.AperFunction,SMDPad,CuDef*
G36*
G01*
X233024999Y-73675000D02*
X233024999Y-74925000D01*
G75*
G02*
X232774999Y-75175000I-250000J0D01*
G01*
X232024999Y-75175000D01*
G75*
G02*
X231774999Y-74925000I0J250000D01*
G01*
X231774999Y-73675000D01*
G75*
G02*
X232024999Y-73425000I250000J0D01*
G01*
X232774999Y-73425000D01*
G75*
G02*
X233024999Y-73675000I0J-250000D01*
G01*
G37*
G04 #@! TD.AperFunction*
G04 #@! TA.AperFunction,SMDPad,CuDef*
G36*
G01*
X230224999Y-73675000D02*
X230224999Y-74925000D01*
G75*
G02*
X229974999Y-75175000I-250000J0D01*
G01*
X229224999Y-75175000D01*
G75*
G02*
X228974999Y-74925000I0J250000D01*
G01*
X228974999Y-73675000D01*
G75*
G02*
X229224999Y-73425000I250000J0D01*
G01*
X229974999Y-73425000D01*
G75*
G02*
X230224999Y-73675000I0J-250000D01*
G01*
G37*
G04 #@! TD.AperFunction*
X217900000Y-46100000D03*
X217900000Y-47600000D03*
X217100000Y-48750000D03*
X217100000Y-50250000D03*
X216250000Y-46100000D03*
X216250000Y-47600000D03*
X215400000Y-48750000D03*
X215400000Y-50250000D03*
X214550000Y-46100000D03*
X214550000Y-47600000D03*
X185000000Y-60750000D03*
X185000000Y-59250000D03*
G04 #@! TA.AperFunction,SMDPad,CuDef*
G36*
G01*
X176375000Y-74975000D02*
X177625000Y-74975000D01*
G75*
G02*
X177875000Y-75225000I0J-250000D01*
G01*
X177875000Y-75975000D01*
G75*
G02*
X177625000Y-76225000I-250000J0D01*
G01*
X176375000Y-76225000D01*
G75*
G02*
X176125000Y-75975000I0J250000D01*
G01*
X176125000Y-75225000D01*
G75*
G02*
X176375000Y-74975000I250000J0D01*
G01*
G37*
G04 #@! TD.AperFunction*
G04 #@! TA.AperFunction,SMDPad,CuDef*
G36*
G01*
X176375000Y-77775000D02*
X177625000Y-77775000D01*
G75*
G02*
X177875000Y-78025000I0J-250000D01*
G01*
X177875000Y-78775000D01*
G75*
G02*
X177625000Y-79025000I-250000J0D01*
G01*
X176375000Y-79025000D01*
G75*
G02*
X176125000Y-78775000I0J250000D01*
G01*
X176125000Y-78025000D01*
G75*
G02*
X176375000Y-77775000I250000J0D01*
G01*
G37*
G04 #@! TD.AperFunction*
X161900000Y-46100000D03*
X161900000Y-47600000D03*
X161050000Y-48750000D03*
X161050000Y-50250000D03*
X160200000Y-46100000D03*
X160200000Y-47600000D03*
X159350000Y-48750000D03*
X159350000Y-50250000D03*
X158500000Y-46100000D03*
X158500000Y-47600000D03*
D34*
X93250000Y-76200000D03*
X94750000Y-76200000D03*
G04 #@! TA.AperFunction,SMDPad,CuDef*
G36*
G01*
X100125000Y-73675000D02*
X100125000Y-74925000D01*
G75*
G02*
X99875000Y-75175000I-250000J0D01*
G01*
X99125000Y-75175000D01*
G75*
G02*
X98875000Y-74925000I0J250000D01*
G01*
X98875000Y-73675000D01*
G75*
G02*
X99125000Y-73425000I250000J0D01*
G01*
X99875000Y-73425000D01*
G75*
G02*
X100125000Y-73675000I0J-250000D01*
G01*
G37*
G04 #@! TD.AperFunction*
G04 #@! TA.AperFunction,SMDPad,CuDef*
G36*
G01*
X97325000Y-73675000D02*
X97325000Y-74925000D01*
G75*
G02*
X97075000Y-75175000I-250000J0D01*
G01*
X96325000Y-75175000D01*
G75*
G02*
X96075000Y-74925000I0J250000D01*
G01*
X96075000Y-73675000D01*
G75*
G02*
X96325000Y-73425000I250000J0D01*
G01*
X97075000Y-73425000D01*
G75*
G02*
X97325000Y-73675000I0J-250000D01*
G01*
G37*
G04 #@! TD.AperFunction*
X185100000Y-48650000D03*
X186600000Y-48650000D03*
D33*
X152360000Y-89030000D03*
X152360000Y-87530000D03*
G04 #@! TA.AperFunction,SMDPad,CuDef*
G36*
G01*
X151735000Y-82555000D02*
X152985000Y-82555000D01*
G75*
G02*
X153235000Y-82805000I0J-250000D01*
G01*
X153235000Y-83555000D01*
G75*
G02*
X152985000Y-83805000I-250000J0D01*
G01*
X151735000Y-83805000D01*
G75*
G02*
X151485000Y-83555000I0J250000D01*
G01*
X151485000Y-82805000D01*
G75*
G02*
X151735000Y-82555000I250000J0D01*
G01*
G37*
G04 #@! TD.AperFunction*
G04 #@! TA.AperFunction,SMDPad,CuDef*
G36*
G01*
X151735000Y-85355000D02*
X152985000Y-85355000D01*
G75*
G02*
X153235000Y-85605000I0J-250000D01*
G01*
X153235000Y-86355000D01*
G75*
G02*
X152985000Y-86605000I-250000J0D01*
G01*
X151735000Y-86605000D01*
G75*
G02*
X151485000Y-86355000I0J250000D01*
G01*
X151485000Y-85605000D01*
G75*
G02*
X151735000Y-85355000I250000J0D01*
G01*
G37*
G04 #@! TD.AperFunction*
D35*
X187510000Y-92680000D03*
X189410000Y-92680000D03*
G04 #@! TA.AperFunction,SMDPad,CuDef*
G36*
G01*
X134875000Y-79025000D02*
X133625000Y-79025000D01*
G75*
G02*
X133375000Y-78775000I0J250000D01*
G01*
X133375000Y-78025000D01*
G75*
G02*
X133625000Y-77775000I250000J0D01*
G01*
X134875000Y-77775000D01*
G75*
G02*
X135125000Y-78025000I0J-250000D01*
G01*
X135125000Y-78775000D01*
G75*
G02*
X134875000Y-79025000I-250000J0D01*
G01*
G37*
G04 #@! TD.AperFunction*
G04 #@! TA.AperFunction,SMDPad,CuDef*
G36*
G01*
X134875000Y-76225000D02*
X133625000Y-76225000D01*
G75*
G02*
X133375000Y-75975000I0J250000D01*
G01*
X133375000Y-75225000D01*
G75*
G02*
X133625000Y-74975000I250000J0D01*
G01*
X134875000Y-74975000D01*
G75*
G02*
X135125000Y-75225000I0J-250000D01*
G01*
X135125000Y-75975000D01*
G75*
G02*
X134875000Y-76225000I-250000J0D01*
G01*
G37*
G04 #@! TD.AperFunction*
D34*
X133750000Y-46850000D03*
X132250000Y-46850000D03*
X137710000Y-87680000D03*
X136210000Y-87680000D03*
G04 #@! TA.AperFunction,SMDPad,CuDef*
G36*
G01*
X140585000Y-87105000D02*
X139335000Y-87105000D01*
G75*
G02*
X139085000Y-86855000I0J250000D01*
G01*
X139085000Y-86105000D01*
G75*
G02*
X139335000Y-85855000I250000J0D01*
G01*
X140585000Y-85855000D01*
G75*
G02*
X140835000Y-86105000I0J-250000D01*
G01*
X140835000Y-86855000D01*
G75*
G02*
X140585000Y-87105000I-250000J0D01*
G01*
G37*
G04 #@! TD.AperFunction*
G04 #@! TA.AperFunction,SMDPad,CuDef*
G36*
G01*
X140585000Y-84305000D02*
X139335000Y-84305000D01*
G75*
G02*
X139085000Y-84055000I0J250000D01*
G01*
X139085000Y-83305000D01*
G75*
G02*
X139335000Y-83055000I250000J0D01*
G01*
X140585000Y-83055000D01*
G75*
G02*
X140835000Y-83305000I0J-250000D01*
G01*
X140835000Y-84055000D01*
G75*
G02*
X140585000Y-84305000I-250000J0D01*
G01*
G37*
G04 #@! TD.AperFunction*
D36*
X239300000Y-62450000D03*
X239300000Y-64350000D03*
X237300000Y-63400000D03*
X239300000Y-59050000D03*
X239300000Y-60950000D03*
X237300000Y-60000000D03*
X239300000Y-55650000D03*
X239300000Y-57550000D03*
X237300000Y-56600000D03*
X239300000Y-52250000D03*
X239300000Y-54150000D03*
X237300000Y-53200000D03*
X218700000Y-54150000D03*
X218700000Y-52250000D03*
X220700000Y-53200000D03*
X218700000Y-57550000D03*
X218700000Y-55650000D03*
X220700000Y-56600000D03*
X218700000Y-60950000D03*
X218700000Y-59050000D03*
X220700000Y-60000000D03*
X215300000Y-65850000D03*
X215300000Y-67750000D03*
X213300000Y-66800000D03*
X215300000Y-62450000D03*
X215300000Y-64350000D03*
X213300000Y-63400000D03*
X215300000Y-59050000D03*
X215300000Y-60950000D03*
X213300000Y-60000000D03*
X215300000Y-55650000D03*
X215300000Y-57550000D03*
X213300000Y-56600000D03*
X183400000Y-62450000D03*
X183400000Y-64350000D03*
X181400000Y-63400000D03*
X183400000Y-59050000D03*
X183400000Y-60950000D03*
X181400000Y-60000000D03*
X183400000Y-55650000D03*
X183400000Y-57550000D03*
X181400000Y-56600000D03*
X183400000Y-52250000D03*
X183400000Y-54150000D03*
X181400000Y-53200000D03*
X162850000Y-54150000D03*
X162850000Y-52250000D03*
X164850000Y-53200000D03*
X162850000Y-57550000D03*
X162850000Y-55650000D03*
X164850000Y-56600000D03*
X162850000Y-60950000D03*
X162850000Y-59050000D03*
X164850000Y-60000000D03*
X159250000Y-65850000D03*
X159250000Y-67750000D03*
X157250000Y-66800000D03*
X159250000Y-62450000D03*
X159250000Y-64350000D03*
X157250000Y-63400000D03*
X159250000Y-59050000D03*
X159250000Y-60950000D03*
X157250000Y-60000000D03*
X159250000Y-55650000D03*
X159250000Y-57550000D03*
X157250000Y-56600000D03*
D37*
X188050000Y-48650000D03*
X189950000Y-48650000D03*
X189000000Y-50650000D03*
D22*
X189410000Y-85880000D03*
X189410000Y-90480000D03*
X189410000Y-88180000D03*
D23*
X183110000Y-88180000D03*
D37*
X132050000Y-48450000D03*
X133950000Y-48450000D03*
X133000000Y-50450000D03*
D38*
X242460000Y-91710000D03*
X78900000Y-27730000D03*
D39*
X150060000Y-84930000D03*
X150060000Y-83430000D03*
D24*
X101440000Y-81080000D03*
X101440000Y-78540000D03*
X98900000Y-81080000D03*
X98900000Y-78540000D03*
X96360000Y-81080000D03*
X96360000Y-78540000D03*
X93820000Y-81080000D03*
X93820000Y-78540000D03*
X91280000Y-81080000D03*
D25*
X91280000Y-78540000D03*
D24*
X230730000Y-81090000D03*
X230730000Y-78550000D03*
X228190000Y-81090000D03*
X228190000Y-78550000D03*
X225650000Y-81090000D03*
X225650000Y-78550000D03*
X223110000Y-81090000D03*
X223110000Y-78550000D03*
X220570000Y-81090000D03*
D25*
X220570000Y-78550000D03*
D40*
X164510000Y-30650000D03*
X164510000Y-33150000D03*
G04 #@! TA.AperFunction,SMDPad,CuDef*
G36*
G01*
X171455000Y-28720000D02*
X171155000Y-28720000D01*
G75*
G02*
X171005000Y-28570000I0J150000D01*
G01*
X171005000Y-26920000D01*
G75*
G02*
X171155000Y-26770000I150000J0D01*
G01*
X171455000Y-26770000D01*
G75*
G02*
X171605000Y-26920000I0J-150000D01*
G01*
X171605000Y-28570000D01*
G75*
G02*
X171455000Y-28720000I-150000J0D01*
G01*
G37*
G04 #@! TD.AperFunction*
G04 #@! TA.AperFunction,SMDPad,CuDef*
G36*
G01*
X170185000Y-28720000D02*
X169885000Y-28720000D01*
G75*
G02*
X169735000Y-28570000I0J150000D01*
G01*
X169735000Y-26920000D01*
G75*
G02*
X169885000Y-26770000I150000J0D01*
G01*
X170185000Y-26770000D01*
G75*
G02*
X170335000Y-26920000I0J-150000D01*
G01*
X170335000Y-28570000D01*
G75*
G02*
X170185000Y-28720000I-150000J0D01*
G01*
G37*
G04 #@! TD.AperFunction*
G04 #@! TA.AperFunction,SMDPad,CuDef*
G36*
G01*
X168915000Y-28720000D02*
X168615000Y-28720000D01*
G75*
G02*
X168465000Y-28570000I0J150000D01*
G01*
X168465000Y-26920000D01*
G75*
G02*
X168615000Y-26770000I150000J0D01*
G01*
X168915000Y-26770000D01*
G75*
G02*
X169065000Y-26920000I0J-150000D01*
G01*
X169065000Y-28570000D01*
G75*
G02*
X168915000Y-28720000I-150000J0D01*
G01*
G37*
G04 #@! TD.AperFunction*
G04 #@! TA.AperFunction,SMDPad,CuDef*
G36*
G01*
X167645000Y-28720000D02*
X167345000Y-28720000D01*
G75*
G02*
X167195000Y-28570000I0J150000D01*
G01*
X167195000Y-26920000D01*
G75*
G02*
X167345000Y-26770000I150000J0D01*
G01*
X167645000Y-26770000D01*
G75*
G02*
X167795000Y-26920000I0J-150000D01*
G01*
X167795000Y-28570000D01*
G75*
G02*
X167645000Y-28720000I-150000J0D01*
G01*
G37*
G04 #@! TD.AperFunction*
G04 #@! TA.AperFunction,SMDPad,CuDef*
G36*
G01*
X167645000Y-33670000D02*
X167345000Y-33670000D01*
G75*
G02*
X167195000Y-33520000I0J150000D01*
G01*
X167195000Y-31870000D01*
G75*
G02*
X167345000Y-31720000I150000J0D01*
G01*
X167645000Y-31720000D01*
G75*
G02*
X167795000Y-31870000I0J-150000D01*
G01*
X167795000Y-33520000D01*
G75*
G02*
X167645000Y-33670000I-150000J0D01*
G01*
G37*
G04 #@! TD.AperFunction*
G04 #@! TA.AperFunction,SMDPad,CuDef*
G36*
G01*
X168915000Y-33670000D02*
X168615000Y-33670000D01*
G75*
G02*
X168465000Y-33520000I0J150000D01*
G01*
X168465000Y-31870000D01*
G75*
G02*
X168615000Y-31720000I150000J0D01*
G01*
X168915000Y-31720000D01*
G75*
G02*
X169065000Y-31870000I0J-150000D01*
G01*
X169065000Y-33520000D01*
G75*
G02*
X168915000Y-33670000I-150000J0D01*
G01*
G37*
G04 #@! TD.AperFunction*
G04 #@! TA.AperFunction,SMDPad,CuDef*
G36*
G01*
X170185000Y-33670000D02*
X169885000Y-33670000D01*
G75*
G02*
X169735000Y-33520000I0J150000D01*
G01*
X169735000Y-31870000D01*
G75*
G02*
X169885000Y-31720000I150000J0D01*
G01*
X170185000Y-31720000D01*
G75*
G02*
X170335000Y-31870000I0J-150000D01*
G01*
X170335000Y-33520000D01*
G75*
G02*
X170185000Y-33670000I-150000J0D01*
G01*
G37*
G04 #@! TD.AperFunction*
G04 #@! TA.AperFunction,SMDPad,CuDef*
G36*
G01*
X171455000Y-33670000D02*
X171155000Y-33670000D01*
G75*
G02*
X171005000Y-33520000I0J150000D01*
G01*
X171005000Y-31870000D01*
G75*
G02*
X171155000Y-31720000I150000J0D01*
G01*
X171455000Y-31720000D01*
G75*
G02*
X171605000Y-31870000I0J-150000D01*
G01*
X171605000Y-33520000D01*
G75*
G02*
X171455000Y-33670000I-150000J0D01*
G01*
G37*
G04 #@! TD.AperFunction*
D20*
X160650000Y-30650000D03*
X162150000Y-30650000D03*
X160650000Y-33150000D03*
X162150000Y-33150000D03*
D40*
X144060000Y-36730000D03*
X144060000Y-34230000D03*
D37*
X133410000Y-27680000D03*
X133410000Y-26280000D03*
X132310000Y-26280000D03*
X132310000Y-27680000D03*
G04 #@! TA.AperFunction,SMDPad,CuDef*
D26*
G36*
X136114951Y-35364062D02*
G01*
X135328295Y-36150718D01*
X134541639Y-35364062D01*
X135328295Y-34577406D01*
X136114951Y-35364062D01*
G37*
G04 #@! TD.AperFunction*
G04 #@! TA.AperFunction,SMDPad,CuDef*
G36*
X135328295Y-36150718D02*
G01*
X134541639Y-36937374D01*
X133754983Y-36150718D01*
X134541639Y-35364062D01*
X135328295Y-36150718D01*
G37*
G04 #@! TD.AperFunction*
G04 #@! TA.AperFunction,SMDPad,CuDef*
G36*
X134541638Y-36937375D02*
G01*
X133754982Y-37724031D01*
X132968326Y-36937375D01*
X133754982Y-36150719D01*
X134541638Y-36937375D01*
G37*
G04 #@! TD.AperFunction*
G04 #@! TA.AperFunction,SMDPad,CuDef*
G36*
X133754982Y-37724031D02*
G01*
X132968326Y-38510687D01*
X132181670Y-37724031D01*
X132968326Y-36937375D01*
X133754982Y-37724031D01*
G37*
G04 #@! TD.AperFunction*
G04 #@! TA.AperFunction,SMDPad,CuDef*
G36*
X135328295Y-34577406D02*
G01*
X134541639Y-35364062D01*
X133754983Y-34577406D01*
X134541639Y-33790750D01*
X135328295Y-34577406D01*
G37*
G04 #@! TD.AperFunction*
G04 #@! TA.AperFunction,SMDPad,CuDef*
G36*
X134541638Y-35364062D02*
G01*
X133754982Y-36150718D01*
X132968326Y-35364062D01*
X133754982Y-34577406D01*
X134541638Y-35364062D01*
G37*
G04 #@! TD.AperFunction*
G04 #@! TA.AperFunction,SMDPad,CuDef*
G36*
X133754982Y-36150718D02*
G01*
X132968326Y-36937374D01*
X132181670Y-36150718D01*
X132968326Y-35364062D01*
X133754982Y-36150718D01*
G37*
G04 #@! TD.AperFunction*
G04 #@! TA.AperFunction,SMDPad,CuDef*
G36*
X132968326Y-36937375D02*
G01*
X132181670Y-37724031D01*
X131395014Y-36937375D01*
X132181670Y-36150719D01*
X132968326Y-36937375D01*
G37*
G04 #@! TD.AperFunction*
G04 #@! TA.AperFunction,SMDPad,CuDef*
G36*
X134541638Y-33790749D02*
G01*
X133754982Y-34577405D01*
X132968326Y-33790749D01*
X133754982Y-33004093D01*
X134541638Y-33790749D01*
G37*
G04 #@! TD.AperFunction*
G04 #@! TA.AperFunction,SMDPad,CuDef*
G36*
X133754982Y-34577406D02*
G01*
X132968326Y-35364062D01*
X132181670Y-34577406D01*
X132968326Y-33790750D01*
X133754982Y-34577406D01*
G37*
G04 #@! TD.AperFunction*
G04 #@! TA.AperFunction,SMDPad,CuDef*
G36*
X132968326Y-35364062D02*
G01*
X132181670Y-36150718D01*
X131395014Y-35364062D01*
X132181670Y-34577406D01*
X132968326Y-35364062D01*
G37*
G04 #@! TD.AperFunction*
G04 #@! TA.AperFunction,SMDPad,CuDef*
G36*
X132181669Y-36150718D02*
G01*
X131395013Y-36937374D01*
X130608357Y-36150718D01*
X131395013Y-35364062D01*
X132181669Y-36150718D01*
G37*
G04 #@! TD.AperFunction*
G04 #@! TA.AperFunction,SMDPad,CuDef*
G36*
X133754982Y-33004093D02*
G01*
X132968326Y-33790749D01*
X132181670Y-33004093D01*
X132968326Y-32217437D01*
X133754982Y-33004093D01*
G37*
G04 #@! TD.AperFunction*
G04 #@! TA.AperFunction,SMDPad,CuDef*
G36*
X132968326Y-33790749D02*
G01*
X132181670Y-34577405D01*
X131395014Y-33790749D01*
X132181670Y-33004093D01*
X132968326Y-33790749D01*
G37*
G04 #@! TD.AperFunction*
G04 #@! TA.AperFunction,SMDPad,CuDef*
G36*
X132181669Y-34577406D02*
G01*
X131395013Y-35364062D01*
X130608357Y-34577406D01*
X131395013Y-33790750D01*
X132181669Y-34577406D01*
G37*
G04 #@! TD.AperFunction*
G04 #@! TA.AperFunction,SMDPad,CuDef*
G36*
X131395013Y-35364062D02*
G01*
X130608357Y-36150718D01*
X129821701Y-35364062D01*
X130608357Y-34577406D01*
X131395013Y-35364062D01*
G37*
G04 #@! TD.AperFunction*
G04 #@! TA.AperFunction,SMDPad,CuDef*
G36*
X136433149Y-35151930D02*
G01*
X136291728Y-35010509D01*
X136857413Y-34444824D01*
X136998834Y-34586245D01*
X136433149Y-35151930D01*
G37*
G04 #@! TD.AperFunction*
G04 #@! TA.AperFunction,SMDPad,CuDef*
G36*
X136150307Y-34869087D02*
G01*
X136008886Y-34727666D01*
X136574571Y-34161981D01*
X136715992Y-34303402D01*
X136150307Y-34869087D01*
G37*
G04 #@! TD.AperFunction*
G04 #@! TA.AperFunction,SMDPad,CuDef*
G36*
X135867464Y-34586244D02*
G01*
X135726043Y-34444823D01*
X136291728Y-33879138D01*
X136433149Y-34020559D01*
X135867464Y-34586244D01*
G37*
G04 #@! TD.AperFunction*
G04 #@! TA.AperFunction,SMDPad,CuDef*
G36*
X135584621Y-34303401D02*
G01*
X135443200Y-34161980D01*
X136008885Y-33596295D01*
X136150306Y-33737716D01*
X135584621Y-34303401D01*
G37*
G04 #@! TD.AperFunction*
G04 #@! TA.AperFunction,SMDPad,CuDef*
G36*
X135301778Y-34020559D02*
G01*
X135160357Y-33879138D01*
X135726042Y-33313453D01*
X135867463Y-33454874D01*
X135301778Y-34020559D01*
G37*
G04 #@! TD.AperFunction*
G04 #@! TA.AperFunction,SMDPad,CuDef*
G36*
X135018936Y-33737716D02*
G01*
X134877515Y-33596295D01*
X135443200Y-33030610D01*
X135584621Y-33172031D01*
X135018936Y-33737716D01*
G37*
G04 #@! TD.AperFunction*
G04 #@! TA.AperFunction,SMDPad,CuDef*
G36*
X134736093Y-33454873D02*
G01*
X134594672Y-33313452D01*
X135160357Y-32747767D01*
X135301778Y-32889188D01*
X134736093Y-33454873D01*
G37*
G04 #@! TD.AperFunction*
G04 #@! TA.AperFunction,SMDPad,CuDef*
G36*
X134453250Y-33172031D02*
G01*
X134311829Y-33030610D01*
X134877514Y-32464925D01*
X135018935Y-32606346D01*
X134453250Y-33172031D01*
G37*
G04 #@! TD.AperFunction*
G04 #@! TA.AperFunction,SMDPad,CuDef*
G36*
X134170408Y-32889188D02*
G01*
X134028987Y-32747767D01*
X134594672Y-32182082D01*
X134736093Y-32323503D01*
X134170408Y-32889188D01*
G37*
G04 #@! TD.AperFunction*
G04 #@! TA.AperFunction,SMDPad,CuDef*
G36*
X133887565Y-32606345D02*
G01*
X133746144Y-32464924D01*
X134311829Y-31899239D01*
X134453250Y-32040660D01*
X133887565Y-32606345D01*
G37*
G04 #@! TD.AperFunction*
G04 #@! TA.AperFunction,SMDPad,CuDef*
G36*
X133604722Y-32323502D02*
G01*
X133463301Y-32182081D01*
X134028986Y-31616396D01*
X134170407Y-31757817D01*
X133604722Y-32323502D01*
G37*
G04 #@! TD.AperFunction*
G04 #@! TA.AperFunction,SMDPad,CuDef*
G36*
X133321879Y-32040660D02*
G01*
X133180458Y-31899239D01*
X133746143Y-31333554D01*
X133887564Y-31474975D01*
X133321879Y-32040660D01*
G37*
G04 #@! TD.AperFunction*
G04 #@! TA.AperFunction,SMDPad,CuDef*
G36*
X132756194Y-31899239D02*
G01*
X132614773Y-32040660D01*
X132049088Y-31474975D01*
X132190509Y-31333554D01*
X132756194Y-31899239D01*
G37*
G04 #@! TD.AperFunction*
G04 #@! TA.AperFunction,SMDPad,CuDef*
G36*
X132473351Y-32182081D02*
G01*
X132331930Y-32323502D01*
X131766245Y-31757817D01*
X131907666Y-31616396D01*
X132473351Y-32182081D01*
G37*
G04 #@! TD.AperFunction*
G04 #@! TA.AperFunction,SMDPad,CuDef*
G36*
X132190508Y-32464924D02*
G01*
X132049087Y-32606345D01*
X131483402Y-32040660D01*
X131624823Y-31899239D01*
X132190508Y-32464924D01*
G37*
G04 #@! TD.AperFunction*
G04 #@! TA.AperFunction,SMDPad,CuDef*
G36*
X131907665Y-32747767D02*
G01*
X131766244Y-32889188D01*
X131200559Y-32323503D01*
X131341980Y-32182082D01*
X131907665Y-32747767D01*
G37*
G04 #@! TD.AperFunction*
G04 #@! TA.AperFunction,SMDPad,CuDef*
G36*
X131624823Y-33030610D02*
G01*
X131483402Y-33172031D01*
X130917717Y-32606346D01*
X131059138Y-32464925D01*
X131624823Y-33030610D01*
G37*
G04 #@! TD.AperFunction*
G04 #@! TA.AperFunction,SMDPad,CuDef*
G36*
X131341980Y-33313452D02*
G01*
X131200559Y-33454873D01*
X130634874Y-32889188D01*
X130776295Y-32747767D01*
X131341980Y-33313452D01*
G37*
G04 #@! TD.AperFunction*
G04 #@! TA.AperFunction,SMDPad,CuDef*
G36*
X131059137Y-33596295D02*
G01*
X130917716Y-33737716D01*
X130352031Y-33172031D01*
X130493452Y-33030610D01*
X131059137Y-33596295D01*
G37*
G04 #@! TD.AperFunction*
G04 #@! TA.AperFunction,SMDPad,CuDef*
G36*
X130776295Y-33879138D02*
G01*
X130634874Y-34020559D01*
X130069189Y-33454874D01*
X130210610Y-33313453D01*
X130776295Y-33879138D01*
G37*
G04 #@! TD.AperFunction*
G04 #@! TA.AperFunction,SMDPad,CuDef*
G36*
X130493452Y-34161980D02*
G01*
X130352031Y-34303401D01*
X129786346Y-33737716D01*
X129927767Y-33596295D01*
X130493452Y-34161980D01*
G37*
G04 #@! TD.AperFunction*
G04 #@! TA.AperFunction,SMDPad,CuDef*
G36*
X130210609Y-34444823D02*
G01*
X130069188Y-34586244D01*
X129503503Y-34020559D01*
X129644924Y-33879138D01*
X130210609Y-34444823D01*
G37*
G04 #@! TD.AperFunction*
G04 #@! TA.AperFunction,SMDPad,CuDef*
G36*
X129927766Y-34727666D02*
G01*
X129786345Y-34869087D01*
X129220660Y-34303402D01*
X129362081Y-34161981D01*
X129927766Y-34727666D01*
G37*
G04 #@! TD.AperFunction*
G04 #@! TA.AperFunction,SMDPad,CuDef*
G36*
X129644924Y-35010509D02*
G01*
X129503503Y-35151930D01*
X128937818Y-34586245D01*
X129079239Y-34444824D01*
X129644924Y-35010509D01*
G37*
G04 #@! TD.AperFunction*
G04 #@! TA.AperFunction,SMDPad,CuDef*
G36*
X129079239Y-36283300D02*
G01*
X128937818Y-36141879D01*
X129503503Y-35576194D01*
X129644924Y-35717615D01*
X129079239Y-36283300D01*
G37*
G04 #@! TD.AperFunction*
G04 #@! TA.AperFunction,SMDPad,CuDef*
G36*
X129362081Y-36566143D02*
G01*
X129220660Y-36424722D01*
X129786345Y-35859037D01*
X129927766Y-36000458D01*
X129362081Y-36566143D01*
G37*
G04 #@! TD.AperFunction*
G04 #@! TA.AperFunction,SMDPad,CuDef*
G36*
X129644924Y-36848986D02*
G01*
X129503503Y-36707565D01*
X130069188Y-36141880D01*
X130210609Y-36283301D01*
X129644924Y-36848986D01*
G37*
G04 #@! TD.AperFunction*
G04 #@! TA.AperFunction,SMDPad,CuDef*
G36*
X129927767Y-37131829D02*
G01*
X129786346Y-36990408D01*
X130352031Y-36424723D01*
X130493452Y-36566144D01*
X129927767Y-37131829D01*
G37*
G04 #@! TD.AperFunction*
G04 #@! TA.AperFunction,SMDPad,CuDef*
G36*
X130210610Y-37414671D02*
G01*
X130069189Y-37273250D01*
X130634874Y-36707565D01*
X130776295Y-36848986D01*
X130210610Y-37414671D01*
G37*
G04 #@! TD.AperFunction*
G04 #@! TA.AperFunction,SMDPad,CuDef*
G36*
X130493452Y-37697514D02*
G01*
X130352031Y-37556093D01*
X130917716Y-36990408D01*
X131059137Y-37131829D01*
X130493452Y-37697514D01*
G37*
G04 #@! TD.AperFunction*
G04 #@! TA.AperFunction,SMDPad,CuDef*
G36*
X130776295Y-37980357D02*
G01*
X130634874Y-37838936D01*
X131200559Y-37273251D01*
X131341980Y-37414672D01*
X130776295Y-37980357D01*
G37*
G04 #@! TD.AperFunction*
G04 #@! TA.AperFunction,SMDPad,CuDef*
G36*
X131059138Y-38263199D02*
G01*
X130917717Y-38121778D01*
X131483402Y-37556093D01*
X131624823Y-37697514D01*
X131059138Y-38263199D01*
G37*
G04 #@! TD.AperFunction*
G04 #@! TA.AperFunction,SMDPad,CuDef*
G36*
X131341980Y-38546042D02*
G01*
X131200559Y-38404621D01*
X131766244Y-37838936D01*
X131907665Y-37980357D01*
X131341980Y-38546042D01*
G37*
G04 #@! TD.AperFunction*
G04 #@! TA.AperFunction,SMDPad,CuDef*
G36*
X131624823Y-38828885D02*
G01*
X131483402Y-38687464D01*
X132049087Y-38121779D01*
X132190508Y-38263200D01*
X131624823Y-38828885D01*
G37*
G04 #@! TD.AperFunction*
G04 #@! TA.AperFunction,SMDPad,CuDef*
G36*
X131907666Y-39111728D02*
G01*
X131766245Y-38970307D01*
X132331930Y-38404622D01*
X132473351Y-38546043D01*
X131907666Y-39111728D01*
G37*
G04 #@! TD.AperFunction*
G04 #@! TA.AperFunction,SMDPad,CuDef*
G36*
X132190509Y-39394570D02*
G01*
X132049088Y-39253149D01*
X132614773Y-38687464D01*
X132756194Y-38828885D01*
X132190509Y-39394570D01*
G37*
G04 #@! TD.AperFunction*
G04 #@! TA.AperFunction,SMDPad,CuDef*
G36*
X133887564Y-39253149D02*
G01*
X133746143Y-39394570D01*
X133180458Y-38828885D01*
X133321879Y-38687464D01*
X133887564Y-39253149D01*
G37*
G04 #@! TD.AperFunction*
G04 #@! TA.AperFunction,SMDPad,CuDef*
G36*
X134170407Y-38970307D02*
G01*
X134028986Y-39111728D01*
X133463301Y-38546043D01*
X133604722Y-38404622D01*
X134170407Y-38970307D01*
G37*
G04 #@! TD.AperFunction*
G04 #@! TA.AperFunction,SMDPad,CuDef*
G36*
X134453250Y-38687464D02*
G01*
X134311829Y-38828885D01*
X133746144Y-38263200D01*
X133887565Y-38121779D01*
X134453250Y-38687464D01*
G37*
G04 #@! TD.AperFunction*
G04 #@! TA.AperFunction,SMDPad,CuDef*
G36*
X134736093Y-38404621D02*
G01*
X134594672Y-38546042D01*
X134028987Y-37980357D01*
X134170408Y-37838936D01*
X134736093Y-38404621D01*
G37*
G04 #@! TD.AperFunction*
G04 #@! TA.AperFunction,SMDPad,CuDef*
G36*
X135018935Y-38121778D02*
G01*
X134877514Y-38263199D01*
X134311829Y-37697514D01*
X134453250Y-37556093D01*
X135018935Y-38121778D01*
G37*
G04 #@! TD.AperFunction*
G04 #@! TA.AperFunction,SMDPad,CuDef*
G36*
X135301778Y-37838936D02*
G01*
X135160357Y-37980357D01*
X134594672Y-37414672D01*
X134736093Y-37273251D01*
X135301778Y-37838936D01*
G37*
G04 #@! TD.AperFunction*
G04 #@! TA.AperFunction,SMDPad,CuDef*
G36*
X135584621Y-37556093D02*
G01*
X135443200Y-37697514D01*
X134877515Y-37131829D01*
X135018936Y-36990408D01*
X135584621Y-37556093D01*
G37*
G04 #@! TD.AperFunction*
G04 #@! TA.AperFunction,SMDPad,CuDef*
G36*
X135867463Y-37273250D02*
G01*
X135726042Y-37414671D01*
X135160357Y-36848986D01*
X135301778Y-36707565D01*
X135867463Y-37273250D01*
G37*
G04 #@! TD.AperFunction*
G04 #@! TA.AperFunction,SMDPad,CuDef*
G36*
X136150306Y-36990408D02*
G01*
X136008885Y-37131829D01*
X135443200Y-36566144D01*
X135584621Y-36424723D01*
X136150306Y-36990408D01*
G37*
G04 #@! TD.AperFunction*
G04 #@! TA.AperFunction,SMDPad,CuDef*
G36*
X136433149Y-36707565D02*
G01*
X136291728Y-36848986D01*
X135726043Y-36283301D01*
X135867464Y-36141880D01*
X136433149Y-36707565D01*
G37*
G04 #@! TD.AperFunction*
G04 #@! TA.AperFunction,SMDPad,CuDef*
G36*
X136715992Y-36424722D02*
G01*
X136574571Y-36566143D01*
X136008886Y-36000458D01*
X136150307Y-35859037D01*
X136715992Y-36424722D01*
G37*
G04 #@! TD.AperFunction*
G04 #@! TA.AperFunction,SMDPad,CuDef*
G36*
X136998834Y-36141879D02*
G01*
X136857413Y-36283300D01*
X136291728Y-35717615D01*
X136433149Y-35576194D01*
X136998834Y-36141879D01*
G37*
G04 #@! TD.AperFunction*
D18*
X217425000Y-35550000D03*
X216775000Y-35550000D03*
X216125000Y-35550000D03*
X215475000Y-35550000D03*
X214825000Y-35550000D03*
X214175000Y-35550000D03*
X213525000Y-35550000D03*
X212875000Y-35550000D03*
X212875000Y-41450000D03*
X213525000Y-41450000D03*
X214175000Y-41450000D03*
X214825000Y-41450000D03*
X215475000Y-41450000D03*
X216125000Y-41450000D03*
X216775000Y-41450000D03*
X217425000Y-41450000D03*
X163975000Y-36800000D03*
X163325000Y-36800000D03*
X162675000Y-36800000D03*
X162025000Y-36800000D03*
X161375000Y-36800000D03*
X160725000Y-36800000D03*
X160075000Y-36800000D03*
X159425000Y-36800000D03*
X159425000Y-42700000D03*
X160075000Y-42700000D03*
X160725000Y-42700000D03*
X161375000Y-42700000D03*
X162025000Y-42700000D03*
X162675000Y-42700000D03*
X163325000Y-42700000D03*
X163975000Y-42700000D03*
X85875000Y-37850000D03*
X85225000Y-37850000D03*
X84575000Y-37850000D03*
X83925000Y-37850000D03*
X83275000Y-37850000D03*
X82625000Y-37850000D03*
X81975000Y-37850000D03*
X81325000Y-37850000D03*
X81325000Y-43750000D03*
X81975000Y-43750000D03*
X82625000Y-43750000D03*
X83275000Y-43750000D03*
X83925000Y-43750000D03*
X84575000Y-43750000D03*
X85225000Y-43750000D03*
X85875000Y-43750000D03*
D41*
X144860000Y-92120000D03*
X144860000Y-91180000D03*
X145700000Y-92120000D03*
X145700000Y-91180000D03*
D42*
X147385000Y-92625000D03*
X147385000Y-91975000D03*
X147385000Y-91325000D03*
X147385000Y-90675000D03*
X143175000Y-90675000D03*
X143175000Y-91325000D03*
X143175000Y-91975000D03*
X143175000Y-92625000D03*
D34*
X165250000Y-28600000D03*
X163750000Y-28600000D03*
X165250000Y-27200000D03*
X163750000Y-27200000D03*
X80456066Y-73665355D03*
X78956066Y-73665355D03*
D33*
X101450000Y-36300000D03*
X101450000Y-34800000D03*
D34*
X235800000Y-44300000D03*
X234300000Y-44300000D03*
X234350000Y-46050000D03*
X235850000Y-46050000D03*
D33*
X98900000Y-36300000D03*
X98900000Y-34800000D03*
X96350000Y-36300000D03*
X96350000Y-34800000D03*
X93800000Y-36250000D03*
X93800000Y-34750000D03*
X240900000Y-67550000D03*
X240900000Y-66050000D03*
X240900000Y-64150000D03*
X240900000Y-62650000D03*
X240900000Y-57350000D03*
X240900000Y-55850000D03*
X240900000Y-53950000D03*
X240900000Y-52450000D03*
X220450000Y-48750000D03*
X220450000Y-50250000D03*
X219600000Y-46100000D03*
X219600000Y-47600000D03*
X218750000Y-48750000D03*
X218750000Y-50250000D03*
X213700000Y-48750000D03*
X213700000Y-50250000D03*
X212850000Y-46100000D03*
X212850000Y-47600000D03*
G04 #@! TA.AperFunction,SMDPad,CuDef*
G36*
G01*
X208375000Y-74975000D02*
X209625000Y-74975000D01*
G75*
G02*
X209875000Y-75225000I0J-250000D01*
G01*
X209875000Y-75975000D01*
G75*
G02*
X209625000Y-76225000I-250000J0D01*
G01*
X208375000Y-76225000D01*
G75*
G02*
X208125000Y-75975000I0J250000D01*
G01*
X208125000Y-75225000D01*
G75*
G02*
X208375000Y-74975000I250000J0D01*
G01*
G37*
G04 #@! TD.AperFunction*
G04 #@! TA.AperFunction,SMDPad,CuDef*
G36*
G01*
X208375000Y-77775000D02*
X209625000Y-77775000D01*
G75*
G02*
X209875000Y-78025000I0J-250000D01*
G01*
X209875000Y-78775000D01*
G75*
G02*
X209625000Y-79025000I-250000J0D01*
G01*
X208375000Y-79025000D01*
G75*
G02*
X208125000Y-78775000I0J250000D01*
G01*
X208125000Y-78025000D01*
G75*
G02*
X208375000Y-77775000I250000J0D01*
G01*
G37*
G04 #@! TD.AperFunction*
X193050000Y-52450000D03*
X193050000Y-53950000D03*
X193050000Y-55850000D03*
X193050000Y-57350000D03*
X193050000Y-59250000D03*
X193050000Y-60750000D03*
X193050000Y-62650000D03*
X193050000Y-64150000D03*
X193050000Y-66050000D03*
X193050000Y-67550000D03*
X185000000Y-67550000D03*
X185000000Y-66050000D03*
X185000000Y-64150000D03*
X185000000Y-62650000D03*
X185000000Y-57350000D03*
X185000000Y-55850000D03*
X185000000Y-53950000D03*
X185000000Y-52450000D03*
X164450000Y-48750000D03*
X164450000Y-50250000D03*
X163600000Y-46100000D03*
X163600000Y-47600000D03*
X162750000Y-48750000D03*
X162750000Y-50250000D03*
X157650000Y-48750000D03*
X157650000Y-50250000D03*
X156800000Y-46100000D03*
X156800000Y-47600000D03*
G04 #@! TA.AperFunction,SMDPad,CuDef*
G36*
G01*
X152375000Y-74975000D02*
X153625000Y-74975000D01*
G75*
G02*
X153875000Y-75225000I0J-250000D01*
G01*
X153875000Y-75975000D01*
G75*
G02*
X153625000Y-76225000I-250000J0D01*
G01*
X152375000Y-76225000D01*
G75*
G02*
X152125000Y-75975000I0J250000D01*
G01*
X152125000Y-75225000D01*
G75*
G02*
X152375000Y-74975000I250000J0D01*
G01*
G37*
G04 #@! TD.AperFunction*
G04 #@! TA.AperFunction,SMDPad,CuDef*
G36*
G01*
X152375000Y-77775000D02*
X153625000Y-77775000D01*
G75*
G02*
X153875000Y-78025000I0J-250000D01*
G01*
X153875000Y-78775000D01*
G75*
G02*
X153625000Y-79025000I-250000J0D01*
G01*
X152375000Y-79025000D01*
G75*
G02*
X152125000Y-78775000I0J250000D01*
G01*
X152125000Y-78025000D01*
G75*
G02*
X152375000Y-77775000I250000J0D01*
G01*
G37*
G04 #@! TD.AperFunction*
X137000000Y-52450000D03*
X137000000Y-53950000D03*
X137000000Y-55850000D03*
X137000000Y-57350000D03*
X137050000Y-59250000D03*
X137050000Y-60750000D03*
X137050000Y-62650000D03*
X137050000Y-64150000D03*
X137050000Y-66050000D03*
X137050000Y-67550000D03*
X128850000Y-67550000D03*
X128850000Y-66050000D03*
X128850000Y-64150000D03*
X128850000Y-62650000D03*
X128850000Y-60750000D03*
X128850000Y-59250000D03*
X128850000Y-57350000D03*
X128850000Y-55850000D03*
X128850000Y-53950000D03*
X128850000Y-52450000D03*
G04 #@! TA.AperFunction,SMDPad,CuDef*
G36*
G01*
X120325000Y-74975000D02*
X121575000Y-74975000D01*
G75*
G02*
X121825000Y-75225000I0J-250000D01*
G01*
X121825000Y-75975000D01*
G75*
G02*
X121575000Y-76225000I-250000J0D01*
G01*
X120325000Y-76225000D01*
G75*
G02*
X120075000Y-75975000I0J250000D01*
G01*
X120075000Y-75225000D01*
G75*
G02*
X120325000Y-74975000I250000J0D01*
G01*
G37*
G04 #@! TD.AperFunction*
G04 #@! TA.AperFunction,SMDPad,CuDef*
G36*
G01*
X120325000Y-77775000D02*
X121575000Y-77775000D01*
G75*
G02*
X121825000Y-78025000I0J-250000D01*
G01*
X121825000Y-78775000D01*
G75*
G02*
X121575000Y-79025000I-250000J0D01*
G01*
X120325000Y-79025000D01*
G75*
G02*
X120075000Y-78775000I0J250000D01*
G01*
X120075000Y-78025000D01*
G75*
G02*
X120325000Y-77775000I250000J0D01*
G01*
G37*
G04 #@! TD.AperFunction*
X108250000Y-48750000D03*
X108250000Y-50250000D03*
X107400000Y-46100000D03*
X107400000Y-47600000D03*
X106550000Y-48750000D03*
X106550000Y-50250000D03*
X105700000Y-46100000D03*
X105700000Y-47600000D03*
X104850000Y-48750000D03*
X104850000Y-50250000D03*
X104000000Y-46100000D03*
X104000000Y-47600000D03*
X103150000Y-48750000D03*
X103150000Y-50250000D03*
X102300000Y-46100000D03*
X102300000Y-47600000D03*
X101500000Y-48750000D03*
X101500000Y-50250000D03*
X100650000Y-46100000D03*
X100650000Y-47600000D03*
G04 #@! TA.AperFunction,SMDPad,CuDef*
G36*
G01*
X106475000Y-74975000D02*
X107725000Y-74975000D01*
G75*
G02*
X107975000Y-75225000I0J-250000D01*
G01*
X107975000Y-75975000D01*
G75*
G02*
X107725000Y-76225000I-250000J0D01*
G01*
X106475000Y-76225000D01*
G75*
G02*
X106225000Y-75975000I0J250000D01*
G01*
X106225000Y-75225000D01*
G75*
G02*
X106475000Y-74975000I250000J0D01*
G01*
G37*
G04 #@! TD.AperFunction*
G04 #@! TA.AperFunction,SMDPad,CuDef*
G36*
G01*
X106475000Y-77775000D02*
X107725000Y-77775000D01*
G75*
G02*
X107975000Y-78025000I0J-250000D01*
G01*
X107975000Y-78775000D01*
G75*
G02*
X107725000Y-79025000I-250000J0D01*
G01*
X106475000Y-79025000D01*
G75*
G02*
X106225000Y-78775000I0J250000D01*
G01*
X106225000Y-78025000D01*
G75*
G02*
X106475000Y-77775000I250000J0D01*
G01*
G37*
G04 #@! TD.AperFunction*
X81100000Y-52450000D03*
X81100000Y-53950000D03*
X81100000Y-55850000D03*
X81100000Y-57350000D03*
X81100000Y-59250000D03*
X81100000Y-60750000D03*
X81100000Y-62650000D03*
X81100000Y-64150000D03*
X81100000Y-66050000D03*
X81100000Y-67550000D03*
G04 #@! TA.AperFunction,SMDPad,CuDef*
G36*
G01*
X188275000Y-79025000D02*
X187025000Y-79025000D01*
G75*
G02*
X186775000Y-78775000I0J250000D01*
G01*
X186775000Y-78025000D01*
G75*
G02*
X187025000Y-77775000I250000J0D01*
G01*
X188275000Y-77775000D01*
G75*
G02*
X188525000Y-78025000I0J-250000D01*
G01*
X188525000Y-78775000D01*
G75*
G02*
X188275000Y-79025000I-250000J0D01*
G01*
G37*
G04 #@! TD.AperFunction*
G04 #@! TA.AperFunction,SMDPad,CuDef*
G36*
G01*
X188275000Y-76225000D02*
X187025000Y-76225000D01*
G75*
G02*
X186775000Y-75975000I0J250000D01*
G01*
X186775000Y-75225000D01*
G75*
G02*
X187025000Y-74975000I250000J0D01*
G01*
X188275000Y-74975000D01*
G75*
G02*
X188525000Y-75225000I0J-250000D01*
G01*
X188525000Y-75975000D01*
G75*
G02*
X188275000Y-76225000I-250000J0D01*
G01*
G37*
G04 #@! TD.AperFunction*
D34*
X189750000Y-58900000D03*
X188250000Y-58900000D03*
G04 #@! TA.AperFunction,SMDPad,CuDef*
G36*
G01*
X190875000Y-79025000D02*
X189625000Y-79025000D01*
G75*
G02*
X189375000Y-78775000I0J250000D01*
G01*
X189375000Y-78025000D01*
G75*
G02*
X189625000Y-77775000I250000J0D01*
G01*
X190875000Y-77775000D01*
G75*
G02*
X191125000Y-78025000I0J-250000D01*
G01*
X191125000Y-78775000D01*
G75*
G02*
X190875000Y-79025000I-250000J0D01*
G01*
G37*
G04 #@! TD.AperFunction*
G04 #@! TA.AperFunction,SMDPad,CuDef*
G36*
G01*
X190875000Y-76225000D02*
X189625000Y-76225000D01*
G75*
G02*
X189375000Y-75975000I0J250000D01*
G01*
X189375000Y-75225000D01*
G75*
G02*
X189625000Y-74975000I250000J0D01*
G01*
X190875000Y-74975000D01*
G75*
G02*
X191125000Y-75225000I0J-250000D01*
G01*
X191125000Y-75975000D01*
G75*
G02*
X190875000Y-76225000I-250000J0D01*
G01*
G37*
G04 #@! TD.AperFunction*
D33*
X149160000Y-90830000D03*
X149160000Y-92330000D03*
G04 #@! TA.AperFunction,SMDPad,CuDef*
G36*
G01*
X132325000Y-79025000D02*
X131075000Y-79025000D01*
G75*
G02*
X130825000Y-78775000I0J250000D01*
G01*
X130825000Y-78025000D01*
G75*
G02*
X131075000Y-77775000I250000J0D01*
G01*
X132325000Y-77775000D01*
G75*
G02*
X132575000Y-78025000I0J-250000D01*
G01*
X132575000Y-78775000D01*
G75*
G02*
X132325000Y-79025000I-250000J0D01*
G01*
G37*
G04 #@! TD.AperFunction*
G04 #@! TA.AperFunction,SMDPad,CuDef*
G36*
G01*
X132325000Y-76225000D02*
X131075000Y-76225000D01*
G75*
G02*
X130825000Y-75975000I0J250000D01*
G01*
X130825000Y-75225000D01*
G75*
G02*
X131075000Y-74975000I250000J0D01*
G01*
X132325000Y-74975000D01*
G75*
G02*
X132575000Y-75225000I0J-250000D01*
G01*
X132575000Y-75975000D01*
G75*
G02*
X132325000Y-76225000I-250000J0D01*
G01*
G37*
G04 #@! TD.AperFunction*
D43*
X152410000Y-91580000D03*
D44*
X149160000Y-90580000D03*
X149160000Y-92580000D03*
D34*
X133750000Y-58550000D03*
X132250000Y-58550000D03*
D37*
X78706066Y-75265355D03*
X80606066Y-75265355D03*
X79656066Y-77265355D03*
D36*
X239300000Y-65850000D03*
X239300000Y-67750000D03*
X237300000Y-66800000D03*
X218700000Y-64350000D03*
X218700000Y-62450000D03*
X220700000Y-63400000D03*
X218700000Y-67750000D03*
X218700000Y-65850000D03*
X220700000Y-66800000D03*
X215300000Y-52250000D03*
X215300000Y-54150000D03*
X213300000Y-53200000D03*
X194600000Y-54150000D03*
X194600000Y-52250000D03*
X196600000Y-53200000D03*
X194600000Y-57550000D03*
X194600000Y-55650000D03*
X196600000Y-56600000D03*
X194600000Y-60950000D03*
X194600000Y-59050000D03*
X196600000Y-60000000D03*
X194600000Y-64350000D03*
X194600000Y-62450000D03*
X196600000Y-63400000D03*
X194600000Y-67750000D03*
X194600000Y-65850000D03*
X196600000Y-66800000D03*
X183400000Y-65850000D03*
X183400000Y-67750000D03*
X181400000Y-66800000D03*
X162850000Y-64350000D03*
X162850000Y-62450000D03*
X164850000Y-63400000D03*
X162850000Y-67750000D03*
X162850000Y-65850000D03*
X164850000Y-66800000D03*
X159250000Y-52250000D03*
X159250000Y-54150000D03*
X157250000Y-53200000D03*
X138600000Y-54150000D03*
X138600000Y-52250000D03*
X140600000Y-53200000D03*
X138600000Y-57550000D03*
X138600000Y-55650000D03*
X140600000Y-56600000D03*
X138600000Y-60950000D03*
X138600000Y-59050000D03*
X140600000Y-60000000D03*
X138600000Y-64350000D03*
X138600000Y-62450000D03*
X140600000Y-63400000D03*
X138600000Y-67750000D03*
X138600000Y-65850000D03*
X140600000Y-66800000D03*
X127300000Y-65850000D03*
X127300000Y-67750000D03*
X125300000Y-66800000D03*
X127300000Y-62450000D03*
X127300000Y-64350000D03*
X125300000Y-63400000D03*
X127300000Y-59050000D03*
X127300000Y-60950000D03*
X125300000Y-60000000D03*
X127300000Y-55650000D03*
X127300000Y-57550000D03*
X125300000Y-56600000D03*
X127300000Y-52250000D03*
X127300000Y-54150000D03*
X125300000Y-53200000D03*
X106800000Y-54150000D03*
X106800000Y-52250000D03*
X108800000Y-53200000D03*
X106800000Y-57550000D03*
X106800000Y-55650000D03*
X108800000Y-56600000D03*
X106800000Y-60950000D03*
X106800000Y-59050000D03*
X108800000Y-60000000D03*
X106800000Y-64350000D03*
X106800000Y-62450000D03*
X108800000Y-63400000D03*
X106800000Y-67750000D03*
X106800000Y-65850000D03*
X108800000Y-66800000D03*
X103200000Y-65850000D03*
X103200000Y-67750000D03*
X101200000Y-66800000D03*
X103200000Y-62450000D03*
X103200000Y-64350000D03*
X101200000Y-63400000D03*
X103200000Y-59050000D03*
X103200000Y-60950000D03*
X101200000Y-60000000D03*
X103200000Y-55650000D03*
X103200000Y-57550000D03*
X101200000Y-56600000D03*
X103200000Y-52250000D03*
X103200000Y-54150000D03*
X101200000Y-53200000D03*
X82700000Y-54150000D03*
X82700000Y-52250000D03*
X84700000Y-53200000D03*
X82700000Y-57550000D03*
X82700000Y-55650000D03*
X84700000Y-56600000D03*
X82700000Y-60950000D03*
X82700000Y-59050000D03*
X84700000Y-60000000D03*
X82700000Y-64350000D03*
X82700000Y-62450000D03*
X84700000Y-63400000D03*
X82700000Y-67750000D03*
X82700000Y-65850000D03*
X84700000Y-66800000D03*
D37*
X188050000Y-60500000D03*
X189950000Y-60500000D03*
X189000000Y-62500000D03*
X132050000Y-60100000D03*
X133950000Y-60100000D03*
X133000000Y-62100000D03*
X137910000Y-86080000D03*
X136010000Y-86080000D03*
X136960000Y-84080000D03*
D21*
X204990000Y-68990000D03*
X208990000Y-67990000D03*
X210740000Y-59990000D03*
X210740000Y-55490000D03*
X208990000Y-51990000D03*
X204990000Y-50990000D03*
X200990000Y-51990000D03*
X199240000Y-55490000D03*
X199240000Y-59990000D03*
X199240000Y-64490000D03*
X200990000Y-67990000D03*
X210740000Y-64490000D03*
X148990000Y-68990000D03*
X152990000Y-67990000D03*
X154740000Y-59990000D03*
X154740000Y-55490000D03*
X152990000Y-51990000D03*
X148990000Y-50990000D03*
X144990000Y-51990000D03*
X143240000Y-55490000D03*
X143240000Y-59990000D03*
X143240000Y-64490000D03*
X144990000Y-67990000D03*
X154740000Y-64490000D03*
D29*
X188990000Y-52405040D03*
X188990000Y-55577500D03*
G04 #@! TA.AperFunction,SMDPad,CuDef*
D26*
G36*
X128018578Y-30555735D02*
G01*
X127594314Y-30979999D01*
X127099340Y-30485025D01*
X127523604Y-30060761D01*
X128018578Y-30555735D01*
G37*
G04 #@! TD.AperFunction*
G04 #@! TA.AperFunction,SMDPad,CuDef*
G36*
X128796396Y-31333553D02*
G01*
X128372132Y-31757817D01*
X127877158Y-31262843D01*
X128301422Y-30838579D01*
X128796396Y-31333553D01*
G37*
G04 #@! TD.AperFunction*
G04 #@! TA.AperFunction,SMDPad,CuDef*
G36*
G01*
X123075001Y-83600000D02*
X121774999Y-83600000D01*
G75*
G02*
X121525000Y-83350001I0J249999D01*
G01*
X121525000Y-82649999D01*
G75*
G02*
X121774999Y-82400000I249999J0D01*
G01*
X123075001Y-82400000D01*
G75*
G02*
X123325000Y-82649999I0J-249999D01*
G01*
X123325000Y-83350001D01*
G75*
G02*
X123075001Y-83600000I-249999J0D01*
G01*
G37*
G04 #@! TD.AperFunction*
G04 #@! TA.AperFunction,SMDPad,CuDef*
G36*
G01*
X123075001Y-89200000D02*
X121774999Y-89200000D01*
G75*
G02*
X121525000Y-88950001I0J249999D01*
G01*
X121525000Y-88249999D01*
G75*
G02*
X121774999Y-88000000I249999J0D01*
G01*
X123075001Y-88000000D01*
G75*
G02*
X123325000Y-88249999I0J-249999D01*
G01*
X123325000Y-88950001D01*
G75*
G02*
X123075001Y-89200000I-249999J0D01*
G01*
G37*
G04 #@! TD.AperFunction*
G04 #@! TA.AperFunction,SMDPad,CuDef*
G36*
G01*
X126925000Y-84600000D02*
X125675000Y-84600000D01*
G75*
G02*
X125525000Y-84450000I0J150000D01*
G01*
X125525000Y-84150000D01*
G75*
G02*
X125675000Y-84000000I150000J0D01*
G01*
X126925000Y-84000000D01*
G75*
G02*
X127075000Y-84150000I0J-150000D01*
G01*
X127075000Y-84450000D01*
G75*
G02*
X126925000Y-84600000I-150000J0D01*
G01*
G37*
G04 #@! TD.AperFunction*
G04 #@! TA.AperFunction,SMDPad,CuDef*
G36*
G01*
X126925000Y-85600000D02*
X125675000Y-85600000D01*
G75*
G02*
X125525000Y-85450000I0J150000D01*
G01*
X125525000Y-85150000D01*
G75*
G02*
X125675000Y-85000000I150000J0D01*
G01*
X126925000Y-85000000D01*
G75*
G02*
X127075000Y-85150000I0J-150000D01*
G01*
X127075000Y-85450000D01*
G75*
G02*
X126925000Y-85600000I-150000J0D01*
G01*
G37*
G04 #@! TD.AperFunction*
G04 #@! TA.AperFunction,SMDPad,CuDef*
G36*
G01*
X126925000Y-86600000D02*
X125675000Y-86600000D01*
G75*
G02*
X125525000Y-86450000I0J150000D01*
G01*
X125525000Y-86150000D01*
G75*
G02*
X125675000Y-86000000I150000J0D01*
G01*
X126925000Y-86000000D01*
G75*
G02*
X127075000Y-86150000I0J-150000D01*
G01*
X127075000Y-86450000D01*
G75*
G02*
X126925000Y-86600000I-150000J0D01*
G01*
G37*
G04 #@! TD.AperFunction*
G04 #@! TA.AperFunction,SMDPad,CuDef*
G36*
G01*
X126925000Y-87600000D02*
X125675000Y-87600000D01*
G75*
G02*
X125525000Y-87450000I0J150000D01*
G01*
X125525000Y-87150000D01*
G75*
G02*
X125675000Y-87000000I150000J0D01*
G01*
X126925000Y-87000000D01*
G75*
G02*
X127075000Y-87150000I0J-150000D01*
G01*
X127075000Y-87450000D01*
G75*
G02*
X126925000Y-87600000I-150000J0D01*
G01*
G37*
G04 #@! TD.AperFunction*
D19*
X236150000Y-41000000D03*
X234050000Y-41000000D03*
D45*
X150060000Y-88930000D03*
X150060000Y-86830000D03*
D46*
X179360000Y-90330000D03*
X179360000Y-86030000D03*
D39*
X238410000Y-29610000D03*
X238410000Y-31110000D03*
D47*
X235810000Y-27435000D03*
X235810000Y-30485000D03*
D48*
X240310000Y-29060000D03*
X240310000Y-31060000D03*
D20*
X240150000Y-44400000D03*
X241650000Y-44400000D03*
D49*
X238640000Y-42110000D03*
X241640000Y-42110000D03*
G04 #@! TA.AperFunction,SMDPad,CuDef*
D26*
G36*
X130175255Y-32076015D02*
G01*
X129750991Y-31651751D01*
X130245965Y-31156777D01*
X130670229Y-31581041D01*
X130175255Y-32076015D01*
G37*
G04 #@! TD.AperFunction*
G04 #@! TA.AperFunction,SMDPad,CuDef*
G36*
X129397437Y-32853833D02*
G01*
X128973173Y-32429569D01*
X129468147Y-31934595D01*
X129892411Y-32358859D01*
X129397437Y-32853833D01*
G37*
G04 #@! TD.AperFunction*
D20*
X146510000Y-36780000D03*
X148010000Y-36780000D03*
X146510000Y-34180000D03*
X148010000Y-34180000D03*
D39*
X135260000Y-27730000D03*
X135260000Y-26230000D03*
X130460000Y-27730000D03*
X130460000Y-26230000D03*
G04 #@! TA.AperFunction,SMDPad,CuDef*
D26*
G36*
X140712652Y-29467678D02*
G01*
X140182322Y-28937348D01*
X140748008Y-28371662D01*
X141278338Y-28901992D01*
X140712652Y-29467678D01*
G37*
G04 #@! TD.AperFunction*
G04 #@! TA.AperFunction,SMDPad,CuDef*
G36*
X139651992Y-30528338D02*
G01*
X139121662Y-29998008D01*
X139687348Y-29432322D01*
X140217678Y-29962652D01*
X139651992Y-30528338D01*
G37*
G04 #@! TD.AperFunction*
G04 #@! TA.AperFunction,SMDPad,CuDef*
G36*
X142255495Y-30668388D02*
G01*
X141371612Y-29784505D01*
X142078719Y-29077398D01*
X142962602Y-29961281D01*
X142255495Y-30668388D01*
G37*
G04 #@! TD.AperFunction*
G04 #@! TA.AperFunction,SMDPad,CuDef*
G36*
X140841281Y-32082602D02*
G01*
X139957398Y-31198719D01*
X140664505Y-30491612D01*
X141548388Y-31375495D01*
X140841281Y-32082602D01*
G37*
G04 #@! TD.AperFunction*
G04 #@! TA.AperFunction,SMDPad,CuDef*
G36*
X128867678Y-29337348D02*
G01*
X128337348Y-29867678D01*
X127771662Y-29301992D01*
X128301992Y-28771662D01*
X128867678Y-29337348D01*
G37*
G04 #@! TD.AperFunction*
G04 #@! TA.AperFunction,SMDPad,CuDef*
G36*
X129928338Y-30398008D02*
G01*
X129398008Y-30928338D01*
X128832322Y-30362652D01*
X129362652Y-29832322D01*
X129928338Y-30398008D01*
G37*
G04 #@! TD.AperFunction*
G04 #@! TA.AperFunction,SMDPad,CuDef*
G36*
X129447348Y-41162322D02*
G01*
X129977678Y-41692652D01*
X129411992Y-42258338D01*
X128881662Y-41728008D01*
X129447348Y-41162322D01*
G37*
G04 #@! TD.AperFunction*
G04 #@! TA.AperFunction,SMDPad,CuDef*
G36*
X130508008Y-40101662D02*
G01*
X131038338Y-40631992D01*
X130472652Y-41197678D01*
X129942322Y-40667348D01*
X130508008Y-40101662D01*
G37*
G04 #@! TD.AperFunction*
D39*
X136860000Y-26230000D03*
X136860000Y-27730000D03*
D20*
X174800000Y-27150000D03*
X173300000Y-27150000D03*
X235800000Y-42600000D03*
X234300000Y-42600000D03*
X221399999Y-31050000D03*
X219899999Y-31050000D03*
D39*
X217450000Y-33650000D03*
X217450000Y-32150000D03*
X211450000Y-33650000D03*
X211450000Y-32150000D03*
D20*
X170150000Y-34850000D03*
X168650000Y-34850000D03*
X164000000Y-34900000D03*
X162500000Y-34900000D03*
D39*
X158050000Y-34850000D03*
X158050000Y-33350000D03*
X117500000Y-37850000D03*
X117500000Y-39350000D03*
X110200000Y-37850000D03*
X110200000Y-39350000D03*
X87500000Y-37850000D03*
X87500000Y-39350000D03*
X141360000Y-92030000D03*
X141360000Y-90530000D03*
D50*
X122160000Y-26980000D03*
X118760000Y-26980000D03*
D51*
X123360000Y-26980000D03*
D29*
X188990000Y-64405040D03*
X188990000Y-67577500D03*
X132990000Y-52405040D03*
X132990000Y-55577500D03*
X132990000Y-64405040D03*
X132990000Y-67577500D03*
D21*
X228990000Y-68990000D03*
X232990000Y-67990000D03*
X234740000Y-59990000D03*
X234740000Y-55490000D03*
X232990000Y-51990000D03*
X228990000Y-50990000D03*
X224990000Y-51990000D03*
X223240000Y-55490000D03*
X223240000Y-59990000D03*
X223240000Y-64490000D03*
X224990000Y-67990000D03*
X234740000Y-64490000D03*
X172990000Y-68990000D03*
X176990000Y-67990000D03*
X178740000Y-59990000D03*
X178740000Y-55490000D03*
X176990000Y-51990000D03*
X172990000Y-50990000D03*
X168990000Y-51990000D03*
X167240000Y-55490000D03*
X167240000Y-59990000D03*
X167240000Y-64490000D03*
X168990000Y-67990000D03*
X178740000Y-64490000D03*
D52*
X117800000Y-41300000D03*
X116900000Y-44200000D03*
X170000000Y-79900000D03*
X173700000Y-79900000D03*
X213774818Y-52242089D03*
X213692077Y-50992077D03*
X189900000Y-47300000D03*
X194700000Y-51000000D03*
X195800000Y-55600000D03*
X195700000Y-58700000D03*
X182200000Y-60900000D03*
X182200000Y-57800000D03*
X182300000Y-54300000D03*
X182500000Y-64400000D03*
X182500000Y-68000000D03*
X195600000Y-65800000D03*
X195600000Y-62400000D03*
X214300000Y-64400000D03*
X214200000Y-61100000D03*
X214400000Y-57800000D03*
X219900000Y-55600000D03*
X219981671Y-59063342D03*
X219900000Y-62500000D03*
X219800000Y-65700000D03*
X214400000Y-67900000D03*
X215200000Y-53300000D03*
X238300000Y-68100000D03*
X238300000Y-64500000D03*
X238500000Y-61100000D03*
X238300000Y-58000000D03*
X238400000Y-54100000D03*
X139600000Y-55400000D03*
X139700000Y-58800000D03*
X139700000Y-51900000D03*
X139700000Y-62200000D03*
X139700000Y-65600000D03*
X126200000Y-67900000D03*
X126100000Y-64500000D03*
X126100000Y-61100000D03*
X126100000Y-57800000D03*
X126200000Y-54400000D03*
X101900000Y-68100000D03*
X102100000Y-64600000D03*
X107900000Y-65500000D03*
X107900000Y-62100000D03*
X102000000Y-61200000D03*
X102200000Y-57800000D03*
X108200000Y-58700000D03*
X108000000Y-55600000D03*
X102200000Y-54300000D03*
X84200000Y-65600000D03*
X84200000Y-62200000D03*
X84100000Y-58800000D03*
X84100000Y-55200000D03*
X84100000Y-52100000D03*
X131395013Y-34577406D03*
X132181670Y-33790749D03*
X132968326Y-33004093D03*
X133754982Y-33790749D03*
X134541639Y-34577406D03*
X135328295Y-35364062D03*
X134541639Y-36150718D03*
X133754982Y-35364062D03*
X132968326Y-34577406D03*
X132181670Y-35364062D03*
X132968326Y-36150718D03*
X133754982Y-36937375D03*
X137900000Y-26200000D03*
X141600000Y-28000000D03*
X143200000Y-28900000D03*
X128200000Y-27900000D03*
X149100000Y-34200000D03*
X161300000Y-34900000D03*
X160600000Y-32100000D03*
X159300000Y-33300000D03*
X176200000Y-27200000D03*
X217400000Y-31000000D03*
X218700000Y-31000000D03*
X211500000Y-31000000D03*
X134200000Y-50000000D03*
X190000012Y-62287396D03*
X165700000Y-44400000D03*
X159400000Y-44100000D03*
X158200000Y-57600000D03*
X158200000Y-60900000D03*
X164000000Y-59000000D03*
X164000000Y-55700000D03*
X158100000Y-54300000D03*
X164091302Y-62485503D03*
X158000000Y-64500000D03*
X158000000Y-68000000D03*
X164200000Y-65800000D03*
X163690520Y-51804871D03*
X237100000Y-41100000D03*
X236900000Y-42600000D03*
X236700000Y-44200000D03*
X241800000Y-32700000D03*
X243700000Y-34300000D03*
X240300000Y-27600000D03*
X238500000Y-28400000D03*
X233700000Y-27400000D03*
X235800000Y-25900000D03*
X230900000Y-35600000D03*
X212900000Y-43000000D03*
X206900000Y-43100000D03*
X186300000Y-92700000D03*
X149200000Y-85700000D03*
X150900000Y-89100000D03*
X145700000Y-91180000D03*
X144860000Y-91180000D03*
X145700000Y-92120000D03*
X144860000Y-92120000D03*
X148200000Y-89700000D03*
X135900000Y-84700000D03*
X167500000Y-34500000D03*
X144117678Y-30417678D03*
X134024970Y-61200000D03*
X152758412Y-44058412D03*
X107500000Y-51400000D03*
X92000000Y-74300000D03*
X92000000Y-72500000D03*
X92100000Y-76200000D03*
X127700000Y-84325010D03*
X109200000Y-39274946D03*
X130300000Y-42100000D03*
X111805985Y-45214886D03*
X104699996Y-42100000D03*
X140100000Y-92100000D03*
X130600000Y-35400000D03*
X131500000Y-36200000D03*
X132400000Y-37000000D03*
X133000000Y-37700000D03*
X147924039Y-37691617D03*
X123600000Y-37400000D03*
X116741949Y-39358051D03*
X129499992Y-43374935D03*
X219600000Y-51600000D03*
X88900000Y-39300000D03*
X80900000Y-45200000D03*
X123100000Y-25850000D03*
X124550000Y-25950000D03*
X125800000Y-27150000D03*
X127000000Y-28350000D03*
X122200000Y-28400000D03*
X123100000Y-28100000D03*
X123900000Y-28450000D03*
X124500000Y-29050000D03*
X125100000Y-29650000D03*
X125700000Y-30250000D03*
X126300000Y-30850000D03*
X126900000Y-31450000D03*
X127650000Y-31950000D03*
X122200000Y-29250000D03*
X122200000Y-30100000D03*
X122200000Y-30950000D03*
X122200000Y-31800000D03*
X121550000Y-32300000D03*
X120700000Y-32300000D03*
X119850000Y-32300000D03*
X119000000Y-32300000D03*
X118150000Y-32300000D03*
X117300000Y-32300000D03*
X116450000Y-32300000D03*
X115600000Y-32300000D03*
X114750000Y-32300000D03*
X113900000Y-32300000D03*
X113050000Y-32300000D03*
X112200000Y-32300000D03*
X111350000Y-32300000D03*
X110500000Y-32300000D03*
X110000000Y-31650000D03*
X110000000Y-30800000D03*
X110000000Y-29950000D03*
X110000000Y-29100000D03*
X110000000Y-28250000D03*
X110000000Y-27400000D03*
X110000000Y-26550000D03*
X110000000Y-25700000D03*
X125200000Y-26550000D03*
X126400000Y-27750000D03*
X129100000Y-26250000D03*
X81700000Y-75800000D03*
X238600000Y-44300000D03*
X238600000Y-40000000D03*
X196450000Y-40550000D03*
X183100000Y-41100000D03*
X165100000Y-34900000D03*
X171300000Y-34900000D03*
X162999994Y-28500000D03*
X130000000Y-90500000D03*
X127600004Y-90500000D03*
X105400000Y-34799999D03*
X105321104Y-31978896D03*
X126300000Y-37200000D03*
X126300000Y-41500000D03*
X84900000Y-72800000D03*
X84500000Y-75200000D03*
X115700000Y-46525010D03*
X118408015Y-45801272D03*
X116413789Y-47151929D03*
X119194740Y-46374953D03*
X104274990Y-39555799D03*
X115090781Y-39139050D03*
X164100000Y-39200000D03*
X163000004Y-40200000D03*
X142600000Y-89600000D03*
X143000001Y-93800001D03*
X117723836Y-45123713D03*
X114900000Y-47574990D03*
X150760000Y-87530000D03*
X144000000Y-85000000D03*
X169394760Y-39736520D03*
X171600000Y-42250000D03*
X155800000Y-35400000D03*
X159700000Y-35300000D03*
X210000000Y-34100000D03*
X212600000Y-34200000D03*
X218200002Y-35600000D03*
X212800000Y-36800000D03*
X128823830Y-37784816D03*
X135300000Y-31750000D03*
X222300000Y-30000000D03*
X220500000Y-29700000D03*
X152400000Y-31100000D03*
X144200000Y-27700000D03*
X216700000Y-39600000D03*
X216800000Y-36949958D03*
X99000000Y-33800000D03*
X102800000Y-34700000D03*
X81900000Y-74600000D03*
X83497931Y-73736453D03*
X152200000Y-28900000D03*
X150000000Y-28900000D03*
X127200000Y-33854651D03*
X132300000Y-40099990D03*
X152300000Y-30000000D03*
X150074990Y-29982527D03*
X128101260Y-33299580D03*
X132973149Y-39429623D03*
X101600000Y-43199919D03*
X127646260Y-41825087D03*
X128514265Y-40629592D03*
X115500000Y-40200000D03*
X215600000Y-37050010D03*
X162025000Y-37899108D03*
X107395756Y-39867874D03*
X114236034Y-39553694D03*
X168520665Y-38104970D03*
X171200000Y-37500000D03*
X149800000Y-36900000D03*
X206325010Y-36702351D03*
X209601679Y-36733381D03*
X155800004Y-38090751D03*
X131284691Y-42622508D03*
X136300283Y-38564462D03*
X214801711Y-37565042D03*
X161308012Y-38550010D03*
X106496752Y-40174979D03*
X113725658Y-40354967D03*
X167597787Y-38330402D03*
X170515630Y-38158908D03*
X206949705Y-37556253D03*
X209453032Y-37671691D03*
X154800157Y-38395404D03*
X131188292Y-43643911D03*
X136318664Y-39514296D03*
X150425010Y-37991485D03*
X214175010Y-38500000D03*
X160704338Y-39304338D03*
X105500000Y-40474990D03*
X112775914Y-40332416D03*
X166684714Y-38068067D03*
X170094759Y-39010606D03*
X207126428Y-38489683D03*
X208632208Y-38149990D03*
X153850817Y-38359699D03*
X132147897Y-43568204D03*
X136148204Y-40448890D03*
X149034961Y-40073216D03*
X213400000Y-39400000D03*
X160050010Y-40004761D03*
X104400000Y-40500000D03*
X165880577Y-38573918D03*
X112128371Y-41028363D03*
X132472118Y-44574979D03*
X208000000Y-38900000D03*
X152863505Y-38291627D03*
X135784854Y-41326671D03*
X149901942Y-39265786D03*
X174500000Y-32600000D03*
X168700000Y-31300000D03*
D53*
X107100000Y-75600000D02*
X105700000Y-75600000D01*
X98090000Y-67990000D02*
X96990000Y-67990000D01*
X105700000Y-75600000D02*
X98090000Y-67990000D01*
X120990000Y-75560000D02*
X120950000Y-75600000D01*
X120990000Y-67990000D02*
X120990000Y-75560000D01*
X134800000Y-57387500D02*
X132990000Y-55577500D01*
X134250000Y-75600000D02*
X134800000Y-75050000D01*
X134800000Y-75050000D02*
X134800000Y-57387500D01*
X187650000Y-68917500D02*
X188990000Y-67577500D01*
X187650000Y-75600000D02*
X187650000Y-68917500D01*
X131700000Y-72900000D02*
X131700000Y-75600000D01*
X132990000Y-67577500D02*
X132990000Y-71610000D01*
X132990000Y-71610000D02*
X131700000Y-72900000D01*
X190800000Y-75050000D02*
X190250000Y-75600000D01*
X188990000Y-55577500D02*
X190800000Y-57387500D01*
X190800000Y-57387500D02*
X190800000Y-75050000D01*
D54*
X105700000Y-50751442D02*
X105499978Y-50951464D01*
X105700000Y-47600000D02*
X105700000Y-50751442D01*
X105499978Y-50951464D02*
X105499978Y-63049978D01*
X105499978Y-63049978D02*
X106800000Y-64350000D01*
X81100000Y-48300000D02*
X84575000Y-44825000D01*
X81100000Y-52450000D02*
X81100000Y-48300000D01*
X84575000Y-44825000D02*
X84575000Y-43750000D01*
X82500000Y-60750000D02*
X82700000Y-60950000D01*
X81100000Y-60750000D02*
X82500000Y-60750000D01*
X105099967Y-66049967D02*
X105099967Y-50499967D01*
X105099967Y-50499967D02*
X104850000Y-50250000D01*
X106800000Y-67750000D02*
X105099967Y-66049967D01*
X79799989Y-57949989D02*
X79799989Y-48751454D01*
X81100000Y-59250000D02*
X79799989Y-57949989D01*
X79799989Y-48751454D02*
X83275000Y-45276444D01*
X83275000Y-45276444D02*
X83275000Y-43750000D01*
X85225000Y-44650000D02*
X85225000Y-43750000D01*
X86875000Y-46300000D02*
X85225000Y-44650000D01*
X100450000Y-46300000D02*
X86875000Y-46300000D01*
X100650000Y-46100000D02*
X100450000Y-46300000D01*
X106800000Y-57550000D02*
X106100000Y-56850000D01*
X106100000Y-51200000D02*
X106574999Y-50725001D01*
X107400000Y-50505002D02*
X107400000Y-47600000D01*
X107180001Y-50725001D02*
X107400000Y-50505002D01*
X106100000Y-56850000D02*
X106100000Y-51200000D01*
X106574999Y-50725001D02*
X107180001Y-50725001D01*
X106800000Y-53944998D02*
X106800000Y-54150000D01*
X108250000Y-52494998D02*
X106800000Y-53944998D01*
X108250000Y-50250000D02*
X108250000Y-52494998D01*
X101280001Y-45624999D02*
X86824999Y-45624999D01*
X86824999Y-45624999D02*
X85875000Y-44675000D01*
X101500000Y-48750000D02*
X101500000Y-45844998D01*
X85875000Y-44675000D02*
X85875000Y-43750000D01*
X101500000Y-45844998D02*
X101280001Y-45624999D01*
X85225000Y-36950000D02*
X85225000Y-37850000D01*
X81100000Y-36500000D02*
X84775000Y-36500000D01*
X80700000Y-38900000D02*
X80700000Y-36900000D01*
X82700000Y-40900000D02*
X80700000Y-38900000D01*
X84354332Y-40900000D02*
X82700000Y-40900000D01*
X88779320Y-45324988D02*
X84354332Y-40900000D01*
X101524988Y-45324988D02*
X88779320Y-45324988D01*
X102300000Y-46100000D02*
X101524988Y-45324988D01*
X80700000Y-36900000D02*
X81100000Y-36500000D01*
X84775000Y-36500000D02*
X85225000Y-36950000D01*
X127500000Y-52450000D02*
X127300000Y-52250000D01*
X128850000Y-52450000D02*
X127500000Y-52450000D01*
X127500000Y-55850000D02*
X127300000Y-55650000D01*
X128850000Y-55850000D02*
X127500000Y-55850000D01*
X103150000Y-45844998D02*
X103150000Y-48750000D01*
X104875000Y-43750000D02*
X104875000Y-44650000D01*
X103594998Y-45400000D02*
X103150000Y-45844998D01*
X104125000Y-45400000D02*
X103594998Y-45400000D01*
X104875000Y-44650000D02*
X104125000Y-45400000D01*
X105525000Y-44575000D02*
X105525000Y-43750000D01*
X104000000Y-46100000D02*
X105525000Y-44575000D01*
X127500000Y-59250000D02*
X127300000Y-59050000D01*
X128850000Y-59250000D02*
X127500000Y-59250000D01*
X127500000Y-62650000D02*
X127300000Y-62450000D01*
X128850000Y-62650000D02*
X127500000Y-62650000D01*
X106175000Y-44480002D02*
X106175000Y-43750000D01*
X104850000Y-45805002D02*
X106175000Y-44480002D01*
X104850000Y-48750000D02*
X104850000Y-45805002D01*
X127500000Y-66050000D02*
X127300000Y-65850000D01*
X128850000Y-66050000D02*
X127500000Y-66050000D01*
D53*
X137710000Y-86280000D02*
X137910000Y-86080000D01*
X137710000Y-87680000D02*
X137710000Y-86280000D01*
D54*
X108125000Y-44675000D02*
X108125000Y-43750000D01*
X107400000Y-46100000D02*
X107400000Y-45400000D01*
X107400000Y-45400000D02*
X108125000Y-44675000D01*
X138400000Y-64150000D02*
X138600000Y-64350000D01*
X137050000Y-64150000D02*
X138400000Y-64150000D01*
X138400000Y-60750000D02*
X138600000Y-60950000D01*
X137050000Y-60750000D02*
X138400000Y-60750000D01*
X138400000Y-57350000D02*
X138600000Y-57550000D01*
X137000000Y-57350000D02*
X138400000Y-57350000D01*
X156800000Y-50505002D02*
X156800000Y-47600000D01*
X158544998Y-52250000D02*
X156800000Y-50505002D01*
X159250000Y-52250000D02*
X158544998Y-52250000D01*
X130700033Y-62299967D02*
X130700033Y-51127196D01*
X128850000Y-64150000D02*
X130700033Y-62299967D01*
X130700033Y-51127196D02*
X126872859Y-47300022D01*
X116075000Y-44934001D02*
X116075000Y-43750000D01*
X118441021Y-47300022D02*
X116075000Y-44934001D01*
X126872859Y-47300022D02*
X118441021Y-47300022D01*
X115425000Y-38548527D02*
X115425000Y-37850000D01*
X115988237Y-39111763D02*
X115425000Y-38548527D01*
X115988237Y-39111763D02*
X115988237Y-39488237D01*
X115988237Y-39488237D02*
X117800000Y-41300000D01*
X116900000Y-44200000D02*
X116900000Y-45200000D01*
X116900000Y-45200000D02*
X118700011Y-47000011D01*
X118700011Y-47000011D02*
X126997127Y-47000011D01*
X126997127Y-47000011D02*
X131000044Y-51002928D01*
X131000044Y-51002928D02*
X131000044Y-65399956D01*
X131000044Y-65399956D02*
X128850000Y-67550000D01*
X159650000Y-55650000D02*
X159975001Y-55324999D01*
X159250000Y-55650000D02*
X159650000Y-55650000D01*
X158800011Y-51400011D02*
X157650000Y-50250000D01*
X159975001Y-55324999D02*
X159975001Y-51750744D01*
X159975001Y-51750744D02*
X159624268Y-51400011D01*
X159624268Y-51400011D02*
X158800011Y-51400011D01*
X160275012Y-58024988D02*
X159250000Y-59050000D01*
X158500000Y-47600000D02*
X158500000Y-50505002D01*
X159779281Y-51100000D02*
X160275012Y-51595731D01*
X159094998Y-51100000D02*
X159779281Y-51100000D01*
X160275012Y-51595731D02*
X160275012Y-58024988D01*
X158500000Y-50505002D02*
X159094998Y-51100000D01*
X153875000Y-45225000D02*
X153600000Y-45500000D01*
X135400000Y-49902884D02*
X135400000Y-64400000D01*
X153875000Y-42700000D02*
X153875000Y-45225000D01*
X139802884Y-45500000D02*
X135400000Y-49902884D01*
X135400000Y-64400000D02*
X137050000Y-66050000D01*
X153600000Y-45500000D02*
X139802884Y-45500000D01*
X155175000Y-44773558D02*
X153848536Y-46100022D01*
X136000022Y-58200022D02*
X137050000Y-59250000D01*
X136000022Y-50151420D02*
X136000022Y-58200022D01*
X140051420Y-46100022D02*
X136000022Y-50151420D01*
X155175000Y-42700000D02*
X155175000Y-44773558D01*
X153848536Y-46100022D02*
X140051420Y-46100022D01*
X160200000Y-50505002D02*
X160875034Y-51180036D01*
X160875034Y-51180036D02*
X160875034Y-64224966D01*
X160875034Y-64224966D02*
X159250000Y-65850000D01*
X160200000Y-47600000D02*
X160200000Y-50505002D01*
X82500000Y-53950000D02*
X82700000Y-54150000D01*
X81100000Y-53950000D02*
X82500000Y-53950000D01*
X132250000Y-48250000D02*
X132050000Y-48450000D01*
X132250000Y-46850000D02*
X132250000Y-48250000D01*
D55*
X176300000Y-82500000D02*
X173700000Y-79900000D01*
X189410000Y-85880000D02*
X186030000Y-82500000D01*
X186030000Y-82500000D02*
X176300000Y-82500000D01*
X148600000Y-79900000D02*
X170000000Y-79900000D01*
X145200000Y-86000000D02*
X145200000Y-83300000D01*
X145200000Y-83300000D02*
X148600000Y-79900000D01*
X142260000Y-87385000D02*
X143815000Y-87385000D01*
X143815000Y-87385000D02*
X145200000Y-86000000D01*
D54*
X132250000Y-59900000D02*
X132050000Y-60100000D01*
X132250000Y-58550000D02*
X132250000Y-59900000D01*
X188050000Y-48650000D02*
X186600000Y-48650000D01*
X188250000Y-60300000D02*
X188050000Y-60500000D01*
X188250000Y-58900000D02*
X188250000Y-60300000D01*
X82500000Y-64150000D02*
X82700000Y-64350000D01*
X81100000Y-64150000D02*
X82500000Y-64150000D01*
X82500000Y-57350000D02*
X82700000Y-57550000D01*
X81100000Y-57350000D02*
X82500000Y-57350000D01*
X103200000Y-52250000D02*
X102250000Y-52250000D01*
X100650000Y-50650000D02*
X100650000Y-47600000D01*
X102250000Y-52250000D02*
X100650000Y-50650000D01*
X103875001Y-51669999D02*
X103875001Y-54730001D01*
X103875001Y-54730001D02*
X103200000Y-55405002D01*
X101500000Y-50250000D02*
X102874999Y-51624999D01*
X103830001Y-51624999D02*
X103875001Y-51669999D01*
X103200000Y-55405002D02*
X103200000Y-55650000D01*
X102874999Y-51624999D02*
X103830001Y-51624999D01*
X102300000Y-50505002D02*
X102300000Y-47600000D01*
X103119986Y-51324988D02*
X102300000Y-50505002D01*
X104199934Y-58050066D02*
X104199934Y-51570653D01*
X103954269Y-51324988D02*
X103119986Y-51324988D01*
X104199934Y-51570653D02*
X103954269Y-51324988D01*
X103200000Y-59050000D02*
X104199934Y-58050066D01*
X103150000Y-50250000D02*
X103320719Y-50250000D01*
X104499945Y-61150055D02*
X103200000Y-62450000D01*
X104499945Y-51429226D02*
X104499945Y-61150055D01*
X103320719Y-50250000D02*
X104499945Y-51429226D01*
X79199967Y-64149967D02*
X79199967Y-48502921D01*
X79199967Y-48502921D02*
X81975000Y-45727888D01*
X81100000Y-66050000D02*
X79199967Y-64149967D01*
X81975000Y-45727888D02*
X81975000Y-43750000D01*
X104000000Y-47600000D02*
X104000000Y-50505002D01*
X104799956Y-64250044D02*
X103200000Y-65850000D01*
X104799956Y-51304958D02*
X104799956Y-64250044D01*
X104000000Y-50505002D02*
X104799956Y-51304958D01*
X140175688Y-46400033D02*
X153972804Y-46400033D01*
X137000000Y-55850000D02*
X136324999Y-55174999D01*
X155825000Y-44547837D02*
X155825000Y-42700000D01*
X153972804Y-46400033D02*
X155825000Y-44547837D01*
X136324999Y-50250722D02*
X140175688Y-46400033D01*
X136324999Y-55174999D02*
X136324999Y-50250722D01*
X161175045Y-66075045D02*
X161175045Y-50375045D01*
X161175045Y-50375045D02*
X161050000Y-50250000D01*
X162850000Y-67750000D02*
X161175045Y-66075045D01*
X215950000Y-65850000D02*
X215300000Y-65850000D01*
X216700020Y-65099980D02*
X215950000Y-65850000D01*
X216250000Y-47600000D02*
X216250000Y-51096440D01*
X216700020Y-51546460D02*
X216700020Y-65099980D01*
X216250000Y-51096440D02*
X216700020Y-51546460D01*
X193050000Y-50947112D02*
X193050000Y-52450000D01*
X195997057Y-48000055D02*
X193050000Y-50947112D01*
X204721005Y-47975115D02*
X200950516Y-47975115D01*
X200925576Y-48000055D02*
X195997057Y-48000055D01*
X210175000Y-42521120D02*
X204721005Y-47975115D01*
X200950516Y-47975115D02*
X200925576Y-48000055D01*
X210175000Y-41450000D02*
X210175000Y-42521120D01*
X217100000Y-50250000D02*
X217000031Y-50349969D01*
X217000031Y-50349969D02*
X217000031Y-66050031D01*
X217000031Y-66050031D02*
X218700000Y-67750000D01*
X218050000Y-64350000D02*
X218700000Y-64350000D01*
X217300042Y-63600042D02*
X218050000Y-64350000D01*
X217300042Y-51199958D02*
X217300042Y-63600042D01*
X217900000Y-47600000D02*
X217900000Y-50600000D01*
X217900000Y-50600000D02*
X217300042Y-51199958D01*
X210825000Y-44075000D02*
X210825000Y-41450000D01*
X212850000Y-46100000D02*
X210825000Y-44075000D01*
X211475000Y-43619998D02*
X211475000Y-41450000D01*
X213700000Y-45844998D02*
X211475000Y-43619998D01*
X213700000Y-48750000D02*
X213700000Y-45844998D01*
X217600053Y-60300053D02*
X218250000Y-60950000D01*
X217600053Y-51324225D02*
X217600053Y-60300053D01*
X218750000Y-50250000D02*
X218674278Y-50250000D01*
X218250000Y-60950000D02*
X218700000Y-60950000D01*
X218674278Y-50250000D02*
X217600053Y-51324225D01*
X218250000Y-57550000D02*
X218700000Y-57550000D01*
X217900064Y-57200064D02*
X218250000Y-57550000D01*
X219600000Y-50600000D02*
X219302318Y-50897682D01*
X219600000Y-47600000D02*
X219600000Y-50600000D01*
X217900064Y-51448492D02*
X217900064Y-57200064D01*
X219302318Y-50897682D02*
X218450876Y-50897682D01*
X218450876Y-50897682D02*
X217900064Y-51448492D01*
X210825000Y-39125000D02*
X210825000Y-35550000D01*
X214550000Y-46100000D02*
X212125767Y-43675767D01*
X212125767Y-40425767D02*
X210825000Y-39125000D01*
X212125767Y-43675767D02*
X212125767Y-40425767D01*
X213575002Y-44020000D02*
X215400000Y-45844998D01*
X215400000Y-45844998D02*
X215400000Y-48750000D01*
X213575002Y-41500002D02*
X213575002Y-44020000D01*
X213525000Y-41450000D02*
X213575002Y-41500002D01*
X218700000Y-53600000D02*
X220450000Y-51850000D01*
X218700000Y-54150000D02*
X218700000Y-53600000D01*
X220450000Y-51850000D02*
X220450000Y-50250000D01*
X239500000Y-52450000D02*
X239300000Y-52250000D01*
X240900000Y-52450000D02*
X239500000Y-52450000D01*
X214825000Y-41450000D02*
X214825000Y-43225000D01*
X217100000Y-45500000D02*
X217100000Y-48750000D01*
X214825000Y-43225000D02*
X217100000Y-45500000D01*
X239500000Y-55850000D02*
X239300000Y-55650000D01*
X240900000Y-55850000D02*
X239500000Y-55850000D01*
X215300000Y-55650000D02*
X214174817Y-54524817D01*
X213700000Y-50984154D02*
X213692077Y-50992077D01*
X214174817Y-52642088D02*
X213774818Y-52242089D01*
X213700000Y-50250000D02*
X213700000Y-50984154D01*
X214174817Y-54524817D02*
X214174817Y-52642088D01*
X204223933Y-46775071D02*
X200453444Y-46775071D01*
X207575000Y-41450000D02*
X207575000Y-43424004D01*
X191400000Y-64400000D02*
X193050000Y-66050000D01*
X200428504Y-46800011D02*
X195499989Y-46800011D01*
X195499989Y-46800011D02*
X191400000Y-50900000D01*
X200453444Y-46775071D02*
X200428504Y-46800011D01*
X207575000Y-43424004D02*
X204223933Y-46775071D01*
X191400000Y-50900000D02*
X191400000Y-64400000D01*
X215475000Y-43450722D02*
X217900000Y-45875722D01*
X217900000Y-45875722D02*
X217900000Y-46100000D01*
X215475000Y-41450000D02*
X215475000Y-43450722D01*
X239500000Y-59250000D02*
X239300000Y-59050000D01*
X240900000Y-59250000D02*
X239500000Y-59250000D01*
X239500000Y-62650000D02*
X239300000Y-62450000D01*
X240900000Y-62650000D02*
X239500000Y-62650000D01*
X219600000Y-45975722D02*
X219600000Y-46100000D01*
X216775000Y-41450000D02*
X216775000Y-43150722D01*
X216775000Y-43150722D02*
X219600000Y-45975722D01*
X239500000Y-66050000D02*
X239300000Y-65850000D01*
X240900000Y-66050000D02*
X239500000Y-66050000D01*
X204472469Y-47375093D02*
X200701980Y-47375093D01*
X208875000Y-41450000D02*
X208875000Y-42972562D01*
X192074988Y-58274988D02*
X193050000Y-59250000D01*
X195748523Y-47400033D02*
X192074988Y-51073568D01*
X200701980Y-47375093D02*
X200677040Y-47400033D01*
X200677040Y-47400033D02*
X195748523Y-47400033D01*
X208875000Y-42972562D02*
X204472469Y-47375093D01*
X192074988Y-51073568D02*
X192074988Y-58274988D01*
X216025001Y-58324999D02*
X215300000Y-59050000D01*
X216025001Y-51725001D02*
X216025001Y-58324999D01*
X214600000Y-47650000D02*
X214600000Y-50555002D01*
X214550000Y-47600000D02*
X214600000Y-47650000D01*
X215300000Y-51000000D02*
X216025001Y-51725001D01*
X214600000Y-50555002D02*
X215044998Y-51000000D01*
X215044998Y-51000000D02*
X215300000Y-51000000D01*
X162675000Y-48675000D02*
X162750000Y-48750000D01*
X162675000Y-42700000D02*
X162675000Y-48675000D01*
X183600000Y-62650000D02*
X183400000Y-62450000D01*
X185000000Y-62650000D02*
X183600000Y-62650000D01*
X138400000Y-67550000D02*
X138600000Y-67750000D01*
X137050000Y-67550000D02*
X138400000Y-67550000D01*
X107475000Y-44675000D02*
X107475000Y-43750000D01*
X106550000Y-48750000D02*
X106550000Y-45600000D01*
X106550000Y-45600000D02*
X107475000Y-44675000D01*
X161475056Y-51100665D02*
X161475056Y-62975056D01*
X161900000Y-50675722D02*
X161475056Y-51100665D01*
X161900000Y-47600000D02*
X161900000Y-50675722D01*
X161475056Y-62975056D02*
X162850000Y-64350000D01*
X162850000Y-60950000D02*
X161775067Y-59875067D01*
X161775067Y-59875067D02*
X161775067Y-51224933D01*
X161775067Y-51224933D02*
X162750000Y-50250000D01*
X156800000Y-45100000D02*
X156800000Y-46100000D01*
X157125000Y-42700000D02*
X157125000Y-44775000D01*
X157125000Y-44775000D02*
X156800000Y-45100000D01*
X162530003Y-51574999D02*
X162125001Y-51574999D01*
X163600000Y-47600000D02*
X163600000Y-50505002D01*
X163600000Y-50505002D02*
X162530003Y-51574999D01*
X162124999Y-56824999D02*
X162850000Y-57550000D01*
X162124999Y-51575001D02*
X162124999Y-56824999D01*
X162125001Y-51574999D02*
X162124999Y-51575001D01*
X157125000Y-40450004D02*
X157125000Y-36800000D01*
X158500000Y-46100000D02*
X158500000Y-41825004D01*
X158500000Y-41825004D02*
X157125000Y-40450004D01*
X162850000Y-53600000D02*
X164800000Y-51650000D01*
X162850000Y-54150000D02*
X162850000Y-53600000D01*
X164800000Y-51650000D02*
X164800000Y-50800000D01*
X164450000Y-50450000D02*
X164450000Y-50250000D01*
X164800000Y-50800000D02*
X164450000Y-50450000D01*
X160725000Y-45175000D02*
X160725000Y-42700000D01*
X160200000Y-46100000D02*
X160200000Y-45700000D01*
X160200000Y-45700000D02*
X160725000Y-45175000D01*
X183600000Y-52450000D02*
X183400000Y-52250000D01*
X185000000Y-52450000D02*
X183600000Y-52450000D01*
X183600000Y-59250000D02*
X183400000Y-59050000D01*
X185000000Y-59250000D02*
X183600000Y-59250000D01*
X162025000Y-45975000D02*
X161900000Y-46100000D01*
X162025000Y-42700000D02*
X162025000Y-45975000D01*
X163325000Y-45825000D02*
X163600000Y-46100000D01*
X163325000Y-42700000D02*
X163325000Y-45825000D01*
X183600000Y-66050000D02*
X183400000Y-65850000D01*
X185000000Y-66050000D02*
X183600000Y-66050000D01*
X194400000Y-67550000D02*
X194600000Y-67750000D01*
X193050000Y-67550000D02*
X194400000Y-67550000D01*
X164450000Y-45650000D02*
X164450000Y-48750000D01*
X163975000Y-42700000D02*
X163975000Y-45175000D01*
X163975000Y-45175000D02*
X164450000Y-45650000D01*
X194400000Y-64150000D02*
X194600000Y-64350000D01*
X193050000Y-64150000D02*
X194400000Y-64150000D01*
X194400000Y-60750000D02*
X194600000Y-60950000D01*
X193050000Y-60750000D02*
X194400000Y-60750000D01*
X194400000Y-57350000D02*
X194600000Y-57550000D01*
X193050000Y-57350000D02*
X194400000Y-57350000D01*
X194400000Y-53950000D02*
X194600000Y-54150000D01*
X193050000Y-53950000D02*
X194400000Y-53950000D01*
X186200011Y-52072845D02*
X186200011Y-59549989D01*
X170801420Y-46349978D02*
X180477144Y-46349978D01*
X186200011Y-59549989D02*
X185000000Y-60750000D01*
X169525000Y-45073558D02*
X170801420Y-46349978D01*
X169525000Y-42700000D02*
X169525000Y-45073558D01*
X180477144Y-46349978D02*
X186200011Y-52072845D01*
X170175000Y-42700000D02*
X170175000Y-45199279D01*
X186500022Y-51948577D02*
X186500022Y-62649978D01*
X170175000Y-45199279D02*
X171025688Y-46049967D01*
X171025688Y-46049967D02*
X180601412Y-46049967D01*
X186500022Y-62649978D02*
X185000000Y-64150000D01*
X180601412Y-46049967D02*
X186500022Y-51948577D01*
X213392075Y-51617079D02*
X212850000Y-51075004D01*
X214667079Y-51617079D02*
X213392075Y-51617079D01*
X215300000Y-52250000D02*
X214667079Y-51617079D01*
X212850000Y-51075004D02*
X212850000Y-47600000D01*
X154525000Y-44999279D02*
X154525000Y-42700000D01*
X153724268Y-45800011D02*
X154525000Y-44999279D01*
X137050000Y-62650000D02*
X135700011Y-61300011D01*
X135700011Y-61300011D02*
X135700011Y-50027152D01*
X139927152Y-45800011D02*
X153724268Y-45800011D01*
X135700011Y-50027152D02*
X139927152Y-45800011D01*
X159425721Y-50250000D02*
X160575023Y-51399302D01*
X160575023Y-61124977D02*
X159250000Y-62450000D01*
X159350000Y-50250000D02*
X159425721Y-50250000D01*
X160575023Y-51399302D02*
X160575023Y-61124977D01*
X189950000Y-48650000D02*
X189950000Y-47350000D01*
X189950000Y-47350000D02*
X189900000Y-47300000D01*
D53*
X182250000Y-60950000D02*
X182200000Y-60900000D01*
X183400000Y-60950000D02*
X182250000Y-60950000D01*
X182450000Y-57550000D02*
X182200000Y-57800000D01*
X183400000Y-57550000D02*
X182450000Y-57550000D01*
X182450000Y-54150000D02*
X182300000Y-54300000D01*
X183400000Y-54150000D02*
X182450000Y-54150000D01*
X182550000Y-64350000D02*
X182500000Y-64400000D01*
X183400000Y-64350000D02*
X182550000Y-64350000D01*
X182750000Y-67750000D02*
X182500000Y-68000000D01*
X183400000Y-67750000D02*
X182750000Y-67750000D01*
X195550000Y-65850000D02*
X195600000Y-65800000D01*
X194600000Y-65850000D02*
X195550000Y-65850000D01*
X195550000Y-62450000D02*
X195600000Y-62400000D01*
X194600000Y-62450000D02*
X195550000Y-62450000D01*
X195350000Y-59050000D02*
X195700000Y-58700000D01*
X194600000Y-59050000D02*
X195350000Y-59050000D01*
X195750000Y-55650000D02*
X195800000Y-55600000D01*
X194600000Y-55650000D02*
X195750000Y-55650000D01*
X194600000Y-51100000D02*
X194700000Y-51000000D01*
X194600000Y-52250000D02*
X194600000Y-51100000D01*
X215300000Y-53400000D02*
X215200000Y-53300000D01*
X215300000Y-54150000D02*
X215300000Y-53400000D01*
X214650000Y-57550000D02*
X214400000Y-57800000D01*
X215300000Y-57550000D02*
X214650000Y-57550000D01*
X214350000Y-60950000D02*
X214200000Y-61100000D01*
X215300000Y-60950000D02*
X214350000Y-60950000D01*
X214350000Y-64350000D02*
X214300000Y-64400000D01*
X215300000Y-64350000D02*
X214350000Y-64350000D01*
X214550000Y-67750000D02*
X214400000Y-67900000D01*
X215300000Y-67750000D02*
X214550000Y-67750000D01*
X219650000Y-65850000D02*
X219800000Y-65700000D01*
X218700000Y-65850000D02*
X219650000Y-65850000D01*
X219850000Y-62450000D02*
X219900000Y-62500000D01*
X218700000Y-62450000D02*
X219850000Y-62450000D01*
X219968329Y-59050000D02*
X219981671Y-59063342D01*
X218700000Y-59050000D02*
X219968329Y-59050000D01*
X219850000Y-55650000D02*
X219900000Y-55600000D01*
X218700000Y-55650000D02*
X219850000Y-55650000D01*
X239300000Y-67750000D02*
X238650000Y-67750000D01*
X238650000Y-67750000D02*
X238300000Y-68100000D01*
X239300000Y-64350000D02*
X238450000Y-64350000D01*
X238450000Y-64350000D02*
X238300000Y-64500000D01*
X239300000Y-60950000D02*
X238650000Y-60950000D01*
X238650000Y-60950000D02*
X238500000Y-61100000D01*
X239300000Y-57550000D02*
X238750000Y-57550000D01*
X238750000Y-57550000D02*
X238300000Y-58000000D01*
X239300000Y-54150000D02*
X238450000Y-54150000D01*
X238450000Y-54150000D02*
X238400000Y-54100000D01*
X138600000Y-55650000D02*
X139350000Y-55650000D01*
X139350000Y-55650000D02*
X139600000Y-55400000D01*
X138600000Y-59050000D02*
X139450000Y-59050000D01*
X139450000Y-59050000D02*
X139700000Y-58800000D01*
X138600000Y-52250000D02*
X139350000Y-52250000D01*
X139350000Y-52250000D02*
X139700000Y-51900000D01*
X138600000Y-62450000D02*
X139450000Y-62450000D01*
X139450000Y-62450000D02*
X139700000Y-62200000D01*
X138600000Y-65850000D02*
X139450000Y-65850000D01*
X139450000Y-65850000D02*
X139700000Y-65600000D01*
X127300000Y-67750000D02*
X126350000Y-67750000D01*
X126350000Y-67750000D02*
X126200000Y-67900000D01*
X127300000Y-64350000D02*
X126250000Y-64350000D01*
X126250000Y-64350000D02*
X126100000Y-64500000D01*
X127300000Y-60950000D02*
X126250000Y-60950000D01*
X126250000Y-60950000D02*
X126100000Y-61100000D01*
X127300000Y-57550000D02*
X126350000Y-57550000D01*
X126350000Y-57550000D02*
X126100000Y-57800000D01*
X127300000Y-54150000D02*
X126450000Y-54150000D01*
X126450000Y-54150000D02*
X126200000Y-54400000D01*
X103200000Y-67750000D02*
X102250000Y-67750000D01*
X102250000Y-67750000D02*
X101900000Y-68100000D01*
X103200000Y-64350000D02*
X102350000Y-64350000D01*
X102350000Y-64350000D02*
X102100000Y-64600000D01*
X106800000Y-65850000D02*
X107550000Y-65850000D01*
X107550000Y-65850000D02*
X107900000Y-65500000D01*
X106800000Y-62450000D02*
X107550000Y-62450000D01*
X107550000Y-62450000D02*
X107900000Y-62100000D01*
X103200000Y-60950000D02*
X102250000Y-60950000D01*
X102250000Y-60950000D02*
X102000000Y-61200000D01*
X103200000Y-57550000D02*
X102450000Y-57550000D01*
X102450000Y-57550000D02*
X102200000Y-57800000D01*
X106800000Y-59050000D02*
X107850000Y-59050000D01*
X107850000Y-59050000D02*
X108200000Y-58700000D01*
X106800000Y-55650000D02*
X107950000Y-55650000D01*
X107950000Y-55650000D02*
X108000000Y-55600000D01*
X103200000Y-54150000D02*
X102350000Y-54150000D01*
X102350000Y-54150000D02*
X102200000Y-54300000D01*
X82700000Y-65850000D02*
X83950000Y-65850000D01*
X83950000Y-65850000D02*
X84200000Y-65600000D01*
X82700000Y-62450000D02*
X83950000Y-62450000D01*
X83950000Y-62450000D02*
X84200000Y-62200000D01*
X82700000Y-59050000D02*
X83850000Y-59050000D01*
X83850000Y-59050000D02*
X84100000Y-58800000D01*
X82700000Y-55650000D02*
X83650000Y-55650000D01*
X83650000Y-55650000D02*
X84100000Y-55200000D01*
X82700000Y-52250000D02*
X83950000Y-52250000D01*
X83950000Y-52250000D02*
X84100000Y-52100000D01*
X131395013Y-34577406D02*
X132181670Y-33790749D01*
X132181670Y-33790749D02*
X132968326Y-33004093D01*
X132968326Y-33004093D02*
X133754982Y-33790749D01*
X133754982Y-33790749D02*
X134541639Y-34577406D01*
X134541639Y-34577406D02*
X135328295Y-35364062D01*
X135328295Y-35364062D02*
X134541639Y-36150718D01*
X134541639Y-36150718D02*
X134541638Y-36150718D01*
X134541638Y-36150718D02*
X133754982Y-35364062D01*
X133754982Y-35364062D02*
X132968326Y-34577406D01*
X132968326Y-34577406D02*
X132181670Y-35364062D01*
X132181670Y-35364062D02*
X132968326Y-36150718D01*
X132968326Y-36150718D02*
X132968326Y-36150719D01*
X132968326Y-36150719D02*
X133754982Y-36937375D01*
D54*
X131677856Y-33790749D02*
X132181670Y-33790749D01*
X130988427Y-33101320D02*
X131677856Y-33790749D01*
X135169195Y-34577406D02*
X134541639Y-34577406D01*
X135796753Y-33949848D02*
X135169195Y-34577406D01*
D53*
X135260000Y-26230000D02*
X136860000Y-26230000D01*
X137870000Y-26230000D02*
X137900000Y-26200000D01*
X136860000Y-26230000D02*
X137870000Y-26230000D01*
X140730330Y-28919670D02*
X140730330Y-28869670D01*
X140730330Y-28869670D02*
X141600000Y-28000000D01*
X142167107Y-29872893D02*
X142227107Y-29872893D01*
X142227107Y-29872893D02*
X143200000Y-28900000D01*
X128319670Y-29319670D02*
X128319670Y-28019670D01*
X128319670Y-28019670D02*
X128200000Y-27900000D01*
D54*
X130210610Y-32323503D02*
X130210610Y-31616396D01*
X130988427Y-33101320D02*
X130210610Y-32323503D01*
D53*
X148010000Y-34180000D02*
X149080000Y-34180000D01*
X149080000Y-34180000D02*
X149100000Y-34200000D01*
X162500000Y-34900000D02*
X161300000Y-34900000D01*
X160650000Y-33150000D02*
X160650000Y-32150000D01*
X160650000Y-32150000D02*
X160600000Y-32100000D01*
X160650000Y-32050000D02*
X160600000Y-32100000D01*
X160650000Y-30650000D02*
X160650000Y-32050000D01*
X158050000Y-33350000D02*
X159250000Y-33350000D01*
X159250000Y-33350000D02*
X159300000Y-33300000D01*
X174800000Y-27150000D02*
X176150000Y-27150000D01*
X176150000Y-27150000D02*
X176200000Y-27200000D01*
X217450000Y-32150000D02*
X217450000Y-31050000D01*
X217450000Y-31050000D02*
X217400000Y-31000000D01*
X219900001Y-31050000D02*
X218750000Y-31050001D01*
X218750000Y-31050001D02*
X218700000Y-31000000D01*
X211450000Y-32150000D02*
X211450000Y-31050000D01*
X211450000Y-31050000D02*
X211500000Y-31000000D01*
X133950000Y-48450000D02*
X133950000Y-49750000D01*
X133950000Y-49750000D02*
X134200000Y-50000000D01*
X189799990Y-62087374D02*
X190000012Y-62287396D01*
X189799990Y-60650010D02*
X189799990Y-62087374D01*
X189950000Y-60500000D02*
X189799990Y-60650010D01*
X165625000Y-42700000D02*
X165625000Y-44325000D01*
X165625000Y-44325000D02*
X165700000Y-44400000D01*
X159425000Y-42700000D02*
X159425000Y-44075000D01*
X159425000Y-44075000D02*
X159400000Y-44100000D01*
D55*
X159250000Y-57550000D02*
X158250000Y-57550000D01*
X158250000Y-57550000D02*
X158200000Y-57600000D01*
X159250000Y-60950000D02*
X158250000Y-60950000D01*
X158250000Y-60950000D02*
X158200000Y-60900000D01*
X162850000Y-59050000D02*
X163950000Y-59050000D01*
X163950000Y-59050000D02*
X164000000Y-59000000D01*
X162850000Y-55650000D02*
X163950000Y-55650000D01*
X163950000Y-55650000D02*
X164000000Y-55700000D01*
X159250000Y-54150000D02*
X158250000Y-54150000D01*
X158250000Y-54150000D02*
X158100000Y-54300000D01*
X162850000Y-62450000D02*
X164055799Y-62450000D01*
X164055799Y-62450000D02*
X164091302Y-62485503D01*
X159250000Y-64350000D02*
X158150000Y-64350000D01*
X158150000Y-64350000D02*
X158000000Y-64500000D01*
X159250000Y-67750000D02*
X158250000Y-67750000D01*
X158250000Y-67750000D02*
X158000000Y-68000000D01*
X162850000Y-65850000D02*
X164150000Y-65850000D01*
X164150000Y-65850000D02*
X164200000Y-65800000D01*
X163245391Y-52250000D02*
X163690520Y-51804871D01*
X162850000Y-52250000D02*
X163245391Y-52250000D01*
X236150000Y-41000000D02*
X237000000Y-41000000D01*
X237000000Y-41000000D02*
X237100000Y-41100000D01*
X235800000Y-42600000D02*
X236900000Y-42600000D01*
X235800000Y-44300000D02*
X236600000Y-44300000D01*
X236600000Y-44300000D02*
X236700000Y-44200000D01*
D56*
X241850000Y-34300000D02*
X241850000Y-32750000D01*
X241850000Y-32750000D02*
X241800000Y-32700000D01*
X241850000Y-34300000D02*
X243700000Y-34300000D01*
X240310000Y-29060000D02*
X240310000Y-27610000D01*
X240310000Y-27610000D02*
X240300000Y-27600000D01*
X238410000Y-29610000D02*
X238410000Y-28490000D01*
X238410000Y-28490000D02*
X238500000Y-28400000D01*
X235810000Y-27435000D02*
X233735000Y-27435000D01*
X233735000Y-27435000D02*
X233700000Y-27400000D01*
X235810000Y-27435000D02*
X235810000Y-25910000D01*
X235810000Y-25910000D02*
X235800000Y-25900000D01*
D53*
X229350000Y-35625000D02*
X230875000Y-35625000D01*
X230875000Y-35625000D02*
X230900000Y-35600000D01*
X212875000Y-42975000D02*
X212900000Y-43000000D01*
X212875000Y-41450000D02*
X212875000Y-42975000D01*
X206925000Y-43075000D02*
X206900000Y-43100000D01*
X206925000Y-41450000D02*
X206925000Y-43075000D01*
X187510000Y-92680000D02*
X186320000Y-92680000D01*
X186320000Y-92680000D02*
X186300000Y-92700000D01*
X148345000Y-84845000D02*
X149200000Y-85700000D01*
X147660000Y-84845000D02*
X148345000Y-84845000D01*
X149970000Y-84930000D02*
X149200000Y-85700000D01*
X150060000Y-84930000D02*
X149970000Y-84930000D01*
X148785000Y-86115000D02*
X149200000Y-85700000D01*
X147660000Y-86115000D02*
X148785000Y-86115000D01*
X150060000Y-88930000D02*
X150730000Y-88930000D01*
X150730000Y-88930000D02*
X150900000Y-89100000D01*
X147385000Y-91325000D02*
X145845000Y-91325000D01*
X145845000Y-91325000D02*
X145700000Y-91180000D01*
X144860000Y-91180000D02*
X144860000Y-92120000D01*
X144860000Y-91180000D02*
X144860000Y-91280000D01*
X144860000Y-91280000D02*
X145700000Y-92120000D01*
X144355000Y-92625000D02*
X144860000Y-92120000D01*
X143175000Y-92625000D02*
X144355000Y-92625000D01*
X146205000Y-92625000D02*
X145700000Y-92120000D01*
X147385000Y-92625000D02*
X146205000Y-92625000D01*
X145700000Y-92120000D02*
X144860000Y-92120000D01*
X149160000Y-90830000D02*
X149160000Y-90660000D01*
X149160000Y-90660000D02*
X148200000Y-89700000D01*
X136010000Y-86080000D02*
X136010000Y-84810000D01*
X136010000Y-84810000D02*
X135900000Y-84700000D01*
X167850000Y-34850000D02*
X167500000Y-34500000D01*
X168650000Y-34850000D02*
X167850000Y-34850000D01*
X167495000Y-34495000D02*
X167500000Y-34500000D01*
X167495000Y-32695000D02*
X167495000Y-34495000D01*
X143230330Y-31269670D02*
X144082322Y-30417678D01*
X144082322Y-30417678D02*
X144117678Y-30417678D01*
X133950000Y-60100000D02*
X133950000Y-61125030D01*
X133950000Y-61125030D02*
X134024970Y-61200000D01*
X153225000Y-43591824D02*
X152758412Y-44058412D01*
X153225000Y-42700000D02*
X153225000Y-43591824D01*
X107500000Y-51550000D02*
X107500000Y-51400000D01*
X106800000Y-52250000D02*
X107500000Y-51550000D01*
X92950000Y-74300000D02*
X92000000Y-74300000D01*
X93250000Y-72500000D02*
X92000000Y-72500000D01*
X93250000Y-76200000D02*
X92100000Y-76200000D01*
X127674990Y-84300000D02*
X127700000Y-84325010D01*
X126300000Y-84300000D02*
X127674990Y-84300000D01*
X110200000Y-39350000D02*
X109275054Y-39350000D01*
X109275054Y-39350000D02*
X109200000Y-39274946D01*
X129429670Y-41710330D02*
X129819340Y-42100000D01*
X129819340Y-42100000D02*
X130300000Y-42100000D01*
X111525000Y-44933901D02*
X111805985Y-45214886D01*
X111525000Y-43750000D02*
X111525000Y-44933901D01*
X104225000Y-42574996D02*
X104699996Y-42100000D01*
X104225000Y-43750000D02*
X104225000Y-42574996D01*
X140170000Y-92030000D02*
X140100000Y-92100000D01*
X141360000Y-92030000D02*
X140170000Y-92030000D01*
X130852438Y-35147562D02*
X130600000Y-35400000D01*
X130852438Y-35119981D02*
X130852438Y-35147562D01*
X131395013Y-34577406D02*
X130852438Y-35119981D01*
X130600000Y-35400000D02*
X131400000Y-36200000D01*
X131400000Y-36200000D02*
X131500000Y-36200000D01*
X132300000Y-37000000D02*
X132400000Y-37000000D01*
X131500000Y-36200000D02*
X132300000Y-37000000D01*
X133754982Y-36937375D02*
X133000000Y-37692357D01*
X133000000Y-37692357D02*
X133000000Y-37700000D01*
X132400000Y-37000000D02*
X133000000Y-37600000D01*
X133000000Y-37600000D02*
X133000000Y-37700000D01*
X148010000Y-36780000D02*
X148010000Y-37605656D01*
X148010000Y-37605656D02*
X147924039Y-37691617D01*
X123630000Y-37370000D02*
X123600000Y-37400000D01*
X123630000Y-36435000D02*
X123630000Y-37370000D01*
X117500000Y-39350000D02*
X116750000Y-39350000D01*
X116750000Y-39350000D02*
X116741949Y-39358051D01*
D56*
X130300000Y-42100000D02*
X129499992Y-42900008D01*
X129499992Y-42900008D02*
X129499992Y-43374935D01*
D53*
X218950000Y-52250000D02*
X219600000Y-51600000D01*
X218700000Y-52250000D02*
X218950000Y-52250000D01*
X87500000Y-39350000D02*
X88850000Y-39350000D01*
X88850000Y-39350000D02*
X88900000Y-39300000D01*
X81325000Y-43750000D02*
X81325000Y-44775000D01*
X81325000Y-44775000D02*
X80900000Y-45200000D01*
X128200000Y-27900000D02*
X126000000Y-25700000D01*
X126000000Y-25700000D02*
X123400000Y-25700000D01*
X123400000Y-25700000D02*
X123300000Y-25600000D01*
X129120000Y-26230000D02*
X129100000Y-26250000D01*
X130460000Y-26230000D02*
X129120000Y-26230000D01*
X80606066Y-75265355D02*
X81165355Y-75265355D01*
X81165355Y-75265355D02*
X81700000Y-75800000D01*
X238640000Y-44260000D02*
X238600000Y-44300000D01*
X238640000Y-42110000D02*
X238640000Y-44260000D01*
X238700000Y-44400000D02*
X238600000Y-44300000D01*
X240150000Y-44400000D02*
X238700000Y-44400000D01*
X238640000Y-40040000D02*
X238600000Y-40000000D01*
X238640000Y-42110000D02*
X238640000Y-40040000D01*
X195750000Y-40550000D02*
X196450000Y-40550000D01*
X189600000Y-34400000D02*
X195750000Y-40550000D01*
X183100000Y-40900000D02*
X183100000Y-41100000D01*
X189600000Y-34400000D02*
X183100000Y-40900000D01*
X157775000Y-35125000D02*
X158050000Y-34850000D01*
X157775000Y-36800000D02*
X157775000Y-35125000D01*
X163750000Y-27200000D02*
X163750000Y-28600000D01*
X170150000Y-36775000D02*
X170175000Y-36800000D01*
X170150000Y-34850000D02*
X170150000Y-36775000D01*
X164000000Y-36775000D02*
X163975000Y-36800000D01*
X164000000Y-34900000D02*
X164000000Y-36775000D01*
X223425000Y-31050000D02*
X223450000Y-31075000D01*
X221399999Y-31050000D02*
X223425000Y-31050000D01*
X217450000Y-35525000D02*
X217425000Y-35550000D01*
X217450000Y-33650000D02*
X217450000Y-35525000D01*
D56*
X235550000Y-36600000D02*
X241850000Y-36600000D01*
X235550000Y-30745000D02*
X235810000Y-30485000D01*
X235550000Y-36600000D02*
X235550000Y-30745000D01*
X236435000Y-31110000D02*
X235810000Y-30485000D01*
X238410000Y-31110000D02*
X236435000Y-31110000D01*
X240260000Y-31110000D02*
X240310000Y-31060000D01*
X238410000Y-31110000D02*
X240260000Y-31110000D01*
D53*
X211475000Y-33675000D02*
X211450000Y-33650000D01*
X211475000Y-35550000D02*
X211475000Y-33675000D01*
D56*
X153200000Y-25900000D02*
X151100000Y-28000000D01*
D53*
X163750000Y-27200000D02*
X163750000Y-26050000D01*
X163750000Y-26050000D02*
X163600000Y-25900000D01*
D56*
X163600000Y-25900000D02*
X153200000Y-25900000D01*
D53*
X164000000Y-34900000D02*
X165100000Y-34900000D01*
X170150000Y-34850000D02*
X171250000Y-34850000D01*
X171250000Y-34850000D02*
X171300000Y-34900000D01*
X136860000Y-27730000D02*
X139270000Y-27730000D01*
X139270000Y-27730000D02*
X140300000Y-26700000D01*
X149800000Y-26700000D02*
X151100000Y-28000000D01*
X144900000Y-26700000D02*
X149800000Y-26700000D01*
X140300000Y-26700000D02*
X144900000Y-26700000D01*
X144900000Y-28574680D02*
X144900000Y-26700000D01*
X142274680Y-31200000D02*
X144900000Y-28574680D01*
X140752893Y-31287107D02*
X140840000Y-31200000D01*
X140840000Y-31200000D02*
X142274680Y-31200000D01*
D55*
X139100000Y-32400000D02*
X139640000Y-32400000D01*
X139640000Y-32400000D02*
X140752893Y-31287107D01*
X136645281Y-34798377D02*
X136701623Y-34798377D01*
X136701623Y-34798377D02*
X139100000Y-32400000D01*
D53*
X221399999Y-31800001D02*
X221399999Y-31050000D01*
X217450000Y-33650000D02*
X219550000Y-33650000D01*
X219550000Y-33650000D02*
X221399999Y-31800001D01*
X117500000Y-37850000D02*
X116075000Y-37850000D01*
X110200000Y-37850000D02*
X108775000Y-37850000D01*
X141530002Y-90700002D02*
X141360000Y-90530000D01*
X143175000Y-90675000D02*
X143149998Y-90700002D01*
X143149998Y-90700002D02*
X141530002Y-90700002D01*
D56*
X173300000Y-26800000D02*
X173300000Y-27150000D01*
X163600000Y-25900000D02*
X172400000Y-25900000D01*
X172400000Y-25900000D02*
X173300000Y-26800000D01*
D53*
X173300000Y-28000000D02*
X173300000Y-27150000D01*
X175280000Y-28840000D02*
X174140000Y-28840000D01*
X174140000Y-28840000D02*
X173300000Y-28000000D01*
X171980000Y-27745000D02*
X171305000Y-27745000D01*
X173300000Y-27150000D02*
X172575000Y-27150000D01*
X172575000Y-27150000D02*
X171980000Y-27745000D01*
X163099994Y-28600000D02*
X162999994Y-28500000D01*
X163750000Y-28600000D02*
X163099994Y-28600000D01*
X217450000Y-33650000D02*
X217299999Y-33499999D01*
X211600001Y-33499999D02*
X211450000Y-33650000D01*
X217299999Y-33499999D02*
X211600001Y-33499999D01*
X141360000Y-90530000D02*
X130030000Y-90530000D01*
X130030000Y-90530000D02*
X130000000Y-90500000D01*
X127600000Y-90500000D02*
X127600004Y-90500000D01*
X126300000Y-87300000D02*
X126300000Y-89200000D01*
X126300000Y-89200000D02*
X127600000Y-90500000D01*
D56*
X151100000Y-28000000D02*
X151100000Y-29128234D01*
X151500000Y-29528234D02*
X151500000Y-34800000D01*
X151100000Y-29128234D02*
X151500000Y-29528234D01*
D53*
X151600002Y-34699998D02*
X151500000Y-34800000D01*
X158050000Y-34850000D02*
X157899998Y-34699998D01*
X157899998Y-34699998D02*
X151600002Y-34699998D01*
D55*
X132402641Y-39041017D02*
X130793988Y-40649670D01*
X130793988Y-40649670D02*
X130490330Y-40649670D01*
D53*
X129535720Y-40649670D02*
X128855796Y-41329594D01*
X121150000Y-41500000D02*
X117500000Y-37850000D01*
X128178263Y-41329594D02*
X127973746Y-41125077D01*
X128855796Y-41329594D02*
X128178263Y-41329594D01*
X130490330Y-40649670D02*
X129535720Y-40649670D01*
X126170000Y-37070000D02*
X126300000Y-37200000D01*
X126170000Y-36435000D02*
X126170000Y-37070000D01*
X126674923Y-41125077D02*
X126300000Y-41500000D01*
X127973746Y-41125077D02*
X126674923Y-41125077D01*
X126300000Y-41500000D02*
X121150000Y-41500000D01*
X111049890Y-36700110D02*
X110200000Y-37550000D01*
X116350110Y-36700110D02*
X111049890Y-36700110D01*
X117500000Y-37850000D02*
X116350110Y-36700110D01*
X110200000Y-37850000D02*
X109050110Y-36700110D01*
X107300111Y-36700110D02*
X105400000Y-34799999D01*
X109050110Y-36700110D02*
X107300111Y-36700110D01*
X221400000Y-30374999D02*
X221400000Y-27400000D01*
X221399999Y-31050000D02*
X221400000Y-30374999D01*
D56*
X173300000Y-27000000D02*
X173300000Y-27150000D01*
X174000000Y-26300000D02*
X173300000Y-27000000D01*
X235810000Y-30485000D02*
X233285000Y-30485000D01*
X233285000Y-30485000D02*
X230200000Y-27400000D01*
X217300000Y-26300000D02*
X174000000Y-26300000D01*
X230200000Y-27400000D02*
X218400000Y-27400000D01*
X218400000Y-27400000D02*
X217300000Y-26300000D01*
D55*
X132000000Y-31284466D02*
X132000000Y-30400000D01*
X132000000Y-30400000D02*
X133600000Y-28800000D01*
X132402641Y-31687107D02*
X132000000Y-31284466D01*
X133600000Y-28800000D02*
X135790000Y-28800000D01*
X135790000Y-28800000D02*
X136860000Y-27730000D01*
D56*
X133015671Y-43175011D02*
X130490330Y-40649670D01*
X151825033Y-36225033D02*
X151825033Y-40346733D01*
X151500000Y-34800000D02*
X151500000Y-35900000D01*
X151825033Y-40346733D02*
X148996755Y-43175011D01*
X151500000Y-35900000D02*
X151825033Y-36225033D01*
X148996755Y-43175011D02*
X133015671Y-43175011D01*
D53*
X87500000Y-37850000D02*
X85875000Y-37850000D01*
X105300000Y-32000000D02*
X105321104Y-31978896D01*
X87500000Y-37850000D02*
X93350000Y-32000000D01*
X93350000Y-32000000D02*
X105300000Y-32000000D01*
X126300000Y-87300000D02*
X92179676Y-87300000D01*
X78956065Y-78765355D02*
X79000000Y-78809290D01*
X78824958Y-48347582D02*
X78824958Y-67224958D01*
X85150000Y-35500000D02*
X81400000Y-35500000D01*
X79900055Y-47272485D02*
X78824958Y-48347582D01*
X78824958Y-67224958D02*
X84400000Y-72800000D01*
X81400000Y-35500000D02*
X79900055Y-36999945D01*
X79900055Y-36999945D02*
X79900055Y-47272485D01*
X84400000Y-72800000D02*
X84900000Y-72800000D01*
X87500000Y-37850000D02*
X85150000Y-35500000D01*
X79000000Y-78900000D02*
X79000000Y-83700000D01*
X83100000Y-87800000D02*
X85700000Y-87800000D01*
X79000000Y-83700000D02*
X83100000Y-87800000D01*
X85710162Y-87789838D02*
X85700000Y-87800000D01*
X91689838Y-87789838D02*
X85710162Y-87789838D01*
X91689838Y-87789838D02*
X92179676Y-87300000D01*
X85700000Y-86300000D02*
X85700000Y-87800000D01*
X87324967Y-84675033D02*
X85700000Y-86300000D01*
X87324967Y-78024967D02*
X87324967Y-84675033D01*
X84500000Y-75200000D02*
X87324967Y-78024967D01*
X87780000Y-53200000D02*
X88990000Y-51990000D01*
X84700000Y-53200000D02*
X87780000Y-53200000D01*
X125050000Y-66800000D02*
X122740000Y-64490000D01*
X125300000Y-66800000D02*
X125050000Y-66800000D01*
X86130000Y-56600000D02*
X87240000Y-55490000D01*
X84700000Y-56600000D02*
X86130000Y-56600000D01*
X111780000Y-53200000D02*
X112990000Y-51990000D01*
X108800000Y-53200000D02*
X111780000Y-53200000D01*
X97904002Y-51990000D02*
X96990000Y-51990000D01*
X101200000Y-55285998D02*
X97904002Y-51990000D01*
X101200000Y-56600000D02*
X101200000Y-55285998D01*
X101200000Y-57950000D02*
X98740000Y-55490000D01*
X101200000Y-60000000D02*
X101200000Y-57950000D01*
X101200000Y-62450000D02*
X98740000Y-59990000D01*
X101200000Y-63400000D02*
X101200000Y-62450000D01*
X101050000Y-66800000D02*
X98740000Y-64490000D01*
X101200000Y-66800000D02*
X101050000Y-66800000D01*
X110150000Y-63400000D02*
X111240000Y-64490000D01*
X108800000Y-63400000D02*
X110150000Y-63400000D01*
X111230000Y-60000000D02*
X111240000Y-59990000D01*
X108800000Y-60000000D02*
X111230000Y-60000000D01*
X110130000Y-56600000D02*
X111240000Y-55490000D01*
X108800000Y-56600000D02*
X110130000Y-56600000D01*
X87230000Y-60000000D02*
X87240000Y-59990000D01*
X84700000Y-60000000D02*
X87230000Y-60000000D01*
X118280000Y-49700000D02*
X116990000Y-50990000D01*
X125300000Y-53200000D02*
X121800000Y-49700000D01*
X121800000Y-49700000D02*
X118280000Y-49700000D01*
X125300000Y-55385998D02*
X121904002Y-51990000D01*
X121904002Y-51990000D02*
X120990000Y-51990000D01*
X125300000Y-56600000D02*
X125300000Y-55385998D01*
X125300000Y-58050000D02*
X122740000Y-55490000D01*
X125300000Y-60000000D02*
X125300000Y-58050000D01*
X125300000Y-62550000D02*
X122740000Y-59990000D01*
X125300000Y-63400000D02*
X125300000Y-62550000D01*
X101200000Y-53200000D02*
X101200000Y-52700000D01*
X94489999Y-49490001D02*
X92990000Y-50990000D01*
X97990001Y-49490001D02*
X94489999Y-49490001D01*
X101200000Y-52700000D02*
X97990001Y-49490001D01*
X87800000Y-66800000D02*
X88990000Y-67990000D01*
X84700000Y-66800000D02*
X87800000Y-66800000D01*
X86150000Y-63400000D02*
X87240000Y-64490000D01*
X84700000Y-63400000D02*
X86150000Y-63400000D01*
X111800000Y-66800000D02*
X112990000Y-67990000D01*
X108800000Y-66800000D02*
X111800000Y-66800000D01*
D54*
X112825000Y-45925000D02*
X113425010Y-46525010D01*
X112825000Y-43750000D02*
X112825000Y-45925000D01*
X113425010Y-46525010D02*
X115700000Y-46525010D01*
X118709287Y-45500000D02*
X118408015Y-45801272D01*
X133750000Y-46850000D02*
X132400000Y-45500000D01*
X132400000Y-45500000D02*
X118709287Y-45500000D01*
X127121395Y-46700000D02*
X119519787Y-46700000D01*
X131300055Y-50878660D02*
X127121395Y-46700000D01*
X119519787Y-46700000D02*
X119194740Y-46374953D01*
X133750000Y-58550000D02*
X131300055Y-56100055D01*
X131300055Y-56100055D02*
X131300055Y-50878660D01*
X115401941Y-47151929D02*
X116413789Y-47151929D01*
X112175000Y-43750000D02*
X112175000Y-44699279D01*
X113425710Y-46949989D02*
X115200001Y-46949989D01*
X115200001Y-46949989D02*
X115401941Y-47151929D01*
X112524989Y-46049268D02*
X113425710Y-46949989D01*
X112524989Y-45049268D02*
X112524989Y-46049268D01*
X112175000Y-44699279D02*
X112524989Y-45049268D01*
X104225000Y-37850000D02*
X104225000Y-39505809D01*
X104225000Y-39505809D02*
X104274990Y-39555799D01*
X114775000Y-37850000D02*
X114775000Y-38823269D01*
X114775000Y-38823269D02*
X115090781Y-39139050D01*
X168799999Y-35824999D02*
X164875001Y-35824999D01*
X168875000Y-36800000D02*
X168875000Y-35900000D01*
X168875000Y-35900000D02*
X168799999Y-35824999D01*
X164425001Y-38874999D02*
X164100000Y-39200000D01*
X164425001Y-36274999D02*
X164425001Y-38874999D01*
X164875001Y-35824999D02*
X164425001Y-36274999D01*
X162500004Y-40700000D02*
X163000004Y-40200000D01*
X159700000Y-40700000D02*
X162500004Y-40700000D01*
X159425000Y-36800000D02*
X159425000Y-40425000D01*
X159425000Y-40425000D02*
X159700000Y-40700000D01*
D57*
X189410000Y-88180000D02*
X192235000Y-88180000D01*
X189410000Y-88180000D02*
X183110000Y-88180000D01*
X181510000Y-88180000D02*
X179360000Y-90330000D01*
X183110000Y-88180000D02*
X181510000Y-88180000D01*
D53*
X140325000Y-86115000D02*
X139960000Y-86480000D01*
X142260000Y-86115000D02*
X140325000Y-86115000D01*
X139960000Y-86480000D02*
X139960000Y-87625685D01*
X141934315Y-89600000D02*
X142600000Y-89600000D01*
X139960000Y-87625685D02*
X141934315Y-89600000D01*
X240200000Y-45800000D02*
X238200000Y-45800000D01*
X237950000Y-46050000D02*
X235850000Y-46050000D01*
X238200000Y-45800000D02*
X237950000Y-46050000D01*
D56*
X244687483Y-67462517D02*
X241250000Y-70900000D01*
X244687483Y-51087483D02*
X244687483Y-67462517D01*
X240200000Y-46600000D02*
X244687483Y-51087483D01*
X240200000Y-45800000D02*
X240200000Y-46600000D01*
D58*
X202145800Y-87450000D02*
X201345800Y-88250000D01*
X205050000Y-87450000D02*
X202145800Y-87450000D01*
X205050000Y-84800000D02*
X205050000Y-87450000D01*
X205950000Y-83900000D02*
X205050000Y-84800000D01*
X242500000Y-77600000D02*
X236200000Y-83900000D01*
X236200000Y-83900000D02*
X205950000Y-83900000D01*
X242500000Y-72150000D02*
X242500000Y-77600000D01*
X241250000Y-70900000D02*
X242500000Y-72150000D01*
D53*
X143649999Y-94449999D02*
X143000001Y-93800001D01*
X202450001Y-94449999D02*
X143649999Y-94449999D01*
X203600000Y-93300000D02*
X202450001Y-94449999D01*
X203600000Y-88900000D02*
X203600000Y-93300000D01*
X205050000Y-87450000D02*
X203600000Y-88900000D01*
X153000000Y-68000000D02*
X152990000Y-67990000D01*
X153000000Y-75600000D02*
X153000000Y-68000000D01*
X176990000Y-75590000D02*
X177000000Y-75600000D01*
X176990000Y-67990000D02*
X176990000Y-75590000D01*
X208990000Y-75590000D02*
X209000000Y-75600000D01*
X208990000Y-67990000D02*
X208990000Y-75590000D01*
X232990000Y-73709999D02*
X232399999Y-74300000D01*
X232990000Y-67990000D02*
X232990000Y-73709999D01*
D54*
X184050002Y-48650000D02*
X184700000Y-48650000D01*
X167325000Y-41400000D02*
X171874278Y-41400000D01*
X180849948Y-45449945D02*
X184050002Y-48650000D01*
X175924223Y-45449945D02*
X180849948Y-45449945D01*
X166925000Y-41800000D02*
X167325000Y-41400000D01*
X184700000Y-48650000D02*
X185100000Y-48650000D01*
X171874278Y-41400000D02*
X175924223Y-45449945D01*
X166925000Y-42700000D02*
X166925000Y-41800000D01*
X166275000Y-42700000D02*
X166275000Y-41800000D01*
X176048490Y-45149934D02*
X180974216Y-45149934D01*
X166975011Y-41099989D02*
X171998546Y-41099989D01*
X180974216Y-45149934D02*
X182599349Y-46775069D01*
X184406187Y-46775069D02*
X185900000Y-48268882D01*
X185900000Y-48268882D02*
X185900000Y-50402885D01*
X185900000Y-50402885D02*
X187100044Y-51602928D01*
X187100044Y-51602928D02*
X187100044Y-56250044D01*
X171998546Y-41099989D02*
X176048490Y-45149934D01*
X187100044Y-56250044D02*
X189750000Y-58900000D01*
X166275000Y-41800000D02*
X166975011Y-41099989D01*
X182599349Y-46775069D02*
X184406187Y-46775069D01*
X112374990Y-47574990D02*
X114900000Y-47574990D01*
X110874998Y-46074998D02*
X112374990Y-47574990D01*
X110874998Y-38500002D02*
X110874998Y-46074998D01*
X111525000Y-37850000D02*
X110874998Y-38500002D01*
X156475000Y-38925000D02*
X155000000Y-40400000D01*
X153300000Y-40400000D02*
X148500011Y-45199989D01*
X156475000Y-36800000D02*
X156475000Y-38925000D01*
X118578594Y-45199989D02*
X118502318Y-45123713D01*
X155000000Y-40400000D02*
X153300000Y-40400000D01*
X118502318Y-45123713D02*
X117723836Y-45123713D01*
X148500011Y-45199989D02*
X118578594Y-45199989D01*
X206100000Y-40000000D02*
X208314410Y-40000000D01*
X165625000Y-36800000D02*
X164870470Y-37554530D01*
X208314410Y-40000000D02*
X210226681Y-38087729D01*
X210226681Y-35601681D02*
X210175000Y-35550000D01*
X210226681Y-38087729D02*
X210226681Y-35601681D01*
X176072834Y-44750000D02*
X201350000Y-44750000D01*
X167076464Y-40799978D02*
X172122812Y-40799978D01*
X164870470Y-37554530D02*
X164870470Y-38593984D01*
X172122812Y-40799978D02*
X176072834Y-44750000D01*
X164870470Y-38593984D02*
X167076464Y-40799978D01*
X201350000Y-44750000D02*
X206100000Y-40000000D01*
D53*
X152360000Y-85980000D02*
X152360000Y-87530000D01*
X150760000Y-87530000D02*
X150060000Y-86830000D01*
X152360000Y-87530000D02*
X150760000Y-87530000D01*
X143845000Y-84845000D02*
X144000000Y-85000000D01*
X142260000Y-84845000D02*
X143845000Y-84845000D01*
D54*
X133000000Y-52395040D02*
X132990000Y-52405040D01*
X133000000Y-50450000D02*
X133000000Y-52395040D01*
D53*
X133000000Y-64395040D02*
X132990000Y-64405040D01*
X133000000Y-62100000D02*
X133000000Y-64395040D01*
D54*
X189000000Y-52395040D02*
X188990000Y-52405040D01*
X189000000Y-50650000D02*
X189000000Y-52395040D01*
D53*
X189000000Y-64395040D02*
X188990000Y-64405040D01*
X189000000Y-62500000D02*
X189000000Y-64395040D01*
X157250000Y-62500000D02*
X154740000Y-59990000D01*
X157250000Y-63400000D02*
X157250000Y-62500000D01*
X157250000Y-58000000D02*
X154740000Y-55490000D01*
X157250000Y-60000000D02*
X157250000Y-58000000D01*
X157250000Y-55335998D02*
X153904002Y-51990000D01*
X153904002Y-51990000D02*
X152990000Y-51990000D01*
X157250000Y-56600000D02*
X157250000Y-55335998D01*
X157250000Y-53200000D02*
X153750000Y-49700000D01*
X150280000Y-49700000D02*
X148990000Y-50990000D01*
X153750000Y-49700000D02*
X150280000Y-49700000D01*
X141810000Y-51990000D02*
X140600000Y-53200000D01*
X144990000Y-51990000D02*
X141810000Y-51990000D01*
X141710000Y-55490000D02*
X140600000Y-56600000D01*
X143240000Y-55490000D02*
X141710000Y-55490000D01*
X140610000Y-59990000D02*
X140600000Y-60000000D01*
X143240000Y-59990000D02*
X140610000Y-59990000D01*
X141690000Y-64490000D02*
X140600000Y-63400000D01*
X143240000Y-64490000D02*
X141690000Y-64490000D01*
X141790000Y-67990000D02*
X140600000Y-66800000D01*
X144990000Y-67990000D02*
X141790000Y-67990000D01*
X157050000Y-66800000D02*
X154740000Y-64490000D01*
X157250000Y-66800000D02*
X157050000Y-66800000D01*
X181400000Y-62650000D02*
X178740000Y-59990000D01*
X181400000Y-63400000D02*
X181400000Y-62650000D01*
X181400000Y-58150000D02*
X178740000Y-55490000D01*
X181400000Y-60000000D02*
X181400000Y-58150000D01*
X177904002Y-51990000D02*
X176990000Y-51990000D01*
X181400000Y-55485998D02*
X177904002Y-51990000D01*
X181400000Y-56600000D02*
X181400000Y-55485998D01*
X181400000Y-53200000D02*
X178000000Y-49800000D01*
X174180000Y-49800000D02*
X172990000Y-50990000D01*
X178000000Y-49800000D02*
X174180000Y-49800000D01*
X167780000Y-53200000D02*
X168990000Y-51990000D01*
X164850000Y-53200000D02*
X167780000Y-53200000D01*
X166130000Y-56600000D02*
X167240000Y-55490000D01*
X164850000Y-56600000D02*
X166130000Y-56600000D01*
X167230000Y-60000000D02*
X167240000Y-59990000D01*
X164850000Y-60000000D02*
X167230000Y-60000000D01*
X166150000Y-63400000D02*
X167240000Y-64490000D01*
X164850000Y-63400000D02*
X166150000Y-63400000D01*
X167800000Y-66800000D02*
X168990000Y-67990000D01*
X164850000Y-66800000D02*
X167800000Y-66800000D01*
X181050000Y-66800000D02*
X178740000Y-64490000D01*
X181400000Y-66800000D02*
X181050000Y-66800000D01*
X213300000Y-62550000D02*
X210740000Y-59990000D01*
X213300000Y-63400000D02*
X213300000Y-62550000D01*
X213300000Y-58050000D02*
X210740000Y-55490000D01*
X213300000Y-60000000D02*
X213300000Y-58050000D01*
X209904002Y-51990000D02*
X208990000Y-51990000D01*
X213300000Y-55385998D02*
X209904002Y-51990000D01*
X213300000Y-56600000D02*
X213300000Y-55385998D01*
X205790001Y-50189999D02*
X204990000Y-50990000D01*
X210289999Y-50189999D02*
X205790001Y-50189999D01*
X213300000Y-53200000D02*
X210289999Y-50189999D01*
X199780000Y-53200000D02*
X200990000Y-51990000D01*
X196600000Y-53200000D02*
X199780000Y-53200000D01*
X198130000Y-56600000D02*
X199240000Y-55490000D01*
X196600000Y-56600000D02*
X198130000Y-56600000D01*
X199230000Y-60000000D02*
X199240000Y-59990000D01*
X196600000Y-60000000D02*
X199230000Y-60000000D01*
X198150000Y-63400000D02*
X199240000Y-64490000D01*
X196600000Y-63400000D02*
X198150000Y-63400000D01*
X199800000Y-66800000D02*
X200990000Y-67990000D01*
X196600000Y-66800000D02*
X199800000Y-66800000D01*
X213050000Y-66800000D02*
X210740000Y-64490000D01*
X213300000Y-66800000D02*
X213050000Y-66800000D01*
X237300000Y-62550000D02*
X234740000Y-59990000D01*
X237300000Y-63400000D02*
X237300000Y-62550000D01*
X237300000Y-58050000D02*
X234740000Y-55490000D01*
X237300000Y-60000000D02*
X237300000Y-58050000D01*
X233904002Y-51990000D02*
X232990000Y-51990000D01*
X237300000Y-55385998D02*
X233904002Y-51990000D01*
X237300000Y-56600000D02*
X237300000Y-55385998D01*
X237300000Y-53200000D02*
X233675044Y-49575044D01*
X233675044Y-49575044D02*
X230404956Y-49575044D01*
X230404956Y-49575044D02*
X228990000Y-50990000D01*
X223780000Y-53200000D02*
X224990000Y-51990000D01*
X220700000Y-53200000D02*
X223780000Y-53200000D01*
X222130000Y-56600000D02*
X223240000Y-55490000D01*
X220700000Y-56600000D02*
X222130000Y-56600000D01*
X223230000Y-60000000D02*
X223240000Y-59990000D01*
X220700000Y-60000000D02*
X223230000Y-60000000D01*
X222150000Y-63400000D02*
X223240000Y-64490000D01*
X220700000Y-63400000D02*
X222150000Y-63400000D01*
X223800000Y-66800000D02*
X224990000Y-67990000D01*
X220700000Y-66800000D02*
X223800000Y-66800000D01*
X237050000Y-66800000D02*
X234740000Y-64490000D01*
X237300000Y-66800000D02*
X237050000Y-66800000D01*
D54*
X106550000Y-50325721D02*
X106550000Y-50250000D01*
X105799989Y-59949989D02*
X105799989Y-51075732D01*
X106800000Y-60950000D02*
X105799989Y-59949989D01*
X105799989Y-51075732D02*
X106550000Y-50325721D01*
X183600000Y-55850000D02*
X183400000Y-55650000D01*
X185000000Y-55850000D02*
X183600000Y-55850000D01*
X80100000Y-54850000D02*
X81100000Y-55850000D01*
X80100000Y-48875722D02*
X80100000Y-54850000D01*
X83925000Y-45050722D02*
X80100000Y-48875722D01*
X83925000Y-45050722D02*
X83925000Y-43750000D01*
X106825000Y-44575000D02*
X106825000Y-43750000D01*
X105700000Y-46100000D02*
X105700000Y-45700000D01*
X105700000Y-45700000D02*
X106825000Y-44575000D01*
X108250000Y-48750000D02*
X108250000Y-45950000D01*
X108775000Y-45425000D02*
X108775000Y-43750000D01*
X108250000Y-45950000D02*
X108775000Y-45425000D01*
X126748591Y-47600033D02*
X118316753Y-47600033D01*
X118316753Y-47600033D02*
X115425000Y-44708280D01*
X130400022Y-51251464D02*
X126748591Y-47600033D01*
X130400022Y-59199978D02*
X130400022Y-51251464D01*
X128850000Y-60750000D02*
X130400022Y-59199978D01*
X115425000Y-44708280D02*
X115425000Y-43750000D01*
X159350000Y-45844998D02*
X160075000Y-45119998D01*
X160075000Y-45119998D02*
X160075000Y-42700000D01*
X159350000Y-48750000D02*
X159350000Y-45844998D01*
X161375000Y-45325000D02*
X161375000Y-42700000D01*
X161050000Y-48750000D02*
X161050000Y-45650000D01*
X161050000Y-45650000D02*
X161375000Y-45325000D01*
X169525000Y-36800000D02*
X169525000Y-38749996D01*
X169525000Y-38749996D02*
X169394760Y-38880236D01*
X169394760Y-38880236D02*
X169394760Y-39736520D01*
X186800033Y-51824309D02*
X180725680Y-45749956D01*
X171999999Y-42649999D02*
X171600000Y-42250000D01*
X185000000Y-67550000D02*
X186800033Y-65749967D01*
X175099956Y-45749956D02*
X171999999Y-42649999D01*
X186800033Y-65749967D02*
X186800033Y-51824309D01*
X180725680Y-45749956D02*
X175099956Y-45749956D01*
X208225000Y-41450000D02*
X208225000Y-43198283D01*
X200552772Y-47100022D02*
X195624256Y-47100022D01*
X200577712Y-47075082D02*
X200552772Y-47100022D01*
X191774977Y-50949301D02*
X191774977Y-61374977D01*
X204348201Y-47075082D02*
X200577712Y-47075082D01*
X208225000Y-43198283D02*
X204348201Y-47075082D01*
X191774977Y-61374977D02*
X193050000Y-62650000D01*
X195624256Y-47100022D02*
X191774977Y-50949301D01*
X192374999Y-51197835D02*
X192374999Y-55174999D01*
X209525000Y-41450000D02*
X209525000Y-42746841D01*
X195872790Y-47700044D02*
X192374999Y-51197835D01*
X200826248Y-47675104D02*
X200801308Y-47700044D01*
X192374999Y-55174999D02*
X193050000Y-55850000D01*
X209525000Y-42746841D02*
X204596737Y-47675104D01*
X204596737Y-47675104D02*
X200826248Y-47675104D01*
X200801308Y-47700044D02*
X195872790Y-47700044D01*
X217425000Y-41450000D02*
X220700000Y-44725000D01*
X220700000Y-48500000D02*
X220450000Y-48750000D01*
X220700000Y-44725000D02*
X220700000Y-48500000D01*
X108020758Y-40679242D02*
X107425002Y-41274998D01*
X102375027Y-45024977D02*
X88903587Y-45024977D01*
X107425002Y-41274998D02*
X104396284Y-41274998D01*
X103774999Y-41896283D02*
X103774999Y-43625005D01*
X83174989Y-40599989D02*
X81325000Y-38750000D01*
X103774999Y-43625005D02*
X102375027Y-45024977D01*
X81325000Y-38750000D02*
X81325000Y-37850000D01*
X88903587Y-45024977D02*
X84478600Y-40599989D01*
X84478600Y-40599989D02*
X83174989Y-40599989D01*
X108020758Y-39567872D02*
X108020758Y-40679242D01*
X107475000Y-39022114D02*
X108020758Y-39567872D01*
X107475000Y-37850000D02*
X107475000Y-39022114D01*
X104396284Y-41274998D02*
X103774999Y-41896283D01*
X153225000Y-36800000D02*
X153225000Y-35900000D01*
X153725000Y-35400000D02*
X155800000Y-35400000D01*
X153225000Y-35900000D02*
X153725000Y-35400000D01*
X162675000Y-36069998D02*
X162675000Y-36800000D01*
X160099999Y-35699999D02*
X162305001Y-35699999D01*
X162305001Y-35699999D02*
X162675000Y-36069998D01*
X159700000Y-35300000D02*
X160099999Y-35699999D01*
X206925000Y-35550000D02*
X206925000Y-34650000D01*
X207475000Y-34100000D02*
X210000000Y-34100000D01*
X206925000Y-34650000D02*
X207475000Y-34100000D01*
X216125000Y-34650000D02*
X216125000Y-35550000D01*
X215675000Y-34200000D02*
X216125000Y-34650000D01*
X212600000Y-34200000D02*
X215675000Y-34200000D01*
D55*
X212875000Y-35550000D02*
X212875000Y-36725000D01*
X212875000Y-36725000D02*
X212800000Y-36800000D01*
X218700000Y-35600000D02*
X218200002Y-35600000D01*
X223450000Y-32375000D02*
X221925000Y-32375000D01*
X221925000Y-32375000D02*
X218700000Y-35600000D01*
D54*
X82500000Y-67550000D02*
X82700000Y-67750000D01*
X81100000Y-67550000D02*
X82500000Y-67550000D01*
X138400000Y-53950000D02*
X138600000Y-54150000D01*
X137000000Y-53950000D02*
X138400000Y-53950000D01*
X216400009Y-61899991D02*
X215850000Y-62450000D01*
X215850000Y-62450000D02*
X215300000Y-62450000D01*
X216400009Y-51675731D02*
X216400009Y-61899991D01*
X215400000Y-50250000D02*
X215400000Y-50675722D01*
X215400000Y-50675722D02*
X216400009Y-51675731D01*
X79499978Y-61049978D02*
X81100000Y-62650000D01*
X79499978Y-48627186D02*
X79499978Y-61049978D01*
X82625000Y-45502166D02*
X79499978Y-48627186D01*
X82625000Y-43750000D02*
X82625000Y-45502166D01*
X137000000Y-50000000D02*
X137000000Y-52450000D01*
X140299956Y-46700044D02*
X137000000Y-50000000D01*
X154097072Y-46700044D02*
X140299956Y-46700044D01*
X156475000Y-44322116D02*
X154097072Y-46700044D01*
X156475000Y-42700000D02*
X156475000Y-44322116D01*
X157650000Y-45250000D02*
X157650000Y-48750000D01*
X157775000Y-42700000D02*
X157775000Y-45125000D01*
X157775000Y-45125000D02*
X157650000Y-45250000D01*
X214175000Y-44025000D02*
X216250000Y-46100000D01*
X214175000Y-41450000D02*
X214175000Y-44025000D01*
X216125000Y-41450000D02*
X216125000Y-42925000D01*
X218750000Y-45550000D02*
X218750000Y-48750000D01*
X216125000Y-42925000D02*
X218750000Y-45550000D01*
D53*
X96700000Y-74300000D02*
X95050000Y-74300000D01*
X95050000Y-75900000D02*
X94750000Y-76200000D01*
X95050000Y-74300000D02*
X95050000Y-75900000D01*
X95050000Y-72800000D02*
X94750000Y-72500000D01*
X95050000Y-74300000D02*
X95050000Y-72800000D01*
D54*
X84569655Y-73500000D02*
X78449947Y-67380292D01*
X78449947Y-48192248D02*
X79525044Y-47117151D01*
X79525044Y-47117151D02*
X79525044Y-36748848D01*
X94750000Y-72500000D02*
X93750000Y-73500000D01*
X93750000Y-73500000D02*
X84569655Y-73500000D01*
X79525044Y-36748848D02*
X84948848Y-31325044D01*
X84948848Y-31325044D02*
X105551155Y-31325044D01*
X122141109Y-39125022D02*
X126643529Y-39125022D01*
X126643529Y-39125022D02*
X127983735Y-37784816D01*
X117841131Y-34825044D02*
X122141109Y-39125022D01*
X109051155Y-34825044D02*
X117841131Y-34825044D01*
X78449947Y-67380292D02*
X78449947Y-48192248D01*
X105551155Y-31325044D02*
X109051155Y-34825044D01*
X127983735Y-37784816D02*
X128823830Y-37784816D01*
X134382540Y-32535635D02*
X135168175Y-31750000D01*
X135168175Y-31750000D02*
X135300000Y-31750000D01*
D57*
X127558959Y-30520380D02*
X124018579Y-26980000D01*
D58*
X122160000Y-26980000D02*
X123360000Y-26980000D01*
D57*
X123360000Y-26980000D02*
X124018579Y-26980000D01*
D53*
X149915000Y-83575000D02*
X150060000Y-83430000D01*
X147660000Y-83575000D02*
X149915000Y-83575000D01*
D55*
X234350000Y-44350000D02*
X234300000Y-44300000D01*
X234350000Y-46050000D02*
X234350000Y-44350000D01*
X234300000Y-44300000D02*
X234300000Y-42600000D01*
X234050000Y-42350000D02*
X234300000Y-42600000D01*
X234050000Y-41000000D02*
X234050000Y-42350000D01*
D54*
X144200000Y-27700000D02*
X143800000Y-27300000D01*
X140749545Y-27300000D02*
X134948225Y-33101320D01*
X143800000Y-27300000D02*
X140749545Y-27300000D01*
X230700000Y-30000000D02*
X222300000Y-30000000D01*
X233600000Y-32900000D02*
X230700000Y-30000000D01*
X234050000Y-41000000D02*
X233600000Y-40550000D01*
X233600000Y-40550000D02*
X233600000Y-32900000D01*
X152400000Y-31100000D02*
X153575001Y-29924999D01*
X205000000Y-32800000D02*
X208100000Y-29700000D01*
X208100000Y-29700000D02*
X220500000Y-29700000D01*
X172400000Y-38672928D02*
X176777017Y-43049945D01*
X170514999Y-29714999D02*
X172400000Y-31600000D01*
X200645817Y-43049945D02*
X205000000Y-38695762D01*
X165075001Y-29924999D02*
X165285001Y-29714999D01*
X176777017Y-43049945D02*
X200645817Y-43049945D01*
X172400000Y-31600000D02*
X172400000Y-38672928D01*
X165285001Y-29714999D02*
X170514999Y-29714999D01*
X153575001Y-29924999D02*
X165075001Y-29924999D01*
X205000000Y-38695762D02*
X205000000Y-32800000D01*
D55*
X136645281Y-35929747D02*
X137015534Y-36300000D01*
X137015534Y-36300000D02*
X138200000Y-36300000D01*
X138200000Y-36300000D02*
X142169670Y-32330330D01*
X129380330Y-30380330D02*
X129910660Y-30380330D01*
X129910660Y-30380330D02*
X130970239Y-31439909D01*
X130970239Y-31439909D02*
X130970239Y-31951762D01*
X130970239Y-31951762D02*
X131554112Y-32535635D01*
X136079596Y-34232691D02*
X136079597Y-34232691D01*
X136079596Y-34232691D02*
X137712287Y-32600000D01*
X137712287Y-31937713D02*
X139669670Y-29980330D01*
X137712287Y-32600000D02*
X137712287Y-31937713D01*
X132260000Y-27730000D02*
X132310000Y-27680000D01*
X130460000Y-27730000D02*
X132260000Y-27730000D01*
D54*
X132310000Y-27680000D02*
X131374980Y-28615020D01*
X131374980Y-28615020D02*
X131374980Y-31790817D01*
X131374980Y-31790817D02*
X131836955Y-32252792D01*
X134860000Y-27730000D02*
X133410000Y-26280000D01*
X135260000Y-27730000D02*
X134860000Y-27730000D01*
X134515011Y-28474989D02*
X135260000Y-27730000D01*
X131674989Y-30265377D02*
X133465377Y-28474989D01*
X131674989Y-31525140D02*
X131674989Y-30265377D01*
X132119798Y-31969949D02*
X131674989Y-31525140D01*
X133465377Y-28474989D02*
X134515011Y-28474989D01*
X144110000Y-34180000D02*
X144060000Y-34230000D01*
X146510000Y-34180000D02*
X144110000Y-34180000D01*
X136774860Y-36625011D02*
X136362439Y-36212590D01*
X143010000Y-34230000D02*
X140614989Y-36625011D01*
X140614989Y-36625011D02*
X136774860Y-36625011D01*
X144060000Y-34230000D02*
X143010000Y-34230000D01*
X144110000Y-36780000D02*
X144060000Y-36730000D01*
X146510000Y-36780000D02*
X144110000Y-36780000D01*
X141093754Y-36925022D02*
X136509185Y-36925022D01*
X143943732Y-36613732D02*
X141405044Y-36613732D01*
X141405044Y-36613732D02*
X141093754Y-36925022D01*
X136509185Y-36925022D02*
X136079596Y-36495433D01*
X144060000Y-36730000D02*
X143943732Y-36613732D01*
X129715635Y-32394214D02*
X129432792Y-32394214D01*
X130705584Y-33384163D02*
X129715635Y-32394214D01*
D58*
X128336777Y-31298199D02*
X129432792Y-32394214D01*
X128336777Y-31298198D02*
X128336777Y-31298199D01*
D54*
X125535000Y-35800000D02*
X126450678Y-35800000D01*
X129010049Y-35079699D02*
X129291371Y-34798377D01*
X127094255Y-35079699D02*
X129010049Y-35079699D01*
X126719699Y-35530979D02*
X126719699Y-35454255D01*
X126450678Y-35800000D02*
X126719699Y-35530979D01*
X124900000Y-35165000D02*
X125535000Y-35800000D01*
X126719699Y-35454255D02*
X127094255Y-35079699D01*
X128953746Y-34219814D02*
X129278493Y-34219814D01*
X126555312Y-34779688D02*
X128393872Y-34779688D01*
X126170000Y-35165000D02*
X126555312Y-34779688D01*
X129278493Y-34219814D02*
X129574213Y-34515534D01*
X128393872Y-34779688D02*
X128953746Y-34219814D01*
D53*
X140065000Y-83575000D02*
X139960000Y-83680000D01*
X142260000Y-83575000D02*
X140065000Y-83575000D01*
X139940000Y-83700000D02*
X139960000Y-83680000D01*
X136960000Y-84080000D02*
X137340000Y-83700000D01*
X137340000Y-83700000D02*
X139940000Y-83700000D01*
X189410000Y-90480000D02*
X189410000Y-92680000D01*
D55*
X147660000Y-87385000D02*
X148475000Y-88200000D01*
X148475000Y-88200000D02*
X152680002Y-88200000D01*
X155949989Y-94049989D02*
X188040011Y-94049989D01*
X152680002Y-88200000D02*
X154300000Y-89819998D01*
X188040011Y-94049989D02*
X189410000Y-92680000D01*
X154300000Y-92400000D02*
X155949989Y-94049989D01*
X154300000Y-89819998D02*
X154300000Y-92400000D01*
X78956066Y-75015355D02*
X78706066Y-75265355D01*
X78956066Y-73665355D02*
X78956066Y-75015355D01*
D53*
X79656066Y-77965356D02*
X80456065Y-78765355D01*
X79656066Y-77265355D02*
X79656066Y-77965356D01*
X152360000Y-91530000D02*
X152410000Y-91580000D01*
X152360000Y-89030000D02*
X152360000Y-91530000D01*
X151660000Y-92330000D02*
X152410000Y-91580000D01*
X149160000Y-92330000D02*
X151660000Y-92330000D01*
X148805000Y-91975000D02*
X149160000Y-92330000D01*
X147385000Y-91975000D02*
X148805000Y-91975000D01*
D54*
X128850000Y-53950000D02*
X129800000Y-53000000D01*
X110500000Y-42100000D02*
X108525013Y-40125013D01*
X126500055Y-48200055D02*
X112575776Y-48200055D01*
X108525013Y-40125013D02*
X108525013Y-39150013D01*
X129800000Y-53000000D02*
X129800000Y-51500000D01*
X129800000Y-51500000D02*
X126500055Y-48200055D01*
X112575776Y-48200055D02*
X110500000Y-46124279D01*
X110500000Y-46124279D02*
X110500000Y-42100000D01*
X108125000Y-38750000D02*
X108125000Y-37850000D01*
X108525013Y-39150013D02*
X108125000Y-38750000D01*
X114775000Y-44500276D02*
X114775000Y-43750000D01*
X118174768Y-47900044D02*
X114775000Y-44500276D01*
X128850000Y-57350000D02*
X130100011Y-56099989D01*
X130100011Y-56099989D02*
X130100011Y-51375732D01*
X126624323Y-47900044D02*
X118174768Y-47900044D01*
X130100011Y-51375732D02*
X126624323Y-47900044D01*
X184324999Y-53274999D02*
X185000000Y-53950000D01*
X167250996Y-46950000D02*
X176844998Y-46950000D01*
X164799991Y-44498995D02*
X167250996Y-46950000D01*
X183169997Y-53274999D02*
X184324999Y-53274999D01*
X176844998Y-46950000D02*
X183169997Y-53274999D01*
X163325000Y-36800000D02*
X163325000Y-39349278D01*
X163325000Y-39349278D02*
X164799991Y-40824269D01*
X164799991Y-40824269D02*
X164799991Y-44498995D01*
X180352876Y-46649989D02*
X185900000Y-52197113D01*
X170677152Y-46649989D02*
X180352876Y-46649989D01*
X168875000Y-42700000D02*
X168875000Y-44847837D01*
X185900000Y-56450000D02*
X185000000Y-57350000D01*
X185900000Y-52197113D02*
X185900000Y-56450000D01*
X168875000Y-44847837D02*
X170677152Y-46649989D01*
X225949966Y-48600000D02*
X216949966Y-39600000D01*
X238103880Y-48600000D02*
X225949966Y-48600000D01*
X216775000Y-36924958D02*
X216800000Y-36949958D01*
X216949966Y-39600000D02*
X216700000Y-39600000D01*
X216775000Y-35550000D02*
X216775000Y-36924958D01*
X241575001Y-52071121D02*
X238103880Y-48600000D01*
X241575001Y-53274999D02*
X241575001Y-52071121D01*
X240900000Y-53950000D02*
X241575001Y-53274999D01*
X231275000Y-32375000D02*
X229350000Y-32375000D01*
X232300000Y-33400000D02*
X231275000Y-32375000D01*
X232300000Y-47300000D02*
X232300000Y-33400000D01*
X241875012Y-51946853D02*
X238228148Y-48299989D01*
X233299989Y-48299989D02*
X232300000Y-47300000D01*
X241875012Y-56374988D02*
X241875012Y-51946853D01*
X240900000Y-57350000D02*
X241875012Y-56374988D01*
X238228148Y-48299989D02*
X233299989Y-48299989D01*
X232600011Y-47175733D02*
X233424256Y-47999978D01*
X232600011Y-33275732D02*
X232600011Y-47175733D01*
X242175023Y-59474977D02*
X240900000Y-60750000D01*
X242175023Y-51822585D02*
X242175023Y-59474977D01*
X238352416Y-47999978D02*
X242175023Y-51822585D01*
X231049279Y-31725000D02*
X232600011Y-33275732D01*
X233424256Y-47999978D02*
X238352416Y-47999978D01*
X229350000Y-31725000D02*
X231049279Y-31725000D01*
X232900022Y-47051466D02*
X232900022Y-33151464D01*
X230823558Y-31075000D02*
X229350000Y-31075000D01*
X238476684Y-47699967D02*
X233548523Y-47699967D01*
X232900022Y-33151464D02*
X230823558Y-31075000D01*
X233548523Y-47699967D02*
X232900022Y-47051466D01*
X242475034Y-51698317D02*
X238476684Y-47699967D01*
X242475034Y-62574966D02*
X242475034Y-51698317D01*
X240900000Y-64150000D02*
X242475034Y-62574966D01*
X224875000Y-31725000D02*
X223450000Y-31725000D01*
X230572837Y-30400000D02*
X226200000Y-30400000D01*
X233200033Y-33027196D02*
X230572837Y-30400000D01*
X226200000Y-30400000D02*
X224875000Y-31725000D01*
X233200033Y-46927199D02*
X233200033Y-33027196D01*
X238600952Y-47399956D02*
X233672790Y-47399956D01*
X240900000Y-67550000D02*
X242775045Y-65674955D01*
X242775045Y-65674955D02*
X242775045Y-51574049D01*
X242775045Y-51574049D02*
X238600952Y-47399956D01*
X233672790Y-47399956D02*
X233200033Y-46927199D01*
X96300000Y-34750000D02*
X96350000Y-34800000D01*
X93800000Y-34750000D02*
X96300000Y-34750000D01*
X96350000Y-34800000D02*
X98900000Y-34800000D01*
X98900000Y-33900000D02*
X99000000Y-33800000D01*
X98900000Y-34800000D02*
X98900000Y-33900000D01*
X102700000Y-34800000D02*
X102800000Y-34700000D01*
X101450000Y-34800000D02*
X102700000Y-34800000D01*
X106279711Y-34174997D02*
X108429815Y-36325099D01*
X117219791Y-36325099D02*
X121519769Y-40625077D01*
X129620904Y-39609862D02*
X131271270Y-37959496D01*
X131271270Y-37959496D02*
X131271270Y-37909646D01*
X102800000Y-34700000D02*
X103325003Y-34174997D01*
X121519769Y-40625077D02*
X127264869Y-40625077D01*
X128280084Y-39609862D02*
X129620904Y-39609862D01*
X127264869Y-40625077D02*
X128280084Y-39609862D01*
X108429815Y-36325099D02*
X117219791Y-36325099D01*
X103325003Y-34174997D02*
X106279711Y-34174997D01*
D55*
X80456066Y-73665355D02*
X80965355Y-73665355D01*
X80965355Y-73665355D02*
X81900000Y-74600000D01*
X78900022Y-46858260D02*
X77824925Y-47933357D01*
X118100022Y-34200022D02*
X109310045Y-34200021D01*
X77824925Y-68063447D02*
X83497931Y-73736453D01*
X77824925Y-47933357D02*
X77824925Y-68063447D01*
X126384638Y-38500000D02*
X122400000Y-38500000D01*
X78900022Y-36489957D02*
X78900022Y-46858260D01*
X84689957Y-30700022D02*
X78900022Y-36489957D01*
X105810046Y-30700022D02*
X84689957Y-30700022D01*
X109310045Y-34200021D02*
X105810046Y-30700022D01*
X122400000Y-38500000D02*
X118100022Y-34200022D01*
X128351328Y-36533310D02*
X126384638Y-38500000D01*
X129253493Y-36533310D02*
X128351328Y-36533310D01*
X129574213Y-36212590D02*
X129253493Y-36533310D01*
X166645000Y-27745000D02*
X167495000Y-27745000D01*
X165250000Y-27200000D02*
X166100000Y-27200000D01*
X166100000Y-27200000D02*
X166645000Y-27745000D01*
X142079988Y-92725022D02*
X141455021Y-93349989D01*
X130444979Y-93349989D02*
X129000000Y-91905010D01*
X129000000Y-91905010D02*
X129000000Y-87225000D01*
X142079988Y-91775012D02*
X142079988Y-92725022D01*
X142530000Y-91325000D02*
X142079988Y-91775012D01*
X141455021Y-93349989D02*
X130444979Y-93349989D01*
X143175000Y-91325000D02*
X142530000Y-91325000D01*
X127075000Y-85300000D02*
X126300000Y-85300000D01*
X129000000Y-87225000D02*
X127075000Y-85300000D01*
D54*
X152575001Y-29275001D02*
X152200000Y-28900000D01*
X164600000Y-28855002D02*
X164180001Y-29275001D01*
X164180001Y-29275001D02*
X152575001Y-29275001D01*
X165250000Y-27200000D02*
X164600000Y-27850000D01*
X164600000Y-27850000D02*
X164600000Y-28855002D01*
X128774992Y-33550010D02*
X128400001Y-33925001D01*
X128400001Y-33925001D02*
X127270350Y-33925001D01*
X127270350Y-33925001D02*
X127200000Y-33854651D01*
X129740061Y-33550010D02*
X128774992Y-33550010D01*
X130139899Y-33949848D02*
X129740061Y-33550010D01*
X134800065Y-42600055D02*
X132300000Y-40099990D01*
X151350022Y-39523540D02*
X148273507Y-42600055D01*
X148273507Y-42600055D02*
X134800065Y-42600055D01*
X151350022Y-37487882D02*
X151350022Y-39523540D01*
X150000000Y-28900000D02*
X150800011Y-29700011D01*
X150800011Y-29700011D02*
X150800011Y-36937871D01*
X150800011Y-36937871D02*
X151350022Y-37487882D01*
D55*
X88074989Y-76734623D02*
X85465388Y-74125022D01*
X83809933Y-74386455D02*
X83185929Y-74386455D01*
X77474914Y-68675440D02*
X77474914Y-47788378D01*
X85465388Y-74125022D02*
X84071366Y-74125022D01*
X84544978Y-30350011D02*
X105955025Y-30350011D01*
X84071366Y-74125022D02*
X83809933Y-74386455D01*
X83185929Y-74386455D02*
X77474914Y-68675440D01*
X126300000Y-85300000D02*
X124005010Y-85300000D01*
X78550011Y-46713281D02*
X78550011Y-36344978D01*
X78550011Y-36344978D02*
X84544978Y-30350011D01*
X105955025Y-30350011D02*
X109455025Y-33850011D01*
X77474914Y-47788378D02*
X78550011Y-46713281D01*
X127195359Y-33850010D02*
X127200000Y-33854651D01*
X88074989Y-82034623D02*
X88074989Y-76734623D01*
X92565377Y-86525011D02*
X88074989Y-82034623D01*
X122779999Y-86525011D02*
X92565377Y-86525011D01*
X124005010Y-85300000D02*
X122779999Y-86525011D01*
X109455025Y-33850011D02*
X127195359Y-33850010D01*
X142530000Y-91975000D02*
X142500000Y-92005000D01*
X143175000Y-91975000D02*
X142530000Y-91975000D01*
D54*
X164850000Y-29600000D02*
X152700000Y-29600000D01*
X165250000Y-28600000D02*
X165250000Y-29200000D01*
X152700000Y-29600000D02*
X152300000Y-30000000D01*
X165250000Y-29200000D02*
X164850000Y-29600000D01*
D55*
X142429999Y-92870001D02*
X142429999Y-92075001D01*
X141600000Y-93700000D02*
X142429999Y-92870001D01*
X142429999Y-92075001D02*
X142530000Y-91975000D01*
X127500000Y-86300000D02*
X128550000Y-87350000D01*
X130300000Y-93700000D02*
X141600000Y-93700000D01*
X126300000Y-86300000D02*
X127500000Y-86300000D01*
X128550000Y-87350000D02*
X128550000Y-91950000D01*
X128550000Y-91950000D02*
X130300000Y-93700000D01*
X130422742Y-33667006D02*
X129980735Y-33224999D01*
X128175841Y-33224999D02*
X128101260Y-33299580D01*
X129980735Y-33224999D02*
X128175841Y-33224999D01*
D54*
X150474989Y-37037128D02*
X151050011Y-37612149D01*
X150074990Y-29982527D02*
X150474989Y-30382526D01*
X151050011Y-37612149D02*
X151050011Y-39399272D01*
X148149239Y-42300044D02*
X135843570Y-42300044D01*
X135843570Y-42300044D02*
X132973149Y-39429623D01*
X151050011Y-39399272D02*
X148149239Y-42300044D01*
X150474989Y-30382526D02*
X150474989Y-37037128D01*
D55*
X166039988Y-29389988D02*
X168095012Y-29389988D01*
X168095012Y-29389988D02*
X168765000Y-28720000D01*
X165250000Y-28600000D02*
X166039988Y-29389988D01*
X168765000Y-28720000D02*
X168765000Y-27745000D01*
X77124904Y-47643398D02*
X78200000Y-46568302D01*
X126300000Y-86300000D02*
X125525000Y-86300000D01*
X128006330Y-33204650D02*
X128101260Y-33299580D01*
X124949978Y-86875022D02*
X92420397Y-86875021D01*
X78200001Y-36199998D02*
X84399999Y-30000000D01*
X125525000Y-86300000D02*
X124949978Y-86875022D01*
X84399999Y-30000000D02*
X106100005Y-30000001D01*
X106100005Y-30000001D02*
X109304654Y-33204650D01*
X109304654Y-33204650D02*
X128006330Y-33204650D01*
X84216345Y-74475033D02*
X83954912Y-74736466D01*
X77124904Y-68820420D02*
X77124904Y-47643398D01*
X78200000Y-46568302D02*
X78200001Y-36199998D01*
X83040950Y-74736466D02*
X77124904Y-68820420D01*
X87724978Y-76879602D02*
X85320409Y-74475033D01*
X87724978Y-82179602D02*
X87724978Y-76879602D01*
X85320409Y-74475033D02*
X84216345Y-74475033D01*
X83954912Y-74736466D02*
X83040950Y-74736466D01*
X92420397Y-86875021D02*
X87724978Y-82179602D01*
D54*
X128518847Y-40625010D02*
X128514265Y-40629592D01*
X128555906Y-40625010D02*
X128518847Y-40625010D01*
X131554112Y-38192489D02*
X129517008Y-40229593D01*
X128914264Y-40229593D02*
X128514265Y-40629592D01*
X129517008Y-40229593D02*
X128914264Y-40229593D01*
X119199934Y-43699934D02*
X115700000Y-40200000D01*
X125771413Y-43699934D02*
X119199934Y-43699934D01*
X127646260Y-41825087D02*
X125771413Y-43699934D01*
X115700000Y-40200000D02*
X115500000Y-40200000D01*
X101299919Y-43500000D02*
X101600000Y-43199919D01*
X89500000Y-43500000D02*
X101299919Y-43500000D01*
X84575000Y-37850000D02*
X84575000Y-38575000D01*
X84575000Y-38575000D02*
X89500000Y-43500000D01*
D55*
X215475000Y-36925010D02*
X215600000Y-37050010D01*
X215475000Y-35550000D02*
X215475000Y-36925010D01*
X221836998Y-33025000D02*
X217262030Y-37599968D01*
X223450000Y-33025000D02*
X221836998Y-33025000D01*
X216149957Y-37599968D02*
X215600000Y-37050010D01*
X217262030Y-37599968D02*
X216149957Y-37599968D01*
D54*
X162025000Y-36800000D02*
X162025000Y-37899108D01*
X106825000Y-39297118D02*
X107395756Y-39867874D01*
X106825000Y-37850000D02*
X106825000Y-39297118D01*
X114125000Y-39442660D02*
X114236034Y-39553694D01*
X114125000Y-37850000D02*
X114125000Y-39442660D01*
X168225000Y-37809305D02*
X168520665Y-38104970D01*
X168225000Y-36800000D02*
X168225000Y-37809305D01*
D55*
X209525000Y-36656702D02*
X209601679Y-36733381D01*
X209525000Y-35550000D02*
X209525000Y-36656702D01*
D54*
X155825000Y-36800000D02*
X155825000Y-38065755D01*
X155825000Y-38065755D02*
X155800004Y-38090751D01*
X134754513Y-38564462D02*
X136300283Y-38564462D01*
X134382540Y-38192489D02*
X134754513Y-38564462D01*
X138835821Y-41100000D02*
X136300283Y-38564462D01*
X146700000Y-41100000D02*
X138835821Y-41100000D01*
X149800000Y-38000000D02*
X146700000Y-41100000D01*
X149800000Y-36900000D02*
X149800000Y-38000000D01*
X114636033Y-39953693D02*
X114636033Y-40661037D01*
X114636033Y-40661037D02*
X114899939Y-40924943D01*
X114899939Y-40924943D02*
X116000665Y-40924943D01*
X119075666Y-43999945D02*
X129907254Y-43999945D01*
X129907254Y-43999945D02*
X131284691Y-42622508D01*
X114236034Y-39553694D02*
X114636033Y-39953693D01*
X116000665Y-40924943D02*
X119075666Y-43999945D01*
X84574945Y-39399945D02*
X83925000Y-38750000D01*
X84975672Y-39399945D02*
X84574945Y-39399945D01*
X89400655Y-43824933D02*
X84975672Y-39399945D01*
X102515001Y-36984999D02*
X102515001Y-43187887D01*
X102515001Y-43187887D02*
X101877955Y-43824933D01*
X105875000Y-36000000D02*
X103500000Y-36000000D01*
X106825000Y-37850000D02*
X106825000Y-36950000D01*
X106825000Y-36950000D02*
X105875000Y-36000000D01*
X103500000Y-36000000D02*
X102515001Y-36984999D01*
X101877955Y-43824933D02*
X89400655Y-43824933D01*
X83925000Y-38750000D02*
X83925000Y-37850000D01*
D55*
X205925011Y-37102350D02*
X206325010Y-36702351D01*
X171200000Y-37932562D02*
X176642394Y-43374956D01*
X171200000Y-37500000D02*
X171200000Y-37932562D01*
X200780440Y-43374956D02*
X205925011Y-38230385D01*
X176642394Y-43374956D02*
X200780440Y-43374956D01*
X205925011Y-38230385D02*
X205925011Y-37102350D01*
X214825000Y-37541753D02*
X214801711Y-37565042D01*
X214825000Y-35550000D02*
X214825000Y-37541753D01*
X217407014Y-37949978D02*
X215186647Y-37949978D01*
X221681992Y-33675000D02*
X217407014Y-37949978D01*
X223450000Y-33675000D02*
X221681992Y-33675000D01*
X215186647Y-37949978D02*
X214801711Y-37565042D01*
D54*
X161375000Y-36800000D02*
X161375000Y-38483022D01*
X161375000Y-38483022D02*
X161308012Y-38550010D01*
X106175000Y-39853227D02*
X106496752Y-40174979D01*
X106175000Y-37850000D02*
X106175000Y-39853227D01*
X113475000Y-37850000D02*
X113475000Y-40104309D01*
X113475000Y-40104309D02*
X113725658Y-40354967D01*
X167575000Y-36800000D02*
X167575000Y-38307615D01*
X167575000Y-38307615D02*
X167597787Y-38330402D01*
D55*
X208875000Y-35550000D02*
X208875000Y-37093659D01*
X208875000Y-37093659D02*
X209453032Y-37671691D01*
D54*
X155175000Y-36800000D02*
X155175000Y-37700000D01*
X155175000Y-37700000D02*
X154800157Y-38074843D01*
X154800157Y-38074843D02*
X154800157Y-38395404D01*
X135138661Y-39514296D02*
X136318664Y-39514296D01*
X134099697Y-38475332D02*
X135138661Y-39514296D01*
X138204379Y-41400011D02*
X146824268Y-41400011D01*
X150232794Y-37991485D02*
X150425010Y-37991485D01*
X146824268Y-41400011D02*
X150232794Y-37991485D01*
X136318664Y-39514296D02*
X138204379Y-41400011D01*
X113725658Y-40354967D02*
X114595647Y-41224956D01*
X115876400Y-41224956D02*
X118951398Y-44299956D01*
X114595647Y-41224956D02*
X115876400Y-41224956D01*
X118951398Y-44299956D02*
X130532247Y-44299956D01*
X130532247Y-44299956D02*
X131188292Y-43643911D01*
X102815012Y-37109266D02*
X102815012Y-43312155D01*
X102002223Y-44124944D02*
X89276392Y-44124944D01*
X102815012Y-43312155D02*
X102002223Y-44124944D01*
X83275000Y-38750000D02*
X83275000Y-37850000D01*
X89276392Y-44124944D02*
X84851404Y-39699956D01*
X105525011Y-36300011D02*
X103624267Y-36300011D01*
X84224956Y-39699956D02*
X83275000Y-38750000D01*
X106175000Y-37850000D02*
X106175000Y-36950000D01*
X103624267Y-36300011D02*
X102815012Y-37109266D01*
X106175000Y-36950000D02*
X105525011Y-36300011D01*
X84851404Y-39699956D02*
X84224956Y-39699956D01*
D55*
X206949705Y-37700681D02*
X206949705Y-37556253D01*
X170515630Y-38158908D02*
X170931356Y-38158908D01*
X176497415Y-43724967D02*
X200925419Y-43724967D01*
X200925419Y-43724967D02*
X206949705Y-37700681D01*
X170931356Y-38158908D02*
X176497415Y-43724967D01*
X214175000Y-35550000D02*
X214151709Y-35573291D01*
X214151709Y-35573291D02*
X214151709Y-38476699D01*
X214151709Y-38476699D02*
X214175010Y-38500000D01*
X223450000Y-34325000D02*
X221526980Y-34325000D01*
X221526980Y-34325000D02*
X217551993Y-38299987D01*
X217551993Y-38299987D02*
X214375023Y-38299987D01*
X214375023Y-38299987D02*
X214175010Y-38500000D01*
D54*
X160683011Y-39283011D02*
X160704338Y-39304338D01*
X160683011Y-36841989D02*
X160683011Y-39283011D01*
X160725000Y-36800000D02*
X160683011Y-36841989D01*
X105525000Y-40449990D02*
X105500000Y-40474990D01*
X105525000Y-37850000D02*
X105525000Y-40449990D01*
X112825000Y-37850000D02*
X112825000Y-40283330D01*
X112825000Y-40283330D02*
X112775914Y-40332416D01*
X166925000Y-36800000D02*
X166925000Y-37827781D01*
X166925000Y-37827781D02*
X166684714Y-38068067D01*
D55*
X208225000Y-35550000D02*
X208225000Y-37742782D01*
X208225000Y-37742782D02*
X208632208Y-38149990D01*
D54*
X154525000Y-37685516D02*
X153850817Y-38359699D01*
X154525000Y-36800000D02*
X154525000Y-37685516D01*
X135507569Y-40448890D02*
X136148204Y-40448890D01*
X133816854Y-38758175D02*
X135507569Y-40448890D01*
X136148204Y-40448890D02*
X137399336Y-41700022D01*
X147408155Y-41700022D02*
X149034961Y-40073216D01*
X137399336Y-41700022D02*
X147408155Y-41700022D01*
X118827130Y-44599967D02*
X131116134Y-44599967D01*
X113968465Y-41524967D02*
X115752133Y-41524967D01*
X112775914Y-40332416D02*
X113968465Y-41524967D01*
X115752133Y-41524967D02*
X118827130Y-44599967D01*
X131116134Y-44599967D02*
X132147897Y-43568204D01*
X82625000Y-38750000D02*
X82625000Y-37850000D01*
X105175022Y-36600022D02*
X103799978Y-36600022D01*
X103115023Y-37284977D02*
X103115023Y-43436423D01*
X84727136Y-39999967D02*
X83874967Y-39999967D01*
X105525000Y-37850000D02*
X105525000Y-36950000D01*
X103799978Y-36600022D02*
X103115023Y-37284977D01*
X83874967Y-39999967D02*
X82625000Y-38750000D01*
X103115023Y-43436423D02*
X102126491Y-44424955D01*
X89152124Y-44424955D02*
X84727136Y-39999967D01*
X102126491Y-44424955D02*
X89152124Y-44424955D01*
X105525000Y-36950000D02*
X105175022Y-36600022D01*
D55*
X171288064Y-39010606D02*
X176352436Y-44074978D01*
X170094759Y-39010606D02*
X171288064Y-39010606D01*
X176352436Y-44074978D02*
X201070398Y-44074978D01*
X206655693Y-38489683D02*
X207126428Y-38489683D01*
X201070398Y-44074978D02*
X206655693Y-38489683D01*
X213525000Y-39275000D02*
X213400000Y-39400000D01*
X213525000Y-35550000D02*
X213525000Y-39275000D01*
D54*
X160075000Y-36800000D02*
X160075000Y-39979771D01*
X160075000Y-39979771D02*
X160050010Y-40004761D01*
X104900000Y-40000000D02*
X104400000Y-40500000D01*
X104900000Y-37875000D02*
X104900000Y-40000000D01*
X104875000Y-37850000D02*
X104900000Y-37875000D01*
X166275000Y-37583876D02*
X165880577Y-37978299D01*
X165880577Y-37978299D02*
X165880577Y-38573918D01*
X166275000Y-36800000D02*
X166275000Y-37583876D01*
X112175000Y-37850000D02*
X112175000Y-38750000D01*
X112128371Y-38796629D02*
X112128371Y-41028363D01*
X112175000Y-38750000D02*
X112128371Y-38796629D01*
D55*
X215350002Y-38649998D02*
X214600000Y-39400000D01*
X217696970Y-38649998D02*
X215350002Y-38649998D01*
X223450000Y-34975000D02*
X221371968Y-34975000D01*
X214600000Y-39400000D02*
X213400000Y-39400000D01*
X221371968Y-34975000D02*
X217696970Y-38649998D01*
X207575000Y-35550000D02*
X207575000Y-36500000D01*
X207800001Y-36725001D02*
X207800001Y-38700001D01*
X207575000Y-36500000D02*
X207800001Y-36725001D01*
X207800001Y-38700001D02*
X208000000Y-38900000D01*
D54*
X153380131Y-37775001D02*
X152863505Y-38291627D01*
X153875000Y-36800000D02*
X153875000Y-37530002D01*
X153630001Y-37775001D02*
X153380131Y-37775001D01*
X153875000Y-37530002D02*
X153630001Y-37775001D01*
X133534011Y-39075828D02*
X135784854Y-41326671D01*
X133534011Y-39041017D02*
X133534011Y-39075828D01*
X135784854Y-41326671D02*
X136458216Y-42000033D01*
X148024971Y-42000033D02*
X149901942Y-40123062D01*
X149901942Y-40123062D02*
X149901942Y-39265786D01*
X136458216Y-42000033D02*
X148024971Y-42000033D01*
X118702862Y-44899978D02*
X132147119Y-44899978D01*
X132147119Y-44899978D02*
X132472118Y-44574979D01*
X112924986Y-41824978D02*
X115627866Y-41824978D01*
X115627866Y-41824978D02*
X118702862Y-44899978D01*
X112128371Y-41028363D02*
X112924986Y-41824978D01*
X81975000Y-38750000D02*
X81975000Y-37850000D01*
X83524978Y-40299978D02*
X81975000Y-38750000D01*
X103415034Y-43560691D02*
X102250759Y-44724966D01*
X84602868Y-40299978D02*
X83524978Y-40299978D01*
X89027854Y-44724966D02*
X84602868Y-40299978D01*
X102250759Y-44724966D02*
X89027854Y-44724966D01*
X103415034Y-41484966D02*
X103415034Y-43560691D01*
X104400000Y-40500000D02*
X103415034Y-41484966D01*
D55*
X167781626Y-40474967D02*
X172257435Y-40474967D01*
X206340367Y-39299999D02*
X207600001Y-39299999D01*
X207600001Y-39299999D02*
X208000000Y-38900000D01*
X172257435Y-40474967D02*
X176207457Y-44424989D01*
X201215377Y-44424989D02*
X206340367Y-39299999D01*
X176207457Y-44424989D02*
X201215377Y-44424989D01*
X165880577Y-38573918D02*
X167781626Y-40474967D01*
D53*
X164510000Y-33150000D02*
X162150000Y-33150000D01*
X170035000Y-32695000D02*
X170035000Y-31598998D01*
X170035000Y-31598998D02*
X169036001Y-30599999D01*
X167060001Y-30599999D02*
X164510000Y-33150000D01*
X169036001Y-30599999D02*
X167060001Y-30599999D01*
X162150000Y-30650000D02*
X164510000Y-30650000D01*
X166210012Y-30149988D02*
X169734988Y-30149988D01*
X171305000Y-31720000D02*
X171305000Y-32695000D01*
X164510000Y-30650000D02*
X165710000Y-30650000D01*
X169734988Y-30149988D02*
X171305000Y-31720000D01*
X165710000Y-30650000D02*
X166210012Y-30149988D01*
X209000000Y-78400000D02*
X214700000Y-78400000D01*
X218800000Y-74300000D02*
X229599999Y-74300000D01*
X214700000Y-78400000D02*
X218800000Y-74300000D01*
X209000000Y-78400000D02*
X190250000Y-78400000D01*
X190250000Y-78400000D02*
X187650000Y-78400000D01*
X187650000Y-78400000D02*
X177000000Y-78400000D01*
X153000000Y-78400000D02*
X134250000Y-78400000D01*
X134250000Y-78400000D02*
X131700000Y-78400000D01*
X131700000Y-78400000D02*
X120950000Y-78400000D01*
X120950000Y-78400000D02*
X107100000Y-78400000D01*
D57*
X172210000Y-86030000D02*
X171660000Y-85480000D01*
X179360000Y-86030000D02*
X172210000Y-86030000D01*
D53*
X107100000Y-78400000D02*
X106100000Y-78400000D01*
X102000000Y-74300000D02*
X99500000Y-74300000D01*
X106100000Y-78400000D02*
X102000000Y-74300000D01*
X171000000Y-84820000D02*
X171660000Y-85480000D01*
X171000000Y-82174682D02*
X171000000Y-84820000D01*
X170175319Y-81350001D02*
X171000000Y-82174682D01*
X152360000Y-83180000D02*
X154189999Y-81350001D01*
X154189999Y-81350001D02*
X170175319Y-81350001D01*
X171900000Y-78400000D02*
X177000000Y-78400000D01*
X172100000Y-78600000D02*
X171900000Y-78400000D01*
X171660000Y-85480000D02*
X172100000Y-85040000D01*
X172100000Y-85040000D02*
X172100000Y-78600000D01*
X153000000Y-78400000D02*
X172100000Y-78400000D01*
D55*
X168700000Y-31300000D02*
X168700000Y-32630000D01*
X168700000Y-32630000D02*
X168765000Y-32695000D01*
D53*
X181700000Y-34400000D02*
X178850000Y-34400000D01*
X177050000Y-32600000D02*
X174500000Y-32600000D01*
X178850000Y-34400000D02*
X177050000Y-32600000D01*
X181649999Y-34450001D02*
X181700000Y-34400000D01*
X181649999Y-41299999D02*
X181649999Y-34450001D01*
X182850000Y-42500000D02*
X181649999Y-41299999D01*
X196450000Y-42500000D02*
X182850000Y-42500000D01*
X197500000Y-41450000D02*
X196450000Y-42500000D01*
X197500000Y-34400000D02*
X197500000Y-41450000D01*
X175280000Y-31820000D02*
X174500000Y-32600000D01*
X175280000Y-30240000D02*
X175280000Y-31820000D01*
D54*
X128269603Y-34479677D02*
X124315323Y-34479677D01*
X124315323Y-34479677D02*
X123630000Y-35165000D01*
X129544168Y-33919803D02*
X128829477Y-33919803D01*
X128829477Y-33919803D02*
X128269603Y-34479677D01*
X129857056Y-34232691D02*
X129544168Y-33919803D01*
X128495257Y-35929747D02*
X129291371Y-35929747D01*
X126425004Y-38000000D02*
X128495257Y-35929747D01*
X125300000Y-38000000D02*
X126425004Y-38000000D01*
X124900000Y-36435000D02*
X124900000Y-37600000D01*
X124900000Y-37600000D02*
X125300000Y-38000000D01*
X78149936Y-48067980D02*
X79225033Y-46992883D01*
X84445387Y-73800011D02*
X78149936Y-67504560D01*
X128344263Y-37000009D02*
X129352480Y-37000009D01*
X122265377Y-38825011D02*
X126519261Y-38825011D01*
X105675423Y-31025033D02*
X109175423Y-34525033D01*
X126519261Y-38825011D02*
X128344263Y-37000009D01*
X129352480Y-37000009D02*
X129857056Y-36495433D01*
X136210000Y-87680000D02*
X132130000Y-83600000D01*
X132130000Y-83600000D02*
X125245376Y-83600000D01*
X92700000Y-86200000D02*
X88400000Y-81900000D01*
X88400000Y-81900000D02*
X88400000Y-76600000D01*
X88400000Y-76600000D02*
X85600011Y-73800011D01*
X85600011Y-73800011D02*
X84445387Y-73800011D01*
X84824580Y-31025033D02*
X105675423Y-31025033D01*
X78149936Y-67504560D02*
X78149936Y-48067980D01*
X109175423Y-34525033D02*
X117965399Y-34525033D01*
X122645376Y-86200000D02*
X92700000Y-86200000D01*
X125245376Y-83600000D02*
X122645376Y-86200000D01*
X79225033Y-46992883D02*
X79225033Y-36624580D01*
X79225033Y-36624580D02*
X84824580Y-31025033D01*
X117965399Y-34525033D02*
X122265377Y-38825011D01*
D53*
X98900000Y-41440000D02*
X98900000Y-38900000D01*
X98900000Y-36300000D02*
X98900000Y-38900000D01*
D54*
X100299989Y-34175732D02*
X101120697Y-33355024D01*
X99500000Y-36300000D02*
X100299989Y-35500011D01*
X100299989Y-35500011D02*
X100299989Y-34175732D01*
X101120697Y-33355024D02*
X106308299Y-33355024D01*
X106308299Y-33355024D02*
X108678351Y-35725077D01*
X117468327Y-35725077D02*
X121768305Y-40025055D01*
X128031548Y-39009840D02*
X129372368Y-39009840D01*
X130048854Y-38333354D02*
X130048854Y-38000691D01*
X130048854Y-38000691D02*
X130705584Y-37343961D01*
X127016333Y-40025055D02*
X128031548Y-39009840D01*
X108678351Y-35725077D02*
X117468327Y-35725077D01*
X121768305Y-40025055D02*
X127016333Y-40025055D01*
X98900000Y-36300000D02*
X99500000Y-36300000D01*
X129372368Y-39009840D02*
X130048854Y-38333354D01*
D53*
X96360000Y-41440000D02*
X96360000Y-38900000D01*
X96350000Y-38890000D02*
X96360000Y-38900000D01*
X96350000Y-36300000D02*
X96350000Y-38890000D01*
D54*
X121892573Y-39725044D02*
X126892065Y-39725044D01*
X129748843Y-37735017D02*
X130422742Y-37061118D01*
X117592595Y-35425066D02*
X121892573Y-39725044D01*
X96350000Y-36300000D02*
X96949989Y-35700011D01*
X96949989Y-35700011D02*
X99529270Y-35700011D01*
X99999978Y-35229303D02*
X99999978Y-34051464D01*
X99999978Y-34051464D02*
X100996429Y-33055013D01*
X100996429Y-33055013D02*
X106432567Y-33055013D01*
X126892065Y-39725044D02*
X127907280Y-38709829D01*
X129748843Y-38209086D02*
X129748843Y-37735017D01*
X129248100Y-38709829D02*
X129748843Y-38209086D01*
X99529270Y-35700011D02*
X99999978Y-35229303D01*
X108802619Y-35425066D02*
X117592595Y-35425066D01*
X127907280Y-38709829D02*
X129248100Y-38709829D01*
X106432567Y-33055013D02*
X108802619Y-35425066D01*
D53*
X93820000Y-41440000D02*
X93820000Y-38900000D01*
X93800000Y-38880000D02*
X93820000Y-38900000D01*
X93800000Y-36250000D02*
X93800000Y-38880000D01*
D54*
X93800000Y-36250000D02*
X94650000Y-35400000D01*
X106556835Y-32755002D02*
X108926887Y-35125055D01*
X94650000Y-35400000D02*
X99405002Y-35400000D01*
X99699967Y-33927196D02*
X100872161Y-32755002D01*
X99699967Y-35105035D02*
X99699967Y-33927196D01*
X129448832Y-37469343D02*
X130139899Y-36778276D01*
X117716863Y-35125055D02*
X122016841Y-39425033D01*
X129448832Y-38084818D02*
X129448832Y-37469343D01*
X99405002Y-35400000D02*
X99699967Y-35105035D01*
X126767797Y-39425033D02*
X127783012Y-38409818D01*
X108926887Y-35125055D02*
X117716863Y-35125055D01*
X127783012Y-38409818D02*
X129123832Y-38409818D01*
X122016841Y-39425033D02*
X126767797Y-39425033D01*
X129123832Y-38409818D02*
X129448832Y-38084818D01*
X100872161Y-32755002D02*
X106556835Y-32755002D01*
D53*
X101440000Y-41440000D02*
X101440000Y-38900000D01*
X101450000Y-38890000D02*
X101440000Y-38900000D01*
X101450000Y-36300000D02*
X101450000Y-38890000D01*
D54*
X130348865Y-38457622D02*
X130348865Y-38266366D01*
X117344059Y-36025088D02*
X121644037Y-40325066D01*
X121644037Y-40325066D02*
X127140601Y-40325066D01*
X128155816Y-39309851D02*
X129496636Y-39309851D01*
X129496636Y-39309851D02*
X130348865Y-38457622D01*
X130348865Y-38266366D02*
X130988427Y-37626804D01*
X108554083Y-36025088D02*
X117344059Y-36025088D01*
X101244965Y-33655035D02*
X106184030Y-33655035D01*
X100600000Y-34300000D02*
X101244965Y-33655035D01*
X100600000Y-35450000D02*
X100600000Y-34300000D01*
X106184030Y-33655035D02*
X108554083Y-36025088D01*
X101450000Y-36300000D02*
X100600000Y-35450000D01*
X127140601Y-40325066D02*
X128155816Y-39309851D01*
D53*
X241640000Y-44390000D02*
X241650000Y-44400000D01*
X241640000Y-42110000D02*
X241640000Y-44390000D01*
X241600000Y-44450000D02*
X241650000Y-44400000D01*
X241600000Y-45800000D02*
X241600000Y-44450000D01*
X241640000Y-39110000D02*
X241850000Y-38900000D01*
X241640000Y-42110000D02*
X241640000Y-39110000D01*
X81800000Y-78900000D02*
X80400000Y-78900000D01*
X85700000Y-82800000D02*
X81800000Y-78900000D01*
D58*
X236950000Y-74650000D02*
X237600000Y-75300000D01*
X236950000Y-70900000D02*
X236950000Y-74650000D01*
D59*
X110273000Y-31900000D02*
X110275440Y-31924776D01*
X110282667Y-31948601D01*
X110294403Y-31970557D01*
X110310197Y-31989803D01*
X110329443Y-32005597D01*
X110351399Y-32017333D01*
X110375224Y-32024560D01*
X110400000Y-32027000D01*
X121800000Y-32027000D01*
X121824776Y-32024560D01*
X121848601Y-32017333D01*
X121870557Y-32005597D01*
X121889803Y-31989803D01*
X121905597Y-31970557D01*
X121917333Y-31948601D01*
X121924560Y-31924776D01*
X121927000Y-31900000D01*
X121927000Y-28100543D01*
X122560000Y-28100543D01*
X122622535Y-28094384D01*
X122682666Y-28076143D01*
X122738084Y-28046522D01*
X122786658Y-28006658D01*
X122826522Y-27958084D01*
X122856143Y-27902666D01*
X122874384Y-27842535D01*
X122878520Y-27800543D01*
X123140255Y-27800543D01*
X123193567Y-27816715D01*
X123318300Y-27829000D01*
X123666912Y-27829000D01*
X126988111Y-31150199D01*
X127084997Y-31229712D01*
X127232488Y-31308547D01*
X127392525Y-31357094D01*
X127558958Y-31373487D01*
X127576834Y-31371726D01*
X127581015Y-31385509D01*
X127610636Y-31440927D01*
X127650500Y-31489501D01*
X127715388Y-31554389D01*
X127715711Y-31555453D01*
X127777832Y-31671674D01*
X127861435Y-31773542D01*
X127886960Y-31794490D01*
X128736532Y-32644063D01*
X128746515Y-32656227D01*
X128896287Y-32805999D01*
X128624499Y-32805999D01*
X128559596Y-32741096D01*
X128441834Y-32662410D01*
X128310985Y-32608211D01*
X128172075Y-32580580D01*
X128030445Y-32580580D01*
X127891535Y-32608211D01*
X127760686Y-32662410D01*
X127642924Y-32741096D01*
X127598370Y-32785650D01*
X109478209Y-32785650D01*
X108227000Y-31534441D01*
X108227000Y-25332021D01*
X110273000Y-25332021D01*
X110273000Y-31900000D01*
G04 #@! TA.AperFunction,Conductor*
D60*
G36*
X110273000Y-31900000D02*
G01*
X110275440Y-31924776D01*
X110282667Y-31948601D01*
X110294403Y-31970557D01*
X110310197Y-31989803D01*
X110329443Y-32005597D01*
X110351399Y-32017333D01*
X110375224Y-32024560D01*
X110400000Y-32027000D01*
X121800000Y-32027000D01*
X121824776Y-32024560D01*
X121848601Y-32017333D01*
X121870557Y-32005597D01*
X121889803Y-31989803D01*
X121905597Y-31970557D01*
X121917333Y-31948601D01*
X121924560Y-31924776D01*
X121927000Y-31900000D01*
X121927000Y-28100543D01*
X122560000Y-28100543D01*
X122622535Y-28094384D01*
X122682666Y-28076143D01*
X122738084Y-28046522D01*
X122786658Y-28006658D01*
X122826522Y-27958084D01*
X122856143Y-27902666D01*
X122874384Y-27842535D01*
X122878520Y-27800543D01*
X123140255Y-27800543D01*
X123193567Y-27816715D01*
X123318300Y-27829000D01*
X123666912Y-27829000D01*
X126988111Y-31150199D01*
X127084997Y-31229712D01*
X127232488Y-31308547D01*
X127392525Y-31357094D01*
X127558958Y-31373487D01*
X127576834Y-31371726D01*
X127581015Y-31385509D01*
X127610636Y-31440927D01*
X127650500Y-31489501D01*
X127715388Y-31554389D01*
X127715711Y-31555453D01*
X127777832Y-31671674D01*
X127861435Y-31773542D01*
X127886960Y-31794490D01*
X128736532Y-32644063D01*
X128746515Y-32656227D01*
X128896287Y-32805999D01*
X128624499Y-32805999D01*
X128559596Y-32741096D01*
X128441834Y-32662410D01*
X128310985Y-32608211D01*
X128172075Y-32580580D01*
X128030445Y-32580580D01*
X127891535Y-32608211D01*
X127760686Y-32662410D01*
X127642924Y-32741096D01*
X127598370Y-32785650D01*
X109478209Y-32785650D01*
X108227000Y-31534441D01*
X108227000Y-25332021D01*
X110273000Y-25332021D01*
X110273000Y-31900000D01*
G37*
G04 #@! TD.AperFunction*
D59*
X129373000Y-28952129D02*
X129318863Y-28886163D01*
X129235904Y-28807548D01*
X129011397Y-28807548D01*
X128499275Y-29319670D01*
X128513418Y-29333813D01*
X128333813Y-29513418D01*
X128319670Y-29499275D01*
X128305528Y-29513418D01*
X128125923Y-29333813D01*
X128140065Y-29319670D01*
X127610265Y-28789870D01*
X127385759Y-28789870D01*
X127320477Y-28850807D01*
X127241124Y-28947498D01*
X127222182Y-28982936D01*
X126625005Y-28385759D01*
X127789870Y-28385759D01*
X127789870Y-28610265D01*
X128319670Y-29140065D01*
X128831792Y-28627943D01*
X128831792Y-28403436D01*
X128753177Y-28320477D01*
X128656486Y-28241124D01*
X128546172Y-28182160D01*
X128426474Y-28145851D01*
X128301992Y-28133590D01*
X128177511Y-28145851D01*
X128057813Y-28182160D01*
X127947498Y-28241124D01*
X127850807Y-28320477D01*
X127789870Y-28385759D01*
X126625005Y-28385759D01*
X124648403Y-26409157D01*
X124621817Y-26376762D01*
X124492540Y-26270667D01*
X124345049Y-26191832D01*
X124185012Y-26143285D01*
X124060279Y-26131000D01*
X124018579Y-26126893D01*
X123976879Y-26131000D01*
X123318300Y-26131000D01*
X123193567Y-26143285D01*
X123140255Y-26159457D01*
X122878520Y-26159457D01*
X122874384Y-26117465D01*
X122856143Y-26057334D01*
X122826522Y-26001916D01*
X122786658Y-25953342D01*
X122738084Y-25913478D01*
X122682666Y-25883857D01*
X122622535Y-25865616D01*
X122560000Y-25859457D01*
X121927000Y-25859457D01*
X121927000Y-25332021D01*
X129373000Y-25332021D01*
X129373000Y-28952129D01*
G04 #@! TA.AperFunction,Conductor*
D60*
G36*
X129373000Y-28952129D02*
G01*
X129318863Y-28886163D01*
X129235904Y-28807548D01*
X129011397Y-28807548D01*
X128499275Y-29319670D01*
X128513418Y-29333813D01*
X128333813Y-29513418D01*
X128319670Y-29499275D01*
X128305528Y-29513418D01*
X128125923Y-29333813D01*
X128140065Y-29319670D01*
X127610265Y-28789870D01*
X127385759Y-28789870D01*
X127320477Y-28850807D01*
X127241124Y-28947498D01*
X127222182Y-28982936D01*
X126625005Y-28385759D01*
X127789870Y-28385759D01*
X127789870Y-28610265D01*
X128319670Y-29140065D01*
X128831792Y-28627943D01*
X128831792Y-28403436D01*
X128753177Y-28320477D01*
X128656486Y-28241124D01*
X128546172Y-28182160D01*
X128426474Y-28145851D01*
X128301992Y-28133590D01*
X128177511Y-28145851D01*
X128057813Y-28182160D01*
X127947498Y-28241124D01*
X127850807Y-28320477D01*
X127789870Y-28385759D01*
X126625005Y-28385759D01*
X124648403Y-26409157D01*
X124621817Y-26376762D01*
X124492540Y-26270667D01*
X124345049Y-26191832D01*
X124185012Y-26143285D01*
X124060279Y-26131000D01*
X124018579Y-26126893D01*
X123976879Y-26131000D01*
X123318300Y-26131000D01*
X123193567Y-26143285D01*
X123140255Y-26159457D01*
X122878520Y-26159457D01*
X122874384Y-26117465D01*
X122856143Y-26057334D01*
X122826522Y-26001916D01*
X122786658Y-25953342D01*
X122738084Y-25913478D01*
X122682666Y-25883857D01*
X122622535Y-25865616D01*
X122560000Y-25859457D01*
X121927000Y-25859457D01*
X121927000Y-25332021D01*
X129373000Y-25332021D01*
X129373000Y-28952129D01*
G37*
G04 #@! TD.AperFunction*
D59*
X202373000Y-85771097D02*
X202371982Y-85770788D01*
X202247500Y-85758528D01*
X201631550Y-85761600D01*
X201472800Y-85920350D01*
X201472800Y-88073000D01*
X201492800Y-88073000D01*
X201492800Y-88327000D01*
X201472800Y-88327000D01*
X201472800Y-90479650D01*
X201631550Y-90638400D01*
X202247500Y-90641472D01*
X202371982Y-90629212D01*
X202373000Y-90628903D01*
X202373000Y-92273000D01*
X198627000Y-92273000D01*
X198627000Y-90003400D01*
X199806028Y-90003400D01*
X199818288Y-90127882D01*
X199854598Y-90247580D01*
X199913563Y-90357894D01*
X199992915Y-90454585D01*
X200089606Y-90533937D01*
X200199920Y-90592902D01*
X200319618Y-90629212D01*
X200444100Y-90641472D01*
X201060050Y-90638400D01*
X201218800Y-90479650D01*
X201218800Y-88327000D01*
X199967850Y-88327000D01*
X199809100Y-88485750D01*
X199806028Y-90003400D01*
X198627000Y-90003400D01*
X198627000Y-86396600D01*
X199806028Y-86396600D01*
X199809100Y-87914250D01*
X199967850Y-88073000D01*
X201218800Y-88073000D01*
X201218800Y-85920350D01*
X201060050Y-85761600D01*
X200444100Y-85758528D01*
X200319618Y-85770788D01*
X200199920Y-85807098D01*
X200089606Y-85866063D01*
X199992915Y-85945415D01*
X199913563Y-86042106D01*
X199854598Y-86152420D01*
X199818288Y-86272118D01*
X199806028Y-86396600D01*
X198627000Y-86396600D01*
X198627000Y-84327000D01*
X202373000Y-84327000D01*
X202373000Y-85771097D01*
G04 #@! TA.AperFunction,Conductor*
D60*
G36*
X202373000Y-85771097D02*
G01*
X202371982Y-85770788D01*
X202247500Y-85758528D01*
X201631550Y-85761600D01*
X201472800Y-85920350D01*
X201472800Y-88073000D01*
X201492800Y-88073000D01*
X201492800Y-88327000D01*
X201472800Y-88327000D01*
X201472800Y-90479650D01*
X201631550Y-90638400D01*
X202247500Y-90641472D01*
X202371982Y-90629212D01*
X202373000Y-90628903D01*
X202373000Y-92273000D01*
X198627000Y-92273000D01*
X198627000Y-90003400D01*
X199806028Y-90003400D01*
X199818288Y-90127882D01*
X199854598Y-90247580D01*
X199913563Y-90357894D01*
X199992915Y-90454585D01*
X200089606Y-90533937D01*
X200199920Y-90592902D01*
X200319618Y-90629212D01*
X200444100Y-90641472D01*
X201060050Y-90638400D01*
X201218800Y-90479650D01*
X201218800Y-88327000D01*
X199967850Y-88327000D01*
X199809100Y-88485750D01*
X199806028Y-90003400D01*
X198627000Y-90003400D01*
X198627000Y-86396600D01*
X199806028Y-86396600D01*
X199809100Y-87914250D01*
X199967850Y-88073000D01*
X201218800Y-88073000D01*
X201218800Y-85920350D01*
X201060050Y-85761600D01*
X200444100Y-85758528D01*
X200319618Y-85770788D01*
X200199920Y-85807098D01*
X200089606Y-85866063D01*
X199992915Y-85945415D01*
X199913563Y-86042106D01*
X199854598Y-86152420D01*
X199818288Y-86272118D01*
X199806028Y-86396600D01*
X198627000Y-86396600D01*
X198627000Y-84327000D01*
X202373000Y-84327000D01*
X202373000Y-85771097D01*
G37*
G04 #@! TD.AperFunction*
D59*
X195073000Y-92273000D02*
X191327000Y-92273000D01*
X191327000Y-90628903D01*
X191328018Y-90629212D01*
X191452500Y-90641472D01*
X192068450Y-90638400D01*
X192227200Y-90479650D01*
X192227200Y-88327000D01*
X192481200Y-88327000D01*
X192481200Y-90479650D01*
X192639950Y-90638400D01*
X193255900Y-90641472D01*
X193380382Y-90629212D01*
X193500080Y-90592902D01*
X193610394Y-90533937D01*
X193707085Y-90454585D01*
X193786437Y-90357894D01*
X193845402Y-90247580D01*
X193881712Y-90127882D01*
X193893972Y-90003400D01*
X193890900Y-88485750D01*
X193732150Y-88327000D01*
X192481200Y-88327000D01*
X192227200Y-88327000D01*
X192207200Y-88327000D01*
X192207200Y-88073000D01*
X192227200Y-88073000D01*
X192227200Y-85920350D01*
X192481200Y-85920350D01*
X192481200Y-88073000D01*
X193732150Y-88073000D01*
X193890900Y-87914250D01*
X193893972Y-86396600D01*
X193881712Y-86272118D01*
X193845402Y-86152420D01*
X193786437Y-86042106D01*
X193707085Y-85945415D01*
X193610394Y-85866063D01*
X193500080Y-85807098D01*
X193380382Y-85770788D01*
X193255900Y-85758528D01*
X192639950Y-85761600D01*
X192481200Y-85920350D01*
X192227200Y-85920350D01*
X192068450Y-85761600D01*
X191452500Y-85758528D01*
X191328018Y-85770788D01*
X191327000Y-85771097D01*
X191327000Y-84327000D01*
X195073000Y-84327000D01*
X195073000Y-92273000D01*
G04 #@! TA.AperFunction,Conductor*
D60*
G36*
X195073000Y-92273000D02*
G01*
X191327000Y-92273000D01*
X191327000Y-90628903D01*
X191328018Y-90629212D01*
X191452500Y-90641472D01*
X192068450Y-90638400D01*
X192227200Y-90479650D01*
X192227200Y-88327000D01*
X192481200Y-88327000D01*
X192481200Y-90479650D01*
X192639950Y-90638400D01*
X193255900Y-90641472D01*
X193380382Y-90629212D01*
X193500080Y-90592902D01*
X193610394Y-90533937D01*
X193707085Y-90454585D01*
X193786437Y-90357894D01*
X193845402Y-90247580D01*
X193881712Y-90127882D01*
X193893972Y-90003400D01*
X193890900Y-88485750D01*
X193732150Y-88327000D01*
X192481200Y-88327000D01*
X192227200Y-88327000D01*
X192207200Y-88327000D01*
X192207200Y-88073000D01*
X192227200Y-88073000D01*
X192227200Y-85920350D01*
X192481200Y-85920350D01*
X192481200Y-88073000D01*
X193732150Y-88073000D01*
X193890900Y-87914250D01*
X193893972Y-86396600D01*
X193881712Y-86272118D01*
X193845402Y-86152420D01*
X193786437Y-86042106D01*
X193707085Y-85945415D01*
X193610394Y-85866063D01*
X193500080Y-85807098D01*
X193380382Y-85770788D01*
X193255900Y-85758528D01*
X192639950Y-85761600D01*
X192481200Y-85920350D01*
X192227200Y-85920350D01*
X192068450Y-85761600D01*
X191452500Y-85758528D01*
X191328018Y-85770788D01*
X191327000Y-85771097D01*
X191327000Y-84327000D01*
X195073000Y-84327000D01*
X195073000Y-92273000D01*
G37*
G04 #@! TD.AperFunction*
M02*
