G04 #@! TF.GenerationSoftware,KiCad,Pcbnew,(5.1.7)-1*
G04 #@! TF.CreationDate,2020-11-21T17:16:52+01:00*
G04 #@! TF.ProjectId,nixie_clock,6e697869-655f-4636-9c6f-636b2e6b6963,100A*
G04 #@! TF.SameCoordinates,Original*
G04 #@! TF.FileFunction,Profile,NP*
%FSLAX46Y46*%
G04 Gerber Fmt 4.6, Leading zero omitted, Abs format (unit mm)*
G04 Created by KiCad (PCBNEW (5.1.7)-1) date 2020-11-21 17:16:52*
%MOMM*%
%LPD*%
G01*
G04 APERTURE LIST*
G04 #@! TA.AperFunction,Profile*
%ADD10C,0.010000*%
G04 #@! TD*
G04 #@! TA.AperFunction,Profile*
%ADD11C,0.150000*%
G04 #@! TD*
G04 APERTURE END LIST*
D10*
X244852504Y-88947192D02*
X244864256Y-88957091D01*
X245132882Y-89057759D02*
X245148246Y-89058021D01*
X244864256Y-88957091D02*
X244876339Y-88966584D01*
X244819370Y-88915170D02*
X244830048Y-88926219D01*
X244735501Y-88787302D02*
X244741862Y-88801289D01*
X245998252Y-89058021D02*
X245998252Y-95008021D01*
X232648252Y-95008021D02*
X232648252Y-93958021D01*
X244067554Y-95008021D02*
X238648252Y-95008021D01*
X245117537Y-89056972D02*
X245132882Y-89057759D01*
X244954978Y-89014405D02*
X244968965Y-89020766D01*
X244841097Y-88936897D02*
X244852504Y-88947192D01*
X244809075Y-88903763D02*
X244819370Y-88915170D01*
X245102227Y-89055662D02*
X245117537Y-89056972D01*
X245041702Y-89045227D02*
X245056691Y-89048609D01*
X244927696Y-89000269D02*
X244941217Y-89007570D01*
X244983161Y-89026647D02*
X244997550Y-89032039D01*
X245012114Y-89036936D02*
X245026837Y-89041334D01*
X244997550Y-89032039D02*
X245012114Y-89036936D01*
X244914433Y-88992510D02*
X244927696Y-89000269D01*
X244876339Y-88966584D02*
X244888740Y-88975658D01*
X244763757Y-88841834D02*
X244771964Y-88854825D01*
X244724228Y-88758717D02*
X244729621Y-88773106D01*
X244711041Y-88714565D02*
X244714933Y-88729430D01*
X245071786Y-89051478D02*
X245086971Y-89053830D01*
X245056691Y-89048609D02*
X245071786Y-89051478D01*
X244799176Y-88892011D02*
X244809075Y-88903763D01*
X244901443Y-88984303D02*
X244914433Y-88992510D01*
X244888740Y-88975658D02*
X244901443Y-88984303D01*
X245026837Y-89041334D02*
X245041702Y-89045227D01*
X245086971Y-89053830D02*
X245102227Y-89055662D01*
X244780609Y-88867527D02*
X244789684Y-88879928D01*
X244729621Y-88773106D02*
X244735501Y-88787302D01*
X244719331Y-88744153D02*
X244724228Y-88758717D01*
X245148246Y-89058021D02*
X245998252Y-89058021D01*
X244789684Y-88879928D02*
X244799176Y-88892011D01*
X244830048Y-88926219D02*
X244841097Y-88936897D01*
X244741862Y-88801289D02*
X244748698Y-88815051D01*
X244968965Y-89020766D02*
X244983161Y-89026647D01*
X244748698Y-88815051D02*
X244755999Y-88828571D01*
X238648252Y-95008021D02*
X232648252Y-95008021D01*
X245998252Y-95008021D02*
X244067554Y-95008021D01*
X244941217Y-89007570D02*
X244954978Y-89014405D01*
X244755999Y-88828571D02*
X244763757Y-88841834D01*
X244771964Y-88854825D02*
X244780609Y-88867527D01*
X244714933Y-88729430D02*
X244719331Y-88744153D01*
X244819370Y-79100872D02*
X244809075Y-79112280D01*
X245086971Y-78962213D02*
X245071786Y-78964565D01*
X244755999Y-79187472D02*
X244748698Y-79200992D01*
X244841097Y-79079145D02*
X244830048Y-79089823D01*
X244763757Y-79174209D02*
X244755999Y-79187472D01*
X244864256Y-79058951D02*
X244852504Y-79068850D01*
X244914433Y-79023533D02*
X244901443Y-79031739D01*
X244927696Y-79015774D02*
X244914433Y-79023533D01*
X244941217Y-79008473D02*
X244927696Y-79015774D01*
X245117537Y-78959070D02*
X245102227Y-78960381D01*
X244954978Y-79001638D02*
X244941217Y-79008473D01*
X245957817Y-73806201D02*
X245968039Y-73807006D01*
X244748698Y-79200992D02*
X244741862Y-79214754D01*
X245026837Y-78974709D02*
X245012114Y-78979106D01*
X245041702Y-78970816D02*
X245026837Y-78974709D01*
X245988264Y-73807910D02*
X245998252Y-73808021D01*
X244729621Y-79242937D02*
X244724228Y-79257325D01*
X244888740Y-79040385D02*
X244876339Y-79049459D01*
X244711041Y-79301477D02*
X244707658Y-79316466D01*
X244771964Y-79161218D02*
X244763757Y-79174209D01*
X244901443Y-79031739D02*
X244888740Y-79040385D01*
X244997550Y-78984004D02*
X244983161Y-78989396D01*
X244968965Y-78995276D02*
X244954978Y-79001638D01*
X244983161Y-78989396D02*
X244968965Y-78995276D01*
X245148246Y-78958021D02*
X245132882Y-78958284D01*
X245132882Y-78958284D02*
X245117537Y-78959070D01*
X245968039Y-73807006D02*
X245978191Y-73807574D01*
X245071786Y-78964565D02*
X245056691Y-78967433D01*
X244719331Y-79271890D02*
X244714933Y-79286613D01*
X244830048Y-79089823D02*
X244819370Y-79100872D01*
X244707658Y-88699577D02*
X244711041Y-88714565D01*
X244704789Y-88684481D02*
X244707658Y-88699577D01*
X244702437Y-88669296D02*
X244704789Y-88684481D01*
X244700605Y-88654040D02*
X244702437Y-88669296D01*
X244876339Y-79049459D02*
X244864256Y-79058951D01*
X244698246Y-80808021D02*
X244698246Y-87208021D01*
X244699295Y-88638730D02*
X244700605Y-88654040D01*
X244698246Y-87208021D02*
X244698246Y-88608021D01*
X244741862Y-79214754D02*
X244735501Y-79228741D01*
X245012114Y-78979106D02*
X244997550Y-78984004D01*
X245947531Y-73805154D02*
X245957817Y-73806201D01*
X244698508Y-88623385D02*
X244699295Y-88638730D01*
X244698246Y-88608021D02*
X244698508Y-88623385D01*
X244698246Y-79408021D02*
X244698246Y-80808021D01*
X244698508Y-79392658D02*
X244698246Y-79408021D01*
X244852504Y-79068850D02*
X244841097Y-79079145D01*
X244724228Y-79257325D02*
X244719331Y-79271890D01*
X244780609Y-79148515D02*
X244771964Y-79161218D01*
X245056691Y-78967433D02*
X245041702Y-78970816D01*
X244699295Y-79377312D02*
X244698508Y-79392658D01*
X244704789Y-79331562D02*
X244702437Y-79346746D01*
X244700605Y-79362002D02*
X244699295Y-79377312D01*
X244702437Y-79346746D02*
X244700605Y-79362002D01*
X244707658Y-79316466D02*
X244704789Y-79331562D01*
X244789684Y-79136115D02*
X244780609Y-79148515D01*
X244809075Y-79112280D02*
X244799176Y-79124032D01*
X245978191Y-73807574D02*
X245988264Y-73807910D01*
X244714933Y-79286613D02*
X244711041Y-79301477D01*
X245998252Y-78958021D02*
X245148246Y-78958021D01*
X244735501Y-79228741D02*
X244729621Y-79242937D01*
X245102227Y-78960381D02*
X245086971Y-78962213D01*
X245998252Y-73808021D02*
X245998252Y-78958021D01*
X245937189Y-73803859D02*
X245947531Y-73805154D01*
X244799176Y-79124032D02*
X244789684Y-79136115D01*
X245588629Y-73544325D02*
X245593438Y-73554555D01*
X245832609Y-73776426D02*
X245843018Y-73780398D01*
X245822249Y-73772175D02*
X245832609Y-73776426D01*
X245801718Y-73762835D02*
X245811948Y-73767644D01*
X245548363Y-73348033D02*
X245548252Y-73358021D01*
X245811948Y-73767644D02*
X245822249Y-73772175D01*
X245732999Y-73721533D02*
X245742430Y-73728231D01*
X245593438Y-73554555D02*
X245598524Y-73564704D01*
X245575875Y-73513255D02*
X245579847Y-73523664D01*
X245551119Y-73408742D02*
X245552414Y-73419084D01*
X245791569Y-73757749D02*
X245801718Y-73762835D01*
X245752007Y-73734669D02*
X245761721Y-73740844D01*
X245548699Y-73337960D02*
X245548363Y-73348033D01*
X245771560Y-73746751D02*
X245781513Y-73752387D01*
X245723725Y-73714581D02*
X245732999Y-73721533D01*
X245714618Y-73707380D02*
X245723725Y-73714581D01*
X245634740Y-73623274D02*
X245641692Y-73632548D01*
X245584098Y-73534024D02*
X245588629Y-73544325D01*
X245572180Y-73502808D02*
X245575875Y-73513255D01*
X245705688Y-73699937D02*
X245714618Y-73707380D01*
X245680054Y-73676219D02*
X245688396Y-73684349D01*
X245621604Y-73604266D02*
X245628042Y-73613843D01*
X245648893Y-73641655D02*
X245656336Y-73650585D01*
X245664016Y-73659329D02*
X245671924Y-73667877D01*
X245656336Y-73650585D02*
X245664016Y-73659329D01*
X245615429Y-73594552D02*
X245621604Y-73604266D01*
X245598524Y-73564704D02*
X245603886Y-73574760D01*
X245557829Y-73450366D02*
X245560157Y-73460849D01*
X245549267Y-73388234D02*
X245550072Y-73398456D01*
X245548252Y-73358021D02*
X245548363Y-73368009D01*
X245696944Y-73692257D02*
X245705688Y-73699937D01*
X245688396Y-73684349D02*
X245696944Y-73692257D01*
X245568763Y-73492334D02*
X245572180Y-73502808D01*
X245609522Y-73584713D02*
X245615429Y-73594552D01*
X245603886Y-73574760D02*
X245609522Y-73584713D01*
X245671924Y-73667877D02*
X245680054Y-73676219D01*
X245562754Y-73471344D02*
X245565622Y-73481843D01*
X245551119Y-73307301D02*
X245550072Y-73317587D01*
X245550072Y-73398456D02*
X245551119Y-73408742D01*
X245548699Y-73378082D02*
X245549267Y-73388234D01*
X245742430Y-73728231D02*
X245752007Y-73734669D01*
X245565622Y-73481843D02*
X245568763Y-73492334D01*
X245579847Y-73523664D02*
X245584098Y-73534024D01*
X245552414Y-73419084D02*
X245553961Y-73429475D01*
X245641692Y-73632548D02*
X245648893Y-73641655D01*
X245905907Y-73798444D02*
X245916368Y-73800509D01*
X245895424Y-73796116D02*
X245905907Y-73798444D01*
X245874430Y-73790651D02*
X245884929Y-73793519D01*
X245863939Y-73787510D02*
X245874430Y-73790651D01*
X245553961Y-73429475D02*
X245555764Y-73439905D01*
X245552414Y-73296958D02*
X245551119Y-73307301D01*
X245550072Y-73317587D02*
X245549267Y-73327809D01*
X245843018Y-73780398D02*
X245853465Y-73784093D01*
X245781513Y-73752387D02*
X245791569Y-73757749D01*
X245761721Y-73740844D02*
X245771560Y-73746751D01*
X245628042Y-73613843D02*
X245634740Y-73623274D01*
X245555764Y-73439905D02*
X245557829Y-73450366D01*
X245549267Y-73327809D02*
X245548699Y-73337960D01*
X245560157Y-73460849D02*
X245562754Y-73471344D01*
X245548363Y-73368009D02*
X245548699Y-73378082D01*
X245926798Y-73802312D02*
X245937189Y-73803859D01*
X245916368Y-73800509D02*
X245926798Y-73802312D01*
X245884929Y-73793519D02*
X245895424Y-73796116D01*
X245853465Y-73784093D02*
X245863939Y-73787510D01*
X245696944Y-73023785D02*
X245688396Y-73031694D01*
X245680054Y-73039823D02*
X245671924Y-73048166D01*
X245588629Y-73171718D02*
X245584098Y-73182019D01*
X245628042Y-73102199D02*
X245621604Y-73111777D01*
X245905907Y-72917598D02*
X245895424Y-72919927D01*
X245634740Y-73092768D02*
X245628042Y-73102199D01*
X245723725Y-73001462D02*
X245714618Y-73008662D01*
X245978191Y-72908469D02*
X245968039Y-72909037D01*
X245874430Y-72925392D02*
X245863939Y-72928533D01*
X245884929Y-72922524D02*
X245874430Y-72925392D01*
X245621604Y-73111777D02*
X245615429Y-73121490D01*
X245752007Y-72981373D02*
X245742430Y-72987812D01*
X245957817Y-72909842D02*
X245947531Y-72910889D01*
X245553961Y-73286568D02*
X245552414Y-73296958D01*
X245562754Y-73244699D02*
X245560157Y-73255194D01*
X245705688Y-73016106D02*
X245696944Y-73023785D01*
X245603886Y-73141282D02*
X245598524Y-73151339D01*
X245822249Y-72943868D02*
X245811948Y-72948398D01*
X245853465Y-72931950D02*
X245843018Y-72935644D01*
X245641692Y-73083494D02*
X245634740Y-73092768D01*
X245555764Y-73276138D02*
X245553961Y-73286568D01*
X245557829Y-73265677D02*
X245555764Y-73276138D01*
X245714618Y-73008662D02*
X245705688Y-73016106D01*
X245579847Y-73192379D02*
X245575875Y-73202788D01*
X245584098Y-73182019D02*
X245579847Y-73192379D01*
X245982719Y-71107753D02*
X245998252Y-71108021D01*
X245593438Y-73161488D02*
X245588629Y-73171718D01*
X245615429Y-73121490D02*
X245609522Y-73131329D01*
X245951729Y-71105610D02*
X245967206Y-71106949D01*
X245688396Y-73031694D02*
X245680054Y-73039823D01*
X245937189Y-72912184D02*
X245926798Y-72913730D01*
X247998252Y-71108021D02*
X247998252Y-72908021D01*
X245998252Y-72908021D02*
X245988264Y-72908132D01*
X245998252Y-71108021D02*
X247998252Y-71108021D01*
X245761721Y-72975199D02*
X245752007Y-72981373D01*
X245967206Y-71106949D02*
X245982719Y-71107753D01*
X247998252Y-72908021D02*
X245998252Y-72908021D01*
X245895424Y-72919927D02*
X245884929Y-72922524D01*
X245988264Y-72908132D02*
X245978191Y-72908469D01*
X245916368Y-72915534D02*
X245905907Y-72917598D01*
X245968039Y-72909037D02*
X245957817Y-72909842D01*
X245560157Y-73255194D02*
X245557829Y-73265677D01*
X245565622Y-73234200D02*
X245562754Y-73244699D01*
X245598524Y-73151339D02*
X245593438Y-73161488D01*
X245648893Y-73074387D02*
X245641692Y-73083494D01*
X245801718Y-72953207D02*
X245791569Y-72958294D01*
X245732999Y-72994510D02*
X245723725Y-73001462D01*
X245832609Y-72939617D02*
X245822249Y-72943868D01*
X245843018Y-72935644D02*
X245832609Y-72939617D01*
X245575875Y-73202788D02*
X245572180Y-73213234D01*
X245656336Y-73065457D02*
X245648893Y-73074387D01*
X245742430Y-72987812D02*
X245732999Y-72994510D01*
X245781513Y-72963656D02*
X245771560Y-72969292D01*
X245863939Y-72928533D02*
X245853465Y-72931950D01*
X245926798Y-72913730D02*
X245916368Y-72915534D01*
X245671924Y-73048166D02*
X245664016Y-73056714D01*
X245811948Y-72948398D02*
X245801718Y-72953207D01*
X245568763Y-73223709D02*
X245565622Y-73234200D01*
X245572180Y-73213234D02*
X245568763Y-73223709D01*
X245947531Y-72910889D02*
X245937189Y-72912184D01*
X245609522Y-73131329D02*
X245603886Y-73141282D01*
X245664016Y-73056714D02*
X245656336Y-73065457D01*
X245771560Y-72969292D02*
X245761721Y-72975199D01*
X245791569Y-72958294D02*
X245781513Y-72963656D01*
X245789126Y-70259566D02*
X245775498Y-70267022D01*
X245845966Y-70234572D02*
X245831441Y-70240081D01*
X245860672Y-70229568D02*
X245845966Y-70234572D01*
X245752007Y-65734669D02*
X245761721Y-65740844D01*
X245978191Y-65807574D02*
X245988264Y-65807910D01*
X245832609Y-65776426D02*
X245843018Y-65780398D01*
X245875543Y-70225075D02*
X245860672Y-70229568D01*
X245936308Y-70212305D02*
X245920960Y-70214709D01*
X245982719Y-70208289D02*
X245967206Y-70209094D01*
X245791569Y-65757749D02*
X245801718Y-65762835D01*
X245801718Y-65762835D02*
X245811948Y-65767644D01*
X245968039Y-65807006D02*
X245978191Y-65807574D01*
X245957817Y-65806201D02*
X245968039Y-65807006D01*
X245926798Y-65802312D02*
X245937189Y-65803859D01*
X245998252Y-65808021D02*
X245998252Y-70208021D01*
X245920960Y-70214709D02*
X245905705Y-70217641D01*
X245951729Y-70210433D02*
X245936308Y-70212305D01*
X245998252Y-70208021D02*
X245982719Y-70208289D01*
X245937189Y-65803859D02*
X245947531Y-65805154D01*
X245905907Y-65798444D02*
X245916368Y-65800509D01*
X245895424Y-65796116D02*
X245905907Y-65798444D01*
X245822249Y-65772175D02*
X245832609Y-65776426D01*
X245736268Y-70292146D02*
X245723796Y-70301407D01*
X245817114Y-70246088D02*
X245803004Y-70252585D01*
X245916368Y-65800509D02*
X245926798Y-65802312D01*
X245874430Y-65790651D02*
X245884929Y-65793519D01*
X245677319Y-70342581D02*
X245666623Y-70353847D01*
X245688398Y-70331692D02*
X245677319Y-70342581D01*
X245853465Y-65784093D02*
X245863939Y-65787510D01*
X245771560Y-65746751D02*
X245781513Y-65752387D01*
X245723796Y-70301407D02*
X245711650Y-70311092D01*
X245884929Y-65793519D02*
X245895424Y-65796116D01*
X245781513Y-65752387D02*
X245791569Y-65757749D01*
X245761721Y-65740844D02*
X245771560Y-65746751D01*
X245890560Y-70221097D02*
X245875543Y-70225075D01*
X245699846Y-70321191D02*
X245688398Y-70331692D01*
X245831441Y-70240081D02*
X245817114Y-70246088D01*
X245947531Y-65805154D02*
X245957817Y-65806201D01*
X245711650Y-70311092D02*
X245699846Y-70321191D01*
X245988264Y-65807910D02*
X245998252Y-65808021D01*
X245905705Y-70217641D02*
X245890560Y-70221097D01*
X245803004Y-70252585D02*
X245789126Y-70259566D01*
X245863939Y-65787510D02*
X245874430Y-65790651D01*
X245742430Y-65728231D02*
X245752007Y-65734669D01*
X245967206Y-70209094D02*
X245951729Y-70210433D01*
X245843018Y-65780398D02*
X245853465Y-65784093D01*
X245762135Y-70274943D02*
X245749053Y-70283321D01*
X245749053Y-70283321D02*
X245736268Y-70292146D01*
X245775498Y-70267022D02*
X245762135Y-70274943D01*
X245732999Y-65721533D02*
X245742430Y-65728231D01*
X245811948Y-65767644D02*
X245822249Y-65772175D01*
X245603886Y-65574760D02*
X245609522Y-65584713D01*
X245598524Y-65564704D02*
X245603886Y-65574760D01*
X245557829Y-65450366D02*
X245560157Y-65460849D01*
X245609522Y-65584713D02*
X245615429Y-65594552D01*
X245555764Y-65276138D02*
X245553961Y-65286568D01*
X245551119Y-65408742D02*
X245552414Y-65419084D01*
X245593438Y-65554555D02*
X245598524Y-65564704D01*
X245579847Y-65523664D02*
X245584098Y-65534024D01*
X245634740Y-65092768D02*
X245628042Y-65102199D01*
X245588629Y-65544325D02*
X245593438Y-65554555D01*
X245548699Y-65337960D02*
X245548363Y-65348033D01*
X245550072Y-65398456D02*
X245551119Y-65408742D01*
X245568763Y-65223709D02*
X245565622Y-65234200D01*
X245621604Y-65604266D02*
X245628042Y-65613843D01*
X245557829Y-65265677D02*
X245555764Y-65276138D01*
X245575875Y-65513255D02*
X245579847Y-65523664D01*
X245572180Y-65502808D02*
X245575875Y-65513255D01*
X245593438Y-65161488D02*
X245588629Y-65171718D01*
X245575875Y-65202788D02*
X245572180Y-65213234D01*
X245609522Y-65131329D02*
X245603886Y-65141282D01*
X245621604Y-65111777D02*
X245615429Y-65121490D01*
X245588629Y-65171718D02*
X245584098Y-65182019D01*
X245641692Y-65632548D02*
X245648893Y-65641655D01*
X245598524Y-65151339D02*
X245593438Y-65161488D01*
X245552414Y-65419084D02*
X245553961Y-65429475D01*
X245572180Y-65213234D02*
X245568763Y-65223709D01*
X245615429Y-65121490D02*
X245609522Y-65131329D01*
X245688396Y-65684349D02*
X245696944Y-65692257D01*
X245723725Y-65714581D02*
X245732999Y-65721533D01*
X245552414Y-65296958D02*
X245551119Y-65307301D01*
X245680054Y-65676219D02*
X245688396Y-65684349D01*
X245656336Y-65650585D02*
X245664016Y-65659329D01*
X245714618Y-65707380D02*
X245723725Y-65714581D01*
X245562754Y-65244699D02*
X245560157Y-65255194D01*
X245628042Y-65613843D02*
X245634740Y-65623274D01*
X245548252Y-65358021D02*
X245548363Y-65368009D01*
X245568763Y-65492334D02*
X245572180Y-65502808D01*
X245565622Y-65481843D02*
X245568763Y-65492334D01*
X245555764Y-65439905D02*
X245557829Y-65450366D01*
X245553961Y-65429475D02*
X245555764Y-65439905D01*
X245549267Y-65388234D02*
X245550072Y-65398456D01*
X245664016Y-65659329D02*
X245671924Y-65667877D01*
X245705688Y-65699937D02*
X245714618Y-65707380D01*
X245648893Y-65641655D02*
X245656336Y-65650585D01*
X245562754Y-65471344D02*
X245565622Y-65481843D01*
X245579847Y-65192379D02*
X245575875Y-65202788D01*
X245551119Y-65307301D02*
X245550072Y-65317587D01*
X245565622Y-65234200D02*
X245562754Y-65244699D01*
X245560157Y-65460849D02*
X245562754Y-65471344D01*
X245696944Y-65692257D02*
X245705688Y-65699937D01*
X245548363Y-65348033D02*
X245548252Y-65358021D01*
X245628042Y-65102199D02*
X245621604Y-65111777D01*
X245584098Y-65182019D02*
X245579847Y-65192379D01*
X245584098Y-65534024D02*
X245588629Y-65544325D01*
X245671924Y-65667877D02*
X245680054Y-65676219D01*
X245548699Y-65378082D02*
X245549267Y-65388234D01*
X245634740Y-65623274D02*
X245641692Y-65632548D01*
X245550072Y-65317587D02*
X245549267Y-65327809D01*
X245560157Y-65255194D02*
X245557829Y-65265677D01*
X245603886Y-65141282D02*
X245598524Y-65151339D01*
X245548363Y-65368009D02*
X245548699Y-65378082D01*
X245553961Y-65286568D02*
X245552414Y-65296958D01*
X245549267Y-65327809D02*
X245548699Y-65337960D01*
X245615429Y-65594552D02*
X245621604Y-65604266D01*
X245699846Y-62994851D02*
X245711650Y-63004950D01*
X245822249Y-64943868D02*
X245811948Y-64948398D01*
X245832609Y-64939617D02*
X245822249Y-64943868D01*
X245688396Y-65031694D02*
X245680054Y-65039823D01*
X245696944Y-65023785D02*
X245688396Y-65031694D01*
X245705688Y-65016106D02*
X245696944Y-65023785D01*
X245781513Y-64963656D02*
X245771560Y-64969292D01*
X245863939Y-64928533D02*
X245853465Y-64931950D01*
X245860672Y-63086474D02*
X245875543Y-63090968D01*
X245711650Y-63004950D02*
X245723796Y-63014636D01*
X245936308Y-63103738D02*
X245951729Y-63105610D01*
X245714618Y-65008662D02*
X245705688Y-65016106D01*
X245732999Y-64994510D02*
X245723725Y-65001462D01*
X245742430Y-64987812D02*
X245732999Y-64994510D01*
X245752007Y-64981373D02*
X245742430Y-64987812D01*
X245926798Y-64913730D02*
X245916368Y-64915534D01*
X245803004Y-63063457D02*
X245817114Y-63069955D01*
X245688398Y-62984351D02*
X245699846Y-62994851D01*
X245761721Y-64975199D02*
X245752007Y-64981373D01*
X245967206Y-63106949D02*
X245982719Y-63107753D01*
X245905705Y-63098402D02*
X245920960Y-63101334D01*
X245775498Y-63049021D02*
X245789126Y-63056477D01*
X245831441Y-63075962D02*
X245845966Y-63081470D01*
X245771560Y-64969292D02*
X245761721Y-64975199D01*
X245801718Y-64953207D02*
X245791569Y-64958294D01*
X245968039Y-64909037D02*
X245957817Y-64909842D01*
X245998252Y-63108021D02*
X247998252Y-63108021D01*
X245845966Y-63081470D02*
X245860672Y-63086474D01*
X245723796Y-63014636D02*
X245736268Y-63023897D01*
X245762135Y-63041099D02*
X245775498Y-63049021D01*
X245811948Y-64948398D02*
X245801718Y-64953207D01*
X245920960Y-63101334D02*
X245936308Y-63103738D01*
X247998252Y-63108021D02*
X247998252Y-64908021D01*
X245749053Y-63032721D02*
X245762135Y-63041099D01*
X245736268Y-63023897D02*
X245749053Y-63032721D01*
X245905907Y-64917598D02*
X245895424Y-64919927D01*
X245895424Y-64919927D02*
X245884929Y-64922524D01*
X245791569Y-64958294D02*
X245781513Y-64963656D01*
X245843018Y-64935644D02*
X245832609Y-64939617D01*
X245947531Y-64910889D02*
X245937189Y-64912184D01*
X245951729Y-63105610D02*
X245967206Y-63106949D01*
X245988264Y-64908132D02*
X245978191Y-64908469D01*
X245677319Y-62973461D02*
X245688398Y-62984351D01*
X245875543Y-63090968D02*
X245890560Y-63094945D01*
X245817114Y-63069955D02*
X245831441Y-63075962D01*
X245916368Y-64915534D02*
X245905907Y-64917598D01*
X245937189Y-64912184D02*
X245926798Y-64913730D01*
X245853465Y-64931950D02*
X245843018Y-64935644D01*
X245884929Y-64922524D02*
X245874430Y-64925392D01*
X245982719Y-63107753D02*
X245998252Y-63108021D01*
X245957817Y-64909842D02*
X245947531Y-64910889D01*
X245978191Y-64908469D02*
X245968039Y-64909037D01*
X245998252Y-64908021D02*
X245988264Y-64908132D01*
X247998252Y-64908021D02*
X245998252Y-64908021D01*
X245641692Y-65083494D02*
X245634740Y-65092768D01*
X245648893Y-65074387D02*
X245641692Y-65083494D01*
X245789126Y-63056477D02*
X245803004Y-63063457D01*
X245656336Y-65065457D02*
X245648893Y-65074387D01*
X245664016Y-65056714D02*
X245656336Y-65065457D01*
X245671924Y-65048166D02*
X245664016Y-65056714D01*
X245680054Y-65039823D02*
X245671924Y-65048166D01*
X245723725Y-65001462D02*
X245714618Y-65008662D01*
X245874430Y-64925392D02*
X245863939Y-64928533D01*
X245890560Y-63094945D02*
X245905705Y-63098402D01*
X245736268Y-62292146D02*
X245723796Y-62301407D01*
X245711650Y-62311092D02*
X245699846Y-62321191D01*
X245636953Y-62389762D02*
X245627909Y-62402392D01*
X245817114Y-62246088D02*
X245803004Y-62252585D01*
X245583253Y-62484021D02*
X245577494Y-62498449D01*
X245845966Y-62234572D02*
X245831441Y-62240081D01*
X245646428Y-62377451D02*
X245636953Y-62389762D01*
X245775498Y-62267022D02*
X245762135Y-62274943D01*
X245553671Y-62727650D02*
X245556339Y-62742953D01*
X245905705Y-62217641D02*
X245890560Y-62221097D01*
X245920960Y-62214709D02*
X245905705Y-62217641D01*
X245936308Y-62212305D02*
X245920960Y-62214709D01*
X245627909Y-62402392D02*
X245619306Y-62415327D01*
X245666623Y-62962196D02*
X245677319Y-62973461D01*
X245553671Y-62588393D02*
X245551533Y-62603780D01*
X245749053Y-62283321D02*
X245736268Y-62292146D01*
X245603465Y-62442049D02*
X245596246Y-62455805D01*
X245875543Y-62225075D02*
X245860672Y-62229568D01*
X245656321Y-62950568D02*
X245666623Y-62962196D01*
X245656321Y-62365474D02*
X245646428Y-62377451D01*
X245646428Y-62938592D02*
X245656321Y-62950568D01*
X245611155Y-62887491D02*
X245619306Y-62900715D01*
X245762135Y-62274943D02*
X245749053Y-62283321D01*
X245890560Y-62221097D02*
X245875543Y-62225075D01*
X245572237Y-62802976D02*
X245577494Y-62817594D01*
X245577494Y-62498449D02*
X245572237Y-62513067D01*
X245559534Y-62758156D02*
X245563252Y-62773239D01*
X245572237Y-62513067D02*
X245567488Y-62527858D01*
X245589506Y-62469801D02*
X245583253Y-62484021D01*
X245723796Y-62301407D02*
X245711650Y-62311092D01*
X245636953Y-62926281D02*
X245646428Y-62938592D01*
X245627909Y-62913650D02*
X245636953Y-62926281D01*
X245619306Y-62900715D02*
X245627909Y-62913650D01*
X245603465Y-62873993D02*
X245611155Y-62887491D01*
X245860672Y-62229568D02*
X245845966Y-62234572D01*
X245549927Y-62619231D02*
X245548855Y-62634729D01*
X245577494Y-62817594D02*
X245583253Y-62832021D01*
X245548855Y-62681314D02*
X245549927Y-62696811D01*
X245567488Y-62788185D02*
X245572237Y-62802976D01*
X245619306Y-62415327D02*
X245611155Y-62428552D01*
X245548855Y-62634729D02*
X245548319Y-62650254D01*
X245596246Y-62860238D02*
X245603465Y-62873993D01*
X245589506Y-62846242D02*
X245596246Y-62860238D01*
X245583253Y-62832021D02*
X245589506Y-62846242D01*
X245551533Y-62603780D02*
X245549927Y-62619231D01*
X245831441Y-62240081D02*
X245817114Y-62246088D01*
X245596246Y-62455805D02*
X245589506Y-62469801D01*
X245666623Y-62353847D02*
X245656321Y-62365474D01*
X245789126Y-62259566D02*
X245775498Y-62267022D01*
X245548319Y-62665789D02*
X245548855Y-62681314D01*
X245567488Y-62527858D02*
X245563252Y-62542804D01*
X245549927Y-62696811D02*
X245551533Y-62712263D01*
X245563252Y-62773239D02*
X245567488Y-62788185D01*
X245556339Y-62742953D02*
X245559534Y-62758156D01*
X245803004Y-62252585D02*
X245789126Y-62259566D01*
X245699846Y-62321191D02*
X245688398Y-62331692D01*
X245677319Y-62342581D02*
X245666623Y-62353847D01*
X245551533Y-62712263D02*
X245553671Y-62727650D01*
X245548319Y-62650254D02*
X245548319Y-62665789D01*
X245559534Y-62557887D02*
X245556339Y-62573089D01*
X245611155Y-62428552D02*
X245603465Y-62442049D01*
X245556339Y-62573089D02*
X245553671Y-62588393D01*
X245563252Y-62542804D02*
X245559534Y-62557887D01*
X245688398Y-62331692D02*
X245677319Y-62342581D01*
X245947531Y-57805154D02*
X245957817Y-57806201D01*
X245926798Y-57802312D02*
X245937189Y-57803859D01*
X245696944Y-57692257D02*
X245705688Y-57699937D01*
X245579847Y-57523664D02*
X245584098Y-57534024D01*
X245609522Y-57584713D02*
X245615429Y-57594552D01*
X245641692Y-57632548D02*
X245648893Y-57641655D01*
X245562754Y-57471344D02*
X245565622Y-57481843D01*
X245551119Y-57408742D02*
X245552414Y-57419084D01*
X245723725Y-57714581D02*
X245732999Y-57721533D01*
X245714618Y-57707380D02*
X245723725Y-57714581D01*
X245843018Y-57780398D02*
X245853465Y-57784093D01*
X245656336Y-57650585D02*
X245664016Y-57659329D01*
X245603886Y-57574760D02*
X245609522Y-57584713D01*
X245978191Y-57807574D02*
X245988264Y-57807910D01*
X245565622Y-57481843D02*
X245568763Y-57492334D01*
X245874430Y-57790651D02*
X245884929Y-57793519D01*
X245951729Y-62210433D02*
X245936308Y-62212305D01*
X245771560Y-57746751D02*
X245781513Y-57752387D01*
X245742430Y-57728231D02*
X245752007Y-57734669D01*
X245967206Y-62209094D02*
X245951729Y-62210433D01*
X245982719Y-62208289D02*
X245967206Y-62209094D01*
X245998252Y-62208021D02*
X245982719Y-62208289D01*
X245957817Y-57806201D02*
X245968039Y-57807006D01*
X245916368Y-57800509D02*
X245926798Y-57802312D01*
X245905907Y-57798444D02*
X245916368Y-57800509D01*
X245552414Y-57419084D02*
X245553961Y-57429475D01*
X245853465Y-57784093D02*
X245863939Y-57787510D01*
X245553961Y-57429475D02*
X245555764Y-57439905D01*
X245998252Y-57808021D02*
X245998252Y-62208021D01*
X245615429Y-57594552D02*
X245621604Y-57604266D01*
X245832609Y-57776426D02*
X245843018Y-57780398D01*
X245705688Y-57699937D02*
X245714618Y-57707380D01*
X245671924Y-57667877D02*
X245680054Y-57676219D01*
X245628042Y-57613843D02*
X245634740Y-57623274D01*
X245688396Y-57684349D02*
X245696944Y-57692257D01*
X245572180Y-57502808D02*
X245575875Y-57513255D01*
X245621604Y-57604266D02*
X245628042Y-57613843D01*
X245588629Y-57544325D02*
X245593438Y-57554555D01*
X245634740Y-57623274D02*
X245641692Y-57632548D01*
X245648893Y-57641655D02*
X245656336Y-57650585D01*
X245575875Y-57513255D02*
X245579847Y-57523664D01*
X245988264Y-57807910D02*
X245998252Y-57808021D01*
X245968039Y-57807006D02*
X245978191Y-57807574D01*
X245937189Y-57803859D02*
X245947531Y-57805154D01*
X245895424Y-57796116D02*
X245905907Y-57798444D01*
X245791569Y-57757749D02*
X245801718Y-57762835D01*
X245761721Y-57740844D02*
X245771560Y-57746751D01*
X245752007Y-57734669D02*
X245761721Y-57740844D01*
X245568763Y-57492334D02*
X245572180Y-57502808D01*
X245584098Y-57534024D02*
X245588629Y-57544325D01*
X245555764Y-57439905D02*
X245557829Y-57450366D01*
X245593438Y-57554555D02*
X245598524Y-57564704D01*
X245811948Y-57767644D02*
X245822249Y-57772175D01*
X245732999Y-57721533D02*
X245742430Y-57728231D01*
X245680054Y-57676219D02*
X245688396Y-57684349D01*
X245863939Y-57787510D02*
X245874430Y-57790651D01*
X245781513Y-57752387D02*
X245791569Y-57757749D01*
X245598524Y-57564704D02*
X245603886Y-57574760D01*
X245664016Y-57659329D02*
X245671924Y-57667877D01*
X245560157Y-57460849D02*
X245562754Y-57471344D01*
X245884929Y-57793519D02*
X245895424Y-57796116D01*
X245822249Y-57772175D02*
X245832609Y-57776426D01*
X245801718Y-57762835D02*
X245811948Y-57767644D01*
X245557829Y-57450366D02*
X245560157Y-57460849D01*
X245572180Y-57213234D02*
X245568763Y-57223709D01*
X245705688Y-57016106D02*
X245696944Y-57023785D01*
X245584098Y-57182019D02*
X245579847Y-57192379D01*
X245593438Y-57161488D02*
X245588629Y-57171718D01*
X245615429Y-57121490D02*
X245609522Y-57131329D01*
X245621604Y-57111777D02*
X245615429Y-57121490D01*
X245628042Y-57102199D02*
X245621604Y-57111777D01*
X245723725Y-57001462D02*
X245714618Y-57008662D01*
X245926798Y-56913730D02*
X245916368Y-56915534D01*
X245937189Y-56912184D02*
X245926798Y-56913730D01*
X245634740Y-57092768D02*
X245628042Y-57102199D01*
X245801718Y-56953207D02*
X245791569Y-56958294D01*
X245565622Y-57234200D02*
X245562754Y-57244699D01*
X245671924Y-57048166D02*
X245664016Y-57056714D01*
X245680054Y-57039823D02*
X245671924Y-57048166D01*
X245771560Y-56969292D02*
X245761721Y-56975199D01*
X245603886Y-57141282D02*
X245598524Y-57151339D01*
X245874430Y-56925392D02*
X245863939Y-56928533D01*
X245905907Y-56917598D02*
X245895424Y-56919927D01*
X245568763Y-57223709D02*
X245565622Y-57234200D01*
X245609522Y-57131329D02*
X245603886Y-57141282D01*
X245656336Y-57065457D02*
X245648893Y-57074387D01*
X245641692Y-57083494D02*
X245634740Y-57092768D01*
X245648893Y-57074387D02*
X245641692Y-57083494D01*
X245742430Y-56987812D02*
X245732999Y-56994510D01*
X245732999Y-56994510D02*
X245723725Y-57001462D01*
X245791569Y-56958294D02*
X245781513Y-56963656D01*
X245696944Y-57023785D02*
X245688396Y-57031694D01*
X245550072Y-57398456D02*
X245551119Y-57408742D01*
X245560157Y-57255194D02*
X245557829Y-57265677D01*
X245549267Y-57388234D02*
X245550072Y-57398456D01*
X245548699Y-57378082D02*
X245549267Y-57388234D01*
X245548363Y-57368009D02*
X245548699Y-57378082D01*
X245548252Y-57358021D02*
X245548363Y-57368009D01*
X245598524Y-57151339D02*
X245593438Y-57161488D01*
X245548363Y-57348033D02*
X245548252Y-57358021D01*
X245548699Y-57337960D02*
X245548363Y-57348033D01*
X245549267Y-57327809D02*
X245548699Y-57337960D01*
X245664016Y-57056714D02*
X245656336Y-57065457D01*
X245947531Y-56910889D02*
X245937189Y-56912184D01*
X245811948Y-56948398D02*
X245801718Y-56953207D01*
X245550072Y-57317587D02*
X245549267Y-57327809D01*
X245551119Y-57307301D02*
X245550072Y-57317587D01*
X245575875Y-57202788D02*
X245572180Y-57213234D01*
X245588629Y-57171718D02*
X245584098Y-57182019D01*
X245853465Y-56931950D02*
X245843018Y-56935644D01*
X245688396Y-57031694D02*
X245680054Y-57039823D01*
X245884929Y-56922524D02*
X245874430Y-56925392D01*
X245895424Y-56919927D02*
X245884929Y-56922524D01*
X245552414Y-57296958D02*
X245551119Y-57307301D01*
X245553961Y-57286568D02*
X245552414Y-57296958D01*
X245555764Y-57276138D02*
X245553961Y-57286568D01*
X245832609Y-56939617D02*
X245822249Y-56943868D01*
X245579847Y-57192379D02*
X245575875Y-57202788D01*
X245916368Y-56915534D02*
X245905907Y-56917598D01*
X245781513Y-56963656D02*
X245771560Y-56969292D01*
X245863939Y-56928533D02*
X245853465Y-56931950D01*
X245557829Y-57265677D02*
X245555764Y-57276138D01*
X245752007Y-56981373D02*
X245742430Y-56987812D01*
X245562754Y-57244699D02*
X245560157Y-57255194D01*
X245714618Y-57008662D02*
X245705688Y-57016106D01*
X245761721Y-56975199D02*
X245752007Y-56981373D01*
X245822249Y-56943868D02*
X245811948Y-56948398D01*
X245843018Y-56935644D02*
X245832609Y-56939617D01*
X245711650Y-55004950D02*
X245723796Y-55014636D01*
X245548319Y-54665789D02*
X245548855Y-54681314D01*
X245982719Y-55107753D02*
X245998252Y-55108021D01*
X245967206Y-55106949D02*
X245982719Y-55107753D01*
X245920960Y-55101334D02*
X245936308Y-55103738D01*
X245875543Y-55090968D02*
X245890560Y-55094945D01*
X245723796Y-55014636D02*
X245736268Y-55023897D01*
X245677319Y-54973461D02*
X245688398Y-54984351D01*
X245589506Y-54846242D02*
X245596246Y-54860238D01*
X245548855Y-54634729D02*
X245548319Y-54650254D01*
X245860672Y-55086474D02*
X245875543Y-55090968D01*
X245572237Y-54513067D02*
X245567488Y-54527858D01*
X245845966Y-55081470D02*
X245860672Y-55086474D01*
X245553671Y-54727650D02*
X245556339Y-54742953D01*
X245551533Y-54712263D02*
X245553671Y-54727650D01*
X245559534Y-54557887D02*
X245556339Y-54573089D01*
X245817114Y-55069955D02*
X245831441Y-55075962D01*
X245699846Y-54994851D02*
X245711650Y-55004950D01*
X245666623Y-54962196D02*
X245677319Y-54973461D01*
X245789126Y-55056477D02*
X245803004Y-55063457D01*
X245775498Y-55049021D02*
X245789126Y-55056477D01*
X245559534Y-54758156D02*
X245563252Y-54773239D01*
X245736268Y-55023897D02*
X245749053Y-55032721D01*
X245563252Y-54773239D02*
X245567488Y-54788185D01*
X245551533Y-54603780D02*
X245549927Y-54619231D01*
X245549927Y-54619231D02*
X245548855Y-54634729D01*
X245567488Y-54527858D02*
X245563252Y-54542804D01*
X245548855Y-54681314D02*
X245549927Y-54696811D01*
X245619306Y-54900715D02*
X245627909Y-54913650D01*
X245577494Y-54817594D02*
X245583253Y-54832021D01*
X245951729Y-55105610D02*
X245967206Y-55106949D01*
X245936308Y-55103738D02*
X245951729Y-55105610D01*
X245656321Y-54950568D02*
X245666623Y-54962196D01*
X245762135Y-55041099D02*
X245775498Y-55049021D01*
X245749053Y-55032721D02*
X245762135Y-55041099D01*
X245890560Y-55094945D02*
X245905705Y-55098402D01*
X245636953Y-54926281D02*
X245646428Y-54938592D01*
X245583253Y-54832021D02*
X245589506Y-54846242D01*
X245572237Y-54802976D02*
X245577494Y-54817594D01*
X245556339Y-54742953D02*
X245559534Y-54758156D01*
X245577494Y-54498449D02*
X245572237Y-54513067D01*
X245646428Y-54938592D02*
X245656321Y-54950568D01*
X245688398Y-54984351D02*
X245699846Y-54994851D01*
X245596246Y-54860238D02*
X245603465Y-54873993D01*
X245831441Y-55075962D02*
X245845966Y-55081470D01*
X245957817Y-56909842D02*
X245947531Y-56910889D01*
X245968039Y-56909037D02*
X245957817Y-56909842D01*
X245978191Y-56908469D02*
X245968039Y-56909037D01*
X245549927Y-54696811D02*
X245551533Y-54712263D01*
X245988264Y-56908132D02*
X245978191Y-56908469D01*
X245603465Y-54873993D02*
X245611155Y-54887491D01*
X245998252Y-56908021D02*
X245988264Y-56908132D01*
X247998252Y-56908021D02*
X245998252Y-56908021D01*
X247998252Y-55108021D02*
X247998252Y-56908021D01*
X245803004Y-55063457D02*
X245817114Y-55069955D01*
X245627909Y-54913650D02*
X245636953Y-54926281D01*
X245563252Y-54542804D02*
X245559534Y-54557887D01*
X245611155Y-54887491D02*
X245619306Y-54900715D01*
X245553671Y-54588393D02*
X245551533Y-54603780D01*
X245567488Y-54788185D02*
X245572237Y-54802976D01*
X245998252Y-55108021D02*
X247998252Y-55108021D01*
X245548319Y-54650254D02*
X245548319Y-54665789D01*
X245556339Y-54573089D02*
X245553671Y-54588393D01*
X245905705Y-55098402D02*
X245920960Y-55101334D01*
X245947531Y-49805154D02*
X245957817Y-49806201D01*
X245666623Y-54353847D02*
X245656321Y-54365474D01*
X245677319Y-54342581D02*
X245666623Y-54353847D01*
X245699846Y-54321191D02*
X245688398Y-54331692D01*
X245752007Y-49734669D02*
X245761721Y-49740844D01*
X245789126Y-54259566D02*
X245775498Y-54267022D01*
X245905705Y-54217641D02*
X245890560Y-54221097D01*
X245957817Y-49806201D02*
X245968039Y-49807006D01*
X245916368Y-49800509D02*
X245926798Y-49802312D01*
X245811948Y-49767644D02*
X245822249Y-49772175D01*
X245646428Y-54377451D02*
X245636953Y-54389762D01*
X245762135Y-54274943D02*
X245749053Y-54283321D01*
X245742430Y-49728231D02*
X245752007Y-49734669D01*
X245688398Y-54331692D02*
X245677319Y-54342581D01*
X245711650Y-54311092D02*
X245699846Y-54321191D01*
X245736268Y-54292146D02*
X245723796Y-54301407D01*
X245967206Y-54209094D02*
X245951729Y-54210433D01*
X245937189Y-49803859D02*
X245947531Y-49805154D01*
X245905907Y-49798444D02*
X245916368Y-49800509D01*
X245775498Y-54267022D02*
X245762135Y-54274943D01*
X245860672Y-54229568D02*
X245845966Y-54234572D01*
X245998252Y-54208021D02*
X245982719Y-54208289D01*
X245936308Y-54212305D02*
X245920960Y-54214709D01*
X245803004Y-54252585D02*
X245789126Y-54259566D01*
X245920960Y-54214709D02*
X245905705Y-54217641D01*
X245998252Y-49808021D02*
X245998252Y-54208021D01*
X245968039Y-49807006D02*
X245978191Y-49807574D01*
X245853465Y-49784093D02*
X245863939Y-49787510D01*
X245791569Y-49757749D02*
X245801718Y-49762835D01*
X245761721Y-49740844D02*
X245771560Y-49746751D01*
X245817114Y-54246088D02*
X245803004Y-54252585D01*
X245845966Y-54234572D02*
X245831441Y-54240081D01*
X245895424Y-49796116D02*
X245905907Y-49798444D01*
X245988264Y-49807910D02*
X245998252Y-49808021D01*
X245978191Y-49807574D02*
X245988264Y-49807910D01*
X245831441Y-54240081D02*
X245817114Y-54246088D01*
X245874430Y-49790651D02*
X245884929Y-49793519D01*
X245714618Y-49707380D02*
X245723725Y-49714581D01*
X245801718Y-49762835D02*
X245811948Y-49767644D01*
X245781513Y-49752387D02*
X245791569Y-49757749D01*
X245890560Y-54221097D02*
X245875543Y-54225075D01*
X245884929Y-49793519D02*
X245895424Y-49796116D01*
X245926798Y-49802312D02*
X245937189Y-49803859D01*
X245822249Y-49772175D02*
X245832609Y-49776426D01*
X245951729Y-54210433D02*
X245936308Y-54212305D01*
X245603465Y-54442049D02*
X245596246Y-54455805D01*
X245589506Y-54469801D02*
X245583253Y-54484021D01*
X245627909Y-54402392D02*
X245619306Y-54415327D01*
X245636953Y-54389762D02*
X245627909Y-54402392D01*
X245611155Y-54428552D02*
X245603465Y-54442049D01*
X245832609Y-49776426D02*
X245843018Y-49780398D01*
X245723725Y-49714581D02*
X245732999Y-49721533D01*
X245656321Y-54365474D02*
X245646428Y-54377451D01*
X245723796Y-54301407D02*
X245711650Y-54311092D01*
X245749053Y-54283321D02*
X245736268Y-54292146D01*
X245982719Y-54208289D02*
X245967206Y-54209094D01*
X245843018Y-49780398D02*
X245853465Y-49784093D01*
X245732999Y-49721533D02*
X245742430Y-49728231D01*
X245863939Y-49787510D02*
X245874430Y-49790651D01*
X245771560Y-49746751D02*
X245781513Y-49752387D01*
X245583253Y-54484021D02*
X245577494Y-54498449D01*
X245596246Y-54455805D02*
X245589506Y-54469801D01*
X245619306Y-54415327D02*
X245611155Y-54428552D01*
X245875543Y-54225075D02*
X245860672Y-54229568D01*
X245553961Y-49429475D02*
X245555764Y-49439905D01*
X245588629Y-49171718D02*
X245584098Y-49182019D01*
X245593438Y-49161488D02*
X245588629Y-49171718D01*
X245548363Y-49368009D02*
X245548699Y-49378082D01*
X245550072Y-49398456D02*
X245551119Y-49408742D01*
X245548363Y-49348033D02*
X245548252Y-49358021D01*
X245572180Y-49213234D02*
X245568763Y-49223709D01*
X245551119Y-49307301D02*
X245550072Y-49317587D01*
X245609522Y-49131329D02*
X245603886Y-49141282D01*
X245552414Y-49296958D02*
X245551119Y-49307301D01*
X245555764Y-49276138D02*
X245553961Y-49286568D01*
X245553961Y-49286568D02*
X245552414Y-49296958D01*
X245584098Y-49534024D02*
X245588629Y-49544325D01*
X245552414Y-49419084D02*
X245553961Y-49429475D01*
X245562754Y-49244699D02*
X245560157Y-49255194D01*
X245648893Y-49074387D02*
X245641692Y-49083494D01*
X245598524Y-49564704D02*
X245603886Y-49574760D01*
X245549267Y-49327809D02*
X245548699Y-49337960D01*
X245705688Y-49699937D02*
X245714618Y-49707380D01*
X245572180Y-49502808D02*
X245575875Y-49513255D01*
X245696944Y-49692257D02*
X245705688Y-49699937D01*
X245551119Y-49408742D02*
X245552414Y-49419084D01*
X245550072Y-49317587D02*
X245549267Y-49327809D01*
X245557829Y-49265677D02*
X245555764Y-49276138D01*
X245688396Y-49684349D02*
X245696944Y-49692257D01*
X245621604Y-49604266D02*
X245628042Y-49613843D01*
X245680054Y-49676219D02*
X245688396Y-49684349D01*
X245628042Y-49613843D02*
X245634740Y-49623274D01*
X245609522Y-49584713D02*
X245615429Y-49594552D01*
X245555764Y-49439905D02*
X245557829Y-49450366D01*
X245579847Y-49192379D02*
X245575875Y-49202788D01*
X245671924Y-49667877D02*
X245680054Y-49676219D01*
X245664016Y-49659329D02*
X245671924Y-49667877D01*
X245548699Y-49337960D02*
X245548363Y-49348033D01*
X245584098Y-49182019D02*
X245579847Y-49192379D01*
X245634740Y-49092768D02*
X245628042Y-49102199D01*
X245628042Y-49102199D02*
X245621604Y-49111777D01*
X245575875Y-49202788D02*
X245572180Y-49213234D01*
X245588629Y-49544325D02*
X245593438Y-49554555D01*
X245560157Y-49255194D02*
X245557829Y-49265677D01*
X245656336Y-49650585D02*
X245664016Y-49659329D01*
X245648893Y-49641655D02*
X245656336Y-49650585D01*
X245603886Y-49574760D02*
X245609522Y-49584713D01*
X245548252Y-49358021D02*
X245548363Y-49368009D01*
X245565622Y-49234200D02*
X245562754Y-49244699D01*
X245641692Y-49083494D02*
X245634740Y-49092768D01*
X245598524Y-49151339D02*
X245593438Y-49161488D01*
X245568763Y-49492334D02*
X245572180Y-49502808D01*
X245549267Y-49388234D02*
X245550072Y-49398456D01*
X245634740Y-49623274D02*
X245641692Y-49632548D01*
X245621604Y-49111777D02*
X245615429Y-49121490D01*
X245603886Y-49141282D02*
X245598524Y-49151339D01*
X245641692Y-49632548D02*
X245648893Y-49641655D01*
X245568763Y-49223709D02*
X245565622Y-49234200D01*
X245548699Y-49378082D02*
X245549267Y-49388234D01*
X245560157Y-49460849D02*
X245562754Y-49471344D01*
X245565622Y-49481843D02*
X245568763Y-49492334D01*
X245615429Y-49594552D02*
X245621604Y-49604266D01*
X245593438Y-49554555D02*
X245598524Y-49564704D01*
X245579847Y-49523664D02*
X245584098Y-49534024D01*
X245575875Y-49513255D02*
X245579847Y-49523664D01*
X245562754Y-49471344D02*
X245565622Y-49481843D01*
X245557829Y-49450366D02*
X245560157Y-49460849D01*
X245615429Y-49121490D02*
X245609522Y-49131329D01*
X245831441Y-47075962D02*
X245845966Y-47081470D01*
X245817114Y-47069955D02*
X245831441Y-47075962D01*
X245677319Y-46973461D02*
X245688398Y-46984351D01*
X245860672Y-47086474D02*
X245875543Y-47090968D01*
X245947531Y-48910889D02*
X245937189Y-48912184D01*
X245982719Y-47107753D02*
X245998252Y-47108021D01*
X245803004Y-47063457D02*
X245817114Y-47069955D01*
X245762135Y-47041099D02*
X245775498Y-47049021D01*
X245863939Y-48928533D02*
X245853465Y-48931950D01*
X245845966Y-47081470D02*
X245860672Y-47086474D01*
X245789126Y-47056477D02*
X245803004Y-47063457D01*
X245895424Y-48919927D02*
X245884929Y-48922524D01*
X245905907Y-48917598D02*
X245895424Y-48919927D01*
X245680054Y-49039823D02*
X245671924Y-49048166D01*
X245688396Y-49031694D02*
X245680054Y-49039823D01*
X245696944Y-49023785D02*
X245688396Y-49031694D01*
X245749053Y-47032721D02*
X245762135Y-47041099D01*
X245736268Y-47023897D02*
X245749053Y-47032721D01*
X245723725Y-49001462D02*
X245714618Y-49008662D01*
X245875543Y-47090968D02*
X245890560Y-47094945D01*
X245732999Y-48994510D02*
X245723725Y-49001462D01*
X245752007Y-48981373D02*
X245742430Y-48987812D01*
X245920960Y-47101334D02*
X245936308Y-47103738D01*
X245761721Y-48975199D02*
X245752007Y-48981373D01*
X245781513Y-48963656D02*
X245771560Y-48969292D01*
X245791569Y-48958294D02*
X245781513Y-48963656D01*
X245801718Y-48953207D02*
X245791569Y-48958294D01*
X247998252Y-47108021D02*
X247998252Y-48908021D01*
X245822249Y-48943868D02*
X245811948Y-48948398D01*
X245874430Y-48925392D02*
X245863939Y-48928533D01*
X245998252Y-47108021D02*
X247998252Y-47108021D01*
X245951729Y-47105610D02*
X245967206Y-47106949D01*
X245843018Y-48935644D02*
X245832609Y-48939617D01*
X245916368Y-48915534D02*
X245905907Y-48917598D01*
X245926798Y-48913730D02*
X245916368Y-48915534D01*
X245937189Y-48912184D02*
X245926798Y-48913730D01*
X245890560Y-47094945D02*
X245905705Y-47098402D01*
X245723796Y-47014636D02*
X245736268Y-47023897D01*
X245666623Y-46962196D02*
X245677319Y-46973461D01*
X245656321Y-46950568D02*
X245666623Y-46962196D01*
X245711650Y-47004950D02*
X245723796Y-47014636D01*
X245967206Y-47106949D02*
X245982719Y-47107753D01*
X245811948Y-48948398D02*
X245801718Y-48953207D01*
X245988264Y-48908132D02*
X245978191Y-48908469D01*
X245705688Y-49016106D02*
X245696944Y-49023785D01*
X245998252Y-48908021D02*
X245988264Y-48908132D01*
X245936308Y-47103738D02*
X245951729Y-47105610D01*
X245699846Y-46994851D02*
X245711650Y-47004950D01*
X245688398Y-46984351D02*
X245699846Y-46994851D01*
X245742430Y-48987812D02*
X245732999Y-48994510D01*
X245714618Y-49008662D02*
X245705688Y-49016106D01*
X245957817Y-48909842D02*
X245947531Y-48910889D01*
X247998252Y-48908021D02*
X245998252Y-48908021D01*
X245775498Y-47049021D02*
X245789126Y-47056477D01*
X245656336Y-49065457D02*
X245648893Y-49074387D01*
X245832609Y-48939617D02*
X245822249Y-48943868D01*
X245664016Y-49056714D02*
X245656336Y-49065457D01*
X245671924Y-49048166D02*
X245664016Y-49056714D01*
X245853465Y-48931950D02*
X245843018Y-48935644D01*
X245771560Y-48969292D02*
X245761721Y-48975199D01*
X245978191Y-48908469D02*
X245968039Y-48909037D01*
X245968039Y-48909037D02*
X245957817Y-48909842D01*
X245884929Y-48922524D02*
X245874430Y-48925392D01*
X245905705Y-47098402D02*
X245920960Y-47101334D01*
X245553671Y-46727650D02*
X245556339Y-46742953D01*
X245548319Y-46665789D02*
X245548855Y-46681314D01*
X245548319Y-46650254D02*
X245548319Y-46665789D01*
X245548855Y-46634729D02*
X245548319Y-46650254D01*
X245556339Y-46573089D02*
X245553671Y-46588393D01*
X245567488Y-46527858D02*
X245563252Y-46542804D01*
X245967206Y-46209094D02*
X245951729Y-46210433D01*
X245589506Y-46469801D02*
X245583253Y-46484021D01*
X245723796Y-46301407D02*
X245711650Y-46311092D01*
X245596246Y-46455805D02*
X245589506Y-46469801D01*
X245603465Y-46442049D02*
X245596246Y-46455805D01*
X245646428Y-46377451D02*
X245636953Y-46389762D01*
X245666623Y-46353847D02*
X245656321Y-46365474D01*
X245817114Y-46246088D02*
X245803004Y-46252585D01*
X245920960Y-46214709D02*
X245905705Y-46217641D01*
X245845966Y-46234572D02*
X245831441Y-46240081D01*
X245736268Y-46292146D02*
X245723796Y-46301407D01*
X245749053Y-46283321D02*
X245736268Y-46292146D01*
X245627909Y-46402392D02*
X245619306Y-46415327D01*
X245789126Y-46259566D02*
X245775498Y-46267022D01*
X245577494Y-46498449D02*
X245572237Y-46513067D01*
X245553671Y-46588393D02*
X245551533Y-46603780D01*
X245559534Y-46557887D02*
X245556339Y-46573089D01*
X245572237Y-46513067D02*
X245567488Y-46527858D01*
X245636953Y-46389762D02*
X245627909Y-46402392D01*
X245803004Y-46252585D02*
X245789126Y-46259566D01*
X245619306Y-46415327D02*
X245611155Y-46428552D01*
X245775498Y-46267022D02*
X245762135Y-46274943D01*
X245646428Y-46938592D02*
X245656321Y-46950568D01*
X245563252Y-46773239D02*
X245567488Y-46788185D01*
X245636953Y-46926281D02*
X245646428Y-46938592D01*
X245627909Y-46913650D02*
X245636953Y-46926281D01*
X245619306Y-46900715D02*
X245627909Y-46913650D01*
X245549927Y-46696811D02*
X245551533Y-46712263D01*
X245611155Y-46887491D02*
X245619306Y-46900715D01*
X245596246Y-46860238D02*
X245603465Y-46873993D01*
X245589506Y-46846242D02*
X245596246Y-46860238D01*
X245656321Y-46365474D02*
X245646428Y-46377451D01*
X245677319Y-46342581D02*
X245666623Y-46353847D01*
X245905705Y-46217641D02*
X245890560Y-46221097D01*
X245699846Y-46321191D02*
X245688398Y-46331692D01*
X245831441Y-46240081D02*
X245817114Y-46246088D01*
X245860672Y-46229568D02*
X245845966Y-46234572D01*
X245890560Y-46221097D02*
X245875543Y-46225075D01*
X245936308Y-46212305D02*
X245920960Y-46214709D01*
X245549927Y-46619231D02*
X245548855Y-46634729D01*
X245567488Y-46788185D02*
X245572237Y-46802976D01*
X245548855Y-46681314D02*
X245549927Y-46696811D01*
X245611155Y-46428552D02*
X245603465Y-46442049D01*
X245762135Y-46274943D02*
X245749053Y-46283321D01*
X245583253Y-46484021D02*
X245577494Y-46498449D01*
X245711650Y-46311092D02*
X245699846Y-46321191D01*
X245551533Y-46603780D02*
X245549927Y-46619231D01*
X245951729Y-46210433D02*
X245936308Y-46212305D01*
X245603465Y-46873993D02*
X245611155Y-46887491D01*
X245583253Y-46832021D02*
X245589506Y-46846242D01*
X245577494Y-46817594D02*
X245583253Y-46832021D01*
X245572237Y-46802976D02*
X245577494Y-46817594D01*
X245551533Y-46712263D02*
X245553671Y-46727650D01*
X245563252Y-46542804D02*
X245559534Y-46557887D01*
X245559534Y-46758156D02*
X245563252Y-46773239D01*
X245556339Y-46742953D02*
X245559534Y-46758156D01*
X245688398Y-46331692D02*
X245677319Y-46342581D01*
X245875543Y-46225075D02*
X245860672Y-46229568D01*
X245548855Y-70634729D02*
X245548319Y-70650254D01*
X245549927Y-70619231D02*
X245548855Y-70634729D01*
X245596246Y-70455805D02*
X245589506Y-70469801D01*
X245548319Y-70665789D02*
X245548855Y-70681314D01*
X245567488Y-70788185D02*
X245572237Y-70802976D01*
X245627909Y-70402392D02*
X245619306Y-70415327D01*
X245551533Y-70603780D02*
X245549927Y-70619231D01*
X245559534Y-70557887D02*
X245556339Y-70573089D01*
X245677319Y-70973461D02*
X245688398Y-70984351D01*
X245548319Y-70650254D02*
X245548319Y-70665789D01*
X245553671Y-70588393D02*
X245551533Y-70603780D01*
X245636953Y-70389762D02*
X245627909Y-70402392D01*
X245666623Y-70962196D02*
X245677319Y-70973461D01*
X245936308Y-71103738D02*
X245951729Y-71105610D01*
X245905705Y-71098402D02*
X245920960Y-71101334D01*
X245890560Y-71094945D02*
X245905705Y-71098402D01*
X245563252Y-70542804D02*
X245559534Y-70557887D01*
X245567488Y-70527858D02*
X245563252Y-70542804D01*
X245860672Y-71086474D02*
X245875543Y-71090968D01*
X245548855Y-70681314D02*
X245549927Y-70696811D01*
X245845966Y-71081470D02*
X245860672Y-71086474D01*
X245817114Y-71069955D02*
X245831441Y-71075962D01*
X245553671Y-70727650D02*
X245556339Y-70742953D01*
X245803004Y-71063457D02*
X245817114Y-71069955D01*
X245789126Y-71056477D02*
X245803004Y-71063457D01*
X245619306Y-70415327D02*
X245611155Y-70428552D01*
X245762135Y-71041099D02*
X245775498Y-71049021D01*
X245577494Y-70817594D02*
X245583253Y-70832021D01*
X245736268Y-71023897D02*
X245749053Y-71032721D01*
X245699846Y-70994851D02*
X245711650Y-71004950D01*
X245572237Y-70802976D02*
X245577494Y-70817594D01*
X245559534Y-70758156D02*
X245563252Y-70773239D01*
X245656321Y-70950568D02*
X245666623Y-70962196D01*
X245646428Y-70938592D02*
X245656321Y-70950568D01*
X245636953Y-70926281D02*
X245646428Y-70938592D01*
X245549927Y-70696811D02*
X245551533Y-70712263D01*
X245572237Y-70513067D02*
X245567488Y-70527858D01*
X245577494Y-70498449D02*
X245572237Y-70513067D01*
X245603465Y-70442049D02*
X245596246Y-70455805D01*
X245611155Y-70428552D02*
X245603465Y-70442049D01*
X245646428Y-70377451D02*
X245636953Y-70389762D01*
X245563252Y-70773239D02*
X245567488Y-70788185D01*
X245775498Y-71049021D02*
X245789126Y-71056477D01*
X245596246Y-70860238D02*
X245603465Y-70873993D01*
X245920960Y-71101334D02*
X245936308Y-71103738D01*
X245589506Y-70846242D02*
X245596246Y-70860238D01*
X245556339Y-70742953D02*
X245559534Y-70758156D01*
X245583253Y-70484021D02*
X245577494Y-70498449D01*
X245589506Y-70469801D02*
X245583253Y-70484021D01*
X245875543Y-71090968D02*
X245890560Y-71094945D01*
X245831441Y-71075962D02*
X245845966Y-71081470D01*
X245619306Y-70900715D02*
X245627909Y-70913650D01*
X245583253Y-70832021D02*
X245589506Y-70846242D01*
X245556339Y-70573089D02*
X245553671Y-70588393D01*
X245749053Y-71032721D02*
X245762135Y-71041099D01*
X245656321Y-70365474D02*
X245646428Y-70377451D01*
X245723796Y-71014636D02*
X245736268Y-71023897D01*
X245711650Y-71004950D02*
X245723796Y-71014636D01*
X245688398Y-70984351D02*
X245699846Y-70994851D01*
X245627909Y-70913650D02*
X245636953Y-70926281D01*
X245603465Y-70873993D02*
X245611155Y-70887491D01*
X245611155Y-70887491D02*
X245619306Y-70900715D01*
X245666623Y-70353847D02*
X245656321Y-70365474D01*
X245551533Y-70712263D02*
X245553671Y-70727650D01*
X244789684Y-40879928D02*
X244799176Y-40892011D01*
X245056691Y-41048609D02*
X245071786Y-41051478D01*
X245041702Y-41045227D02*
X245056691Y-41048609D01*
X244698246Y-40608021D02*
X244698508Y-40623385D01*
X244927696Y-41000269D02*
X244941217Y-41007570D01*
X244799176Y-40892011D02*
X244809075Y-40903763D01*
X244763757Y-40841834D02*
X244771964Y-40854825D01*
X244707658Y-40699577D02*
X244711041Y-40714565D01*
X245026837Y-41041334D02*
X245041702Y-41045227D01*
X245012114Y-41036936D02*
X245026837Y-41041334D01*
X244698246Y-39208021D02*
X244698246Y-40608021D01*
X244997550Y-41032039D02*
X245012114Y-41036936D01*
X244876339Y-40966584D02*
X244888740Y-40975658D01*
X244780609Y-40867527D02*
X244789684Y-40879928D01*
X244755999Y-40828571D02*
X244763757Y-40841834D01*
X244968965Y-41020766D02*
X244983161Y-41026647D01*
X244901443Y-40984303D02*
X244914433Y-40992510D01*
X244852504Y-40947192D02*
X244864256Y-40957091D01*
X244914433Y-40992510D02*
X244927696Y-41000269D01*
X244841097Y-40936897D02*
X244852504Y-40947192D01*
X244809075Y-40903763D02*
X244819370Y-40915170D01*
X244724228Y-40758717D02*
X244729621Y-40773106D01*
X244702437Y-40669296D02*
X244704789Y-40684481D01*
X244698508Y-40623385D02*
X244699295Y-40638730D01*
X244983161Y-41026647D02*
X244997550Y-41032039D01*
X244748698Y-40815051D02*
X244755999Y-40828571D01*
X244830048Y-40926219D02*
X244841097Y-40936897D01*
X244819370Y-40915170D02*
X244830048Y-40926219D01*
X244941217Y-41007570D02*
X244954978Y-41014405D01*
X244735501Y-40787302D02*
X244741862Y-40801289D01*
X244704789Y-40684481D02*
X244707658Y-40699577D01*
X244700605Y-40654040D02*
X244702437Y-40669296D01*
X244771964Y-40854825D02*
X244780609Y-40867527D01*
X244741862Y-40801289D02*
X244748698Y-40815051D01*
X244711041Y-40714565D02*
X244714933Y-40729430D01*
X244888740Y-40975658D02*
X244901443Y-40984303D01*
X245982719Y-46208289D02*
X245967206Y-46209094D01*
X245998252Y-46208021D02*
X245982719Y-46208289D01*
X245998252Y-41058021D02*
X245998252Y-46208021D01*
X245148246Y-41058021D02*
X245998252Y-41058021D01*
X244714933Y-40729430D02*
X244719331Y-40744153D01*
X245132882Y-41057759D02*
X245148246Y-41058021D01*
X245117537Y-41056972D02*
X245132882Y-41057759D01*
X245086971Y-41053830D02*
X245102227Y-41055662D01*
X244864256Y-40957091D02*
X244876339Y-40966584D01*
X244729621Y-40773106D02*
X244735501Y-40787302D01*
X244719331Y-40744153D02*
X244724228Y-40758717D01*
X244699295Y-40638730D02*
X244700605Y-40654040D01*
X245102227Y-41055662D02*
X245117537Y-41056972D01*
X245071786Y-41051478D02*
X245086971Y-41053830D01*
X244954978Y-41014405D02*
X244968965Y-41020766D01*
X244914433Y-31023533D02*
X244901443Y-31031739D01*
X232647203Y-26088730D02*
X232647989Y-26073385D01*
X244819370Y-31100872D02*
X244809075Y-31112280D01*
X244997550Y-30984004D02*
X244983161Y-30989396D01*
X244954978Y-31001638D02*
X244941217Y-31008473D01*
X245026837Y-30974709D02*
X245012114Y-30979106D01*
X245086971Y-30962213D02*
X245071786Y-30964565D01*
X245102227Y-30960381D02*
X245086971Y-30962213D01*
X232644060Y-26119296D02*
X232645892Y-26104040D01*
X232627167Y-26194153D02*
X232631564Y-26179430D01*
X245132882Y-30958284D02*
X245117537Y-30959070D01*
X245117537Y-30959070D02*
X245102227Y-30960381D01*
X244799176Y-31124032D02*
X244789684Y-31136115D01*
X238648252Y-25008021D02*
X244067554Y-25008021D01*
X232648252Y-25008021D02*
X238648252Y-25008021D01*
X244927696Y-31015774D02*
X244914433Y-31023533D01*
X244771964Y-31161218D02*
X244763757Y-31174209D01*
X245056691Y-30967433D02*
X245041702Y-30970816D01*
X244735501Y-31228741D02*
X244729621Y-31242937D01*
X244830048Y-31089823D02*
X244819370Y-31100872D01*
X244941217Y-31008473D02*
X244927696Y-31015774D01*
X245998252Y-25008021D02*
X245998252Y-30958021D01*
X245071786Y-30964565D02*
X245056691Y-30967433D01*
X245148246Y-30958021D02*
X245132882Y-30958284D01*
X244741862Y-31214754D02*
X244735501Y-31228741D01*
X244755999Y-31187472D02*
X244748698Y-31200992D01*
X245998252Y-30958021D02*
X245148246Y-30958021D01*
X232647989Y-26073385D02*
X232648252Y-26058021D01*
X244901443Y-31031739D02*
X244888740Y-31040385D01*
X232622269Y-26208717D02*
X232627167Y-26194153D01*
X244698246Y-32808021D02*
X244698246Y-39208021D01*
X244698246Y-31408021D02*
X244698246Y-32808021D01*
X244698508Y-31392658D02*
X244698246Y-31408021D01*
X245041702Y-30970816D02*
X245026837Y-30974709D01*
X232641708Y-26134481D02*
X232644060Y-26119296D01*
X244704789Y-31331562D02*
X244702437Y-31346746D01*
X244699295Y-31377312D02*
X244698508Y-31392658D01*
X244702437Y-31346746D02*
X244700605Y-31362002D01*
X232635457Y-26164565D02*
X232638840Y-26149577D01*
X244789684Y-31136115D02*
X244780609Y-31148515D01*
X244067554Y-25008021D02*
X245998252Y-25008021D01*
X244700605Y-31362002D02*
X244699295Y-31377312D01*
X244707658Y-31316466D02*
X244704789Y-31331562D01*
X244711041Y-31301477D02*
X244707658Y-31316466D01*
X244763757Y-31174209D02*
X244755999Y-31187472D01*
X245012114Y-30979106D02*
X244997550Y-30984004D01*
X244841097Y-31079145D02*
X244830048Y-31089823D01*
X244968965Y-30995276D02*
X244954978Y-31001638D01*
X232648252Y-26058021D02*
X232648252Y-25008021D01*
X244714933Y-31286613D02*
X244711041Y-31301477D01*
X244729621Y-31242937D02*
X244724228Y-31257325D01*
X244719331Y-31271890D02*
X244714933Y-31286613D01*
X244724228Y-31257325D02*
X244719331Y-31271890D01*
X244876339Y-31049459D02*
X244864256Y-31058951D01*
X244983161Y-30989396D02*
X244968965Y-30995276D01*
X232638840Y-26149577D02*
X232641708Y-26134481D01*
X244852504Y-31068850D02*
X244841097Y-31079145D01*
X244748698Y-31200992D02*
X244741862Y-31214754D01*
X232631564Y-26179430D02*
X232635457Y-26164565D01*
X244780609Y-31148515D02*
X244771964Y-31161218D01*
X244809075Y-31112280D02*
X244799176Y-31124032D01*
X232645892Y-26104040D02*
X232647203Y-26088730D01*
X244864256Y-31058951D02*
X244852504Y-31068850D01*
X244888740Y-31040385D02*
X244876339Y-31049459D01*
X232348948Y-26482039D02*
X232363336Y-26476647D01*
X232334383Y-26486936D02*
X232348948Y-26482039D01*
X219082888Y-26507759D02*
X219098252Y-26508021D01*
X232377532Y-26470766D02*
X232391519Y-26464405D01*
X218838746Y-26425658D02*
X218851448Y-26434303D01*
X219021792Y-26501478D02*
X219036977Y-26503830D01*
X232319660Y-26491334D02*
X232334383Y-26486936D01*
X232274711Y-26501478D02*
X232289807Y-26498609D01*
X232363336Y-26476647D02*
X232377532Y-26470766D01*
X232304796Y-26495227D02*
X232319660Y-26491334D01*
X218918971Y-26470766D02*
X218933167Y-26476647D01*
X219006696Y-26498609D02*
X219021792Y-26501478D01*
X218780054Y-26376219D02*
X218791103Y-26386897D01*
X232616877Y-26223106D02*
X232622269Y-26208717D01*
X218826345Y-26416584D02*
X218838746Y-26425658D01*
X232610997Y-26237302D02*
X232616877Y-26223106D01*
X232259527Y-26503830D02*
X232274711Y-26501478D01*
X232244271Y-26505662D02*
X232259527Y-26503830D01*
X218759081Y-26353763D02*
X218769376Y-26365170D01*
X232391519Y-26464405D02*
X232405281Y-26457570D01*
X232604635Y-26251289D02*
X232610997Y-26237302D01*
X232597800Y-26265051D02*
X232604635Y-26251289D01*
X232432064Y-26442510D02*
X232445055Y-26434303D01*
X232590499Y-26278571D02*
X232597800Y-26265051D01*
X219036977Y-26503830D02*
X219052233Y-26505662D01*
X218769376Y-26365170D02*
X218780054Y-26376219D01*
X232582740Y-26291834D02*
X232590499Y-26278571D01*
X232505401Y-26386897D02*
X232516450Y-26376219D01*
X232574534Y-26304825D02*
X232582740Y-26291834D01*
X218864439Y-26442510D02*
X218877702Y-26450269D01*
X232493993Y-26397192D02*
X232505401Y-26386897D01*
X232457758Y-26425658D02*
X232470158Y-26416584D01*
X232537423Y-26353763D02*
X232547322Y-26342011D01*
X218802510Y-26397192D02*
X218814262Y-26407091D01*
X232405281Y-26457570D02*
X232418801Y-26450269D01*
X218947556Y-26482039D02*
X218962120Y-26486936D01*
X232228961Y-26506972D02*
X232244271Y-26505662D01*
X232213615Y-26507759D02*
X232228961Y-26506972D01*
X219067543Y-26506972D02*
X219082888Y-26507759D01*
X219052233Y-26505662D02*
X219067543Y-26506972D01*
X218991708Y-26495227D02*
X219006696Y-26498609D01*
X232470158Y-26416584D02*
X232482241Y-26407091D01*
X232527128Y-26365170D02*
X232537423Y-26353763D01*
X232445055Y-26434303D02*
X232457758Y-26425658D01*
X232198252Y-26508021D02*
X232213615Y-26507759D01*
X218749182Y-26342011D02*
X218759081Y-26353763D01*
X218877702Y-26450269D02*
X218891222Y-26457570D01*
X218791103Y-26386897D02*
X218802510Y-26397192D01*
X219098252Y-26508021D02*
X232198252Y-26508021D01*
X232565888Y-26317527D02*
X232574534Y-26304825D01*
X218933167Y-26476647D02*
X218947556Y-26482039D01*
X232516450Y-26376219D02*
X232527128Y-26365170D01*
X218739689Y-26329928D02*
X218749182Y-26342011D01*
X232289807Y-26498609D02*
X232304796Y-26495227D01*
X232556814Y-26329928D02*
X232565888Y-26317527D01*
X218976843Y-26491334D02*
X218991708Y-26495227D01*
X232547322Y-26342011D02*
X232556814Y-26329928D01*
X218891222Y-26457570D02*
X218904984Y-26464405D01*
X218814262Y-26407091D02*
X218826345Y-26416584D01*
X232482241Y-26407091D02*
X232493993Y-26397192D01*
X218962120Y-26486936D02*
X218976843Y-26491334D01*
X218851448Y-26434303D02*
X218864439Y-26442510D01*
X218904984Y-26464405D02*
X218918971Y-26470766D01*
X232418801Y-26450269D02*
X232432064Y-26442510D01*
X218685507Y-26237302D02*
X218691868Y-26251289D01*
X103331553Y-26179430D02*
X103335445Y-26164565D01*
X103327155Y-26194153D02*
X103331553Y-26179430D01*
X218679626Y-26223106D02*
X218685507Y-26237302D01*
X218674234Y-26208717D02*
X218679626Y-26223106D01*
X218669337Y-26194153D02*
X218674234Y-26208717D01*
X218664939Y-26179430D02*
X218669337Y-26194153D01*
X218661047Y-26164565D02*
X218664939Y-26179430D01*
X103310985Y-26237302D02*
X103316865Y-26223106D01*
X103338828Y-26149577D02*
X103341697Y-26134481D01*
X103105269Y-26457570D02*
X103118790Y-26450269D01*
X218657664Y-26149577D02*
X218661047Y-26164565D01*
X218650611Y-26104040D02*
X218652443Y-26119296D01*
X218648514Y-26073385D02*
X218649301Y-26088730D01*
X103347978Y-26073385D02*
X103348240Y-26058021D01*
X103265877Y-26317527D02*
X103274522Y-26304825D01*
X218654795Y-26134481D02*
X218657664Y-26149577D01*
X102974700Y-26501478D02*
X102989795Y-26498609D01*
X218652443Y-26119296D02*
X218654795Y-26134481D01*
X103341697Y-26134481D02*
X103344049Y-26119296D01*
X218649301Y-26088730D02*
X218650611Y-26104040D01*
X103132053Y-26442510D02*
X103145043Y-26434303D01*
X218648252Y-26058021D02*
X218648514Y-26073385D01*
X103348240Y-25008021D02*
X218648252Y-25008021D01*
X103348240Y-26058021D02*
X103348240Y-25008021D01*
X103347191Y-26088730D02*
X103347978Y-26073385D01*
X103157746Y-26425658D02*
X103170146Y-26416584D01*
X103077521Y-26470766D02*
X103091508Y-26464405D01*
X103227116Y-26365170D02*
X103237411Y-26353763D01*
X103063324Y-26476647D02*
X103077521Y-26470766D01*
X103345881Y-26104040D02*
X103347191Y-26088730D01*
X103344049Y-26119296D02*
X103345881Y-26104040D01*
X103170146Y-26416584D02*
X103182230Y-26407091D01*
X103091508Y-26464405D02*
X103105269Y-26457570D01*
X103335445Y-26164565D02*
X103338828Y-26149577D01*
X103282729Y-26291834D02*
X103290487Y-26278571D01*
X103290487Y-26278571D02*
X103297788Y-26265051D01*
X103322257Y-26208717D02*
X103327155Y-26194153D01*
X103316865Y-26223106D02*
X103322257Y-26208717D01*
X103297788Y-26265051D02*
X103304624Y-26251289D01*
X103118790Y-26450269D02*
X103132053Y-26442510D01*
X103205389Y-26386897D02*
X103216438Y-26376219D01*
X103247310Y-26342011D02*
X103256802Y-26329928D01*
X103048936Y-26482039D02*
X103063324Y-26476647D01*
X103274522Y-26304825D02*
X103282729Y-26291834D01*
X103004784Y-26495227D02*
X103019649Y-26491334D01*
X103256802Y-26329928D02*
X103265877Y-26317527D01*
X103237411Y-26353763D02*
X103247310Y-26342011D01*
X102959515Y-26503830D02*
X102974700Y-26501478D01*
X103145043Y-26434303D02*
X103157746Y-26425658D01*
X103216438Y-26376219D02*
X103227116Y-26365170D01*
X103193982Y-26397192D02*
X103205389Y-26386897D01*
X103034372Y-26486936D02*
X103048936Y-26482039D01*
X103182230Y-26407091D02*
X103193982Y-26397192D01*
X218730615Y-26317527D02*
X218739689Y-26329928D01*
X218721970Y-26304825D02*
X218730615Y-26317527D01*
X102989795Y-26498609D02*
X103004784Y-26495227D01*
X218713763Y-26291834D02*
X218721970Y-26304825D01*
X218706004Y-26278571D02*
X218713763Y-26291834D01*
X218698703Y-26265051D02*
X218706004Y-26278571D01*
X218691868Y-26251289D02*
X218698703Y-26265051D01*
X218648252Y-25008021D02*
X218648252Y-26058021D01*
X103304624Y-26251289D02*
X103310985Y-26237302D01*
X103019649Y-26491334D02*
X103034372Y-26486936D01*
X89421958Y-26304825D02*
X89430604Y-26317527D01*
X89752221Y-26505662D02*
X89767531Y-26506972D01*
X89662109Y-26486936D02*
X89676832Y-26491334D01*
X76878955Y-30959070D02*
X76863609Y-30958284D01*
X83348240Y-25008021D02*
X89348240Y-25008021D01*
X89551437Y-26434303D02*
X89564427Y-26442510D01*
X89430604Y-26317527D02*
X89439678Y-26329928D01*
X76954790Y-30970816D02*
X76939801Y-30967433D01*
X89398692Y-26265051D02*
X89405993Y-26278571D01*
X89352431Y-26119296D02*
X89354783Y-26134481D01*
X89721780Y-26501478D02*
X89736965Y-26503830D01*
X89691696Y-26495227D02*
X89706685Y-26498609D01*
X77928938Y-25008021D02*
X83348240Y-25008021D01*
X89676832Y-26491334D02*
X89691696Y-26495227D01*
X76939801Y-30967433D02*
X76924706Y-30964565D01*
X89647544Y-26482039D02*
X89662109Y-26486936D01*
X89502498Y-26397192D02*
X89514250Y-26407091D01*
X89413751Y-26291834D02*
X89421958Y-26304825D01*
X89391856Y-26251289D02*
X89398692Y-26265051D01*
X89633156Y-26476647D02*
X89647544Y-26482039D01*
X89591211Y-26457570D02*
X89604973Y-26464405D01*
X89480042Y-26376219D02*
X89491091Y-26386897D01*
X89526334Y-26416584D02*
X89538734Y-26425658D01*
X89618960Y-26470766D02*
X89633156Y-26476647D01*
X89538734Y-26425658D02*
X89551437Y-26434303D01*
X89469364Y-26365170D02*
X89480042Y-26376219D01*
X89439678Y-26329928D02*
X89449170Y-26342011D01*
X89364927Y-26179430D02*
X89369325Y-26194153D01*
X89349289Y-26088730D02*
X89350599Y-26104040D01*
X89348240Y-25008021D02*
X89348240Y-26058021D01*
X89604973Y-26464405D02*
X89618960Y-26470766D01*
X89564427Y-26442510D02*
X89577690Y-26450269D01*
X89385495Y-26237302D02*
X89391856Y-26251289D01*
X89459069Y-26353763D02*
X89469364Y-26365170D01*
X89449170Y-26342011D02*
X89459069Y-26353763D01*
X76909521Y-30962213D02*
X76894265Y-30960381D01*
X89374223Y-26208717D02*
X89379615Y-26223106D01*
X76848246Y-30958021D02*
X75998240Y-30958021D01*
X89350599Y-26104040D02*
X89352431Y-26119296D01*
X89348502Y-26073385D02*
X89349289Y-26088730D01*
X76894265Y-30960381D02*
X76878955Y-30959070D01*
X89379615Y-26223106D02*
X89385495Y-26237302D01*
X89405993Y-26278571D02*
X89413751Y-26291834D01*
X89354783Y-26134481D02*
X89357652Y-26149577D01*
X89514250Y-26407091D02*
X89526334Y-26416584D01*
X102944259Y-26505662D02*
X102959515Y-26503830D01*
X102928949Y-26506972D02*
X102944259Y-26505662D01*
X102913604Y-26507759D02*
X102928949Y-26506972D01*
X76924706Y-30964565D02*
X76909521Y-30962213D01*
X89357652Y-26149577D02*
X89361035Y-26164565D01*
X76863609Y-30958284D02*
X76848246Y-30958021D01*
X75998240Y-30958021D02*
X75998240Y-25008021D01*
X102898240Y-26508021D02*
X102913604Y-26507759D01*
X89736965Y-26503830D02*
X89752221Y-26505662D01*
X89706685Y-26498609D02*
X89721780Y-26501478D01*
X89491091Y-26386897D02*
X89502498Y-26397192D01*
X89361035Y-26164565D02*
X89364927Y-26179430D01*
X75998240Y-25008021D02*
X77928938Y-25008021D01*
X89369325Y-26194153D02*
X89374223Y-26208717D01*
X89348240Y-26058021D02*
X89348502Y-26073385D01*
X89798240Y-26508021D02*
X102898240Y-26508021D01*
X89782877Y-26507759D02*
X89798240Y-26508021D01*
X89767531Y-26506972D02*
X89782877Y-26507759D01*
X89577690Y-26450269D02*
X89591211Y-26457570D01*
X77232735Y-31174209D02*
X77224528Y-31161218D01*
X77294055Y-40669296D02*
X77295887Y-40654040D01*
X77247794Y-31200992D02*
X77240493Y-31187472D01*
X77266871Y-31242937D02*
X77260991Y-31228741D01*
X77277161Y-31271890D02*
X77272263Y-31257325D01*
X77291703Y-31331562D02*
X77288834Y-31316466D01*
X77294055Y-31346746D02*
X77291703Y-31331562D01*
X77295887Y-31362002D02*
X77294055Y-31346746D01*
X77297197Y-31377312D02*
X77295887Y-31362002D01*
X77288834Y-40699577D02*
X77291703Y-40684481D01*
X77298246Y-40608021D02*
X77298246Y-39208021D01*
X77247794Y-40815051D02*
X77254630Y-40801289D01*
X77297984Y-40623385D02*
X77298246Y-40608021D01*
X77266871Y-40773106D02*
X77272263Y-40758717D01*
X77224528Y-40854825D02*
X77232735Y-40841834D01*
X77206808Y-40879928D02*
X77215882Y-40867527D01*
X77082059Y-31023533D02*
X77068795Y-31015774D01*
X77285451Y-31301477D02*
X77281559Y-31286613D01*
X77155395Y-31079145D02*
X77143988Y-31068850D01*
X77240493Y-31187472D02*
X77232735Y-31174209D01*
X77288834Y-31316466D02*
X77285451Y-31301477D01*
X77298246Y-32808021D02*
X77298246Y-31408021D01*
X77297984Y-31392658D02*
X77297197Y-31377312D01*
X77298246Y-31408021D02*
X77297984Y-31392658D01*
X77281559Y-40729430D02*
X77285451Y-40714565D01*
X77285451Y-40714565D02*
X77288834Y-40699577D01*
X77254630Y-40801289D02*
X77260991Y-40787302D01*
X77295887Y-40654040D02*
X77297197Y-40638730D01*
X77055275Y-31008473D02*
X77041513Y-31001638D01*
X77215882Y-31148515D02*
X77206808Y-31136115D01*
X76969654Y-30974709D02*
X76954790Y-30970816D01*
X76984377Y-30979106D02*
X76969654Y-30974709D01*
X76998942Y-30984004D02*
X76984377Y-30979106D01*
X77013330Y-30989396D02*
X76998942Y-30984004D01*
X77281559Y-31286613D02*
X77277161Y-31271890D01*
X77027526Y-30995276D02*
X77013330Y-30989396D01*
X77041513Y-31001638D02*
X77027526Y-30995276D01*
X77068795Y-31015774D02*
X77055275Y-31008473D01*
X77107752Y-31040385D02*
X77095049Y-31031739D01*
X77298246Y-39208021D02*
X77298246Y-32808021D01*
X77240493Y-40828571D02*
X77247794Y-40815051D01*
X77095049Y-31031739D02*
X77082059Y-31023533D01*
X77215882Y-40867527D02*
X77224528Y-40854825D01*
X77197316Y-40892011D02*
X77206808Y-40879928D01*
X77177122Y-40915170D02*
X77187417Y-40903763D01*
X77272263Y-31257325D02*
X77266871Y-31242937D01*
X77166444Y-31089823D02*
X77155395Y-31079145D01*
X77254630Y-31214754D02*
X77247794Y-31200992D01*
X77297197Y-40638730D02*
X77297984Y-40623385D01*
X77120152Y-31049459D02*
X77107752Y-31040385D01*
X77132235Y-31058951D02*
X77120152Y-31049459D01*
X77143988Y-31068850D02*
X77132235Y-31058951D01*
X77177122Y-31100872D02*
X77166444Y-31089823D01*
X77187417Y-31112280D02*
X77177122Y-31100872D01*
X77260991Y-31228741D02*
X77254630Y-31214754D01*
X77197316Y-31124032D02*
X77187417Y-31112280D01*
X77260991Y-40787302D02*
X77266871Y-40773106D01*
X77206808Y-31136115D02*
X77197316Y-31124032D01*
X77277161Y-40744153D02*
X77281559Y-40729430D01*
X77224528Y-31161218D02*
X77215882Y-31148515D01*
X77291703Y-40684481D02*
X77294055Y-40669296D01*
X77272263Y-40758717D02*
X77277161Y-40744153D01*
X77232735Y-40841834D02*
X77240493Y-40828571D01*
X77187417Y-40903763D02*
X77197316Y-40892011D01*
X76101067Y-46219927D02*
X76090584Y-46217598D01*
X77068795Y-41000269D02*
X77082059Y-40992510D01*
X77055275Y-41007570D02*
X77068795Y-41000269D01*
X76340156Y-46365457D02*
X76332476Y-46356714D01*
X76290804Y-46316106D02*
X76281874Y-46308662D01*
X77013330Y-41026647D02*
X77027526Y-41020766D01*
X76848246Y-41058021D02*
X76863609Y-41057759D01*
X76090584Y-46217598D02*
X76080123Y-46215534D01*
X76132553Y-46228533D02*
X76122061Y-46225392D01*
X76234771Y-46275199D02*
X76224932Y-46269292D01*
X77095049Y-40984303D02*
X77107752Y-40975658D01*
X77107752Y-40975658D02*
X77120152Y-40966584D01*
X76299548Y-46323785D02*
X76290804Y-46316106D01*
X77082059Y-40992510D02*
X77095049Y-40984303D01*
X77041513Y-41014405D02*
X77055275Y-41007570D01*
X76954790Y-41045227D02*
X76969654Y-41041334D01*
X76018301Y-46208469D02*
X76008228Y-46208132D01*
X76111563Y-46222524D02*
X76101067Y-46219927D01*
X76143027Y-46231950D02*
X76132553Y-46228533D01*
X76939801Y-41048609D02*
X76954790Y-41045227D01*
X76894265Y-41055662D02*
X76909521Y-41053830D01*
X76038675Y-46209842D02*
X76028452Y-46209037D01*
X75998240Y-46208021D02*
X75998240Y-41058021D01*
X76924706Y-41051478D02*
X76939801Y-41048609D01*
X75998240Y-41058021D02*
X76848246Y-41058021D01*
X76048961Y-46210889D02*
X76038675Y-46209842D01*
X76080123Y-46215534D02*
X76069693Y-46213730D01*
X76194774Y-46253207D02*
X76184544Y-46248398D01*
X76254062Y-46287812D02*
X76244484Y-46281373D01*
X76281874Y-46308662D02*
X76272767Y-46301462D01*
X76909521Y-41053830D02*
X76924706Y-41051478D01*
X76863609Y-41057759D02*
X76878955Y-41056972D01*
X76153474Y-46235644D02*
X76143027Y-46231950D01*
X76059303Y-46212184D02*
X76048961Y-46210889D01*
X76069693Y-46213730D02*
X76059303Y-46212184D01*
X76354800Y-46383494D02*
X76347599Y-46374387D01*
X76174243Y-46243868D02*
X76163883Y-46239617D01*
X76324568Y-46348166D02*
X76316438Y-46339823D01*
X76244484Y-46281373D02*
X76234771Y-46275199D01*
X76263493Y-46294510D02*
X76254062Y-46287812D01*
X76347599Y-46374387D02*
X76340156Y-46365457D01*
X76163883Y-46239617D02*
X76153474Y-46235644D01*
X76122061Y-46225392D02*
X76111563Y-46222524D01*
X76224932Y-46269292D02*
X76214979Y-46263656D01*
X76008228Y-46208132D02*
X75998240Y-46208021D01*
X76969654Y-41041334D02*
X76984377Y-41036936D01*
X77027526Y-41020766D02*
X77041513Y-41014405D01*
X76984377Y-41036936D02*
X76998942Y-41032039D01*
X76361752Y-46392768D02*
X76354800Y-46383494D01*
X76214979Y-46263656D02*
X76204923Y-46258294D01*
X76332476Y-46356714D02*
X76324568Y-46348166D01*
X76316438Y-46339823D02*
X76308095Y-46331694D01*
X77166444Y-40926219D02*
X77177122Y-40915170D01*
X77132235Y-40957091D02*
X77143988Y-40947192D01*
X77155395Y-40936897D02*
X77166444Y-40926219D01*
X76028452Y-46209037D02*
X76018301Y-46208469D01*
X76204923Y-46258294D02*
X76194774Y-46253207D01*
X76308095Y-46331694D02*
X76299548Y-46323785D01*
X76184544Y-46248398D02*
X76174243Y-46243868D01*
X76272767Y-46301462D02*
X76263493Y-46294510D01*
X77143988Y-40947192D02*
X77155395Y-40936897D01*
X77120152Y-40966584D02*
X77132235Y-40957091D01*
X76998942Y-41032039D02*
X77013330Y-41026647D01*
X76878955Y-41056972D02*
X76894265Y-41055662D01*
X76447793Y-46637960D02*
X76447225Y-46627809D01*
X76386970Y-46884713D02*
X76392606Y-46874760D01*
X76448129Y-46648033D02*
X76447793Y-46637960D01*
X76446420Y-46698456D02*
X76447225Y-46688234D01*
X76448129Y-46668009D02*
X76448240Y-46658021D01*
X76444078Y-46719084D02*
X76445372Y-46708742D01*
X76436334Y-46760849D02*
X76438663Y-46750366D01*
X76433737Y-46771344D02*
X76436334Y-46760849D01*
X76374888Y-46904266D02*
X76381063Y-46894552D01*
X76316438Y-46976219D02*
X76324568Y-46967877D01*
X76427728Y-46792334D02*
X76430870Y-46781843D01*
X76430870Y-46781843D02*
X76433737Y-46771344D01*
X76407863Y-46844325D02*
X76412393Y-46834024D01*
X76403054Y-46854555D02*
X76407863Y-46844325D01*
X76340156Y-46950585D02*
X76347599Y-46941655D01*
X76272767Y-47014581D02*
X76281874Y-47007380D01*
X76448240Y-46658021D02*
X76448129Y-46648033D01*
X76440727Y-46739905D02*
X76442531Y-46729475D01*
X76438663Y-46750366D02*
X76440727Y-46739905D01*
X76424311Y-46802808D02*
X76427728Y-46792334D01*
X76420617Y-46813255D02*
X76424311Y-46802808D01*
X76416645Y-46823664D02*
X76420617Y-46813255D01*
X76368450Y-46913843D02*
X76374888Y-46904266D01*
X76361752Y-46923274D02*
X76368450Y-46913843D01*
X76299548Y-46992257D02*
X76308095Y-46984349D01*
X76324568Y-46967877D02*
X76332476Y-46959329D01*
X76308095Y-46984349D02*
X76316438Y-46976219D01*
X76392606Y-46874760D02*
X76397968Y-46864704D01*
X76412393Y-46482019D02*
X76407863Y-46471718D01*
X76447225Y-46627809D02*
X76446420Y-46617587D01*
X76368450Y-46402199D02*
X76361752Y-46392768D01*
X76374888Y-46411777D02*
X76368450Y-46402199D01*
X76381063Y-46421490D02*
X76374888Y-46411777D01*
X76386970Y-46431329D02*
X76381063Y-46421490D01*
X76442531Y-46729475D02*
X76444078Y-46719084D01*
X76392606Y-46441282D02*
X76386970Y-46431329D01*
X76397968Y-46451339D02*
X76392606Y-46441282D01*
X76403054Y-46461488D02*
X76397968Y-46451339D01*
X76407863Y-46471718D02*
X76403054Y-46461488D01*
X76427728Y-46523709D02*
X76424311Y-46513234D01*
X76412393Y-46834024D02*
X76416645Y-46823664D01*
X76416645Y-46492379D02*
X76412393Y-46482019D01*
X76420617Y-46502788D02*
X76416645Y-46492379D01*
X76424311Y-46513234D02*
X76420617Y-46502788D01*
X76430870Y-46534200D02*
X76427728Y-46523709D01*
X76445372Y-46708742D02*
X76446420Y-46698456D01*
X76440727Y-46576138D02*
X76438663Y-46565677D01*
X76447793Y-46678082D02*
X76448129Y-46668009D01*
X76397968Y-46864704D02*
X76403054Y-46854555D01*
X76433737Y-46544699D02*
X76430870Y-46534200D01*
X76436334Y-46555194D02*
X76433737Y-46544699D01*
X76438663Y-46565677D02*
X76436334Y-46555194D01*
X76442531Y-46586568D02*
X76440727Y-46576138D01*
X76445372Y-46607301D02*
X76444078Y-46596958D01*
X76447225Y-46688234D02*
X76447793Y-46678082D01*
X76332476Y-46959329D02*
X76340156Y-46950585D01*
X76263493Y-47021533D02*
X76272767Y-47014581D01*
X76354800Y-46932548D02*
X76361752Y-46923274D01*
X76290804Y-46999937D02*
X76299548Y-46992257D01*
X76444078Y-46596958D02*
X76442531Y-46586568D01*
X76381063Y-46894552D02*
X76386970Y-46884713D01*
X76347599Y-46941655D02*
X76354800Y-46932548D01*
X76281874Y-47007380D02*
X76290804Y-46999937D01*
X76446420Y-46617587D02*
X76445372Y-46607301D01*
X76220994Y-48967022D02*
X76207365Y-48959566D01*
X76194774Y-47062835D02*
X76204923Y-47057749D01*
X76174243Y-47072175D02*
X76184544Y-47067644D01*
X76090584Y-47098444D02*
X76101067Y-47096116D01*
X76413239Y-49184021D02*
X76406986Y-49169801D01*
X76132553Y-47087510D02*
X76143027Y-47084093D01*
X76044763Y-48910433D02*
X76029286Y-48909094D01*
X76207365Y-48959566D02*
X76193488Y-48952585D01*
X76260223Y-48992146D02*
X76247439Y-48983321D01*
X76368583Y-49102392D02*
X76359539Y-49089762D01*
X76143027Y-47084093D02*
X76153474Y-47080398D01*
X76111563Y-47093519D02*
X76122061Y-47090651D01*
X76418997Y-49198449D02*
X76413239Y-49184021D01*
X76048961Y-47105154D02*
X76059303Y-47103859D01*
X76080123Y-47100509D02*
X76090584Y-47098444D01*
X76059303Y-47103859D02*
X76069693Y-47102312D01*
X76105932Y-48921097D02*
X76090787Y-48917641D01*
X76234357Y-48974943D02*
X76220994Y-48967022D01*
X76272696Y-49001407D02*
X76260223Y-48992146D01*
X76038675Y-47106201D02*
X76048961Y-47105154D01*
X75998240Y-48908021D02*
X73998240Y-48908021D01*
X76135819Y-48929568D02*
X76120949Y-48925075D01*
X76075532Y-48914709D02*
X76060184Y-48912305D01*
X76028452Y-47107006D02*
X76038675Y-47106201D01*
X76060184Y-48912305D02*
X76044763Y-48910433D01*
X76150526Y-48934572D02*
X76135819Y-48929568D01*
X76193488Y-48952585D02*
X76179377Y-48946088D01*
X76329869Y-49053847D02*
X76319173Y-49042581D01*
X76385337Y-49128552D02*
X76377185Y-49115327D01*
X76406986Y-49169801D02*
X76400246Y-49155805D01*
X75998240Y-47108021D02*
X76008228Y-47107910D01*
X73998240Y-48908021D02*
X73998240Y-47108021D01*
X76284841Y-49011092D02*
X76272696Y-49001407D01*
X76165051Y-48940081D02*
X76150526Y-48934572D01*
X76179377Y-48946088D02*
X76165051Y-48940081D01*
X76008228Y-47107910D02*
X76018301Y-47107574D01*
X73998240Y-47108021D02*
X75998240Y-47108021D01*
X76308094Y-49031692D02*
X76296645Y-49021191D01*
X76377185Y-49115327D02*
X76368583Y-49102392D01*
X76393026Y-49142049D02*
X76385337Y-49128552D01*
X76029286Y-48909094D02*
X76013772Y-48908289D01*
X76296645Y-49021191D02*
X76284841Y-49011092D01*
X76247439Y-48983321D02*
X76234357Y-48974943D01*
X76359539Y-49089762D02*
X76350064Y-49077451D01*
X76090787Y-48917641D02*
X76075532Y-48914709D01*
X76018301Y-47107574D02*
X76028452Y-47107006D01*
X76254062Y-47028231D02*
X76263493Y-47021533D01*
X76163883Y-47076426D02*
X76174243Y-47072175D01*
X76153474Y-47080398D02*
X76163883Y-47076426D01*
X76244484Y-47034669D02*
X76254062Y-47028231D01*
X76350064Y-49077451D02*
X76340170Y-49065474D01*
X76234771Y-47040844D02*
X76244484Y-47034669D01*
X76214979Y-47052387D02*
X76224932Y-47046751D01*
X76224932Y-47046751D02*
X76234771Y-47040844D01*
X76069693Y-47102312D02*
X76080123Y-47100509D01*
X76184544Y-47067644D02*
X76194774Y-47062835D01*
X76120949Y-48925075D02*
X76105932Y-48921097D01*
X76340170Y-49065474D02*
X76329869Y-49053847D01*
X76319173Y-49042581D02*
X76308094Y-49031692D01*
X76400246Y-49155805D02*
X76393026Y-49142049D01*
X76204923Y-47057749D02*
X76214979Y-47052387D01*
X76122061Y-47090651D02*
X76132553Y-47087510D01*
X76101067Y-47096116D02*
X76111563Y-47093519D01*
X76013772Y-48908289D02*
X75998240Y-48908021D01*
X76329869Y-49662196D02*
X76340170Y-49650568D01*
X75998240Y-49808021D02*
X76013772Y-49807753D01*
X76406986Y-49546242D02*
X76413239Y-49532021D01*
X76260223Y-49723897D02*
X76272696Y-49714636D01*
X76400246Y-49560238D02*
X76406986Y-49546242D01*
X76234357Y-49741099D02*
X76247439Y-49732721D01*
X76296645Y-49694851D02*
X76308094Y-49684351D01*
X76179377Y-49769955D02*
X76193488Y-49763457D01*
X76165051Y-49775962D02*
X76179377Y-49769955D01*
X76150526Y-49781470D02*
X76165051Y-49775962D01*
X76135819Y-49786474D02*
X76150526Y-49781470D01*
X76028452Y-54209037D02*
X76018301Y-54208469D01*
X76413239Y-49532021D02*
X76418997Y-49517594D01*
X76060184Y-49803738D02*
X76075532Y-49801334D01*
X76044763Y-49805610D02*
X76060184Y-49803738D01*
X76319173Y-49673461D02*
X76329869Y-49662196D01*
X76429004Y-49488185D02*
X76433240Y-49473239D01*
X76207365Y-49756477D02*
X76220994Y-49749021D01*
X76444959Y-49412263D02*
X76446565Y-49396811D01*
X76393026Y-49573993D02*
X76400246Y-49560238D01*
X76308094Y-49684351D02*
X76319173Y-49673461D01*
X76090787Y-49798402D02*
X76105932Y-49794945D01*
X76193488Y-49763457D02*
X76207365Y-49756477D01*
X76120949Y-49790968D02*
X76135819Y-49786474D01*
X76442821Y-49427650D02*
X76444959Y-49412263D01*
X76105932Y-49794945D02*
X76120949Y-49790968D01*
X76018301Y-54208469D02*
X76008228Y-54208132D01*
X76013772Y-49807753D02*
X76029286Y-49806949D01*
X76436958Y-49458156D02*
X76440152Y-49442953D01*
X76340170Y-49650568D02*
X76350064Y-49638592D01*
X76424254Y-49213067D02*
X76418997Y-49198449D01*
X76429004Y-49227858D02*
X76424254Y-49213067D01*
X76433240Y-49242804D02*
X76429004Y-49227858D01*
X76436958Y-49257887D02*
X76433240Y-49242804D01*
X76220994Y-49749021D02*
X76234357Y-49741099D01*
X76444959Y-49303780D02*
X76442821Y-49288393D01*
X76440152Y-49273089D02*
X76436958Y-49257887D01*
X76442821Y-49288393D02*
X76440152Y-49273089D01*
X76418997Y-49517594D02*
X76424254Y-49502976D01*
X76075532Y-49801334D02*
X76090787Y-49798402D01*
X76038675Y-54209842D02*
X76028452Y-54209037D01*
X76446565Y-49319231D02*
X76444959Y-49303780D01*
X76447637Y-49334729D02*
X76446565Y-49319231D01*
X76448173Y-49350254D02*
X76447637Y-49334729D01*
X76433240Y-49473239D02*
X76436958Y-49458156D01*
X76247439Y-49732721D02*
X76260223Y-49723897D01*
X76385337Y-49587491D02*
X76393026Y-49573993D01*
X76284841Y-49704950D02*
X76296645Y-49694851D01*
X76029286Y-49806949D02*
X76044763Y-49805610D01*
X76448173Y-49365789D02*
X76448173Y-49350254D01*
X76446565Y-49396811D02*
X76447637Y-49381314D01*
X76447637Y-49381314D02*
X76448173Y-49365789D01*
X76059303Y-54212184D02*
X76048961Y-54210889D01*
X76377185Y-49600715D02*
X76385337Y-49587491D01*
X76272696Y-49714636D02*
X76284841Y-49704950D01*
X76359539Y-49626281D02*
X76368583Y-49613650D01*
X76008228Y-54208132D02*
X75998240Y-54208021D01*
X76440152Y-49442953D02*
X76442821Y-49427650D01*
X76424254Y-49502976D02*
X76429004Y-49488185D01*
X76368583Y-49613650D02*
X76377185Y-49600715D01*
X76350064Y-49638592D02*
X76359539Y-49626281D01*
X75998240Y-54208021D02*
X75998240Y-49808021D01*
X76048961Y-54210889D02*
X76038675Y-54209842D01*
X76069693Y-54213730D02*
X76059303Y-54212184D01*
X76403054Y-54461488D02*
X76397968Y-54451339D01*
X76143027Y-54231950D02*
X76132553Y-54228533D01*
X76184544Y-54248398D02*
X76174243Y-54243868D01*
X76444078Y-54719084D02*
X76445372Y-54708742D01*
X76448240Y-54658021D02*
X76448129Y-54648033D01*
X76163883Y-54239617D02*
X76153474Y-54235644D01*
X76324568Y-54348166D02*
X76316438Y-54339823D01*
X76397968Y-54451339D02*
X76392606Y-54441282D01*
X76416645Y-54492379D02*
X76412393Y-54482019D01*
X76444078Y-54596958D02*
X76442531Y-54586568D01*
X76194774Y-54253207D02*
X76184544Y-54248398D01*
X76214979Y-54263656D02*
X76204923Y-54258294D01*
X76448129Y-54668009D02*
X76448240Y-54658021D01*
X76224932Y-54269292D02*
X76214979Y-54263656D01*
X76234771Y-54275199D02*
X76224932Y-54269292D01*
X76244484Y-54281373D02*
X76234771Y-54275199D01*
X76354800Y-54383494D02*
X76347599Y-54374387D01*
X76407863Y-54471718D02*
X76403054Y-54461488D01*
X76420617Y-54502788D02*
X76416645Y-54492379D01*
X76263493Y-54294510D02*
X76254062Y-54287812D01*
X76299548Y-54323785D02*
X76290804Y-54316106D01*
X76368450Y-54402199D02*
X76361752Y-54392768D01*
X76340156Y-54365457D02*
X76332476Y-54356714D01*
X76272767Y-54301462D02*
X76263493Y-54294510D01*
X76332476Y-54356714D02*
X76324568Y-54348166D01*
X76374888Y-54411777D02*
X76368450Y-54402199D01*
X76392606Y-54441282D02*
X76386970Y-54431329D01*
X76436334Y-54555194D02*
X76433737Y-54544699D01*
X76446420Y-54617587D02*
X76445372Y-54607301D01*
X76448129Y-54648033D02*
X76447793Y-54637960D01*
X76281874Y-54308662D02*
X76272767Y-54301462D01*
X76290804Y-54316106D02*
X76281874Y-54308662D01*
X76424311Y-54513234D02*
X76420617Y-54502788D01*
X76381063Y-54421490D02*
X76374888Y-54411777D01*
X76386970Y-54431329D02*
X76381063Y-54421490D01*
X76316438Y-54339823D02*
X76308095Y-54331694D01*
X76430870Y-54534200D02*
X76427728Y-54523709D01*
X76446420Y-54698456D02*
X76447225Y-54688234D01*
X76445372Y-54607301D02*
X76444078Y-54596958D01*
X76447225Y-54627809D02*
X76446420Y-54617587D01*
X76442531Y-54729475D02*
X76444078Y-54719084D01*
X76427728Y-54523709D02*
X76424311Y-54513234D01*
X76412393Y-54482019D02*
X76407863Y-54471718D01*
X76442531Y-54586568D02*
X76440727Y-54576138D01*
X76347599Y-54374387D02*
X76340156Y-54365457D01*
X76254062Y-54287812D02*
X76244484Y-54281373D01*
X76080123Y-54215534D02*
X76069693Y-54213730D01*
X76111563Y-54222524D02*
X76101067Y-54219927D01*
X76122061Y-54225392D02*
X76111563Y-54222524D01*
X76440727Y-54576138D02*
X76438663Y-54565677D01*
X76445372Y-54708742D02*
X76446420Y-54698456D01*
X76447225Y-54688234D02*
X76447793Y-54678082D01*
X76090584Y-54217598D02*
X76080123Y-54215534D01*
X76101067Y-54219927D02*
X76090584Y-54217598D01*
X76204923Y-54258294D02*
X76194774Y-54253207D01*
X76361752Y-54392768D02*
X76354800Y-54383494D01*
X76438663Y-54565677D02*
X76436334Y-54555194D01*
X76447793Y-54678082D02*
X76448129Y-54668009D01*
X76433737Y-54544699D02*
X76430870Y-54534200D01*
X76447793Y-54637960D02*
X76447225Y-54627809D01*
X76132553Y-54228533D02*
X76122061Y-54225392D01*
X76153474Y-54235644D02*
X76143027Y-54231950D01*
X76174243Y-54243868D02*
X76163883Y-54239617D01*
X76308095Y-54331694D02*
X76299548Y-54323785D01*
X73998240Y-56908021D02*
X73998240Y-55108021D01*
X76069693Y-55102312D02*
X76080123Y-55100509D01*
X76299548Y-54992257D02*
X76308095Y-54984349D01*
X76254062Y-55028231D02*
X76263493Y-55021533D01*
X76281874Y-55007380D02*
X76290804Y-54999937D01*
X76234771Y-55040844D02*
X76244484Y-55034669D01*
X76194774Y-55062835D02*
X76204923Y-55057749D01*
X76029286Y-56909094D02*
X76013772Y-56908289D01*
X76184544Y-55067644D02*
X76194774Y-55062835D01*
X76048961Y-55105154D02*
X76059303Y-55103859D01*
X76163883Y-55076426D02*
X76174243Y-55072175D01*
X76174243Y-55072175D02*
X76184544Y-55067644D01*
X76111563Y-55093519D02*
X76122061Y-55090651D01*
X76101067Y-55096116D02*
X76111563Y-55093519D01*
X75998240Y-55108021D02*
X76008228Y-55107910D01*
X75998240Y-56908021D02*
X73998240Y-56908021D01*
X76397968Y-54864704D02*
X76403054Y-54854555D01*
X76214979Y-55052387D02*
X76224932Y-55046751D01*
X76361752Y-54923274D02*
X76368450Y-54913843D01*
X76290804Y-54999937D02*
X76299548Y-54992257D01*
X76204923Y-55057749D02*
X76214979Y-55052387D01*
X76132553Y-55087510D02*
X76143027Y-55084093D01*
X76013772Y-56908289D02*
X75998240Y-56908021D01*
X76153474Y-55080398D02*
X76163883Y-55076426D01*
X76028452Y-55107006D02*
X76038675Y-55106201D01*
X76143027Y-55084093D02*
X76153474Y-55080398D01*
X76038675Y-55106201D02*
X76048961Y-55105154D01*
X76080123Y-55100509D02*
X76090584Y-55098444D01*
X76316438Y-54976219D02*
X76324568Y-54967877D01*
X73998240Y-55108021D02*
X75998240Y-55108021D01*
X76440727Y-54739905D02*
X76442531Y-54729475D01*
X76438663Y-54750366D02*
X76440727Y-54739905D01*
X76436334Y-54760849D02*
X76438663Y-54750366D01*
X76433737Y-54771344D02*
X76436334Y-54760849D01*
X76224932Y-55046751D02*
X76234771Y-55040844D01*
X76430870Y-54781843D02*
X76433737Y-54771344D01*
X76427728Y-54792334D02*
X76430870Y-54781843D01*
X76424311Y-54802808D02*
X76427728Y-54792334D01*
X76420617Y-54813255D02*
X76424311Y-54802808D01*
X76386970Y-54884713D02*
X76392606Y-54874760D01*
X76122061Y-55090651D02*
X76132553Y-55087510D01*
X76416645Y-54823664D02*
X76420617Y-54813255D01*
X76412393Y-54834024D02*
X76416645Y-54823664D01*
X76403054Y-54854555D02*
X76407863Y-54844325D01*
X76354800Y-54932548D02*
X76361752Y-54923274D01*
X76244484Y-55034669D02*
X76254062Y-55028231D01*
X76272767Y-55014581D02*
X76281874Y-55007380D01*
X76090584Y-55098444D02*
X76101067Y-55096116D01*
X76044763Y-56910433D02*
X76029286Y-56909094D01*
X76407863Y-54844325D02*
X76412393Y-54834024D01*
X76392606Y-54874760D02*
X76397968Y-54864704D01*
X76381063Y-54894552D02*
X76386970Y-54884713D01*
X76374888Y-54904266D02*
X76381063Y-54894552D01*
X76263493Y-55021533D02*
X76272767Y-55014581D01*
X76060184Y-56912305D02*
X76044763Y-56910433D01*
X76332476Y-54959329D02*
X76340156Y-54950585D01*
X76347599Y-54941655D02*
X76354800Y-54932548D01*
X76368450Y-54913843D02*
X76374888Y-54904266D01*
X76018301Y-55107574D02*
X76028452Y-55107006D01*
X76340156Y-54950585D02*
X76347599Y-54941655D01*
X76324568Y-54967877D02*
X76332476Y-54959329D01*
X76059303Y-55103859D02*
X76069693Y-55102312D01*
X76008228Y-55107910D02*
X76018301Y-55107574D01*
X76308095Y-54984349D02*
X76316438Y-54976219D01*
X76153474Y-62235644D02*
X76143027Y-62231950D01*
X76163883Y-62239617D02*
X76153474Y-62235644D01*
X76272767Y-62301462D02*
X76263493Y-62294510D01*
X76132553Y-62228533D02*
X76122061Y-62225392D01*
X76048961Y-62210889D02*
X76038675Y-62209842D01*
X76174243Y-62243868D02*
X76163883Y-62239617D01*
X76204923Y-62258294D02*
X76194774Y-62253207D01*
X76143027Y-62231950D02*
X76132553Y-62228533D01*
X76184544Y-62248398D02*
X76174243Y-62243868D01*
X76308094Y-57684351D02*
X76319173Y-57673461D01*
X76220994Y-57749021D02*
X76234357Y-57741099D01*
X76193488Y-57763457D02*
X76207365Y-57756477D01*
X76150526Y-57781470D02*
X76165051Y-57775962D01*
X76214979Y-62263656D02*
X76204923Y-62258294D01*
X76224932Y-62269292D02*
X76214979Y-62263656D01*
X76122061Y-62225392D02*
X76111563Y-62222524D01*
X76090584Y-62217598D02*
X76080123Y-62215534D01*
X76296645Y-57694851D02*
X76308094Y-57684351D01*
X76284841Y-57704950D02*
X76296645Y-57694851D01*
X76272696Y-57714636D02*
X76284841Y-57704950D01*
X76234357Y-57741099D02*
X76247439Y-57732721D01*
X76028452Y-62209037D02*
X76018301Y-62208469D01*
X76207365Y-57756477D02*
X76220994Y-57749021D01*
X76038675Y-62209842D02*
X76028452Y-62209037D01*
X76069693Y-62213730D02*
X76059303Y-62212184D01*
X76075532Y-57801334D02*
X76090787Y-57798402D01*
X76179377Y-57769955D02*
X76193488Y-57763457D01*
X76090787Y-57798402D02*
X76105932Y-57794945D01*
X76060184Y-57803738D02*
X76075532Y-57801334D01*
X76059303Y-62212184D02*
X76048961Y-62210889D01*
X76111563Y-62222524D02*
X76101067Y-62219927D01*
X76234771Y-62275199D02*
X76224932Y-62269292D01*
X76244484Y-62281373D02*
X76234771Y-62275199D01*
X76260223Y-57723897D02*
X76272696Y-57714636D01*
X75998240Y-62208021D02*
X75998240Y-57808021D01*
X76247439Y-57732721D02*
X76260223Y-57723897D01*
X76008228Y-62208132D02*
X75998240Y-62208021D01*
X76080123Y-62215534D02*
X76069693Y-62213730D01*
X76254062Y-62287812D02*
X76244484Y-62281373D01*
X76263493Y-62294510D02*
X76254062Y-62287812D01*
X76165051Y-57775962D02*
X76179377Y-57769955D01*
X76029286Y-57806949D02*
X76044763Y-57805610D01*
X76018301Y-62208469D02*
X76008228Y-62208132D01*
X76194774Y-62253207D02*
X76184544Y-62248398D01*
X76135819Y-57786474D02*
X76150526Y-57781470D01*
X76120949Y-57790968D02*
X76135819Y-57786474D01*
X76105932Y-57794945D02*
X76120949Y-57790968D01*
X75998240Y-57808021D02*
X76013772Y-57807753D01*
X76013772Y-57807753D02*
X76029286Y-57806949D01*
X76044763Y-57805610D02*
X76060184Y-57803738D01*
X76101067Y-62219927D02*
X76090584Y-62217598D01*
X76340156Y-62365457D02*
X76332476Y-62356714D01*
X76446420Y-62698456D02*
X76447225Y-62688234D01*
X76445372Y-62708742D02*
X76446420Y-62698456D01*
X76436334Y-62760849D02*
X76438663Y-62750366D01*
X76347599Y-62374387D02*
X76340156Y-62365457D01*
X76354800Y-62383494D02*
X76347599Y-62374387D01*
X76440727Y-62739905D02*
X76442531Y-62729475D01*
X76368450Y-62402199D02*
X76361752Y-62392768D01*
X76412393Y-62482019D02*
X76407863Y-62471718D01*
X76374888Y-62411777D02*
X76368450Y-62402199D01*
X76447793Y-62678082D02*
X76448129Y-62668009D01*
X76392606Y-62441282D02*
X76386970Y-62431329D01*
X76436334Y-62555194D02*
X76433737Y-62544699D01*
X76440727Y-62576138D02*
X76438663Y-62565677D01*
X76447225Y-62627809D02*
X76446420Y-62617587D01*
X76424311Y-62802808D02*
X76427728Y-62792334D01*
X76416645Y-62492379D02*
X76412393Y-62482019D01*
X76420617Y-62502788D02*
X76416645Y-62492379D01*
X76430870Y-62534200D02*
X76427728Y-62523709D01*
X76448129Y-62668009D02*
X76448240Y-62658021D01*
X76403054Y-62461488D02*
X76397968Y-62451339D01*
X76361752Y-62923274D02*
X76368450Y-62913843D01*
X76361752Y-62392768D02*
X76354800Y-62383494D01*
X76381063Y-62421490D02*
X76374888Y-62411777D01*
X76397968Y-62451339D02*
X76392606Y-62441282D01*
X76433737Y-62544699D02*
X76430870Y-62534200D01*
X76427728Y-62523709D02*
X76424311Y-62513234D01*
X76374888Y-62904266D02*
X76381063Y-62894552D01*
X76407863Y-62471718D02*
X76403054Y-62461488D01*
X76407863Y-62844325D02*
X76412393Y-62834024D01*
X76424311Y-62513234D02*
X76420617Y-62502788D01*
X76438663Y-62565677D02*
X76436334Y-62555194D01*
X76381063Y-62894552D02*
X76386970Y-62884713D01*
X76442531Y-62586568D02*
X76440727Y-62576138D01*
X76445372Y-62607301D02*
X76444078Y-62596958D01*
X76430870Y-62781843D02*
X76433737Y-62771344D01*
X76446420Y-62617587D02*
X76445372Y-62607301D01*
X76447793Y-62637960D02*
X76447225Y-62627809D01*
X76448129Y-62648033D02*
X76447793Y-62637960D01*
X76447225Y-62688234D02*
X76447793Y-62678082D01*
X76354800Y-62932548D02*
X76361752Y-62923274D01*
X76397968Y-62864704D02*
X76403054Y-62854555D01*
X76433737Y-62771344D02*
X76436334Y-62760849D01*
X76416645Y-62823664D02*
X76420617Y-62813255D01*
X76444078Y-62719084D02*
X76445372Y-62708742D01*
X76427728Y-62792334D02*
X76430870Y-62781843D01*
X76420617Y-62813255D02*
X76424311Y-62802808D01*
X76448240Y-62658021D02*
X76448129Y-62648033D01*
X76442531Y-62729475D02*
X76444078Y-62719084D01*
X76368450Y-62913843D02*
X76374888Y-62904266D01*
X76412393Y-62834024D02*
X76416645Y-62823664D01*
X76403054Y-62854555D02*
X76407863Y-62844325D01*
X76392606Y-62874760D02*
X76397968Y-62864704D01*
X76386970Y-62884713D02*
X76392606Y-62874760D01*
X76281874Y-62308662D02*
X76272767Y-62301462D01*
X76290804Y-62316106D02*
X76281874Y-62308662D01*
X76299548Y-62323785D02*
X76290804Y-62316106D01*
X76308095Y-62331694D02*
X76299548Y-62323785D01*
X76316438Y-62339823D02*
X76308095Y-62331694D01*
X76386970Y-62431329D02*
X76381063Y-62421490D01*
X76324568Y-62348166D02*
X76316438Y-62339823D01*
X76438663Y-62750366D02*
X76440727Y-62739905D01*
X76332476Y-62356714D02*
X76324568Y-62348166D01*
X76444078Y-62596958D02*
X76442531Y-62586568D01*
X75998240Y-63108021D02*
X76008228Y-63107910D01*
X73998240Y-63108021D02*
X75998240Y-63108021D01*
X76135819Y-64929568D02*
X76120949Y-64925075D01*
X76018301Y-63107574D02*
X76028452Y-63107006D01*
X76101067Y-63096116D02*
X76111563Y-63093519D01*
X76193488Y-64952585D02*
X76179377Y-64946088D01*
X73998240Y-64908021D02*
X73998240Y-63108021D01*
X76029286Y-64909094D02*
X76013772Y-64908289D01*
X76008228Y-63107910D02*
X76018301Y-63107574D01*
X75998240Y-64908021D02*
X73998240Y-64908021D01*
X76284841Y-65011092D02*
X76272696Y-65001407D01*
X76207365Y-64959566D02*
X76193488Y-64952585D01*
X76234771Y-63040844D02*
X76244484Y-63034669D01*
X76347599Y-62941655D02*
X76354800Y-62932548D01*
X76340156Y-62950585D02*
X76347599Y-62941655D01*
X76332476Y-62959329D02*
X76340156Y-62950585D01*
X76044763Y-64910433D02*
X76029286Y-64909094D01*
X76060184Y-64912305D02*
X76044763Y-64910433D01*
X76324568Y-62967877D02*
X76332476Y-62959329D01*
X76028452Y-63107006D02*
X76038675Y-63106201D01*
X76316438Y-62976219D02*
X76324568Y-62967877D01*
X76308095Y-62984349D02*
X76316438Y-62976219D01*
X76059303Y-63103859D02*
X76069693Y-63102312D01*
X76299548Y-62992257D02*
X76308095Y-62984349D01*
X76290804Y-62999937D02*
X76299548Y-62992257D01*
X76179377Y-64946088D02*
X76165051Y-64940081D01*
X76263493Y-63021533D02*
X76272767Y-63014581D01*
X76122061Y-63090651D02*
X76132553Y-63087510D01*
X76224932Y-63046751D02*
X76234771Y-63040844D01*
X76214979Y-63052387D02*
X76224932Y-63046751D01*
X76111563Y-63093519D02*
X76122061Y-63090651D01*
X76080123Y-63100509D02*
X76090584Y-63098444D01*
X76204923Y-63057749D02*
X76214979Y-63052387D01*
X76184544Y-63067644D02*
X76194774Y-63062835D01*
X76038675Y-63106201D02*
X76048961Y-63105154D01*
X76260223Y-64992146D02*
X76247439Y-64983321D01*
X76075532Y-64914709D02*
X76060184Y-64912305D01*
X76090787Y-64917641D02*
X76075532Y-64914709D01*
X76150526Y-64934572D02*
X76135819Y-64929568D01*
X76165051Y-64940081D02*
X76150526Y-64934572D01*
X76220994Y-64967022D02*
X76207365Y-64959566D01*
X76090584Y-63098444D02*
X76101067Y-63096116D01*
X76153474Y-63080398D02*
X76163883Y-63076426D01*
X76329869Y-65053847D02*
X76319173Y-65042581D01*
X76308094Y-65031692D02*
X76296645Y-65021191D01*
X76143027Y-63084093D02*
X76153474Y-63080398D01*
X76069693Y-63102312D02*
X76080123Y-63100509D01*
X76105932Y-64921097D02*
X76090787Y-64917641D01*
X76120949Y-64925075D02*
X76105932Y-64921097D01*
X76272696Y-65001407D02*
X76260223Y-64992146D01*
X76296645Y-65021191D02*
X76284841Y-65011092D01*
X76319173Y-65042581D02*
X76308094Y-65031692D01*
X76132553Y-63087510D02*
X76143027Y-63084093D01*
X76013772Y-64908289D02*
X75998240Y-64908021D01*
X76281874Y-63007380D02*
X76290804Y-62999937D01*
X76234357Y-64974943D02*
X76220994Y-64967022D01*
X76272767Y-63014581D02*
X76281874Y-63007380D01*
X76254062Y-63028231D02*
X76263493Y-63021533D01*
X76244484Y-63034669D02*
X76254062Y-63028231D01*
X76194774Y-63062835D02*
X76204923Y-63057749D01*
X76163883Y-63076426D02*
X76174243Y-63072175D01*
X76174243Y-63072175D02*
X76184544Y-63067644D01*
X76247439Y-64983321D02*
X76234357Y-64974943D01*
X76048961Y-63105154D02*
X76059303Y-63103859D01*
X76179377Y-65769955D02*
X76193488Y-65763457D01*
X76442821Y-65288393D02*
X76440152Y-65273089D01*
X76359539Y-65089762D02*
X76350064Y-65077451D01*
X76393026Y-65142049D02*
X76385337Y-65128552D01*
X76340170Y-65650568D02*
X76350064Y-65638592D01*
X76400246Y-65155805D02*
X76393026Y-65142049D01*
X76406986Y-65169801D02*
X76400246Y-65155805D01*
X76446565Y-65319231D02*
X76444959Y-65303780D01*
X76377185Y-65600715D02*
X76385337Y-65587491D01*
X76150526Y-65781470D02*
X76165051Y-65775962D01*
X76429004Y-65227858D02*
X76424254Y-65213067D01*
X76440152Y-65442953D02*
X76442821Y-65427650D01*
X76433240Y-65242804D02*
X76429004Y-65227858D01*
X76296645Y-65694851D02*
X76308094Y-65684351D01*
X76446565Y-65396811D02*
X76447637Y-65381314D01*
X76406986Y-65546242D02*
X76413239Y-65532021D01*
X76359539Y-65626281D02*
X76368583Y-65613650D01*
X76090787Y-65798402D02*
X76105932Y-65794945D01*
X76385337Y-65587491D02*
X76393026Y-65573993D01*
X76418997Y-65198449D02*
X76413239Y-65184021D01*
X76193488Y-65763457D02*
X76207365Y-65756477D01*
X76060184Y-65803738D02*
X76075532Y-65801334D01*
X76120949Y-65790968D02*
X76135819Y-65786474D01*
X76413239Y-65184021D02*
X76406986Y-65169801D01*
X76448173Y-65350254D02*
X76447637Y-65334729D01*
X76447637Y-65334729D02*
X76446565Y-65319231D01*
X76442821Y-65427650D02*
X76444959Y-65412263D01*
X76440152Y-65273089D02*
X76436958Y-65257887D01*
X76135819Y-65786474D02*
X76150526Y-65781470D01*
X76044763Y-65805610D02*
X76060184Y-65803738D01*
X76377185Y-65115327D02*
X76368583Y-65102392D01*
X76207365Y-65756477D02*
X76220994Y-65749021D01*
X76308094Y-65684351D02*
X76319173Y-65673461D01*
X76234357Y-65741099D02*
X76247439Y-65732721D01*
X76385337Y-65128552D02*
X76377185Y-65115327D01*
X76424254Y-65213067D02*
X76418997Y-65198449D01*
X76220994Y-65749021D02*
X76234357Y-65741099D01*
X76436958Y-65458156D02*
X76440152Y-65442953D01*
X76247439Y-65732721D02*
X76260223Y-65723897D01*
X76418997Y-65517594D02*
X76424254Y-65502976D01*
X76329869Y-65662196D02*
X76340170Y-65650568D01*
X76284841Y-65704950D02*
X76296645Y-65694851D01*
X76272696Y-65714636D02*
X76284841Y-65704950D01*
X76165051Y-65775962D02*
X76179377Y-65769955D01*
X76105932Y-65794945D02*
X76120949Y-65790968D01*
X76260223Y-65723897D02*
X76272696Y-65714636D01*
X76436958Y-65257887D02*
X76433240Y-65242804D01*
X76400246Y-65560238D02*
X76406986Y-65546242D01*
X76393026Y-65573993D02*
X76400246Y-65560238D01*
X76340170Y-65065474D02*
X76329869Y-65053847D01*
X76350064Y-65077451D02*
X76340170Y-65065474D01*
X76368583Y-65102392D02*
X76359539Y-65089762D01*
X76429004Y-65488185D02*
X76433240Y-65473239D01*
X76444959Y-65412263D02*
X76446565Y-65396811D01*
X76319173Y-65673461D02*
X76329869Y-65662196D01*
X76413239Y-65532021D02*
X76418997Y-65517594D01*
X76075532Y-65801334D02*
X76090787Y-65798402D01*
X76444959Y-65303780D02*
X76442821Y-65288393D01*
X76448173Y-65365789D02*
X76448173Y-65350254D01*
X76447637Y-65381314D02*
X76448173Y-65365789D01*
X76433240Y-65473239D02*
X76436958Y-65458156D01*
X76368583Y-65613650D02*
X76377185Y-65600715D01*
X76350064Y-65638592D02*
X76359539Y-65626281D01*
X76424254Y-65502976D02*
X76429004Y-65488185D01*
X76433737Y-70544699D02*
X76430870Y-70534200D01*
X76427728Y-70523709D02*
X76424311Y-70513234D01*
X76263493Y-70294510D02*
X76254062Y-70287812D01*
X76397968Y-70451339D02*
X76392606Y-70441282D01*
X76308095Y-70331694D02*
X76299548Y-70323785D01*
X76354800Y-70383494D02*
X76347599Y-70374387D01*
X76403054Y-70461488D02*
X76397968Y-70451339D01*
X76440727Y-70576138D02*
X76438663Y-70565677D01*
X76038675Y-70209842D02*
X76028452Y-70209037D01*
X76143027Y-70231950D02*
X76132553Y-70228533D01*
X76018301Y-70208469D02*
X76008228Y-70208132D01*
X76214979Y-70263656D02*
X76204923Y-70258294D01*
X76392606Y-70441282D02*
X76386970Y-70431329D01*
X76299548Y-70323785D02*
X76290804Y-70316106D01*
X76436334Y-70555194D02*
X76433737Y-70544699D01*
X76445372Y-70607301D02*
X76444078Y-70596958D01*
X76048961Y-70210889D02*
X76038675Y-70209842D01*
X76374888Y-70411777D02*
X76368450Y-70402199D01*
X76407863Y-70471718D02*
X76403054Y-70461488D01*
X76444078Y-70596958D02*
X76442531Y-70586568D01*
X76029286Y-65806949D02*
X76044763Y-65805610D01*
X75998240Y-65808021D02*
X76013772Y-65807753D01*
X76438663Y-70565677D02*
X76436334Y-70555194D01*
X76101067Y-70219927D02*
X76090584Y-70217598D01*
X76163883Y-70239617D02*
X76153474Y-70235644D01*
X76347599Y-70374387D02*
X76340156Y-70365457D01*
X76194774Y-70253207D02*
X76184544Y-70248398D01*
X76340156Y-70365457D02*
X76332476Y-70356714D01*
X76361752Y-70392768D02*
X76354800Y-70383494D01*
X76430870Y-70534200D02*
X76427728Y-70523709D01*
X76013772Y-65807753D02*
X76029286Y-65806949D01*
X75998240Y-70208021D02*
X75998240Y-65808021D01*
X76059303Y-70212184D02*
X76048961Y-70210889D01*
X76028452Y-70209037D02*
X76018301Y-70208469D01*
X76080123Y-70215534D02*
X76069693Y-70213730D01*
X76281874Y-70308662D02*
X76272767Y-70301462D01*
X76153474Y-70235644D02*
X76143027Y-70231950D01*
X76244484Y-70281373D02*
X76234771Y-70275199D01*
X76174243Y-70243868D02*
X76163883Y-70239617D01*
X76386970Y-70431329D02*
X76381063Y-70421490D01*
X76272767Y-70301462D02*
X76263493Y-70294510D01*
X76069693Y-70213730D02*
X76059303Y-70212184D01*
X76122061Y-70225392D02*
X76111563Y-70222524D01*
X76132553Y-70228533D02*
X76122061Y-70225392D01*
X76254062Y-70287812D02*
X76244484Y-70281373D01*
X76290804Y-70316106D02*
X76281874Y-70308662D01*
X76368450Y-70402199D02*
X76361752Y-70392768D01*
X76412393Y-70482019D02*
X76407863Y-70471718D01*
X76442531Y-70586568D02*
X76440727Y-70576138D01*
X76446420Y-70617587D02*
X76445372Y-70607301D01*
X76332476Y-70356714D02*
X76324568Y-70348166D01*
X76234771Y-70275199D02*
X76224932Y-70269292D01*
X76008228Y-70208132D02*
X75998240Y-70208021D01*
X76090584Y-70217598D02*
X76080123Y-70215534D01*
X76111563Y-70222524D02*
X76101067Y-70219927D01*
X76424311Y-70513234D02*
X76420617Y-70502788D01*
X76416645Y-70492379D02*
X76412393Y-70482019D01*
X76224932Y-70269292D02*
X76214979Y-70263656D01*
X76184544Y-70248398D02*
X76174243Y-70243868D01*
X76316438Y-70339823D02*
X76308095Y-70331694D01*
X76381063Y-70421490D02*
X76374888Y-70411777D01*
X76204923Y-70258294D02*
X76194774Y-70253207D01*
X76324568Y-70348166D02*
X76316438Y-70339823D01*
X76420617Y-70502788D02*
X76416645Y-70492379D01*
X76381063Y-70894552D02*
X76386970Y-70884713D01*
X76447793Y-70678082D02*
X76448129Y-70668009D01*
X76433737Y-70771344D02*
X76436334Y-70760849D01*
X76163883Y-71076426D02*
X76174243Y-71072175D01*
X76224932Y-71046751D02*
X76234771Y-71040844D01*
X76386970Y-70884713D02*
X76392606Y-70874760D01*
X76111563Y-71093519D02*
X76122061Y-71090651D01*
X76048961Y-71105154D02*
X76059303Y-71103859D01*
X76361752Y-70923274D02*
X76368450Y-70913843D01*
X76281874Y-71007380D02*
X76290804Y-70999937D01*
X76446420Y-70698456D02*
X76447225Y-70688234D01*
X76445372Y-70708742D02*
X76446420Y-70698456D01*
X76214979Y-71052387D02*
X76224932Y-71046751D01*
X76444078Y-70719084D02*
X76445372Y-70708742D01*
X76122061Y-71090651D02*
X76132553Y-71087510D01*
X76440727Y-70739905D02*
X76442531Y-70729475D01*
X76420617Y-70813255D02*
X76424311Y-70802808D01*
X76374888Y-70904266D02*
X76381063Y-70894552D01*
X76354800Y-70932548D02*
X76361752Y-70923274D01*
X76430870Y-70781843D02*
X76433737Y-70771344D01*
X76427728Y-70792334D02*
X76430870Y-70781843D01*
X76412393Y-70834024D02*
X76416645Y-70823664D01*
X76407863Y-70844325D02*
X76412393Y-70834024D01*
X76392606Y-70874760D02*
X76397968Y-70864704D01*
X76316438Y-70976219D02*
X76324568Y-70967877D01*
X76059303Y-71103859D02*
X76069693Y-71102312D01*
X76263493Y-71021533D02*
X76272767Y-71014581D01*
X76069693Y-71102312D02*
X76080123Y-71100509D01*
X76234771Y-71040844D02*
X76244484Y-71034669D01*
X76038675Y-71106201D02*
X76048961Y-71105154D01*
X76442531Y-70729475D02*
X76444078Y-70719084D01*
X76436334Y-70760849D02*
X76438663Y-70750366D01*
X76347599Y-70941655D02*
X76354800Y-70932548D01*
X76403054Y-70854555D02*
X76407863Y-70844325D01*
X76397968Y-70864704D02*
X76403054Y-70854555D01*
X76143027Y-71084093D02*
X76153474Y-71080398D01*
X76332476Y-70959329D02*
X76340156Y-70950585D01*
X76184544Y-71067644D02*
X76194774Y-71062835D01*
X76272767Y-71014581D02*
X76281874Y-71007380D01*
X76254062Y-71028231D02*
X76263493Y-71021533D01*
X76153474Y-71080398D02*
X76163883Y-71076426D01*
X76340156Y-70950585D02*
X76347599Y-70941655D01*
X76368450Y-70913843D02*
X76374888Y-70904266D01*
X76290804Y-70999937D02*
X76299548Y-70992257D01*
X76424311Y-70802808D02*
X76427728Y-70792334D01*
X76447225Y-70688234D02*
X76447793Y-70678082D01*
X76447225Y-70627809D02*
X76446420Y-70617587D01*
X76299548Y-70992257D02*
X76308095Y-70984349D01*
X76132553Y-71087510D02*
X76143027Y-71084093D01*
X76174243Y-71072175D02*
X76184544Y-71067644D01*
X76080123Y-71100509D02*
X76090584Y-71098444D01*
X76194774Y-71062835D02*
X76204923Y-71057749D01*
X76447793Y-70637960D02*
X76447225Y-70627809D01*
X76448129Y-70648033D02*
X76447793Y-70637960D01*
X76416645Y-70823664D02*
X76420617Y-70813255D01*
X76324568Y-70967877D02*
X76332476Y-70959329D01*
X76308095Y-70984349D02*
X76316438Y-70976219D01*
X76204923Y-71057749D02*
X76214979Y-71052387D01*
X76244484Y-71034669D02*
X76254062Y-71028231D01*
X76101067Y-71096116D02*
X76111563Y-71093519D01*
X76448240Y-70658021D02*
X76448129Y-70648033D01*
X76448129Y-70668009D02*
X76448240Y-70658021D01*
X76438663Y-70750366D02*
X76440727Y-70739905D01*
X76090584Y-71098444D02*
X76101067Y-71096116D01*
X76165051Y-72940081D02*
X76150526Y-72934572D01*
X76400246Y-73155805D02*
X76393026Y-73142049D01*
X76207365Y-72959566D02*
X76193488Y-72952585D01*
X76234357Y-72974943D02*
X76220994Y-72967022D01*
X76413239Y-73532021D02*
X76418997Y-73517594D01*
X76284841Y-73011092D02*
X76272696Y-73001407D01*
X76296645Y-73021191D02*
X76284841Y-73011092D01*
X76308094Y-73031692D02*
X76296645Y-73021191D01*
X76433240Y-73473239D02*
X76436958Y-73458156D01*
X76413239Y-73184021D02*
X76406986Y-73169801D01*
X76319173Y-73042581D02*
X76308094Y-73031692D01*
X76444959Y-73303780D02*
X76442821Y-73288393D01*
X76260223Y-72992146D02*
X76247439Y-72983321D01*
X76368583Y-73102392D02*
X76359539Y-73089762D01*
X76377185Y-73115327D02*
X76368583Y-73102392D01*
X76436958Y-73257887D02*
X76433240Y-73242804D01*
X76444959Y-73412263D02*
X76446565Y-73396811D01*
X76424254Y-73502976D02*
X76429004Y-73488185D01*
X76436958Y-73458156D02*
X76440152Y-73442953D01*
X76193488Y-72952585D02*
X76179377Y-72946088D01*
X76272696Y-73001407D02*
X76260223Y-72992146D01*
X76350064Y-73077451D02*
X76340170Y-73065474D01*
X76329869Y-73053847D02*
X76319173Y-73042581D01*
X76340170Y-73065474D02*
X76329869Y-73053847D01*
X76424254Y-73213067D02*
X76418997Y-73198449D01*
X76418997Y-73198449D02*
X76413239Y-73184021D01*
X76442821Y-73288393D02*
X76440152Y-73273089D01*
X76393026Y-73142049D02*
X76385337Y-73128552D01*
X76028452Y-71107006D02*
X76038675Y-71106201D01*
X76105932Y-72921097D02*
X76090787Y-72917641D01*
X76018301Y-71107574D02*
X76028452Y-71107006D01*
X76008228Y-71107910D02*
X76018301Y-71107574D01*
X75998240Y-71108021D02*
X76008228Y-71107910D01*
X73998240Y-71108021D02*
X75998240Y-71108021D01*
X76247439Y-72983321D02*
X76234357Y-72974943D01*
X73998240Y-72908021D02*
X73998240Y-71108021D01*
X75998240Y-72908021D02*
X73998240Y-72908021D01*
X76013772Y-72908289D02*
X75998240Y-72908021D01*
X76029286Y-72909094D02*
X76013772Y-72908289D01*
X76359539Y-73089762D02*
X76350064Y-73077451D01*
X76446565Y-73319231D02*
X76444959Y-73303780D01*
X76044763Y-72910433D02*
X76029286Y-72909094D01*
X76060184Y-72912305D02*
X76044763Y-72910433D01*
X76075532Y-72914709D02*
X76060184Y-72912305D01*
X76179377Y-72946088D02*
X76165051Y-72940081D01*
X76447637Y-73381314D02*
X76448173Y-73365789D01*
X76385337Y-73128552D02*
X76377185Y-73115327D01*
X76442821Y-73427650D02*
X76444959Y-73412263D01*
X76440152Y-73442953D02*
X76442821Y-73427650D01*
X76220994Y-72967022D02*
X76207365Y-72959566D01*
X76090787Y-72917641D02*
X76075532Y-72914709D01*
X76120949Y-72925075D02*
X76105932Y-72921097D01*
X76448173Y-73350254D02*
X76447637Y-73334729D01*
X76135819Y-72929568D02*
X76120949Y-72925075D01*
X76150526Y-72934572D02*
X76135819Y-72929568D01*
X76440152Y-73273089D02*
X76436958Y-73257887D01*
X76446565Y-73396811D02*
X76447637Y-73381314D01*
X76406986Y-73169801D02*
X76400246Y-73155805D01*
X76429004Y-73227858D02*
X76424254Y-73213067D01*
X76433240Y-73242804D02*
X76429004Y-73227858D01*
X76447637Y-73334729D02*
X76446565Y-73319231D01*
X76429004Y-73488185D02*
X76433240Y-73473239D01*
X76418997Y-73517594D02*
X76424254Y-73502976D01*
X76448173Y-73365789D02*
X76448173Y-73350254D01*
X77027526Y-78995276D02*
X77013330Y-78989396D01*
X76377185Y-73600715D02*
X76385337Y-73587491D01*
X76368583Y-73613650D02*
X76377185Y-73600715D01*
X76359539Y-73626281D02*
X76368583Y-73613650D01*
X76193488Y-73763457D02*
X76207365Y-73756477D01*
X76247439Y-73732721D02*
X76260223Y-73723897D01*
X76848246Y-78958021D02*
X75998240Y-78958021D01*
X77013330Y-78989396D02*
X76998942Y-78984004D01*
X77068795Y-79015774D02*
X77055275Y-79008473D01*
X77187417Y-79112280D02*
X77177122Y-79100872D01*
X76319173Y-73673461D02*
X76329869Y-73662196D01*
X76296645Y-73694851D02*
X76308094Y-73684351D01*
X76260223Y-73723897D02*
X76272696Y-73714636D01*
X76135819Y-73786474D02*
X76150526Y-73781470D01*
X76220994Y-73749021D02*
X76234357Y-73741099D01*
X76179377Y-73769955D02*
X76193488Y-73763457D01*
X76909521Y-78962213D02*
X76894265Y-78960381D01*
X77041513Y-79001638D02*
X77027526Y-78995276D01*
X77082059Y-79023533D02*
X77068795Y-79015774D01*
X76150526Y-73781470D02*
X76165051Y-73775962D01*
X76013772Y-73807753D02*
X76029286Y-73806949D01*
X76939801Y-78967433D02*
X76924706Y-78964565D01*
X76878955Y-78959070D02*
X76863609Y-78958284D01*
X76120949Y-73790968D02*
X76135819Y-73786474D01*
X76105932Y-73794945D02*
X76120949Y-73790968D01*
X76863609Y-78958284D02*
X76848246Y-78958021D01*
X76954790Y-78970816D02*
X76939801Y-78967433D01*
X76998942Y-78984004D02*
X76984377Y-78979106D01*
X77143988Y-79068850D02*
X77132235Y-79058951D01*
X77206808Y-79136115D02*
X77197316Y-79124032D01*
X76060184Y-73803738D02*
X76075532Y-73801334D01*
X76029286Y-73806949D02*
X76044763Y-73805610D01*
X77095049Y-79031739D02*
X77082059Y-79023533D01*
X76969654Y-78974709D02*
X76954790Y-78970816D01*
X76984377Y-78979106D02*
X76969654Y-78974709D01*
X76075532Y-73801334D02*
X76090787Y-73798402D01*
X76044763Y-73805610D02*
X76060184Y-73803738D01*
X77120152Y-79049459D02*
X77107752Y-79040385D01*
X77197316Y-79124032D02*
X77187417Y-79112280D01*
X77215882Y-79148515D02*
X77206808Y-79136115D01*
X75998240Y-78958021D02*
X75998240Y-73808021D01*
X77107752Y-79040385D02*
X77095049Y-79031739D01*
X77055275Y-79008473D02*
X77041513Y-79001638D01*
X77177122Y-79100872D02*
X77166444Y-79089823D01*
X76894265Y-78960381D02*
X76878955Y-78959070D01*
X76090787Y-73798402D02*
X76105932Y-73794945D01*
X76406986Y-73546242D02*
X76413239Y-73532021D01*
X76284841Y-73704950D02*
X76296645Y-73694851D01*
X76272696Y-73714636D02*
X76284841Y-73704950D01*
X76400246Y-73560238D02*
X76406986Y-73546242D01*
X77166444Y-79089823D02*
X77155395Y-79079145D01*
X76393026Y-73573993D02*
X76400246Y-73560238D01*
X76340170Y-73650568D02*
X76350064Y-73638592D01*
X76385337Y-73587491D02*
X76393026Y-73573993D01*
X76165051Y-73775962D02*
X76179377Y-73769955D01*
X76308094Y-73684351D02*
X76319173Y-73673461D01*
X76924706Y-78964565D02*
X76909521Y-78962213D01*
X77155395Y-79079145D02*
X77143988Y-79068850D01*
X76350064Y-73638592D02*
X76359539Y-73626281D01*
X77132235Y-79058951D02*
X77120152Y-79049459D01*
X76329869Y-73662196D02*
X76340170Y-73650568D01*
X76234357Y-73741099D02*
X76247439Y-73732721D01*
X76207365Y-73756477D02*
X76220994Y-73749021D01*
X75998240Y-73808021D02*
X76013772Y-73807753D01*
X77240493Y-88828571D02*
X77247794Y-88815051D01*
X76954790Y-89045227D02*
X76969654Y-89041334D01*
X77291703Y-88684481D02*
X77294055Y-88669296D01*
X77288834Y-88699577D02*
X77291703Y-88684481D01*
X77285451Y-88714565D02*
X77288834Y-88699577D01*
X77232735Y-88841834D02*
X77240493Y-88828571D01*
X77215882Y-88867527D02*
X77224528Y-88854825D01*
X77120152Y-88966584D02*
X77132235Y-88957091D01*
X77107752Y-88975658D02*
X77120152Y-88966584D01*
X76924706Y-89051478D02*
X76939801Y-89048609D01*
X77082059Y-88992510D02*
X77095049Y-88984303D01*
X77095049Y-88984303D02*
X77107752Y-88975658D01*
X77187417Y-88903763D02*
X77197316Y-88892011D01*
X77013330Y-89026647D02*
X77027526Y-89020766D01*
X76998942Y-89032039D02*
X77013330Y-89026647D01*
X77166444Y-88926219D02*
X77177122Y-88915170D01*
X77297197Y-88638730D02*
X77297984Y-88623385D01*
X77143988Y-88947192D02*
X77155395Y-88936897D01*
X77281559Y-88729430D02*
X77285451Y-88714565D01*
X77197316Y-88892011D02*
X77206808Y-88879928D01*
X77224528Y-88854825D02*
X77232735Y-88841834D01*
X77041513Y-89014405D02*
X77055275Y-89007570D01*
X77132235Y-88957091D02*
X77143988Y-88947192D01*
X77068795Y-89000269D02*
X77082059Y-88992510D01*
X76894265Y-89055662D02*
X76909521Y-89053830D01*
X77055275Y-89007570D02*
X77068795Y-89000269D01*
X76909521Y-89053830D02*
X76924706Y-89051478D01*
X76969654Y-89041334D02*
X76984377Y-89036936D01*
X77298246Y-88608021D02*
X77298246Y-87208021D01*
X77247794Y-88815051D02*
X77254630Y-88801289D01*
X77224528Y-79161218D02*
X77215882Y-79148515D01*
X77232735Y-79174209D02*
X77224528Y-79161218D01*
X77240493Y-79187472D02*
X77232735Y-79174209D01*
X77247794Y-79200992D02*
X77240493Y-79187472D01*
X77155395Y-88936897D02*
X77166444Y-88926219D01*
X77285451Y-79301477D02*
X77281559Y-79286613D01*
X77254630Y-79214754D02*
X77247794Y-79200992D01*
X77266871Y-79242937D02*
X77260991Y-79228741D01*
X77281559Y-79286613D02*
X77277161Y-79271890D01*
X77294055Y-88669296D02*
X77295887Y-88654040D01*
X77027526Y-89020766D02*
X77041513Y-89014405D01*
X77260991Y-79228741D02*
X77254630Y-79214754D01*
X77272263Y-79257325D02*
X77266871Y-79242937D01*
X77277161Y-79271890D02*
X77272263Y-79257325D01*
X77288834Y-79316466D02*
X77285451Y-79301477D01*
X77297984Y-88623385D02*
X77298246Y-88608021D01*
X77277161Y-88744153D02*
X77281559Y-88729430D01*
X77206808Y-88879928D02*
X77215882Y-88867527D01*
X76984377Y-89036936D02*
X76998942Y-89032039D01*
X77177122Y-88915170D02*
X77187417Y-88903763D01*
X77297984Y-79392658D02*
X77297197Y-79377312D01*
X77291703Y-79331562D02*
X77288834Y-79316466D01*
X77294055Y-79346746D02*
X77291703Y-79331562D01*
X77295887Y-79362002D02*
X77294055Y-79346746D01*
X77297197Y-79377312D02*
X77295887Y-79362002D01*
X77260991Y-88787302D02*
X77266871Y-88773106D01*
X77272263Y-88758717D02*
X77277161Y-88744153D01*
X77298246Y-79408021D02*
X77297984Y-79392658D01*
X77298246Y-80808021D02*
X77298246Y-79408021D01*
X77298246Y-87208021D02*
X77298246Y-80808021D01*
X77295887Y-88654040D02*
X77297197Y-88638730D01*
X76939801Y-89048609D02*
X76954790Y-89045227D01*
X77266871Y-88773106D02*
X77272263Y-88758717D01*
X77254630Y-88801289D02*
X77260991Y-88787302D01*
X75998240Y-95008021D02*
X75998240Y-89058021D01*
X89349289Y-93927312D02*
X89348502Y-93942658D01*
X89350599Y-93912002D02*
X89349289Y-93927312D01*
X89364927Y-93836613D02*
X89361035Y-93851477D01*
X89752221Y-93510381D02*
X89736965Y-93512213D01*
X77928938Y-95008021D02*
X75998240Y-95008021D01*
X89357652Y-93866466D02*
X89354783Y-93881562D01*
X102948961Y-93510889D02*
X102938675Y-93509842D01*
X89348240Y-93958021D02*
X89348240Y-95008021D01*
X89633156Y-93539396D02*
X89618960Y-93545276D01*
X89514250Y-93608951D02*
X89502498Y-93618850D01*
X89676832Y-93524709D02*
X89662109Y-93529106D01*
X89691696Y-93520816D02*
X89676832Y-93524709D01*
X83348240Y-95008021D02*
X77928938Y-95008021D01*
X89348240Y-95008021D02*
X83348240Y-95008021D01*
X89385495Y-93778741D02*
X89379615Y-93792937D01*
X89348502Y-93942658D02*
X89348240Y-93958021D01*
X89352431Y-93896746D02*
X89350599Y-93912002D01*
X89354783Y-93881562D02*
X89352431Y-93896746D01*
X89369325Y-93821890D02*
X89364927Y-93836613D01*
X89374223Y-93807325D02*
X89369325Y-93821890D01*
X89491091Y-93629145D02*
X89480042Y-93639823D01*
X89379615Y-93792937D02*
X89374223Y-93807325D01*
X89398692Y-93750992D02*
X89391856Y-93764754D01*
X89413751Y-93724209D02*
X89405993Y-93737472D01*
X89469364Y-93650872D02*
X89459069Y-93662280D01*
X89538734Y-93590385D02*
X89526334Y-93599459D01*
X102928452Y-93509037D02*
X102918301Y-93508469D01*
X89551437Y-93581739D02*
X89538734Y-93590385D01*
X89647544Y-93534004D02*
X89633156Y-93539396D01*
X102938675Y-93509842D02*
X102928452Y-93509037D01*
X102969693Y-93513730D02*
X102959303Y-93512184D01*
X89459069Y-93662280D02*
X89449170Y-93674032D01*
X89526334Y-93599459D02*
X89514250Y-93608951D01*
X89577690Y-93565774D02*
X89564427Y-93573533D01*
X89430604Y-93698515D02*
X89421958Y-93711218D01*
X89721780Y-93514565D02*
X89706685Y-93517433D01*
X89502498Y-93618850D02*
X89491091Y-93629145D01*
X89604973Y-93551638D02*
X89591211Y-93558473D01*
X89706685Y-93517433D02*
X89691696Y-93520816D01*
X89736965Y-93512213D02*
X89721780Y-93514565D01*
X102959303Y-93512184D02*
X102948961Y-93510889D01*
X89564427Y-93573533D02*
X89551437Y-93581739D01*
X102898240Y-93508021D02*
X89798240Y-93508021D01*
X89391856Y-93764754D02*
X89385495Y-93778741D01*
X89405993Y-93737472D02*
X89398692Y-93750992D01*
X102908228Y-93508132D02*
X102898240Y-93508021D01*
X102980123Y-93515534D02*
X102969693Y-93513730D01*
X89421958Y-93711218D02*
X89413751Y-93724209D01*
X89480042Y-93639823D02*
X89469364Y-93650872D01*
X89439678Y-93686115D02*
X89430604Y-93698515D01*
X89449170Y-93674032D02*
X89439678Y-93686115D01*
X89767531Y-93509070D02*
X89752221Y-93510381D01*
X102918301Y-93508469D02*
X102908228Y-93508132D01*
X76878955Y-89056972D02*
X76894265Y-89055662D01*
X89591211Y-93558473D02*
X89577690Y-93565774D01*
X75998240Y-89058021D02*
X76848246Y-89058021D01*
X76863609Y-89057759D02*
X76878955Y-89056972D01*
X89618960Y-93545276D02*
X89604973Y-93551638D01*
X89361035Y-93851477D02*
X89357652Y-93866466D01*
X89798240Y-93508021D02*
X89782877Y-93508284D01*
X89782877Y-93508284D02*
X89767531Y-93509070D01*
X89662109Y-93529106D02*
X89647544Y-93534004D01*
X76848246Y-89058021D02*
X76863609Y-89057759D01*
X103084544Y-93548398D02*
X103074243Y-93543868D01*
X103104923Y-93558294D02*
X103094774Y-93553207D01*
X103172767Y-93601462D02*
X103163493Y-93594510D01*
X103114979Y-93563656D02*
X103104923Y-93558294D01*
X103297968Y-93751339D02*
X103292606Y-93741282D01*
X103208095Y-93631694D02*
X103199548Y-93623785D01*
X103124932Y-93569292D02*
X103114979Y-93563656D01*
X103216438Y-93639823D02*
X103208095Y-93631694D01*
X103347793Y-93937960D02*
X103347225Y-93927809D01*
X103261752Y-93692768D02*
X103254800Y-93683494D01*
X103303054Y-93761488D02*
X103297968Y-93751339D01*
X103320617Y-93802788D02*
X103316645Y-93792379D01*
X103327728Y-93823709D02*
X103324311Y-93813234D01*
X103338663Y-93865677D02*
X103336334Y-93855194D01*
X218649301Y-93927312D02*
X218648514Y-93942658D01*
X218652443Y-93896746D02*
X218650611Y-93912002D01*
X103348129Y-93948033D02*
X103347793Y-93937960D01*
X103348240Y-93958021D02*
X103348129Y-93948033D01*
X103344078Y-93896958D02*
X103342531Y-93886568D01*
X218648252Y-93958021D02*
X218648252Y-95008021D01*
X103346420Y-93917587D02*
X103345372Y-93907301D01*
X103336334Y-93855194D02*
X103333737Y-93844699D01*
X103199548Y-93623785D02*
X103190804Y-93616106D01*
X103340727Y-93876138D02*
X103338663Y-93865677D01*
X103324311Y-93813234D02*
X103320617Y-93802788D01*
X218648514Y-93942658D02*
X218648252Y-93958021D01*
X103345372Y-93907301D02*
X103344078Y-93896958D01*
X218648252Y-95008021D02*
X103348240Y-95008021D01*
X102990584Y-93517598D02*
X102980123Y-93515534D01*
X103001067Y-93519927D02*
X102990584Y-93517598D01*
X103011563Y-93522524D02*
X103001067Y-93519927D01*
X103022061Y-93525392D02*
X103011563Y-93522524D01*
X103134771Y-93575199D02*
X103124932Y-93569292D01*
X103312393Y-93782019D02*
X103307863Y-93771718D01*
X103144484Y-93581373D02*
X103134771Y-93575199D01*
X103247599Y-93674387D02*
X103240156Y-93665457D01*
X103154062Y-93587812D02*
X103144484Y-93581373D01*
X103163493Y-93594510D02*
X103154062Y-93587812D01*
X103181874Y-93608662D02*
X103172767Y-93601462D01*
X103190804Y-93616106D02*
X103181874Y-93608662D01*
X103224568Y-93648166D02*
X103216438Y-93639823D01*
X103274888Y-93711777D02*
X103268450Y-93702199D01*
X103286970Y-93731329D02*
X103281063Y-93721490D01*
X218650611Y-93912002D02*
X218649301Y-93927312D01*
X218654795Y-93881562D02*
X218652443Y-93896746D01*
X103330870Y-93834200D02*
X103327728Y-93823709D01*
X103254800Y-93683494D02*
X103247599Y-93674387D01*
X103316645Y-93792379D02*
X103312393Y-93782019D01*
X103268450Y-93702199D02*
X103261752Y-93692768D01*
X103348240Y-95008021D02*
X103348240Y-93958021D01*
X103281063Y-93721490D02*
X103274888Y-93711777D01*
X103347225Y-93927809D02*
X103346420Y-93917587D01*
X103333737Y-93844699D02*
X103330870Y-93834200D01*
X103094774Y-93553207D02*
X103084544Y-93548398D01*
X103032553Y-93528533D02*
X103022061Y-93525392D01*
X103232476Y-93656714D02*
X103224568Y-93648166D01*
X103043027Y-93531950D02*
X103032553Y-93528533D01*
X103053474Y-93535644D02*
X103043027Y-93531950D01*
X103307863Y-93771718D02*
X103303054Y-93761488D01*
X103342531Y-93886568D02*
X103340727Y-93876138D01*
X103063883Y-93539617D02*
X103053474Y-93535644D01*
X103292606Y-93741282D02*
X103286970Y-93731329D01*
X103240156Y-93665457D02*
X103232476Y-93656714D01*
X103074243Y-93543868D02*
X103063883Y-93539617D01*
X76179377Y-56946088D02*
X76165051Y-56940081D01*
X76447637Y-57381314D02*
X76448173Y-57365789D01*
X76446565Y-57396811D02*
X76447637Y-57381314D01*
X76433240Y-57473239D02*
X76436958Y-57458156D01*
X76193488Y-56952585D02*
X76179377Y-56946088D01*
X76207365Y-56959566D02*
X76193488Y-56952585D01*
X76440152Y-57442953D02*
X76442821Y-57427650D01*
X76220994Y-56967022D02*
X76207365Y-56959566D01*
X76350064Y-57077451D02*
X76340170Y-57065474D01*
X76272696Y-57001407D02*
X76260223Y-56992146D01*
X76448173Y-57350254D02*
X76447637Y-57334729D01*
X76308094Y-57031692D02*
X76296645Y-57021191D01*
X76406986Y-57169801D02*
X76400246Y-57155805D01*
X76418997Y-57198449D02*
X76413239Y-57184021D01*
X76440152Y-57273089D02*
X76436958Y-57257887D01*
X76413239Y-57532021D02*
X76418997Y-57517594D01*
X76359539Y-57089762D02*
X76350064Y-57077451D01*
X76368583Y-57102392D02*
X76359539Y-57089762D01*
X76393026Y-57142049D02*
X76385337Y-57128552D01*
X76447637Y-57334729D02*
X76446565Y-57319231D01*
X76329869Y-57053847D02*
X76319173Y-57042581D01*
X76260223Y-56992146D02*
X76247439Y-56983321D01*
X76234357Y-56974943D02*
X76220994Y-56967022D01*
X76284841Y-57011092D02*
X76272696Y-57001407D01*
X76319173Y-57042581D02*
X76308094Y-57031692D01*
X76400246Y-57155805D02*
X76393026Y-57142049D01*
X76385337Y-57128552D02*
X76377185Y-57115327D01*
X76329869Y-57662196D02*
X76340170Y-57650568D01*
X76247439Y-56983321D02*
X76234357Y-56974943D01*
X76385337Y-57587491D02*
X76393026Y-57573993D01*
X76340170Y-57065474D02*
X76329869Y-57053847D01*
X76377185Y-57115327D02*
X76368583Y-57102392D01*
X76340170Y-57650568D02*
X76350064Y-57638592D01*
X76413239Y-57184021D02*
X76406986Y-57169801D01*
X76424254Y-57213067D02*
X76418997Y-57198449D01*
X76424254Y-57502976D02*
X76429004Y-57488185D01*
X76433240Y-57242804D02*
X76429004Y-57227858D01*
X76436958Y-57257887D02*
X76433240Y-57242804D01*
X76442821Y-57288393D02*
X76440152Y-57273089D01*
X76444959Y-57303780D02*
X76442821Y-57288393D01*
X76448173Y-57365789D02*
X76448173Y-57350254D01*
X76368583Y-57613650D02*
X76377185Y-57600715D01*
X76429004Y-57488185D02*
X76433240Y-57473239D01*
X76400246Y-57560238D02*
X76406986Y-57546242D01*
X76444959Y-57412263D02*
X76446565Y-57396811D01*
X76418997Y-57517594D02*
X76424254Y-57502976D01*
X76406986Y-57546242D02*
X76413239Y-57532021D01*
X76446565Y-57319231D02*
X76444959Y-57303780D01*
X76442821Y-57427650D02*
X76444959Y-57412263D01*
X76319173Y-57673461D02*
X76329869Y-57662196D01*
X76393026Y-57573993D02*
X76400246Y-57560238D01*
X76377185Y-57600715D02*
X76385337Y-57587491D01*
X76359539Y-57626281D02*
X76368583Y-57613650D01*
X76350064Y-57638592D02*
X76359539Y-57626281D01*
X76075532Y-56914709D02*
X76060184Y-56912305D01*
X76090787Y-56917641D02*
X76075532Y-56914709D01*
X76105932Y-56921097D02*
X76090787Y-56917641D01*
X76120949Y-56925075D02*
X76105932Y-56921097D01*
X76150526Y-56934572D02*
X76135819Y-56929568D01*
X76296645Y-57021191D02*
X76284841Y-57011092D01*
X76135819Y-56929568D02*
X76120949Y-56925075D01*
X76436958Y-57458156D02*
X76440152Y-57442953D01*
X76165051Y-56940081D02*
X76150526Y-56934572D01*
X76429004Y-57227858D02*
X76424254Y-57213067D01*
X232556814Y-93686115D02*
X232547322Y-93674032D01*
X232565888Y-93698515D02*
X232556814Y-93686115D01*
X232574534Y-93711218D02*
X232565888Y-93698515D01*
X232590499Y-93737472D02*
X232582740Y-93724209D01*
X232622269Y-93807325D02*
X232616877Y-93792937D01*
X232516450Y-93639823D02*
X232505401Y-93629145D01*
X232527128Y-93650872D02*
X232516450Y-93639823D01*
X232604635Y-93764754D02*
X232597800Y-93750992D01*
X232537423Y-93662280D02*
X232527128Y-93650872D01*
X232582740Y-93724209D02*
X232574534Y-93711218D01*
X232641708Y-93881562D02*
X232638840Y-93866466D01*
X232597800Y-93750992D02*
X232590499Y-93737472D01*
X232638840Y-93866466D02*
X232635457Y-93851477D01*
X232644060Y-93896746D02*
X232641708Y-93881562D01*
X232610997Y-93778741D02*
X232604635Y-93764754D01*
X232547322Y-93674032D02*
X232537423Y-93662280D01*
X232647203Y-93927312D02*
X232645892Y-93912002D01*
X232616877Y-93792937D02*
X232610997Y-93778741D01*
X232627167Y-93821890D02*
X232622269Y-93807325D01*
X232631564Y-93836613D02*
X232627167Y-93821890D01*
X232635457Y-93851477D02*
X232631564Y-93836613D01*
X232648252Y-93958021D02*
X232647989Y-93942658D01*
X232647989Y-93942658D02*
X232647203Y-93927312D01*
X232645892Y-93912002D02*
X232644060Y-93896746D01*
X218962120Y-93529106D02*
X218947556Y-93534004D01*
X232228961Y-93509070D02*
X232213615Y-93508284D01*
X232244271Y-93510381D02*
X232228961Y-93509070D01*
X232319660Y-93524709D02*
X232304796Y-93520816D01*
X218679626Y-93792937D02*
X218674234Y-93807325D01*
X218706004Y-93737472D02*
X218698703Y-93750992D01*
X232289807Y-93517433D02*
X232274711Y-93514565D01*
X218721970Y-93711218D02*
X218713763Y-93724209D01*
X218838746Y-93590385D02*
X218826345Y-93599459D01*
X218759081Y-93662280D02*
X218749182Y-93674032D01*
X232198252Y-93508021D02*
X219098252Y-93508021D01*
X218791103Y-93629145D02*
X218780054Y-93639823D01*
X218851448Y-93581739D02*
X218838746Y-93590385D01*
X218933167Y-93539396D02*
X218918971Y-93545276D01*
X219036977Y-93512213D02*
X219021792Y-93514565D01*
X232377532Y-93545276D02*
X232363336Y-93539396D01*
X218991708Y-93520816D02*
X218976843Y-93524709D01*
X218864439Y-93573533D02*
X218851448Y-93581739D01*
X218904984Y-93551638D02*
X218891222Y-93558473D01*
X219098252Y-93508021D02*
X219082888Y-93508284D01*
X218814262Y-93608951D02*
X218802510Y-93618850D01*
X218749182Y-93674032D02*
X218739689Y-93686115D01*
X218713763Y-93724209D02*
X218706004Y-93737472D01*
X218769376Y-93650872D02*
X218759081Y-93662280D01*
X218802510Y-93618850D02*
X218791103Y-93629145D01*
X218918971Y-93545276D02*
X218904984Y-93551638D01*
X218891222Y-93558473D02*
X218877702Y-93565774D01*
X232505401Y-93629145D02*
X232493993Y-93618850D01*
X218691868Y-93764754D02*
X218685507Y-93778741D01*
X232432064Y-93573533D02*
X232418801Y-93565774D01*
X218698703Y-93750992D02*
X218691868Y-93764754D01*
X218730615Y-93698515D02*
X218721970Y-93711218D01*
X232493993Y-93618850D02*
X232482241Y-93608951D01*
X218739689Y-93686115D02*
X218730615Y-93698515D01*
X218826345Y-93599459D02*
X218814262Y-93608951D01*
X232348948Y-93534004D02*
X232334383Y-93529106D01*
X218877702Y-93565774D02*
X218864439Y-93573533D01*
X218947556Y-93534004D02*
X218933167Y-93539396D01*
X219021792Y-93514565D02*
X219006696Y-93517433D01*
X219052233Y-93510381D02*
X219036977Y-93512213D01*
X232213615Y-93508284D02*
X232198252Y-93508021D01*
X232457758Y-93590385D02*
X232445055Y-93581739D01*
X232334383Y-93529106D02*
X232319660Y-93524709D01*
X232405281Y-93558473D02*
X232391519Y-93551638D01*
X232259527Y-93512213D02*
X232244271Y-93510381D01*
X232363336Y-93539396D02*
X232348948Y-93534004D01*
X232391519Y-93551638D02*
X232377532Y-93545276D01*
X219067543Y-93509070D02*
X219052233Y-93510381D01*
X219082888Y-93508284D02*
X219067543Y-93509070D01*
X232274711Y-93514565D02*
X232259527Y-93512213D01*
X232418801Y-93565774D02*
X232405281Y-93558473D01*
X232445055Y-93581739D02*
X232432064Y-93573533D01*
X232470158Y-93599459D02*
X232457758Y-93590385D01*
X232482241Y-93608951D02*
X232470158Y-93599459D01*
X218657664Y-93866466D02*
X218654795Y-93881562D01*
X218661047Y-93851477D02*
X218657664Y-93866466D01*
X218664939Y-93836613D02*
X218661047Y-93851477D01*
X218669337Y-93821890D02*
X218664939Y-93836613D01*
X218685507Y-93778741D02*
X218679626Y-93792937D01*
X218780054Y-93639823D02*
X218769376Y-93650872D01*
X218976843Y-93524709D02*
X218962120Y-93529106D01*
X232304796Y-93520816D02*
X232289807Y-93517433D01*
X218674234Y-93807325D02*
X218669337Y-93821890D01*
X219006696Y-93517433D02*
X218991708Y-93520816D01*
D11*
X206800000Y-92400000D02*
X206800000Y-85100000D01*
X219300000Y-92400000D02*
X206800000Y-92400000D01*
X219300000Y-85100000D02*
X219300000Y-92400000D01*
X206800000Y-85100000D02*
X219300000Y-85100000D01*
X170000000Y-92200000D02*
X170000000Y-82200000D01*
X155500000Y-92200000D02*
X170000000Y-92200000D01*
X155500000Y-82200000D02*
X155500000Y-92200000D01*
X170000000Y-82200000D02*
X155500000Y-82200000D01*
M02*
