G04 #@! TF.GenerationSoftware,KiCad,Pcbnew,(5.1.7)-1*
G04 #@! TF.CreationDate,2020-11-21T17:16:51+01:00*
G04 #@! TF.ProjectId,nixie_clock,6e697869-655f-4636-9c6f-636b2e6b6963,100A*
G04 #@! TF.SameCoordinates,Original*
G04 #@! TF.FileFunction,Legend,Top*
G04 #@! TF.FilePolarity,Positive*
%FSLAX46Y46*%
G04 Gerber Fmt 4.6, Leading zero omitted, Abs format (unit mm)*
G04 Created by KiCad (PCBNEW (5.1.7)-1) date 2020-11-21 17:16:51*
%MOMM*%
%LPD*%
G01*
G04 APERTURE LIST*
%ADD10C,0.150000*%
%ADD11C,0.120000*%
%ADD12C,0.127000*%
%ADD13C,0.088900*%
G04 APERTURE END LIST*
D10*
X116990000Y-56990000D02*
X116990000Y-62990000D01*
X113990000Y-59990000D02*
X119990000Y-59990000D01*
X118990000Y-59990000D02*
G75*
G03*
X118990000Y-59990000I-2000000J0D01*
G01*
X105990000Y-70990000D02*
X105990000Y-48990000D01*
X127990000Y-48990000D02*
X127990000Y-70990000D01*
X127990000Y-48990000D02*
G75*
G03*
X105990000Y-48990000I-11000000J-11000000D01*
G01*
X105990000Y-70990000D02*
G75*
G03*
X127990000Y-70990000I11000000J11000000D01*
G01*
D11*
X231950000Y-28820000D02*
X231950000Y-37450000D01*
X231831905Y-28820000D02*
X231831905Y-37450000D01*
X231713810Y-28820000D02*
X231713810Y-37450000D01*
X231595715Y-28820000D02*
X231595715Y-37450000D01*
X231477620Y-28820000D02*
X231477620Y-37450000D01*
X231359525Y-28820000D02*
X231359525Y-37450000D01*
X231241430Y-28820000D02*
X231241430Y-37450000D01*
X231123335Y-28820000D02*
X231123335Y-37450000D01*
X231005240Y-28820000D02*
X231005240Y-37450000D01*
X230887145Y-28820000D02*
X230887145Y-37450000D01*
X230769050Y-28820000D02*
X230769050Y-37450000D01*
X230650955Y-28820000D02*
X230650955Y-37450000D01*
X230532860Y-28820000D02*
X230532860Y-37450000D01*
X230414765Y-28820000D02*
X230414765Y-37450000D01*
X230296670Y-28820000D02*
X230296670Y-37450000D01*
X230178575Y-28820000D02*
X230178575Y-37450000D01*
X230060480Y-28820000D02*
X230060480Y-37450000D01*
X229942385Y-28820000D02*
X229942385Y-37450000D01*
X229824290Y-28820000D02*
X229824290Y-37450000D01*
X229706195Y-28820000D02*
X229706195Y-37450000D01*
X229588100Y-28820000D02*
X229588100Y-37450000D01*
X231100000Y-37450000D02*
X231100000Y-37860000D01*
X231100000Y-39960000D02*
X231100000Y-40340000D01*
X230380000Y-37450000D02*
X230380000Y-37860000D01*
X230380000Y-39960000D02*
X230380000Y-40340000D01*
X228560000Y-37450000D02*
X228560000Y-37860000D01*
X228560000Y-39960000D02*
X228560000Y-40400000D01*
X227840000Y-37450000D02*
X227840000Y-37860000D01*
X227840000Y-39960000D02*
X227840000Y-40400000D01*
X226020000Y-37450000D02*
X226020000Y-37860000D01*
X226020000Y-39960000D02*
X226020000Y-40400000D01*
X225300000Y-37450000D02*
X225300000Y-37860000D01*
X225300000Y-39960000D02*
X225300000Y-40400000D01*
X223480000Y-37450000D02*
X223480000Y-37860000D01*
X223480000Y-39960000D02*
X223480000Y-40400000D01*
X222760000Y-37450000D02*
X222760000Y-37860000D01*
X222760000Y-39960000D02*
X222760000Y-40400000D01*
X220940000Y-37450000D02*
X220940000Y-37860000D01*
X220940000Y-39960000D02*
X220940000Y-40400000D01*
X220220000Y-37450000D02*
X220220000Y-37860000D01*
X220220000Y-39960000D02*
X220220000Y-40400000D01*
X229470000Y-28820000D02*
X229470000Y-37450000D01*
X226930000Y-28820000D02*
X226930000Y-37450000D01*
X224390000Y-28820000D02*
X224390000Y-37450000D01*
X221850000Y-28820000D02*
X221850000Y-37450000D01*
X232070000Y-28820000D02*
X232070000Y-37450000D01*
X232070000Y-37450000D02*
X219250000Y-37450000D01*
X219250000Y-28820000D02*
X219250000Y-37450000D01*
X232070000Y-28820000D02*
X219250000Y-28820000D01*
X232070000Y-42560000D02*
X230740000Y-42560000D01*
X232070000Y-41450000D02*
X232070000Y-42560000D01*
D10*
X92990000Y-56990000D02*
X92990000Y-62990000D01*
X89990000Y-59990000D02*
X95990000Y-59990000D01*
X94990000Y-59990000D02*
G75*
G03*
X94990000Y-59990000I-2000000J0D01*
G01*
X81990000Y-70990000D02*
X81990000Y-48990000D01*
X103990000Y-48990000D02*
X103990000Y-70990000D01*
X103990000Y-48990000D02*
G75*
G03*
X81990000Y-48990000I-11000000J-11000000D01*
G01*
X81990000Y-70990000D02*
G75*
G03*
X103990000Y-70990000I11000000J11000000D01*
G01*
D11*
X102650000Y-28810000D02*
X102650000Y-37440000D01*
X102531905Y-28810000D02*
X102531905Y-37440000D01*
X102413810Y-28810000D02*
X102413810Y-37440000D01*
X102295715Y-28810000D02*
X102295715Y-37440000D01*
X102177620Y-28810000D02*
X102177620Y-37440000D01*
X102059525Y-28810000D02*
X102059525Y-37440000D01*
X101941430Y-28810000D02*
X101941430Y-37440000D01*
X101823335Y-28810000D02*
X101823335Y-37440000D01*
X101705240Y-28810000D02*
X101705240Y-37440000D01*
X101587145Y-28810000D02*
X101587145Y-37440000D01*
X101469050Y-28810000D02*
X101469050Y-37440000D01*
X101350955Y-28810000D02*
X101350955Y-37440000D01*
X101232860Y-28810000D02*
X101232860Y-37440000D01*
X101114765Y-28810000D02*
X101114765Y-37440000D01*
X100996670Y-28810000D02*
X100996670Y-37440000D01*
X100878575Y-28810000D02*
X100878575Y-37440000D01*
X100760480Y-28810000D02*
X100760480Y-37440000D01*
X100642385Y-28810000D02*
X100642385Y-37440000D01*
X100524290Y-28810000D02*
X100524290Y-37440000D01*
X100406195Y-28810000D02*
X100406195Y-37440000D01*
X100288100Y-28810000D02*
X100288100Y-37440000D01*
X101800000Y-37440000D02*
X101800000Y-37850000D01*
X101800000Y-39950000D02*
X101800000Y-40330000D01*
X101080000Y-37440000D02*
X101080000Y-37850000D01*
X101080000Y-39950000D02*
X101080000Y-40330000D01*
X99260000Y-37440000D02*
X99260000Y-37850000D01*
X99260000Y-39950000D02*
X99260000Y-40390000D01*
X98540000Y-37440000D02*
X98540000Y-37850000D01*
X98540000Y-39950000D02*
X98540000Y-40390000D01*
X96720000Y-37440000D02*
X96720000Y-37850000D01*
X96720000Y-39950000D02*
X96720000Y-40390000D01*
X96000000Y-37440000D02*
X96000000Y-37850000D01*
X96000000Y-39950000D02*
X96000000Y-40390000D01*
X94180000Y-37440000D02*
X94180000Y-37850000D01*
X94180000Y-39950000D02*
X94180000Y-40390000D01*
X93460000Y-37440000D02*
X93460000Y-37850000D01*
X93460000Y-39950000D02*
X93460000Y-40390000D01*
X91640000Y-37440000D02*
X91640000Y-37850000D01*
X91640000Y-39950000D02*
X91640000Y-40390000D01*
X90920000Y-37440000D02*
X90920000Y-37850000D01*
X90920000Y-39950000D02*
X90920000Y-40390000D01*
X100170000Y-28810000D02*
X100170000Y-37440000D01*
X97630000Y-28810000D02*
X97630000Y-37440000D01*
X95090000Y-28810000D02*
X95090000Y-37440000D01*
X92550000Y-28810000D02*
X92550000Y-37440000D01*
X102770000Y-28810000D02*
X102770000Y-37440000D01*
X102770000Y-37440000D02*
X89950000Y-37440000D01*
X89950000Y-28810000D02*
X89950000Y-37440000D01*
X102770000Y-28810000D02*
X89950000Y-28810000D01*
X102770000Y-42550000D02*
X101440000Y-42550000D01*
X102770000Y-41440000D02*
X102770000Y-42550000D01*
X175780000Y-87230000D02*
G75*
G03*
X175780000Y-87230000I-4120000J0D01*
G01*
X175740000Y-87230000D02*
X167580000Y-87230000D01*
X175740000Y-87270000D02*
X167580000Y-87270000D01*
X175740000Y-87310000D02*
X167580000Y-87310000D01*
X175739000Y-87350000D02*
X167581000Y-87350000D01*
X175737000Y-87390000D02*
X167583000Y-87390000D01*
X175736000Y-87430000D02*
X167584000Y-87430000D01*
X175734000Y-87470000D02*
X167586000Y-87470000D01*
X175731000Y-87510000D02*
X167589000Y-87510000D01*
X175728000Y-87550000D02*
X167592000Y-87550000D01*
X175725000Y-87590000D02*
X167595000Y-87590000D01*
X175721000Y-87630000D02*
X167599000Y-87630000D01*
X175717000Y-87670000D02*
X167603000Y-87670000D01*
X175712000Y-87710000D02*
X167608000Y-87710000D01*
X175708000Y-87750000D02*
X167612000Y-87750000D01*
X175702000Y-87790000D02*
X167618000Y-87790000D01*
X175697000Y-87830000D02*
X167623000Y-87830000D01*
X175690000Y-87870000D02*
X167630000Y-87870000D01*
X175684000Y-87910000D02*
X167636000Y-87910000D01*
X175677000Y-87951000D02*
X172700000Y-87951000D01*
X170620000Y-87951000D02*
X167643000Y-87951000D01*
X175670000Y-87991000D02*
X172700000Y-87991000D01*
X170620000Y-87991000D02*
X167650000Y-87991000D01*
X175662000Y-88031000D02*
X172700000Y-88031000D01*
X170620000Y-88031000D02*
X167658000Y-88031000D01*
X175654000Y-88071000D02*
X172700000Y-88071000D01*
X170620000Y-88071000D02*
X167666000Y-88071000D01*
X175645000Y-88111000D02*
X172700000Y-88111000D01*
X170620000Y-88111000D02*
X167675000Y-88111000D01*
X175636000Y-88151000D02*
X172700000Y-88151000D01*
X170620000Y-88151000D02*
X167684000Y-88151000D01*
X175627000Y-88191000D02*
X172700000Y-88191000D01*
X170620000Y-88191000D02*
X167693000Y-88191000D01*
X175617000Y-88231000D02*
X172700000Y-88231000D01*
X170620000Y-88231000D02*
X167703000Y-88231000D01*
X175607000Y-88271000D02*
X172700000Y-88271000D01*
X170620000Y-88271000D02*
X167713000Y-88271000D01*
X175596000Y-88311000D02*
X172700000Y-88311000D01*
X170620000Y-88311000D02*
X167724000Y-88311000D01*
X175585000Y-88351000D02*
X172700000Y-88351000D01*
X170620000Y-88351000D02*
X167735000Y-88351000D01*
X175574000Y-88391000D02*
X172700000Y-88391000D01*
X170620000Y-88391000D02*
X167746000Y-88391000D01*
X175562000Y-88431000D02*
X172700000Y-88431000D01*
X170620000Y-88431000D02*
X167758000Y-88431000D01*
X175549000Y-88471000D02*
X172700000Y-88471000D01*
X170620000Y-88471000D02*
X167771000Y-88471000D01*
X175537000Y-88511000D02*
X172700000Y-88511000D01*
X170620000Y-88511000D02*
X167783000Y-88511000D01*
X175523000Y-88551000D02*
X172700000Y-88551000D01*
X170620000Y-88551000D02*
X167797000Y-88551000D01*
X175510000Y-88591000D02*
X172700000Y-88591000D01*
X170620000Y-88591000D02*
X167810000Y-88591000D01*
X175495000Y-88631000D02*
X172700000Y-88631000D01*
X170620000Y-88631000D02*
X167825000Y-88631000D01*
X175481000Y-88671000D02*
X172700000Y-88671000D01*
X170620000Y-88671000D02*
X167839000Y-88671000D01*
X175465000Y-88711000D02*
X172700000Y-88711000D01*
X170620000Y-88711000D02*
X167855000Y-88711000D01*
X175450000Y-88751000D02*
X172700000Y-88751000D01*
X170620000Y-88751000D02*
X167870000Y-88751000D01*
X175434000Y-88791000D02*
X172700000Y-88791000D01*
X170620000Y-88791000D02*
X167886000Y-88791000D01*
X175417000Y-88831000D02*
X172700000Y-88831000D01*
X170620000Y-88831000D02*
X167903000Y-88831000D01*
X175400000Y-88871000D02*
X172700000Y-88871000D01*
X170620000Y-88871000D02*
X167920000Y-88871000D01*
X175382000Y-88911000D02*
X172700000Y-88911000D01*
X170620000Y-88911000D02*
X167938000Y-88911000D01*
X175364000Y-88951000D02*
X172700000Y-88951000D01*
X170620000Y-88951000D02*
X167956000Y-88951000D01*
X175346000Y-88991000D02*
X172700000Y-88991000D01*
X170620000Y-88991000D02*
X167974000Y-88991000D01*
X175326000Y-89031000D02*
X172700000Y-89031000D01*
X170620000Y-89031000D02*
X167994000Y-89031000D01*
X175307000Y-89071000D02*
X172700000Y-89071000D01*
X170620000Y-89071000D02*
X168013000Y-89071000D01*
X175287000Y-89111000D02*
X172700000Y-89111000D01*
X170620000Y-89111000D02*
X168033000Y-89111000D01*
X175266000Y-89151000D02*
X172700000Y-89151000D01*
X170620000Y-89151000D02*
X168054000Y-89151000D01*
X175244000Y-89191000D02*
X172700000Y-89191000D01*
X170620000Y-89191000D02*
X168076000Y-89191000D01*
X175222000Y-89231000D02*
X172700000Y-89231000D01*
X170620000Y-89231000D02*
X168098000Y-89231000D01*
X175200000Y-89271000D02*
X172700000Y-89271000D01*
X170620000Y-89271000D02*
X168120000Y-89271000D01*
X175177000Y-89311000D02*
X172700000Y-89311000D01*
X170620000Y-89311000D02*
X168143000Y-89311000D01*
X175153000Y-89351000D02*
X172700000Y-89351000D01*
X170620000Y-89351000D02*
X168167000Y-89351000D01*
X175129000Y-89391000D02*
X172700000Y-89391000D01*
X170620000Y-89391000D02*
X168191000Y-89391000D01*
X175104000Y-89431000D02*
X172700000Y-89431000D01*
X170620000Y-89431000D02*
X168216000Y-89431000D01*
X175078000Y-89471000D02*
X172700000Y-89471000D01*
X170620000Y-89471000D02*
X168242000Y-89471000D01*
X175052000Y-89511000D02*
X172700000Y-89511000D01*
X170620000Y-89511000D02*
X168268000Y-89511000D01*
X175025000Y-89551000D02*
X172700000Y-89551000D01*
X170620000Y-89551000D02*
X168295000Y-89551000D01*
X174998000Y-89591000D02*
X172700000Y-89591000D01*
X170620000Y-89591000D02*
X168322000Y-89591000D01*
X174969000Y-89631000D02*
X172700000Y-89631000D01*
X170620000Y-89631000D02*
X168351000Y-89631000D01*
X174940000Y-89671000D02*
X172700000Y-89671000D01*
X170620000Y-89671000D02*
X168380000Y-89671000D01*
X174910000Y-89711000D02*
X172700000Y-89711000D01*
X170620000Y-89711000D02*
X168410000Y-89711000D01*
X174880000Y-89751000D02*
X172700000Y-89751000D01*
X170620000Y-89751000D02*
X168440000Y-89751000D01*
X174849000Y-89791000D02*
X172700000Y-89791000D01*
X170620000Y-89791000D02*
X168471000Y-89791000D01*
X174816000Y-89831000D02*
X172700000Y-89831000D01*
X170620000Y-89831000D02*
X168504000Y-89831000D01*
X174784000Y-89871000D02*
X172700000Y-89871000D01*
X170620000Y-89871000D02*
X168536000Y-89871000D01*
X174750000Y-89911000D02*
X172700000Y-89911000D01*
X170620000Y-89911000D02*
X168570000Y-89911000D01*
X174715000Y-89951000D02*
X172700000Y-89951000D01*
X170620000Y-89951000D02*
X168605000Y-89951000D01*
X174679000Y-89991000D02*
X172700000Y-89991000D01*
X170620000Y-89991000D02*
X168641000Y-89991000D01*
X174643000Y-90031000D02*
X168677000Y-90031000D01*
X174605000Y-90071000D02*
X168715000Y-90071000D01*
X174567000Y-90111000D02*
X168753000Y-90111000D01*
X174527000Y-90151000D02*
X168793000Y-90151000D01*
X174486000Y-90191000D02*
X168834000Y-90191000D01*
X174444000Y-90231000D02*
X168876000Y-90231000D01*
X174401000Y-90271000D02*
X168919000Y-90271000D01*
X174357000Y-90311000D02*
X168963000Y-90311000D01*
X174311000Y-90351000D02*
X169009000Y-90351000D01*
X174264000Y-90391000D02*
X169056000Y-90391000D01*
X174216000Y-90431000D02*
X169104000Y-90431000D01*
X174165000Y-90471000D02*
X169155000Y-90471000D01*
X174114000Y-90511000D02*
X169206000Y-90511000D01*
X174060000Y-90551000D02*
X169260000Y-90551000D01*
X174005000Y-90591000D02*
X169315000Y-90591000D01*
X173947000Y-90631000D02*
X169373000Y-90631000D01*
X173888000Y-90671000D02*
X169432000Y-90671000D01*
X173826000Y-90711000D02*
X169494000Y-90711000D01*
X173762000Y-90751000D02*
X169558000Y-90751000D01*
X173694000Y-90791000D02*
X169626000Y-90791000D01*
X173624000Y-90831000D02*
X169696000Y-90831000D01*
X173550000Y-90871000D02*
X169770000Y-90871000D01*
X173473000Y-90911000D02*
X169847000Y-90911000D01*
X173391000Y-90951000D02*
X169929000Y-90951000D01*
X173305000Y-90991000D02*
X170015000Y-90991000D01*
X173212000Y-91031000D02*
X170108000Y-91031000D01*
X173113000Y-91071000D02*
X170207000Y-91071000D01*
X173006000Y-91111000D02*
X170314000Y-91111000D01*
X172889000Y-91151000D02*
X170431000Y-91151000D01*
X172758000Y-91191000D02*
X170562000Y-91191000D01*
X172608000Y-91231000D02*
X170712000Y-91231000D01*
X172428000Y-91271000D02*
X170892000Y-91271000D01*
X172193000Y-91311000D02*
X171127000Y-91311000D01*
X173975000Y-82820302D02*
X173975000Y-83620302D01*
X174375000Y-83220302D02*
X173575000Y-83220302D01*
X90070000Y-91170000D02*
X90070000Y-82540000D01*
X90188095Y-91170000D02*
X90188095Y-82540000D01*
X90306190Y-91170000D02*
X90306190Y-82540000D01*
X90424285Y-91170000D02*
X90424285Y-82540000D01*
X90542380Y-91170000D02*
X90542380Y-82540000D01*
X90660475Y-91170000D02*
X90660475Y-82540000D01*
X90778570Y-91170000D02*
X90778570Y-82540000D01*
X90896665Y-91170000D02*
X90896665Y-82540000D01*
X91014760Y-91170000D02*
X91014760Y-82540000D01*
X91132855Y-91170000D02*
X91132855Y-82540000D01*
X91250950Y-91170000D02*
X91250950Y-82540000D01*
X91369045Y-91170000D02*
X91369045Y-82540000D01*
X91487140Y-91170000D02*
X91487140Y-82540000D01*
X91605235Y-91170000D02*
X91605235Y-82540000D01*
X91723330Y-91170000D02*
X91723330Y-82540000D01*
X91841425Y-91170000D02*
X91841425Y-82540000D01*
X91959520Y-91170000D02*
X91959520Y-82540000D01*
X92077615Y-91170000D02*
X92077615Y-82540000D01*
X92195710Y-91170000D02*
X92195710Y-82540000D01*
X92313805Y-91170000D02*
X92313805Y-82540000D01*
X92431900Y-91170000D02*
X92431900Y-82540000D01*
X90920000Y-82540000D02*
X90920000Y-82130000D01*
X90920000Y-80030000D02*
X90920000Y-79650000D01*
X91640000Y-82540000D02*
X91640000Y-82130000D01*
X91640000Y-80030000D02*
X91640000Y-79650000D01*
X93460000Y-82540000D02*
X93460000Y-82130000D01*
X93460000Y-80030000D02*
X93460000Y-79590000D01*
X94180000Y-82540000D02*
X94180000Y-82130000D01*
X94180000Y-80030000D02*
X94180000Y-79590000D01*
X96000000Y-82540000D02*
X96000000Y-82130000D01*
X96000000Y-80030000D02*
X96000000Y-79590000D01*
X96720000Y-82540000D02*
X96720000Y-82130000D01*
X96720000Y-80030000D02*
X96720000Y-79590000D01*
X98540000Y-82540000D02*
X98540000Y-82130000D01*
X98540000Y-80030000D02*
X98540000Y-79590000D01*
X99260000Y-82540000D02*
X99260000Y-82130000D01*
X99260000Y-80030000D02*
X99260000Y-79590000D01*
X101080000Y-82540000D02*
X101080000Y-82130000D01*
X101080000Y-80030000D02*
X101080000Y-79590000D01*
X101800000Y-82540000D02*
X101800000Y-82130000D01*
X101800000Y-80030000D02*
X101800000Y-79590000D01*
X92550000Y-91170000D02*
X92550000Y-82540000D01*
X95090000Y-91170000D02*
X95090000Y-82540000D01*
X97630000Y-91170000D02*
X97630000Y-82540000D01*
X100170000Y-91170000D02*
X100170000Y-82540000D01*
X89950000Y-91170000D02*
X89950000Y-82540000D01*
X89950000Y-82540000D02*
X102770000Y-82540000D01*
X102770000Y-91170000D02*
X102770000Y-82540000D01*
X89950000Y-91170000D02*
X102770000Y-91170000D01*
X89950000Y-77430000D02*
X91280000Y-77430000D01*
X89950000Y-78540000D02*
X89950000Y-77430000D01*
X219360000Y-91180000D02*
X219360000Y-82550000D01*
X219478095Y-91180000D02*
X219478095Y-82550000D01*
X219596190Y-91180000D02*
X219596190Y-82550000D01*
X219714285Y-91180000D02*
X219714285Y-82550000D01*
X219832380Y-91180000D02*
X219832380Y-82550000D01*
X219950475Y-91180000D02*
X219950475Y-82550000D01*
X220068570Y-91180000D02*
X220068570Y-82550000D01*
X220186665Y-91180000D02*
X220186665Y-82550000D01*
X220304760Y-91180000D02*
X220304760Y-82550000D01*
X220422855Y-91180000D02*
X220422855Y-82550000D01*
X220540950Y-91180000D02*
X220540950Y-82550000D01*
X220659045Y-91180000D02*
X220659045Y-82550000D01*
X220777140Y-91180000D02*
X220777140Y-82550000D01*
X220895235Y-91180000D02*
X220895235Y-82550000D01*
X221013330Y-91180000D02*
X221013330Y-82550000D01*
X221131425Y-91180000D02*
X221131425Y-82550000D01*
X221249520Y-91180000D02*
X221249520Y-82550000D01*
X221367615Y-91180000D02*
X221367615Y-82550000D01*
X221485710Y-91180000D02*
X221485710Y-82550000D01*
X221603805Y-91180000D02*
X221603805Y-82550000D01*
X221721900Y-91180000D02*
X221721900Y-82550000D01*
X220210000Y-82550000D02*
X220210000Y-82140000D01*
X220210000Y-80040000D02*
X220210000Y-79660000D01*
X220930000Y-82550000D02*
X220930000Y-82140000D01*
X220930000Y-80040000D02*
X220930000Y-79660000D01*
X222750000Y-82550000D02*
X222750000Y-82140000D01*
X222750000Y-80040000D02*
X222750000Y-79600000D01*
X223470000Y-82550000D02*
X223470000Y-82140000D01*
X223470000Y-80040000D02*
X223470000Y-79600000D01*
X225290000Y-82550000D02*
X225290000Y-82140000D01*
X225290000Y-80040000D02*
X225290000Y-79600000D01*
X226010000Y-82550000D02*
X226010000Y-82140000D01*
X226010000Y-80040000D02*
X226010000Y-79600000D01*
X227830000Y-82550000D02*
X227830000Y-82140000D01*
X227830000Y-80040000D02*
X227830000Y-79600000D01*
X228550000Y-82550000D02*
X228550000Y-82140000D01*
X228550000Y-80040000D02*
X228550000Y-79600000D01*
X230370000Y-82550000D02*
X230370000Y-82140000D01*
X230370000Y-80040000D02*
X230370000Y-79600000D01*
X231090000Y-82550000D02*
X231090000Y-82140000D01*
X231090000Y-80040000D02*
X231090000Y-79600000D01*
X221840000Y-91180000D02*
X221840000Y-82550000D01*
X224380000Y-91180000D02*
X224380000Y-82550000D01*
X226920000Y-91180000D02*
X226920000Y-82550000D01*
X229460000Y-91180000D02*
X229460000Y-82550000D01*
X219240000Y-91180000D02*
X219240000Y-82550000D01*
X219240000Y-82550000D02*
X232060000Y-82550000D01*
X232060000Y-91180000D02*
X232060000Y-82550000D01*
X219240000Y-91180000D02*
X232060000Y-91180000D01*
X219240000Y-77440000D02*
X220570000Y-77440000D01*
X219240000Y-78550000D02*
X219240000Y-77440000D01*
D10*
X204990000Y-56990000D02*
X204990000Y-62990000D01*
X201990000Y-59990000D02*
X207990000Y-59990000D01*
X206990000Y-59990000D02*
G75*
G03*
X206990000Y-59990000I-2000000J0D01*
G01*
X193990000Y-70990000D02*
X193990000Y-48990000D01*
X215990000Y-48990000D02*
X215990000Y-70990000D01*
X215990000Y-48990000D02*
G75*
G03*
X193990000Y-48990000I-11000000J-11000000D01*
G01*
X193990000Y-70990000D02*
G75*
G03*
X215990000Y-70990000I11000000J11000000D01*
G01*
X148990000Y-56990000D02*
X148990000Y-62990000D01*
X145990000Y-59990000D02*
X151990000Y-59990000D01*
X150990000Y-59990000D02*
G75*
G03*
X150990000Y-59990000I-2000000J0D01*
G01*
X137990000Y-70990000D02*
X137990000Y-48990000D01*
X159990000Y-48990000D02*
X159990000Y-70990000D01*
X159990000Y-48990000D02*
G75*
G03*
X137990000Y-48990000I-11000000J-11000000D01*
G01*
X137990000Y-70990000D02*
G75*
G03*
X159990000Y-70990000I11000000J11000000D01*
G01*
D12*
X190796828Y-53990000D02*
G75*
G03*
X190796828Y-53990000I-1806828J0D01*
G01*
X190796828Y-65990000D02*
G75*
G03*
X190796828Y-65990000I-1806828J0D01*
G01*
X134796828Y-53990000D02*
G75*
G03*
X134796828Y-53990000I-1806828J0D01*
G01*
X134796828Y-65990000D02*
G75*
G03*
X134796828Y-65990000I-1806828J0D01*
G01*
D10*
X228990000Y-56990000D02*
X228990000Y-62990000D01*
X225990000Y-59990000D02*
X231990000Y-59990000D01*
X230990000Y-59990000D02*
G75*
G03*
X230990000Y-59990000I-2000000J0D01*
G01*
X217990000Y-70990000D02*
X217990000Y-48990000D01*
X239990000Y-48990000D02*
X239990000Y-70990000D01*
X239990000Y-48990000D02*
G75*
G03*
X217990000Y-48990000I-11000000J-11000000D01*
G01*
X217990000Y-70990000D02*
G75*
G03*
X239990000Y-70990000I11000000J11000000D01*
G01*
X172990000Y-56990000D02*
X172990000Y-62990000D01*
X169990000Y-59990000D02*
X175990000Y-59990000D01*
X174990000Y-59990000D02*
G75*
G03*
X174990000Y-59990000I-2000000J0D01*
G01*
X161990000Y-70990000D02*
X161990000Y-48990000D01*
X183990000Y-48990000D02*
X183990000Y-70990000D01*
X183990000Y-48990000D02*
G75*
G03*
X161990000Y-48990000I-11000000J-11000000D01*
G01*
X161990000Y-70990000D02*
G75*
G03*
X183990000Y-70990000I11000000J11000000D01*
G01*
X125532380Y-75174523D02*
X125532380Y-73904523D01*
X126258095Y-75174523D01*
X126258095Y-73904523D01*
X127407142Y-73904523D02*
X127165238Y-73904523D01*
X127044285Y-73965000D01*
X126983809Y-74025476D01*
X126862857Y-74206904D01*
X126802380Y-74448809D01*
X126802380Y-74932619D01*
X126862857Y-75053571D01*
X126923333Y-75114047D01*
X127044285Y-75174523D01*
X127286190Y-75174523D01*
X127407142Y-75114047D01*
X127467619Y-75053571D01*
X127528095Y-74932619D01*
X127528095Y-74630238D01*
X127467619Y-74509285D01*
X127407142Y-74448809D01*
X127286190Y-74388333D01*
X127044285Y-74388333D01*
X126923333Y-74448809D01*
X126862857Y-74509285D01*
X126802380Y-74630238D01*
X232852380Y-37209523D02*
X233566666Y-37209523D01*
X233709523Y-37257142D01*
X233804761Y-37352380D01*
X233852380Y-37495238D01*
X233852380Y-37590476D01*
X233852380Y-36209523D02*
X233852380Y-36780952D01*
X233852380Y-36495238D02*
X232852380Y-36495238D01*
X232995238Y-36590476D01*
X233090476Y-36685714D01*
X233138095Y-36780952D01*
X233852380Y-35257142D02*
X233852380Y-35828571D01*
X233852380Y-35542857D02*
X232852380Y-35542857D01*
X232995238Y-35638095D01*
X233090476Y-35733333D01*
X233138095Y-35828571D01*
X101632380Y-75074523D02*
X101632380Y-73804523D01*
X102358095Y-75074523D01*
X102358095Y-73804523D01*
X103567619Y-73804523D02*
X102962857Y-73804523D01*
X102902380Y-74409285D01*
X102962857Y-74348809D01*
X103083809Y-74288333D01*
X103386190Y-74288333D01*
X103507142Y-74348809D01*
X103567619Y-74409285D01*
X103628095Y-74530238D01*
X103628095Y-74832619D01*
X103567619Y-74953571D01*
X103507142Y-75014047D01*
X103386190Y-75074523D01*
X103083809Y-75074523D01*
X102962857Y-75014047D01*
X102902380Y-74953571D01*
X88052380Y-35909523D02*
X88766666Y-35909523D01*
X88909523Y-35957142D01*
X89004761Y-36052380D01*
X89052380Y-36195238D01*
X89052380Y-36290476D01*
X89052380Y-34909523D02*
X89052380Y-35480952D01*
X89052380Y-35195238D02*
X88052380Y-35195238D01*
X88195238Y-35290476D01*
X88290476Y-35385714D01*
X88338095Y-35480952D01*
X88147619Y-34528571D02*
X88100000Y-34480952D01*
X88052380Y-34385714D01*
X88052380Y-34147619D01*
X88100000Y-34052380D01*
X88147619Y-34004761D01*
X88242857Y-33957142D01*
X88338095Y-33957142D01*
X88480952Y-34004761D01*
X89052380Y-34576190D01*
X89052380Y-33957142D01*
X170577142Y-82557142D02*
X170529523Y-82604761D01*
X170386666Y-82652380D01*
X170291428Y-82652380D01*
X170148571Y-82604761D01*
X170053333Y-82509523D01*
X170005714Y-82414285D01*
X169958095Y-82223809D01*
X169958095Y-82080952D01*
X170005714Y-81890476D01*
X170053333Y-81795238D01*
X170148571Y-81700000D01*
X170291428Y-81652380D01*
X170386666Y-81652380D01*
X170529523Y-81700000D01*
X170577142Y-81747619D01*
X170910476Y-81652380D02*
X171529523Y-81652380D01*
X171196190Y-82033333D01*
X171339047Y-82033333D01*
X171434285Y-82080952D01*
X171481904Y-82128571D01*
X171529523Y-82223809D01*
X171529523Y-82461904D01*
X171481904Y-82557142D01*
X171434285Y-82604761D01*
X171339047Y-82652380D01*
X171053333Y-82652380D01*
X170958095Y-82604761D01*
X170910476Y-82557142D01*
X172434285Y-81652380D02*
X171958095Y-81652380D01*
X171910476Y-82128571D01*
X171958095Y-82080952D01*
X172053333Y-82033333D01*
X172291428Y-82033333D01*
X172386666Y-82080952D01*
X172434285Y-82128571D01*
X172481904Y-82223809D01*
X172481904Y-82461904D01*
X172434285Y-82557142D01*
X172386666Y-82604761D01*
X172291428Y-82652380D01*
X172053333Y-82652380D01*
X171958095Y-82604761D01*
X171910476Y-82557142D01*
X88152380Y-84609523D02*
X88866666Y-84609523D01*
X89009523Y-84657142D01*
X89104761Y-84752380D01*
X89152380Y-84895238D01*
X89152380Y-84990476D01*
X89152380Y-83609523D02*
X89152380Y-84180952D01*
X89152380Y-83895238D02*
X88152380Y-83895238D01*
X88295238Y-83990476D01*
X88390476Y-84085714D01*
X88438095Y-84180952D01*
X88152380Y-83276190D02*
X88152380Y-82657142D01*
X88533333Y-82990476D01*
X88533333Y-82847619D01*
X88580952Y-82752380D01*
X88628571Y-82704761D01*
X88723809Y-82657142D01*
X88961904Y-82657142D01*
X89057142Y-82704761D01*
X89104761Y-82752380D01*
X89152380Y-82847619D01*
X89152380Y-83133333D01*
X89104761Y-83228571D01*
X89057142Y-83276190D01*
X232952380Y-84509523D02*
X233666666Y-84509523D01*
X233809523Y-84557142D01*
X233904761Y-84652380D01*
X233952380Y-84795238D01*
X233952380Y-84890476D01*
X233952380Y-83509523D02*
X233952380Y-84080952D01*
X233952380Y-83795238D02*
X232952380Y-83795238D01*
X233095238Y-83890476D01*
X233190476Y-83985714D01*
X233238095Y-84080952D01*
X232952380Y-82890476D02*
X232952380Y-82795238D01*
X233000000Y-82700000D01*
X233047619Y-82652380D01*
X233142857Y-82604761D01*
X233333333Y-82557142D01*
X233571428Y-82557142D01*
X233761904Y-82604761D01*
X233857142Y-82652380D01*
X233904761Y-82700000D01*
X233952380Y-82795238D01*
X233952380Y-82890476D01*
X233904761Y-82985714D01*
X233857142Y-83033333D01*
X233761904Y-83080952D01*
X233571428Y-83128571D01*
X233333333Y-83128571D01*
X233142857Y-83080952D01*
X233047619Y-83033333D01*
X233000000Y-82985714D01*
X232952380Y-82890476D01*
X213532380Y-75074523D02*
X213532380Y-73804523D01*
X214258095Y-75074523D01*
X214258095Y-73804523D01*
X214923333Y-75074523D02*
X215165238Y-75074523D01*
X215286190Y-75014047D01*
X215346666Y-74953571D01*
X215467619Y-74772142D01*
X215528095Y-74530238D01*
X215528095Y-74046428D01*
X215467619Y-73925476D01*
X215407142Y-73865000D01*
X215286190Y-73804523D01*
X215044285Y-73804523D01*
X214923333Y-73865000D01*
X214862857Y-73925476D01*
X214802380Y-74046428D01*
X214802380Y-74348809D01*
X214862857Y-74469761D01*
X214923333Y-74530238D01*
X215044285Y-74590714D01*
X215286190Y-74590714D01*
X215407142Y-74530238D01*
X215467619Y-74469761D01*
X215528095Y-74348809D01*
X157232380Y-74974523D02*
X157232380Y-73704523D01*
X157958095Y-74974523D01*
X157958095Y-73704523D01*
X158441904Y-73704523D02*
X159288571Y-73704523D01*
X158744285Y-74974523D01*
D13*
X188032380Y-58274523D02*
X188032380Y-57004523D01*
X188758095Y-58274523D01*
X188758095Y-57004523D01*
X189241904Y-57004523D02*
X190028095Y-57004523D01*
X189604761Y-57488333D01*
X189786190Y-57488333D01*
X189907142Y-57548809D01*
X189967619Y-57609285D01*
X190028095Y-57730238D01*
X190028095Y-58032619D01*
X189967619Y-58153571D01*
X189907142Y-58214047D01*
X189786190Y-58274523D01*
X189423333Y-58274523D01*
X189302380Y-58214047D01*
X189241904Y-58153571D01*
X188022380Y-70564523D02*
X188022380Y-69294523D01*
X188748095Y-70564523D01*
X188748095Y-69294523D01*
X189897142Y-69717857D02*
X189897142Y-70564523D01*
X189594761Y-69234047D02*
X189292380Y-70141190D01*
X190078571Y-70141190D01*
X132022380Y-58364523D02*
X132022380Y-57094523D01*
X132748095Y-58364523D01*
X132748095Y-57094523D01*
X134018095Y-58364523D02*
X133292380Y-58364523D01*
X133655238Y-58364523D02*
X133655238Y-57094523D01*
X133534285Y-57275952D01*
X133413333Y-57396904D01*
X133292380Y-57457380D01*
X132002380Y-70314523D02*
X132002380Y-69044523D01*
X132728095Y-70314523D01*
X132728095Y-69044523D01*
X133272380Y-69165476D02*
X133332857Y-69105000D01*
X133453809Y-69044523D01*
X133756190Y-69044523D01*
X133877142Y-69105000D01*
X133937619Y-69165476D01*
X133998095Y-69286428D01*
X133998095Y-69407380D01*
X133937619Y-69588809D01*
X133211904Y-70314523D01*
X133998095Y-70314523D01*
X240027619Y-72774523D02*
X240027619Y-71504523D01*
X240753333Y-72774523D01*
X240753333Y-71504523D01*
X242023333Y-72774523D02*
X241297619Y-72774523D01*
X241660476Y-72774523D02*
X241660476Y-71504523D01*
X241539523Y-71685952D01*
X241418571Y-71806904D01*
X241297619Y-71867380D01*
X242809523Y-71504523D02*
X242930476Y-71504523D01*
X243051428Y-71565000D01*
X243111904Y-71625476D01*
X243172380Y-71746428D01*
X243232857Y-71988333D01*
X243232857Y-72290714D01*
X243172380Y-72532619D01*
X243111904Y-72653571D01*
X243051428Y-72714047D01*
X242930476Y-72774523D01*
X242809523Y-72774523D01*
X242688571Y-72714047D01*
X242628095Y-72653571D01*
X242567619Y-72532619D01*
X242507142Y-72290714D01*
X242507142Y-71988333D01*
X242567619Y-71746428D01*
X242628095Y-71625476D01*
X242688571Y-71565000D01*
X242809523Y-71504523D01*
X181622380Y-74964523D02*
X181622380Y-73694523D01*
X182348095Y-74964523D01*
X182348095Y-73694523D01*
X183134285Y-74238809D02*
X183013333Y-74178333D01*
X182952857Y-74117857D01*
X182892380Y-73996904D01*
X182892380Y-73936428D01*
X182952857Y-73815476D01*
X183013333Y-73755000D01*
X183134285Y-73694523D01*
X183376190Y-73694523D01*
X183497142Y-73755000D01*
X183557619Y-73815476D01*
X183618095Y-73936428D01*
X183618095Y-73996904D01*
X183557619Y-74117857D01*
X183497142Y-74178333D01*
X183376190Y-74238809D01*
X183134285Y-74238809D01*
X183013333Y-74299285D01*
X182952857Y-74359761D01*
X182892380Y-74480714D01*
X182892380Y-74722619D01*
X182952857Y-74843571D01*
X183013333Y-74904047D01*
X183134285Y-74964523D01*
X183376190Y-74964523D01*
X183497142Y-74904047D01*
X183557619Y-74843571D01*
X183618095Y-74722619D01*
X183618095Y-74480714D01*
X183557619Y-74359761D01*
X183497142Y-74299285D01*
X183376190Y-74238809D01*
M02*
