M48
; DRILL file {KiCad (5.1.7)-1} date 11/21/20 17:17:09
; FORMAT={-:-/ absolute / inch / decimal}
; #@! TF.CreationDate,2020-11-21T17:17:09+01:00
; #@! TF.GenerationSoftware,Kicad,Pcbnew,(5.1.7)-1
; #@! TF.FileFunction,Plated,1,2,PTH
FMAT,2
INCH
T1C0.0157
T2C0.0315
T3C0.0394
T4C0.0591
T5C0.0669
%
G90
G05
T1
X3.185Y-1.7795
X3.2165Y-2.9843
X3.2244Y-2.937
X3.2873Y-2.903
X3.311Y-2.0512
X3.311Y-2.1732
X3.311Y-2.315
X3.315Y-2.4488
X3.315Y-2.5827
X3.3268Y-2.9606
X3.3425Y-2.8661
X3.5Y-1.5472
X3.622Y-2.8543
X3.622Y-2.9252
X3.626Y-3.0
X3.8976Y-1.3307
X4.0Y-1.7008
X4.0118Y-2.6811
X4.0157Y-2.4094
X4.0197Y-2.5433
X4.0236Y-2.1378
X4.0236Y-2.2756
X4.0472Y-1.3661
X4.1053Y-1.5573
X4.1102Y-1.5945
X4.122Y-1.6575
X4.1465Y-1.259
X4.1496Y-1.3701
X4.1535Y-1.5935
X4.1928Y-1.5817
X4.2282Y-1.5696
X4.2323Y-2.0236
X4.248Y-2.4449
X4.248Y-2.5787
X4.252Y-2.189
X4.2598Y-2.311
X4.2992Y-1.5463
X4.3307Y-1.0118
X4.3307Y-1.0453
X4.3307Y-1.0787
X4.3307Y-1.1122
X4.3307Y-1.1457
X4.3307Y-1.1791
X4.3307Y-1.2126
X4.3307Y-1.2461
X4.3504Y-1.2717
X4.3839Y-1.2717
X4.4018Y-1.7801
X4.4145Y-1.6153
X4.4173Y-1.2717
X4.44Y-1.5879
X4.4508Y-1.2717
X4.4774Y-1.5888
X4.4843Y-1.2717
X4.4975Y-1.5572
X4.5177Y-1.2717
X4.5236Y-1.873
X4.5311Y-1.5409
X4.5472Y-1.5827
X4.5512Y-1.2717
X4.5551Y-1.8317
X4.5832Y-1.8564
X4.5846Y-1.2717
X4.5961Y-1.5495
X4.6024Y-1.7402
X4.6181Y-1.2717
X4.6348Y-1.7765
X4.6378Y-1.626
X4.6516Y-1.2717
X4.6617Y-1.8032
X4.685Y-1.2717
X4.6927Y-1.8258
X4.7185Y-1.2717
X4.752Y-1.2717
X4.7854Y-1.2717
X4.811Y-1.1181
X4.811Y-1.1516
X4.811Y-1.185
X4.811Y-1.2185
X4.811Y-1.252
X4.8465Y-1.0177
X4.8465Y-1.1063
X4.8661Y-1.4724
X4.878Y-1.1201
X4.9016Y-1.1437
X4.9035Y-1.0217
X4.9252Y-1.1673
X4.9291Y-1.0453
X4.9488Y-1.1909
X4.9528Y-1.0689
X4.9646Y-2.2756
X4.9646Y-2.4055
X4.9646Y-2.5394
X4.9685Y-2.1417
X4.9685Y-2.6732
X4.9724Y-1.2146
X4.9724Y-1.4646
X4.9724Y-1.6339
X4.9764Y-1.0925
X4.9961Y-1.2382
X5.0Y-1.1161
X5.0079Y-1.3329
X5.0236Y-3.563
X5.0254Y-1.6467
X5.0256Y-1.2579
X5.0276Y-3.3199
X5.0434Y-1.311
X5.0472Y-1.0984
X5.0596Y-1.5996
X5.0718Y-1.4876
X5.0827Y-1.0335
X5.0984Y-1.7077
X5.1181Y-3.563
X5.1299Y-1.6575
X5.1417Y-1.3937
X5.1649Y-1.7183
X5.1687Y-1.6781
X5.173Y-1.3613
X5.1772Y-1.4252
X5.2027Y-1.7153
X5.204Y-1.3303
X5.204Y-1.3923
X5.2087Y-1.5787
X5.2126Y-1.4567
X5.2154Y-1.7549
X5.235Y-1.2994
X5.235Y-1.3613
X5.235Y-1.4233
X5.2352Y-1.5523
X5.2362Y-1.4843
X5.2659Y-1.3303
X5.2659Y-1.3923
X5.2659Y-1.4542
X5.2766Y-2.4094
X5.2835Y-1.9685
X5.2969Y-1.3613
X5.2969Y-1.4233
X5.3268Y-1.25
X5.3279Y-1.3923
X5.3459Y-1.627
X5.3504Y-3.3346
X5.3602Y-1.5925
X5.3662Y-1.5183
X5.3669Y-1.5557
X5.4291Y-1.0315
X5.4961Y-2.1811
X5.5Y-2.0433
X5.5Y-2.315
X5.5Y-2.4488
X5.5Y-2.5827
X5.5157Y-3.626
X5.5748Y-1.1024
X5.6142Y-3.5276
X5.6299Y-3.6929
X5.6378Y-1.1378
X5.6693Y-3.3465
X5.6739Y-1.1975
X5.6772Y-1.0906
X5.7031Y-3.5898
X5.7031Y-3.6268
X5.7362Y-3.5898
X5.7362Y-3.6268
X5.8238Y-1.4839
X5.8346Y-3.5315
X5.8675Y-1.5777
X5.8701Y-1.3465
X5.874Y-3.374
X5.8976Y-1.4528
X5.9017Y-1.5459
X5.9055Y-1.1378
X5.9085Y-1.1804
X5.9222Y-1.4957
X5.9354Y-3.4461
X5.9409Y-3.5079
X5.9921Y-1.1378
X5.9961Y-1.1811
X6.0Y-1.2244
X6.0141Y-1.7346
X6.0182Y-1.5075
X6.0571Y-1.5102
X6.0945Y-1.5116
X6.1339Y-1.3937
X6.1339Y-1.4996
X6.2205Y-2.5394
X6.2205Y-2.6772
X6.2244Y-2.1378
X6.2283Y-2.2677
X6.2283Y-2.3976
X6.2717Y-1.311
X6.2756Y-1.7362
X6.2874Y-1.3898
X6.3012Y-1.575
X6.3228Y-1.2638
X6.3269Y-1.5474
X6.3504Y-1.374
X6.3507Y-1.5177
X6.3789Y-1.4921
X6.4173Y-1.122
X6.4173Y-1.5827
X6.4445Y-2.0396
X6.4567Y-2.1929
X6.4567Y-2.3228
X6.4603Y-2.4601
X6.4606Y-1.5433
X6.4646Y-2.5906
X6.5Y-1.374
X6.5236Y-1.748
X6.5307Y-1.5187
X6.5624Y-1.4987
X6.5945Y-1.3583
X6.5983Y-1.5091
X6.6347Y-1.5002
X6.6417Y-1.2323
X6.6691Y-1.5644
X6.6929Y-3.1457
X6.6966Y-1.5359
X6.7132Y-1.5023
X6.7402Y-1.4764
X6.7441Y-1.374
X6.7559Y-1.6634
X6.8386Y-3.1457
X6.8701Y-1.2835
X6.937Y-1.0709
X7.1732Y-2.2756
X7.1732Y-2.3976
X7.1772Y-2.1378
X7.185Y-2.5354
X7.185Y-2.6772
X7.2087Y-1.6181
X7.3346Y-3.6496
X7.4764Y-1.8622
X7.4803Y-2.4523
X7.6654Y-2.0079
X7.7008Y-2.4567
X7.7008Y-2.5906
X7.7047Y-2.311
X7.7087Y-2.189
X7.7343Y-1.5965
X8.123Y-1.445
X8.1457Y-1.6969
X8.1476Y-1.4786
X8.1546Y-1.5153
X8.189Y-1.5315
X8.2139Y-1.502
X8.2462Y-1.4831
X8.252Y-1.4462
X8.2677Y-1.3425
X8.3268Y-1.2205
X8.3701Y-1.3465
X8.378Y-1.4488
X8.3819Y-1.6929
X8.4016Y-1.5512
X8.4131Y-2.0076
X8.4163Y-2.0568
X8.4321Y-1.5157
X8.4331Y-2.4055
X8.437Y-2.5354
X8.4409Y-2.2756
X8.4409Y-2.6732
X8.4568Y-1.4789
X8.4724Y-2.0984
X8.4882Y-1.4587
X8.5315Y-1.5591
X8.5354Y-1.4547
X8.5591Y-1.2205
X8.5906Y-1.4016
X8.6102Y-1.2205
X8.6457Y-2.0315
X8.6535Y-2.5866
X8.6575Y-2.189
X8.6575Y-2.4606
X8.6607Y-2.3253
X8.6811Y-1.1693
X8.752Y-1.1811
X9.0906Y-1.4016
X9.2008Y-1.0787
X9.2835Y-1.0197
X9.3189Y-1.7402
X9.3268Y-1.6772
X9.3346Y-1.6181
X9.3819Y-2.2835
X9.3819Y-2.5394
X9.3819Y-2.6811
X9.3858Y-2.1299
X9.3898Y-1.1181
X9.3898Y-2.4055
X9.3937Y-1.5748
X9.3937Y-1.7441
X9.4606Y-1.0866
X9.5197Y-1.2874
X9.5945Y-1.3504
T2
X6.7583Y-3.3654
X6.7583Y-3.5031
X7.4406Y-2.0632
X7.4406Y-2.1881
X5.2358Y-2.0632
X5.2358Y-2.1881
X8.0728Y-3.4429
X8.0728Y-3.5413
X5.2358Y-2.5356
X5.2358Y-2.6605
X7.4406Y-2.5356
X7.4406Y-2.6605
T3
X3.5937Y-1.5315
X3.5937Y-1.6315
X3.6937Y-1.5315
X3.6937Y-1.6315
X3.7937Y-1.5315
X3.7937Y-1.6315
X3.8937Y-1.5315
X3.8937Y-1.6315
X3.9937Y-1.5315
X3.9937Y-1.6315
X3.5937Y-3.0921
X3.5937Y-3.1921
X3.6937Y-3.0921
X3.6937Y-3.1921
X3.7937Y-3.0921
X3.7937Y-3.1921
X3.8937Y-3.0921
X3.8937Y-3.1921
X3.9937Y-3.0921
X3.9937Y-3.1921
X8.6839Y-3.0925
X8.6839Y-3.1925
X8.7839Y-3.0925
X8.7839Y-3.1925
X8.8839Y-3.0925
X8.8839Y-3.1925
X8.9839Y-3.0925
X8.9839Y-3.1925
X9.0839Y-3.0925
X9.0839Y-3.1925
X8.6843Y-1.5319
X8.6843Y-1.6319
X8.7843Y-1.5319
X8.7843Y-1.6319
X8.8843Y-1.5319
X8.8843Y-1.6319
X8.9843Y-1.5319
X8.9843Y-1.6319
X9.0843Y-1.5319
X9.0843Y-1.6319
X3.374Y-3.2449
X3.374Y-3.4417
X9.3543Y-2.9646
X9.4528Y-2.9646
T4
X9.0154Y-2.7161
X4.6059Y-2.7161
X5.8657Y-2.7161
X6.8106Y-2.7161
X3.661Y-2.7161
X8.0705Y-2.7161
T5
X5.6394Y-2.1846
X5.6394Y-2.3618
X5.6394Y-2.539
X5.7083Y-2.0469
X5.7083Y-2.6768
X5.8657Y-2.0075
X6.0232Y-2.0469
X6.0232Y-2.6768
X6.0921Y-2.1846
X6.0921Y-2.3618
X6.0921Y-2.539
X6.5843Y-2.1846
X6.5843Y-2.3618
X6.5843Y-2.539
X6.6531Y-2.0469
X6.6531Y-2.6768
X6.8106Y-2.0075
X6.9681Y-2.0469
X6.9681Y-2.6768
X7.037Y-2.1846
X7.037Y-2.3618
X7.037Y-2.539
X3.4346Y-2.1846
X3.4346Y-2.3618
X3.4346Y-2.539
X3.5035Y-2.0469
X3.5035Y-2.6768
X3.661Y-2.0075
X3.8185Y-2.0469
X3.8185Y-2.6768
X3.8874Y-2.1846
X3.8874Y-2.3618
X3.8874Y-2.539
X7.8441Y-2.1846
X7.8441Y-2.3618
X7.8441Y-2.539
X7.913Y-2.0469
X7.913Y-2.6768
X8.0705Y-2.0075
X8.228Y-2.0469
X8.228Y-2.6768
X8.2969Y-2.1846
X8.2969Y-2.3618
X8.2969Y-2.539
X8.789Y-2.1846
X8.789Y-2.3618
X8.789Y-2.539
X8.8579Y-2.0469
X8.8579Y-2.6768
X9.0154Y-2.0075
X9.1728Y-2.0469
X9.1728Y-2.6768
X9.2417Y-2.1846
X9.2417Y-2.3618
X9.2417Y-2.539
X4.3795Y-2.1846
X4.3795Y-2.3618
X4.3795Y-2.539
X4.4484Y-2.0469
X4.4484Y-2.6768
X4.6059Y-2.0075
X4.7634Y-2.0469
X4.7634Y-2.6768
X4.8323Y-2.1846
X4.8323Y-2.3618
X4.8323Y-2.539
T0
M30
