G04 #@! TF.GenerationSoftware,KiCad,Pcbnew,(5.1.7)-1*
G04 #@! TF.CreationDate,2020-11-21T17:16:52+01:00*
G04 #@! TF.ProjectId,nixie_clock,6e697869-655f-4636-9c6f-636b2e6b6963,100A*
G04 #@! TF.SameCoordinates,Original*
G04 #@! TF.FileFunction,Soldermask,Top*
G04 #@! TF.FilePolarity,Negative*
%FSLAX46Y46*%
G04 Gerber Fmt 4.6, Leading zero omitted, Abs format (unit mm)*
G04 Created by KiCad (PCBNEW (5.1.7)-1) date 2020-11-21 17:16:52*
%MOMM*%
%LPD*%
G01*
G04 APERTURE LIST*
%ADD10C,2.240000*%
%ADD11O,1.940000X2.240000*%
%ADD12C,4.240000*%
%ADD13C,3.240000*%
%ADD14O,1.940000X1.940000*%
%ADD15C,1.230600*%
%ADD16C,1.840000*%
G04 APERTURE END LIST*
D10*
X85700000Y-82420000D03*
G36*
G01*
X86700000Y-88540000D02*
X84700000Y-88540000D01*
G75*
G02*
X84580000Y-88420000I0J120000D01*
G01*
X84580000Y-86420000D01*
G75*
G02*
X84700000Y-86300000I120000J0D01*
G01*
X86700000Y-86300000D01*
G75*
G02*
X86820000Y-86420000I0J-120000D01*
G01*
X86820000Y-88420000D01*
G75*
G02*
X86700000Y-88540000I-120000J0D01*
G01*
G37*
G36*
G01*
X236630000Y-76134706D02*
X236630000Y-74465294D01*
G75*
G02*
X236915294Y-74180000I285294J0D01*
G01*
X238284706Y-74180000D01*
G75*
G02*
X238570000Y-74465294I0J-285294D01*
G01*
X238570000Y-76134706D01*
G75*
G02*
X238284706Y-76420000I-285294J0D01*
G01*
X236915294Y-76420000D01*
G75*
G02*
X236630000Y-76134706I0J285294D01*
G01*
G37*
D11*
X240100000Y-75300000D03*
D12*
X116990000Y-59990000D03*
D13*
X116990000Y-68990000D03*
X120990000Y-67990000D03*
X122740000Y-59990000D03*
X122740000Y-55490000D03*
X120990000Y-51990000D03*
X116990000Y-50990000D03*
X112990000Y-51990000D03*
X111240000Y-55490000D03*
X111240000Y-59990000D03*
X111240000Y-64490000D03*
X112990000Y-67990000D03*
X122740000Y-64490000D03*
D14*
X220580000Y-38910000D03*
X220580000Y-41450000D03*
X223120000Y-38910000D03*
X223120000Y-41450000D03*
X225660000Y-38910000D03*
X225660000Y-41450000D03*
X228200000Y-38910000D03*
X228200000Y-41450000D03*
X230740000Y-38910000D03*
G36*
G01*
X229890000Y-40480000D02*
X231590000Y-40480000D01*
G75*
G02*
X231710000Y-40600000I0J-120000D01*
G01*
X231710000Y-42300000D01*
G75*
G02*
X231590000Y-42420000I-120000J0D01*
G01*
X229890000Y-42420000D01*
G75*
G02*
X229770000Y-42300000I0J120000D01*
G01*
X229770000Y-40600000D01*
G75*
G02*
X229890000Y-40480000I120000J0D01*
G01*
G37*
D12*
X92990000Y-59990000D03*
D13*
X92990000Y-68990000D03*
X96990000Y-67990000D03*
X98740000Y-59990000D03*
X98740000Y-55490000D03*
X96990000Y-51990000D03*
X92990000Y-50990000D03*
X88990000Y-51990000D03*
X87240000Y-55490000D03*
X87240000Y-59990000D03*
X87240000Y-64490000D03*
X88990000Y-67990000D03*
X98740000Y-64490000D03*
D15*
X127440000Y-35800000D03*
X122360000Y-36816000D03*
X122360000Y-34784000D03*
D14*
X91280000Y-38900000D03*
X91280000Y-41440000D03*
X93820000Y-38900000D03*
X93820000Y-41440000D03*
X96360000Y-38900000D03*
X96360000Y-41440000D03*
X98900000Y-38900000D03*
X98900000Y-41440000D03*
X101440000Y-38900000D03*
G36*
G01*
X100590000Y-40470000D02*
X102290000Y-40470000D01*
G75*
G02*
X102410000Y-40590000I0J-120000D01*
G01*
X102410000Y-42290000D01*
G75*
G02*
X102290000Y-42410000I-120000J0D01*
G01*
X100590000Y-42410000D01*
G75*
G02*
X100470000Y-42290000I0J120000D01*
G01*
X100470000Y-40590000D01*
G75*
G02*
X100590000Y-40470000I120000J0D01*
G01*
G37*
D16*
X171660000Y-88980000D03*
G36*
G01*
X170860000Y-84560000D02*
X172460000Y-84560000D01*
G75*
G02*
X172580000Y-84680000I0J-120000D01*
G01*
X172580000Y-86280000D01*
G75*
G02*
X172460000Y-86400000I-120000J0D01*
G01*
X170860000Y-86400000D01*
G75*
G02*
X170740000Y-86280000I0J120000D01*
G01*
X170740000Y-84680000D01*
G75*
G02*
X170860000Y-84560000I120000J0D01*
G01*
G37*
X205050000Y-89950000D03*
G36*
G01*
X204250000Y-86530000D02*
X205850000Y-86530000D01*
G75*
G02*
X205970000Y-86650000I0J-120000D01*
G01*
X205970000Y-88250000D01*
G75*
G02*
X205850000Y-88370000I-120000J0D01*
G01*
X204250000Y-88370000D01*
G75*
G02*
X204130000Y-88250000I0J120000D01*
G01*
X204130000Y-86650000D01*
G75*
G02*
X204250000Y-86530000I120000J0D01*
G01*
G37*
D14*
X101440000Y-81080000D03*
X101440000Y-78540000D03*
X98900000Y-81080000D03*
X98900000Y-78540000D03*
X96360000Y-81080000D03*
X96360000Y-78540000D03*
X93820000Y-81080000D03*
X93820000Y-78540000D03*
X91280000Y-81080000D03*
G36*
G01*
X92130000Y-79510000D02*
X90430000Y-79510000D01*
G75*
G02*
X90310000Y-79390000I0J120000D01*
G01*
X90310000Y-77690000D01*
G75*
G02*
X90430000Y-77570000I120000J0D01*
G01*
X92130000Y-77570000D01*
G75*
G02*
X92250000Y-77690000I0J-120000D01*
G01*
X92250000Y-79390000D01*
G75*
G02*
X92130000Y-79510000I-120000J0D01*
G01*
G37*
X230730000Y-81090000D03*
X230730000Y-78550000D03*
X228190000Y-81090000D03*
X228190000Y-78550000D03*
X225650000Y-81090000D03*
X225650000Y-78550000D03*
X223110000Y-81090000D03*
X223110000Y-78550000D03*
X220570000Y-81090000D03*
G36*
G01*
X221420000Y-79520000D02*
X219720000Y-79520000D01*
G75*
G02*
X219600000Y-79400000I0J120000D01*
G01*
X219600000Y-77700000D01*
G75*
G02*
X219720000Y-77580000I120000J0D01*
G01*
X221420000Y-77580000D01*
G75*
G02*
X221540000Y-77700000I0J-120000D01*
G01*
X221540000Y-79400000D01*
G75*
G02*
X221420000Y-79520000I-120000J0D01*
G01*
G37*
D12*
X204990000Y-59990000D03*
D13*
X204990000Y-68990000D03*
X208990000Y-67990000D03*
X210740000Y-59990000D03*
X210740000Y-55490000D03*
X208990000Y-51990000D03*
X204990000Y-50990000D03*
X200990000Y-51990000D03*
X199240000Y-55490000D03*
X199240000Y-59990000D03*
X199240000Y-64490000D03*
X200990000Y-67990000D03*
X210740000Y-64490000D03*
D12*
X148990000Y-59990000D03*
D13*
X148990000Y-68990000D03*
X152990000Y-67990000D03*
X154740000Y-59990000D03*
X154740000Y-55490000D03*
X152990000Y-51990000D03*
X148990000Y-50990000D03*
X144990000Y-51990000D03*
X143240000Y-55490000D03*
X143240000Y-59990000D03*
X143240000Y-64490000D03*
X144990000Y-67990000D03*
X154740000Y-64490000D03*
D16*
X188990000Y-52405040D03*
X188990000Y-55577500D03*
X188990000Y-64405040D03*
X188990000Y-67577500D03*
X132990000Y-52405040D03*
X132990000Y-55577500D03*
X132990000Y-64405040D03*
X132990000Y-67577500D03*
D12*
X228990000Y-59990000D03*
D13*
X228990000Y-68990000D03*
X232990000Y-67990000D03*
X234740000Y-59990000D03*
X234740000Y-55490000D03*
X232990000Y-51990000D03*
X228990000Y-50990000D03*
X224990000Y-51990000D03*
X223240000Y-55490000D03*
X223240000Y-59990000D03*
X223240000Y-64490000D03*
X224990000Y-67990000D03*
X234740000Y-64490000D03*
D12*
X172990000Y-59990000D03*
D13*
X172990000Y-68990000D03*
X176990000Y-67990000D03*
X178740000Y-59990000D03*
X178740000Y-55490000D03*
X176990000Y-51990000D03*
X172990000Y-50990000D03*
X168990000Y-51990000D03*
X167240000Y-55490000D03*
X167240000Y-59990000D03*
X167240000Y-64490000D03*
X168990000Y-67990000D03*
X178740000Y-64490000D03*
M02*
